<svg xmlns="http://www.w3.org/2000/svg" width="700" height="520" viewBox="0 0 700 520"><rect width="100%" height="100%" fill="white" /><path d="M 296.318 286.829 C 295.247 262.343 294.131 236.860 292.970 210.318" fill="none" stroke="black" stroke-width="1.8" stroke-linecap="butt" stroke-linejoin="round" stroke-dasharray="4 4" opacity="0.5" /><path d="M 197.793 263.244 C 218.432 270.156 240.532 277.558 264.254 285.503" fill="none" stroke="black" stroke-width="1.8" stroke-linecap="butt" stroke-linejoin="round" stroke-dasharray="4 4" opacity="0.5" /><path d="M 202.951 191.090 C 228.798 196.611 256.937 202.621 287.686 209.189" fill="none" stroke="black" stroke-width="1.8" stroke-linecap="butt" stroke-linejoin="round" stroke-dasharray="4 4" opacity="0.5" /><path d="M 218.532 278.259 C 207.058 283.111 201.143 289.378 201.685 295.219" fill="none" stroke="black" stroke-width="1.8" stroke-linecap="butt" stroke-linejoin="round" stroke-dasharray="4 4" opacity="0.5" /><path d="M 292.828 294.810 C 300.150 286.865 295.780 278.590 281.423 274.139 C 264.142 268.782 236.844 270.516 218.532 278.259" fill="none" stroke="black" stroke-width="1.8" stroke-linecap="butt" stroke-linejoin="round" stroke-dasharray="4 4" opacity="0.5" /><path d="M 192.310 191.283 C 191.239 191.542 190.185 191.866 189.151 192.253" fill="none" stroke="black" stroke-width="1.8" stroke-linecap="butt" stroke-linejoin="round" stroke-dasharray="4 4" opacity="0.5" /><path d="M 184.580 258.819 C 189.454 260.348 194.859 260.243 200.294 258.228 C 215.085 252.745 225.140 234.739 223.439 217.321 C 221.691 199.422 208.100 187.474 192.310 191.283" fill="none" stroke="black" stroke-width="1.8" stroke-linecap="butt" stroke-linejoin="round" stroke-dasharray="4 4" opacity="0.5" /><path d="M 218.532 278.259 C 218.137 278.431 217.743 278.603 217.347 278.774 C 216.964 278.951 216.579 279.127 216.194 279.304 C 215.822 279.485 215.449 279.666 215.075 279.847 C 214.715 280.033 214.353 280.218 213.991 280.405 C 213.643 280.594 213.294 280.784 212.944 280.975 C 212.608 281.169 212.271 281.363 211.934 281.558 C 211.611 281.755 211.287 281.954 210.963 282.152 C 210.654 282.354 210.344 282.556 210.033 282.759 C 209.738 282.964 209.442 283.170 209.145 283.376 C 208.864 283.585 208.583 283.794 208.301 284.004 C 208.035 284.216 207.768 284.428 207.501 284.641 C 207.250 284.856 206.999 285.071 206.747 285.287 C 206.512 285.505 206.277 285.723 206.041 285.942 C 205.822 286.162 205.602 286.383 205.382 286.604 C 205.180 286.827 204.977 287.050 204.774 287.273 C 204.589 287.498 204.403 287.723 204.217 287.949 C 204.048 288.175 203.880 288.402 203.711 288.630 C 203.561 288.858 203.410 289.086 203.259 289.315 C 203.126 289.545 202.993 289.774 202.860 290.005 C 202.746 290.235 202.632 290.466 202.517 290.697 C 202.422 290.928 202.326 291.160 202.230 291.392 C 202.153 291.624 202.077 291.856 202.000 292.088 C 201.942 292.320 201.885 292.552 201.827 292.785 C 201.789 293.017 201.751 293.249 201.713 293.482 C 201.695 293.713 201.676 293.945 201.658 294.177 C 201.660 294.407 201.661 294.638 201.663 294.870 C 201.683 295.080 201.702 295.290 201.722 295.501" fill="none" stroke="black" stroke-width="1.8" stroke-linecap="butt" stroke-linejoin="round" stroke-dasharray="4 4" opacity="0.5" /><path d="M 292.809 294.807 C 292.914 294.693 293.019 294.580 293.124 294.466 C 293.317 294.234 293.511 294.003 293.704 293.772 C 293.878 293.539 294.052 293.307 294.226 293.076 C 294.381 292.843 294.536 292.611 294.690 292.379 C 294.826 292.146 294.961 291.914 295.096 291.682 C 295.212 291.450 295.328 291.218 295.444 290.987 C 295.541 290.755 295.638 290.524 295.734 290.293 C 295.811 290.062 295.889 289.832 295.966 289.602 C 296.024 289.373 296.082 289.144 296.140 288.915 C 296.179 288.687 296.218 288.459 296.257 288.232 C 296.277 288.006 296.297 287.780 296.317 287.554 C 296.318 287.330 296.319 287.106 296.320 286.882 C 296.303 286.660 296.285 286.438 296.267 286.217 C 296.231 285.997 296.195 285.778 296.159 285.559 C 296.105 285.342 296.050 285.125 295.996 284.909 C 295.924 284.695 295.851 284.481 295.779 284.268 C 295.688 284.057 295.598 283.847 295.508 283.637 C 295.400 283.429 295.292 283.222 295.185 283.015 C 295.059 282.811 294.934 282.607 294.809 282.404 C 294.667 282.204 294.524 282.004 294.382 281.804 C 294.223 281.608 294.064 281.412 293.906 281.216 C 293.730 281.024 293.555 280.832 293.379 280.641 C 293.188 280.453 292.996 280.265 292.805 280.078 C 292.597 279.895 292.390 279.712 292.183 279.529 C 291.960 279.350 291.737 279.172 291.515 278.993 C 291.277 278.820 291.039 278.646 290.802 278.472 C 290.549 278.303 290.296 278.135 290.044 277.966 C 289.777 277.802 289.510 277.639 289.243 277.475 C 288.962 277.316 288.681 277.158 288.400 277.000 C 288.105 276.846 287.811 276.693 287.517 276.540 C 287.208 276.392 286.901 276.245 286.593 276.097 C 286.272 275.955 285.952 275.813 285.631 275.671 C 285.298 275.534 284.965 275.398 284.632 275.262 C 284.287 275.131 283.942 275.000 283.597 274.870 C 283.240 274.745 282.883 274.620 282.527 274.495 C 282.158 274.376 281.790 274.258 281.423 274.139 C 281.043 274.026 280.665 273.913 280.286 273.801 C 279.897 273.694 279.508 273.588 279.119 273.481 C 278.719 273.381 278.320 273.280 277.921 273.180 C 277.512 273.086 277.104 272.992 276.695 272.898 C 276.277 272.810 275.859 272.722 275.442 272.634 C 275.015 272.553 274.589 272.472 274.163 272.390 C 273.728 272.316 273.293 272.241 272.859 272.166 C 272.416 272.097 271.973 272.029 271.531 271.961 C 271.081 271.899 270.631 271.837 270.182 271.776 C 269.725 271.720 269.268 271.665 268.811 271.610 C 268.348 271.561 267.885 271.513 267.422 271.464 C 266.952 271.423 266.483 271.381 266.014 271.339 C 265.539 271.304 265.064 271.269 264.590 271.233 C 264.109 271.205 263.630 271.176 263.150 271.148 C 262.665 271.126 262.180 271.105 261.696 271.083 C 261.207 271.068 260.718 271.053 260.229 271.038 C 259.737 271.030 259.244 271.022 258.751 271.014 C 258.256 271.012 257.760 271.011 257.264 271.009 C 256.765 271.015 256.266 271.020 255.768 271.025 C 255.266 271.038 254.765 271.050 254.264 271.062 C 253.761 271.081 253.258 271.100 252.755 271.118 C 252.251 271.144 251.746 271.170 251.242 271.195 C 250.736 271.228 250.231 271.260 249.725 271.292 C 249.219 271.331 248.713 271.371 248.207 271.410 C 247.701 271.455 247.195 271.501 246.689 271.547 C 246.184 271.599 245.678 271.652 245.172 271.704 C 244.668 271.763 244.163 271.822 243.659 271.881 C 243.156 271.947 242.652 272.012 242.149 272.078 C 241.648 272.150 241.146 272.222 240.644 272.294 C 240.146 272.373 239.647 272.452 239.147 272.530 C 238.651 272.615 238.155 272.700 237.659 272.786 C 237.166 272.877 236.673 272.968 236.180 273.060 C 235.691 273.158 235.202 273.255 234.713 273.353 C 234.228 273.457 233.744 273.561 233.258 273.665 C 232.779 273.775 232.299 273.885 231.818 273.996 C 231.344 274.112 230.869 274.228 230.394 274.345 C 229.925 274.467 229.456 274.589 228.987 274.711 C 228.525 274.839 228.062 274.968 227.599 275.096 C 227.143 275.230 226.687 275.364 226.231 275.498 C 225.783 275.638 225.334 275.777 224.885 275.917 C 224.444 276.063 224.003 276.208 223.562 276.354 C 223.130 276.504 222.697 276.655 222.263 276.806 C 221.840 276.962 221.416 277.118 220.991 277.275 C 220.577 277.436 220.162 277.598 219.747 277.760 C 219.343 277.926 218.937 278.093 218.532 278.259" fill="none" stroke="black" stroke-width="1.8" stroke-linecap="butt" stroke-linejoin="round" stroke-dasharray="4 4" opacity="0.5" /><path d="M 192.310 191.283 C 191.968 191.373 191.626 191.463 191.283 191.553 C 190.942 191.657 190.600 191.762 190.258 191.867 C 189.919 191.986 189.578 192.105 189.238 192.224 C 189.209 192.235 189.180 192.247 189.152 192.258" fill="none" stroke="black" stroke-width="1.8" stroke-linecap="butt" stroke-linejoin="round" stroke-dasharray="4 4" opacity="0.5" /><path d="M 183.847 258.568 C 184.108 258.655 184.369 258.742 184.630 258.829 C 184.948 258.920 185.265 259.011 185.582 259.102 C 185.902 259.179 186.223 259.256 186.542 259.332 C 186.866 259.395 187.189 259.458 187.511 259.521 C 187.837 259.570 188.162 259.619 188.487 259.668 C 188.815 259.702 189.142 259.737 189.468 259.772 C 189.797 259.793 190.126 259.814 190.454 259.835 C 190.784 259.842 191.114 259.849 191.443 259.856 C 191.774 259.850 192.104 259.843 192.434 259.836 C 192.765 259.816 193.096 259.795 193.426 259.775 C 193.757 259.741 194.087 259.707 194.417 259.673 C 194.747 259.625 195.077 259.578 195.407 259.531 C 195.736 259.470 196.065 259.409 196.394 259.348 C 196.722 259.274 197.050 259.200 197.377 259.126 C 197.704 259.039 198.030 258.952 198.356 258.865 C 198.680 258.765 199.005 258.665 199.328 258.566 C 199.651 258.453 199.972 258.340 200.294 258.228 C 200.613 258.103 200.932 257.978 201.251 257.853 C 201.568 257.715 201.884 257.578 202.199 257.441 C 202.512 257.291 202.825 257.142 203.137 256.993 C 203.447 256.832 203.756 256.670 204.064 256.509 C 204.370 256.336 204.675 256.164 204.979 255.991 C 205.280 255.807 205.581 255.623 205.881 255.439 C 206.178 255.243 206.474 255.048 206.769 254.853 C 207.061 254.647 207.352 254.441 207.642 254.235 C 207.928 254.018 208.214 253.802 208.500 253.585 C 208.780 253.358 209.061 253.132 209.341 252.905 C 209.615 252.668 209.890 252.431 210.164 252.194 C 210.433 251.948 210.701 251.701 210.969 251.455 C 211.231 251.199 211.494 250.943 211.755 250.687 C 212.011 250.422 212.267 250.157 212.522 249.892 C 212.771 249.618 213.019 249.344 213.268 249.071 C 213.510 248.788 213.751 248.506 213.993 248.224 C 214.227 247.933 214.461 247.643 214.696 247.352 C 214.922 247.054 215.149 246.756 215.376 246.458 C 215.595 246.152 215.814 245.846 216.033 245.541 C 216.244 245.228 216.455 244.915 216.666 244.602 C 216.869 244.282 217.072 243.963 217.275 243.643 C 217.470 243.317 217.665 242.991 217.859 242.665 C 218.045 242.332 218.232 242.000 218.418 241.668 C 218.595 241.330 218.773 240.992 218.950 240.654 C 219.119 240.310 219.287 239.967 219.456 239.623 C 219.615 239.275 219.775 238.926 219.935 238.578 C 220.085 238.225 220.236 237.872 220.386 237.518 C 220.527 237.161 220.668 236.803 220.809 236.446 C 220.941 236.084 221.073 235.723 221.204 235.362 C 221.327 234.997 221.449 234.631 221.571 234.266 C 221.683 233.898 221.796 233.530 221.908 233.162 C 222.011 232.791 222.114 232.419 222.216 232.048 C 222.309 231.675 222.402 231.301 222.495 230.928 C 222.577 230.552 222.660 230.176 222.743 229.801 C 222.816 229.423 222.888 229.046 222.961 228.669 C 223.024 228.290 223.086 227.911 223.149 227.533 C 223.201 227.153 223.253 226.773 223.306 226.394 C 223.348 226.014 223.390 225.633 223.432 225.253 C 223.463 224.873 223.495 224.493 223.527 224.112 C 223.548 223.732 223.569 223.352 223.590 222.972 C 223.601 222.592 223.612 222.213 223.623 221.833 C 223.623 221.455 223.624 221.076 223.624 220.698 C 223.614 220.321 223.604 219.944 223.594 219.566 C 223.573 219.191 223.553 218.816 223.532 218.440 C 223.501 218.067 223.470 217.694 223.439 217.321 C 223.397 216.950 223.356 216.580 223.314 216.209 C 223.262 215.842 223.210 215.474 223.158 215.106 C 223.096 214.742 223.033 214.378 222.971 214.013 C 222.898 213.653 222.825 213.292 222.752 212.931 C 222.669 212.575 222.586 212.219 222.502 211.862 C 222.409 211.510 222.315 211.158 222.222 210.806 C 222.118 210.459 222.014 210.112 221.910 209.765 C 221.796 209.424 221.682 209.082 221.568 208.740 C 221.444 208.404 221.320 208.068 221.195 207.732 C 221.061 207.402 220.927 207.072 220.793 206.741 C 220.649 206.418 220.505 206.095 220.361 205.771 C 220.207 205.454 220.053 205.137 219.899 204.820 C 219.736 204.511 219.572 204.201 219.409 203.892 C 219.236 203.590 219.063 203.288 218.889 202.985 C 218.707 202.692 218.525 202.398 218.342 202.103 C 218.151 201.818 217.959 201.532 217.767 201.246 C 217.566 200.969 217.366 200.692 217.164 200.414 C 216.955 200.146 216.745 199.878 216.535 199.609 C 216.317 199.351 216.099 199.092 215.880 198.833 C 215.653 198.584 215.427 198.335 215.199 198.085 C 214.964 197.847 214.729 197.608 214.494 197.368 C 214.251 197.140 214.007 196.911 213.764 196.682 C 213.513 196.464 213.262 196.246 213.010 196.027 C 212.752 195.821 212.493 195.613 212.234 195.406 C 211.968 195.210 211.702 195.015 211.435 194.819 C 211.163 194.635 210.889 194.450 210.616 194.266 C 210.336 194.094 210.056 193.921 209.776 193.749 C 209.490 193.589 209.203 193.428 208.916 193.268 C 208.624 193.120 208.331 192.972 208.038 192.824 C 207.740 192.689 207.441 192.554 207.142 192.419 C 206.838 192.297 206.534 192.175 206.229 192.052 C 205.920 191.943 205.611 191.834 205.301 191.725 C 204.987 191.629 204.673 191.533 204.358 191.437 C 204.039 191.355 203.721 191.273 203.401 191.191 C 203.079 191.122 202.755 191.054 202.432 190.985 C 202.105 190.931 201.779 190.876 201.451 190.821 C 201.121 190.781 200.791 190.740 200.460 190.700 C 200.127 190.673 199.794 190.647 199.460 190.621 C 199.125 190.609 198.789 190.597 198.452 190.585 C 198.115 190.587 197.776 190.589 197.438 190.592 C 197.098 190.609 196.758 190.625 196.418 190.642 C 196.077 190.674 195.736 190.705 195.394 190.737 C 195.052 190.783 194.710 190.829 194.367 190.875 C 194.025 190.935 193.682 190.996 193.339 191.057 C 192.996 191.132 192.654 191.208 192.310 191.283" fill="none" stroke="black" stroke-width="1.8" stroke-linecap="butt" stroke-linejoin="round" stroke-dasharray="4 4" opacity="0.5" /><path d="M 252.119 225.486 C 251.720 227.927 251.322 230.359 250.925 232.782 C 250.430 233.939 249.935 235.093 249.440 236.246 C 248.925 237.146 248.411 238.046 247.897 238.945 C 247.372 239.713 246.847 240.481 246.323 241.248 C 245.792 241.932 245.261 242.614 244.731 243.297 C 244.196 243.919 243.662 244.540 243.127 245.161 C 242.591 245.735 242.054 246.309 241.518 246.882 C 240.980 247.417 240.442 247.951 239.905 248.486 C 239.368 248.987 238.830 249.488 238.292 249.989 C 237.756 250.460 237.220 250.932 236.683 251.404 C 236.148 251.848 235.613 252.293 235.078 252.738 C 234.546 253.158 234.014 253.578 233.481 253.999 C 232.953 254.395 232.423 254.792 231.894 255.190 C 231.369 255.564 230.844 255.939 230.318 256.314 C 229.798 256.668 229.277 257.021 228.756 257.375 C 228.241 257.708 227.726 258.040 227.210 258.373 C 226.700 258.685 226.191 258.998 225.680 259.310 C 225.178 259.602 224.675 259.894 224.171 260.187 C 223.675 260.458 223.179 260.730 222.682 261.002 C 222.194 261.254 221.706 261.505 221.217 261.757 C 220.737 261.988 220.257 262.220 219.776 262.451 C 219.306 262.662 218.835 262.873 218.363 263.084 C 217.902 263.274 217.440 263.464 216.977 263.654 C 216.527 263.823 216.075 263.992 215.623 264.161 C 215.182 264.309 214.742 264.456 214.300 264.604 C 213.871 264.729 213.441 264.855 213.011 264.980 C 212.594 265.083 212.176 265.186 211.758 265.289 C 211.353 265.369 210.948 265.449 210.542 265.529 C 210.150 265.585 209.758 265.641 209.365 265.697 C 208.987 265.728 208.608 265.759 208.228 265.790 C 207.864 265.796 207.499 265.801 207.134 265.807 C 206.785 265.786 206.434 265.765 206.083 265.743 C 205.749 265.694 205.414 265.645 205.078 265.595 C 204.759 265.517 204.439 265.438 204.119 265.359 C 203.816 265.248 203.512 265.138 203.208 265.027 C 202.921 264.883 202.633 264.739 202.345 264.594 C 202.075 264.414 201.804 264.233 201.532 264.051 C 201.278 263.830 201.024 263.609 200.768 263.386 C 200.531 263.120 200.293 262.853 200.055 262.585 C 199.834 262.266 199.612 261.947 199.390 261.626 C 199.185 261.245 198.979 260.863 198.772 260.479 C 198.581 260.020 198.390 259.559 198.197 259.097 C 198.018 258.533 197.838 257.967 197.657 257.399 C 197.483 256.678 197.309 255.955 197.134 255.228 C 196.949 254.215 196.765 253.197 196.579 252.175 C 196.249 249.750 195.916 247.309 195.582 244.852" fill="none" stroke="black" stroke-width="1.8" stroke-linecap="butt" stroke-linejoin="round" stroke-dasharray="4 4" opacity="0.5" /><path d="M 239.021 260.575 C 239.394 261.676 239.766 262.776 240.137 263.873" fill="none" stroke="black" stroke-width="1.8" stroke-linecap="butt" stroke-linejoin="round" stroke-dasharray="4 4" opacity="0.5" /><path d="M 263.455 285.208 C 263.988 285.394 264.520 285.580 265.052 285.766 C 265.701 285.952 266.349 286.138 266.996 286.324 C 267.629 286.466 268.260 286.608 268.891 286.750 C 269.506 286.850 270.121 286.950 270.734 287.049 C 271.332 287.108 271.929 287.166 272.524 287.225 C 273.103 287.244 273.682 287.262 274.258 287.281 C 274.818 287.260 275.377 287.240 275.934 287.220 C 276.474 287.161 277.013 287.103 277.550 287.044 C 278.069 286.948 278.587 286.853 279.103 286.757 C 279.601 286.625 280.097 286.493 280.592 286.361 C 281.068 286.193 281.542 286.025 282.015 285.858 C 282.468 285.655 282.920 285.452 283.371 285.250 C 283.800 285.012 284.229 284.775 284.657 284.539 C 285.063 284.268 285.468 283.997 285.872 283.727 C 286.254 283.423 286.636 283.119 287.016 282.816 C 287.374 282.479 287.731 282.143 288.087 281.807 C 288.420 281.438 288.752 281.070 289.083 280.702 C 289.391 280.301 289.698 279.901 290.005 279.502 C 290.287 279.070 290.569 278.639 290.851 278.208 C 291.108 277.745 291.364 277.283 291.620 276.821 C 291.851 276.327 292.082 275.834 292.312 275.341 C 292.518 274.816 292.722 274.291 292.927 273.767 C 293.106 273.211 293.285 272.655 293.464 272.100 C 293.617 271.510 293.769 270.922 293.922 270.335 C 294.049 269.713 294.175 269.092 294.302 268.472 C 294.402 267.815 294.502 267.159 294.602 266.504 C 294.676 265.810 294.750 265.117 294.824 264.425 C 294.872 263.690 294.919 262.957 294.966 262.224 C 294.987 261.443 295.008 260.663 295.028 259.884 C 295.022 259.048 295.016 258.214 295.009 257.380 C 294.976 256.477 294.942 255.574 294.908 254.672 C 294.846 253.676 294.784 252.680 294.722 251.686 C 294.630 250.549 294.537 249.413 294.445 248.277 C 294.316 246.871 294.188 245.466 294.060 244.061 C 293.848 241.315 293.636 238.564 293.424 235.809" fill="none" stroke="black" stroke-width="1.8" stroke-linecap="butt" stroke-linejoin="round" stroke-dasharray="4 4" opacity="0.5" /><path d="M 251.959 223.373 C 251.186 220.939 250.410 218.495 249.630 216.042 C 248.948 214.892 248.263 213.740 247.578 212.585 C 246.911 211.702 246.242 210.818 245.573 209.932 C 244.913 209.195 244.252 208.456 243.590 207.716 C 242.935 207.077 242.280 206.437 241.623 205.796 C 240.972 205.233 240.320 204.668 239.668 204.102 C 239.021 203.600 238.373 203.097 237.725 202.594 C 237.082 202.145 236.438 201.695 235.794 201.245 C 235.156 200.844 234.517 200.442 233.877 200.040 C 233.244 199.682 232.610 199.324 231.975 198.966 C 231.348 198.650 230.720 198.333 230.091 198.015 C 229.470 197.738 228.848 197.460 228.226 197.182 C 227.612 196.942 226.998 196.702 226.382 196.462 C 225.777 196.258 225.170 196.055 224.563 195.851 C 223.966 195.684 223.368 195.516 222.769 195.348 C 222.182 195.216 221.594 195.083 221.005 194.950 C 220.429 194.853 219.851 194.755 219.272 194.657 C 218.707 194.594 218.141 194.531 217.573 194.468 C 217.020 194.440 216.466 194.411 215.911 194.382 C 215.371 194.388 214.829 194.393 214.287 194.399 C 213.761 194.438 213.234 194.478 212.706 194.518 C 212.194 194.592 211.682 194.666 211.168 194.740 C 210.672 194.848 210.175 194.956 209.678 195.064 C 209.198 195.207 208.718 195.349 208.237 195.492 C 207.775 195.669 207.312 195.846 206.848 196.023 C 206.405 196.234 205.960 196.446 205.515 196.658 C 205.090 196.903 204.665 197.150 204.239 197.397 C 203.834 197.677 203.429 197.959 203.023 198.241 C 202.639 198.557 202.255 198.874 201.869 199.191 C 201.507 199.543 201.145 199.895 200.781 200.248 C 200.442 200.636 200.102 201.025 199.761 201.414 C 199.445 201.838 199.128 202.264 198.811 202.690 C 198.519 203.152 198.227 203.614 197.934 204.078 C 197.667 204.578 197.400 205.079 197.133 205.581 C 196.892 206.121 196.651 206.662 196.409 207.204 C 196.195 207.785 195.981 208.367 195.767 208.950 C 195.581 209.574 195.394 210.200 195.208 210.826 C 195.050 211.497 194.893 212.169 194.735 212.842 C 194.608 213.564 194.480 214.286 194.352 215.010 C 194.256 215.788 194.160 216.568 194.064 217.349 C 194.000 218.193 193.937 219.039 193.873 219.886 C 193.845 220.811 193.817 221.738 193.789 222.666 C 193.799 223.698 193.810 224.732 193.821 225.766 C 193.877 226.957 193.933 228.149 193.989 229.342 C 194.107 230.828 194.226 232.314 194.344 233.800 C 194.663 236.714 194.981 239.622 195.298 242.524" fill="none" stroke="black" stroke-width="1.8" stroke-linecap="butt" stroke-linejoin="round" stroke-dasharray="4 4" opacity="0.5" /><path d="M 287.039 209.101 C 287.145 209.114 287.252 209.127 287.358 209.140" fill="none" stroke="black" stroke-width="1.8" stroke-linecap="butt" stroke-linejoin="round" stroke-dasharray="4 4" opacity="0.5" /><path d="M 287.620 209.182 C 287.893 209.247 288.165 209.312 288.436 209.377 C 288.709 209.480 288.982 209.582 289.253 209.684 C 289.501 209.818 289.749 209.953 289.995 210.086 C 290.218 210.254 290.441 210.420 290.662 210.587 C 290.860 210.788 291.057 210.988 291.254 211.188 C 291.427 211.425 291.599 211.661 291.771 211.896 C 291.919 212.169 292.066 212.442 292.213 212.714 C 292.336 213.028 292.459 213.341 292.581 213.653 C 292.680 214.011 292.779 214.368 292.877 214.724 C 292.952 215.132 293.027 215.538 293.102 215.944 C 293.153 216.410 293.205 216.876 293.257 217.339 C 293.286 217.879 293.316 218.417 293.345 218.952 C 293.354 219.589 293.363 220.224 293.372 220.857 C 293.362 221.640 293.353 222.421 293.344 223.198 C 293.322 224.258 293.301 225.313 293.280 226.363 C 293.295 228.784 293.310 231.189 293.325 233.580" fill="none" stroke="black" stroke-width="1.8" stroke-linecap="butt" stroke-linejoin="round" stroke-dasharray="4 4" opacity="0.5" /><path d="M 292.970 210.318 C 291.980 187.699 290.955 164.281 289.894 140.021" fill="none" stroke="black" stroke-width="1.8" stroke-linecap="butt" stroke-linejoin="round" /><path d="M 201.711 295.430 C 196.016 248.647 189.866 198.128 183.205 143.406" fill="none" stroke="black" stroke-width="1.8" stroke-linecap="butt" stroke-linejoin="round" /><path d="M 184.143 258.672 C 188.624 260.173 193.173 261.697 197.793 263.244" fill="none" stroke="black" stroke-width="1.8" stroke-linecap="butt" stroke-linejoin="round" /><path d="M 264.254 285.503 C 272.652 288.316 281.263 291.200 290.096 294.158" fill="none" stroke="black" stroke-width="1.8" stroke-linecap="butt" stroke-linejoin="round" /><path d="M 287.686 209.189 C 295.610 210.882 303.718 212.614 312.016 214.386" fill="none" stroke="black" stroke-width="1.8" stroke-linecap="butt" stroke-linejoin="round" /><path d="M 201.685 295.219 C 202.077 299.440 205.841 303.412 213.269 306.354 C 232.213 313.859 265.148 311.338 284.231 301.112 C 287.981 299.103 290.836 296.971 292.828 294.810" fill="none" stroke="black" stroke-width="1.8" stroke-linecap="butt" stroke-linejoin="round" /><path d="M 203.464 136.679 C 180.741 139.930 175.767 144.932 195.305 147.750 C 216.201 150.764 253.744 149.749 275.799 145.659 C 295.911 141.930 293.798 137.269 273.729 135.082 C 254.778 133.017 224.389 133.685 203.464 136.679" fill="none" stroke="black" stroke-width="1.8" stroke-linecap="butt" stroke-linejoin="round" /><path d="M 189.151 192.253 C 174.039 197.913 163.703 216.504 166.339 234.860 C 168.120 247.259 175.394 255.936 184.580 258.819" fill="none" stroke="black" stroke-width="1.8" stroke-linecap="butt" stroke-linejoin="round" /><path d="M 302.182 215.205 C 286.280 220.905 273.652 245.007 275.028 267.873 C 276.355 289.929 290.194 300.317 305.021 292.292 C 318.886 284.787 329.221 263.387 328.891 243.507 C 328.550 222.984 316.989 209.896 302.182 215.205" fill="none" stroke="black" stroke-width="1.8" stroke-linecap="butt" stroke-linejoin="round" /><path d="M 201.722 295.501 C 201.724 295.520 201.726 295.540 201.728 295.560 C 201.770 295.788 201.812 296.016 201.853 296.245 C 201.916 296.472 201.978 296.699 202.040 296.926 C 202.123 297.151 202.206 297.376 202.288 297.601 C 202.391 297.823 202.495 298.046 202.598 298.269 C 202.722 298.489 202.845 298.709 202.969 298.929 C 203.113 299.146 203.258 299.363 203.402 299.581 C 203.567 299.794 203.732 300.008 203.897 300.222 C 204.082 300.432 204.267 300.642 204.453 300.853 C 204.658 301.059 204.864 301.265 205.070 301.471 C 205.295 301.673 205.521 301.875 205.747 302.078 C 205.993 302.275 206.239 302.472 206.485 302.670 C 206.751 302.862 207.016 303.055 207.283 303.248 C 207.567 303.435 207.853 303.622 208.139 303.810 C 208.443 303.991 208.748 304.173 209.053 304.355 C 209.376 304.531 209.700 304.707 210.024 304.883 C 210.366 305.053 210.708 305.223 211.051 305.393 C 211.411 305.557 211.772 305.720 212.133 305.884 C 212.511 306.041 212.890 306.197 213.269 306.354 C 213.664 306.504 214.060 306.654 214.456 306.804 C 214.869 306.947 215.281 307.089 215.695 307.232 C 216.123 307.367 216.552 307.502 216.982 307.638 C 217.426 307.765 217.871 307.893 218.317 308.020 C 218.776 308.140 219.236 308.259 219.697 308.379 C 220.171 308.490 220.646 308.602 221.121 308.713 C 221.609 308.816 222.097 308.919 222.586 309.022 C 223.088 309.117 223.589 309.211 224.091 309.306 C 224.605 309.391 225.119 309.477 225.634 309.563 C 226.159 309.640 226.685 309.717 227.211 309.794 C 227.747 309.861 228.284 309.929 228.821 309.997 C 229.368 310.056 229.914 310.114 230.461 310.173 C 231.017 310.222 231.573 310.272 232.130 310.321 C 232.694 310.361 233.258 310.401 233.823 310.441 C 234.395 310.472 234.967 310.502 235.539 310.533 C 236.118 310.554 236.697 310.575 237.275 310.596 C 237.860 310.608 238.444 310.619 239.029 310.631 C 239.618 310.633 240.207 310.635 240.797 310.637 C 241.390 310.629 241.983 310.622 242.576 310.614 C 243.173 310.597 243.769 310.580 244.365 310.563 C 244.964 310.536 245.562 310.510 246.160 310.483 C 246.760 310.447 247.359 310.411 247.959 310.375 C 248.559 310.329 249.158 310.284 249.758 310.238 C 250.357 310.183 250.956 310.129 251.555 310.074 C 252.152 310.010 252.749 309.946 253.346 309.882 C 253.941 309.809 254.536 309.735 255.131 309.662 C 255.722 309.580 256.313 309.498 256.904 309.416 C 257.491 309.325 258.078 309.234 258.665 309.144 C 259.247 309.044 259.828 308.945 260.409 308.845 C 260.985 308.737 261.560 308.629 262.135 308.521 C 262.704 308.405 263.272 308.289 263.840 308.173 C 264.401 308.049 264.962 307.924 265.522 307.800 C 266.074 307.668 266.626 307.536 267.177 307.404 C 267.720 307.264 268.263 307.125 268.804 306.985 C 269.337 306.838 269.869 306.691 270.401 306.545 C 270.923 306.390 271.444 306.236 271.964 306.083 C 272.475 305.922 272.984 305.761 273.493 305.600 C 273.991 305.433 274.488 305.265 274.984 305.098 C 275.469 304.925 275.953 304.751 276.437 304.578 C 276.908 304.398 277.378 304.219 277.848 304.039 C 278.305 303.854 278.761 303.669 279.216 303.484 C 279.659 303.293 280.100 303.103 280.541 302.913 C 280.967 302.717 281.393 302.521 281.819 302.326 C 282.230 302.126 282.640 301.926 283.049 301.726 C 283.444 301.521 283.838 301.316 284.231 301.112 C 284.609 300.903 284.986 300.695 285.363 300.486 C 285.723 300.274 286.083 300.061 286.443 299.849 C 286.786 299.633 287.129 299.417 287.471 299.202 C 287.796 298.983 288.121 298.764 288.445 298.546 C 288.752 298.324 289.058 298.102 289.365 297.881 C 289.653 297.656 289.941 297.432 290.229 297.209 C 290.499 296.982 290.769 296.756 291.038 296.530 C 291.289 296.302 291.540 296.074 291.790 295.846 C 292.022 295.616 292.254 295.387 292.486 295.158 C 292.594 295.041 292.701 294.924 292.809 294.807" fill="none" stroke="black" stroke-width="1.8" stroke-linecap="butt" stroke-linejoin="round" /><path d="M 203.464 136.679 C 203.011 136.745 202.558 136.812 202.103 136.879 C 201.662 136.947 201.220 137.016 200.777 137.084 C 200.347 137.155 199.917 137.225 199.486 137.296 C 199.068 137.368 198.650 137.440 198.232 137.512 C 197.827 137.586 197.422 137.660 197.016 137.734 C 196.626 137.810 196.234 137.885 195.842 137.961 C 195.465 138.038 195.088 138.116 194.709 138.193 C 194.347 138.272 193.984 138.351 193.621 138.430 C 193.273 138.510 192.926 138.590 192.577 138.670 C 192.246 138.752 191.913 138.834 191.581 138.915 C 191.265 138.998 190.949 139.081 190.633 139.164 C 190.334 139.248 190.035 139.333 189.735 139.417 C 189.453 139.502 189.171 139.588 188.888 139.673 C 188.624 139.760 188.360 139.846 188.095 139.933 C 187.849 140.020 187.603 140.107 187.356 140.195 C 187.129 140.283 186.902 140.371 186.673 140.460 C 186.465 140.548 186.257 140.638 186.048 140.727 C 185.859 140.816 185.670 140.906 185.481 140.996 C 185.312 141.086 185.143 141.176 184.974 141.267 C 184.826 141.358 184.677 141.448 184.528 141.539 C 184.401 141.630 184.273 141.721 184.145 141.813 C 184.039 141.904 183.932 141.995 183.825 142.087 C 183.740 142.178 183.655 142.270 183.570 142.362 C 183.506 142.453 183.443 142.544 183.380 142.636 C 183.339 142.727 183.298 142.819 183.256 142.911 C 183.238 143.002 183.219 143.093 183.200 143.184 C 183.204 143.275 183.208 143.366 183.212 143.457 C 183.239 143.547 183.266 143.638 183.293 143.728 C 183.342 143.818 183.392 143.908 183.442 143.998 C 183.515 144.087 183.589 144.176 183.662 144.265 C 183.758 144.353 183.855 144.442 183.951 144.530 C 184.071 144.617 184.191 144.704 184.311 144.792 C 184.455 144.878 184.598 144.964 184.742 145.050 C 184.909 145.135 185.076 145.220 185.243 145.305 C 185.433 145.389 185.624 145.472 185.815 145.556 C 186.028 145.638 186.242 145.720 186.457 145.802 C 186.693 145.882 186.931 145.963 187.169 146.043 C 187.429 146.122 187.689 146.200 187.950 146.279 C 188.233 146.356 188.517 146.433 188.801 146.510 C 189.106 146.584 189.413 146.659 189.720 146.734 C 190.048 146.806 190.377 146.879 190.706 146.951 C 191.056 147.022 191.407 147.092 191.759 147.162 C 192.131 147.230 192.504 147.298 192.877 147.366 C 193.271 147.431 193.665 147.497 194.060 147.562 C 194.474 147.625 194.889 147.687 195.305 147.750 C 195.740 147.810 196.176 147.870 196.612 147.930 C 197.067 147.987 197.522 148.044 197.978 148.101 C 198.453 148.156 198.927 148.210 199.403 148.264 C 199.896 148.315 200.389 148.366 200.883 148.417 C 201.394 148.465 201.906 148.513 202.418 148.561 C 202.946 148.606 203.475 148.650 204.004 148.695 C 204.549 148.736 205.095 148.778 205.641 148.819 C 206.201 148.857 206.762 148.895 207.324 148.933 C 207.900 148.967 208.476 149.001 209.052 149.036 C 209.642 149.067 210.232 149.098 210.823 149.128 C 211.426 149.156 212.029 149.183 212.633 149.210 C 213.248 149.234 213.864 149.257 214.480 149.281 C 215.106 149.301 215.733 149.320 216.360 149.340 C 216.997 149.356 217.634 149.372 218.272 149.389 C 218.918 149.401 219.564 149.413 220.211 149.425 C 220.866 149.434 221.520 149.442 222.175 149.451 C 222.837 149.455 223.499 149.460 224.161 149.465 C 224.829 149.466 225.498 149.466 226.166 149.467 C 226.839 149.464 227.512 149.461 228.185 149.458 C 228.863 149.451 229.540 149.444 230.217 149.437 C 230.897 149.427 231.578 149.416 232.258 149.405 C 232.940 149.391 233.622 149.376 234.304 149.362 C 234.987 149.344 235.669 149.325 236.352 149.307 C 237.034 149.285 237.717 149.263 238.399 149.241 C 239.080 149.215 239.761 149.189 240.441 149.164 C 241.120 149.134 241.798 149.105 242.476 149.076 C 243.151 149.043 243.826 149.010 244.500 148.977 C 245.171 148.940 245.841 148.904 246.510 148.868 C 247.175 148.828 247.840 148.788 248.503 148.748 C 249.162 148.705 249.819 148.661 250.476 148.618 C 251.127 148.571 251.777 148.525 252.426 148.478 C 253.068 148.428 253.709 148.379 254.349 148.329 C 254.981 148.276 255.613 148.223 256.243 148.170 C 256.865 148.114 257.486 148.058 258.106 148.003 C 258.716 147.944 259.325 147.885 259.934 147.826 C 260.532 147.765 261.129 147.703 261.725 147.641 C 262.310 147.577 262.893 147.513 263.476 147.449 C 264.047 147.382 264.617 147.315 265.186 147.248 C 265.742 147.179 266.297 147.109 266.851 147.040 C 267.391 146.968 267.931 146.897 268.470 146.825 C 268.994 146.751 269.517 146.677 270.040 146.604 C 270.547 146.528 271.054 146.452 271.560 146.376 C 272.050 146.298 272.539 146.220 273.027 146.142 C 273.499 146.063 273.971 145.983 274.441 145.903 C 274.894 145.822 275.347 145.740 275.799 145.659 C 276.233 145.576 276.667 145.493 277.100 145.410 C 277.515 145.326 277.929 145.241 278.342 145.157 C 278.738 145.071 279.132 144.986 279.525 144.900 C 279.900 144.813 280.274 144.726 280.648 144.640 C 281.002 144.552 281.355 144.464 281.708 144.376 C 282.042 144.287 282.374 144.198 282.706 144.110 C 283.018 144.020 283.330 143.930 283.641 143.841 C 283.931 143.751 284.222 143.660 284.511 143.570 C 284.780 143.479 285.049 143.389 285.317 143.298 C 285.565 143.207 285.812 143.116 286.058 143.025 C 286.284 142.933 286.509 142.842 286.734 142.751 C 286.938 142.659 287.141 142.567 287.344 142.476 C 287.526 142.384 287.707 142.293 287.889 142.201 C 288.048 142.110 288.208 142.018 288.367 141.927 C 288.505 141.836 288.643 141.744 288.780 141.653 C 288.897 141.562 289.012 141.471 289.128 141.380 C 289.222 141.290 289.316 141.199 289.410 141.109 C 289.483 141.019 289.555 140.929 289.628 140.839 C 289.679 140.749 289.730 140.660 289.781 140.571 C 289.810 140.482 289.840 140.393 289.869 140.305 C 289.878 140.217 289.886 140.129 289.895 140.042 C 289.882 139.955 289.869 139.868 289.857 139.781 C 289.823 139.695 289.790 139.609 289.757 139.524 C 289.703 139.439 289.649 139.354 289.595 139.269 C 289.521 139.186 289.446 139.102 289.372 139.019 C 289.278 138.936 289.184 138.854 289.090 138.772 C 288.976 138.691 288.862 138.610 288.748 138.529 C 288.615 138.450 288.482 138.370 288.349 138.291 C 288.196 138.213 288.044 138.135 287.892 138.057 C 287.721 137.981 287.550 137.905 287.379 137.828 C 287.189 137.754 287.000 137.679 286.811 137.604 C 286.603 137.531 286.396 137.458 286.189 137.385 C 285.963 137.314 285.738 137.243 285.514 137.172 C 285.271 137.102 285.029 137.033 284.787 136.964 C 284.527 136.896 284.268 136.829 284.009 136.761 C 283.733 136.696 283.458 136.630 283.183 136.565 C 282.891 136.501 282.599 136.438 282.308 136.374 C 282.000 136.313 281.693 136.251 281.386 136.190 C 281.063 136.130 280.740 136.071 280.419 136.012 C 280.081 135.954 279.743 135.897 279.407 135.840 C 279.055 135.785 278.703 135.730 278.352 135.675 C 277.986 135.622 277.620 135.569 277.255 135.517 C 276.876 135.466 276.497 135.415 276.118 135.365 C 275.726 135.317 275.334 135.268 274.942 135.220 C 274.537 135.174 274.133 135.128 273.729 135.082 C 273.312 135.039 272.895 134.995 272.479 134.952 C 272.050 134.910 271.622 134.869 271.194 134.828 C 270.754 134.789 270.314 134.751 269.875 134.712 C 269.424 134.675 268.974 134.639 268.524 134.603 C 268.063 134.569 267.603 134.535 267.143 134.501 C 266.672 134.470 266.202 134.438 265.732 134.407 C 265.252 134.378 264.772 134.349 264.293 134.320 C 263.804 134.294 263.316 134.268 262.828 134.241 C 262.330 134.218 261.834 134.194 261.337 134.170 C 260.832 134.149 260.327 134.127 259.823 134.106 C 259.310 134.087 258.798 134.069 258.286 134.050 C 257.767 134.034 257.248 134.018 256.729 134.002 C 256.203 133.988 255.678 133.974 255.152 133.961 C 254.620 133.950 254.089 133.939 253.558 133.928 C 253.020 133.920 252.483 133.911 251.946 133.903 C 251.404 133.897 250.862 133.891 250.320 133.886 C 249.774 133.883 249.227 133.879 248.681 133.876 C 248.130 133.876 247.580 133.875 247.029 133.875 C 246.475 133.877 245.921 133.879 245.367 133.881 C 244.810 133.885 244.253 133.890 243.695 133.895 C 243.136 133.902 242.576 133.909 242.017 133.917 C 241.455 133.926 240.893 133.936 240.332 133.946 C 239.769 133.959 239.205 133.971 238.642 133.984 C 238.078 133.999 237.514 134.014 236.949 134.029 C 236.385 134.046 235.820 134.064 235.255 134.082 C 234.691 134.102 234.126 134.122 233.561 134.142 C 232.997 134.165 232.433 134.188 231.868 134.211 C 231.305 134.236 230.742 134.261 230.179 134.287 C 229.617 134.314 229.056 134.342 228.494 134.370 C 227.934 134.400 227.375 134.431 226.815 134.461 C 226.258 134.494 225.701 134.527 225.144 134.560 C 224.590 134.595 224.036 134.630 223.482 134.665 C 222.932 134.703 222.382 134.741 221.831 134.779 C 221.286 134.819 220.740 134.859 220.193 134.899 C 219.652 134.942 219.111 134.984 218.569 135.027 C 218.033 135.072 217.497 135.117 216.961 135.162 C 216.431 135.209 215.901 135.256 215.370 135.304 C 214.846 135.353 214.322 135.403 213.798 135.453 C 213.281 135.504 212.764 135.556 212.246 135.608 C 211.737 135.662 211.228 135.716 210.717 135.770 C 210.216 135.827 209.715 135.883 209.212 135.939 C 208.720 135.998 208.227 136.056 207.733 136.115 C 207.249 136.175 206.765 136.236 206.280 136.297 C 205.807 136.359 205.332 136.422 204.857 136.485 C 204.393 136.549 203.929 136.614 203.464 136.679" fill="none" stroke="black" stroke-width="1.8" stroke-linecap="butt" stroke-linejoin="round" /><path d="M 189.152 192.258 C 188.842 192.380 188.532 192.502 188.222 192.625 C 187.887 192.773 187.550 192.921 187.214 193.069 C 186.881 193.231 186.547 193.393 186.213 193.555 C 185.883 193.731 185.553 193.908 185.222 194.084 C 184.896 194.274 184.569 194.464 184.242 194.655 C 183.920 194.858 183.597 195.062 183.274 195.266 C 182.957 195.483 182.639 195.701 182.320 195.918 C 182.008 196.149 181.695 196.380 181.382 196.611 C 181.074 196.854 180.767 197.098 180.459 197.342 C 180.158 197.598 179.856 197.854 179.554 198.111 C 179.260 198.379 178.964 198.648 178.669 198.917 C 178.381 199.198 178.092 199.479 177.804 199.760 C 177.523 200.053 177.242 200.345 176.961 200.638 C 176.687 200.942 176.414 201.246 176.140 201.550 C 175.875 201.865 175.610 202.180 175.344 202.495 C 175.088 202.821 174.831 203.146 174.574 203.472 C 174.326 203.808 174.078 204.143 173.830 204.479 C 173.592 204.824 173.353 205.170 173.114 205.515 C 172.885 205.870 172.656 206.224 172.427 206.579 C 172.208 206.942 171.989 207.306 171.770 207.669 C 171.561 208.041 171.352 208.412 171.143 208.784 C 170.945 209.163 170.747 209.542 170.549 209.922 C 170.362 210.308 170.175 210.694 169.987 211.081 C 169.811 211.474 169.635 211.867 169.459 212.260 C 169.295 212.659 169.130 213.058 168.966 213.457 C 168.813 213.862 168.660 214.266 168.508 214.671 C 168.367 215.081 168.226 215.490 168.085 215.900 C 167.957 216.313 167.828 216.727 167.700 217.141 C 167.583 217.559 167.467 217.976 167.351 218.394 C 167.247 218.814 167.143 219.235 167.040 219.656 C 166.949 220.079 166.858 220.502 166.767 220.925 C 166.689 221.350 166.610 221.776 166.532 222.201 C 166.467 222.627 166.402 223.053 166.337 223.480 C 166.284 223.907 166.232 224.334 166.180 224.761 C 166.141 225.188 166.101 225.615 166.062 226.042 C 166.036 226.469 166.010 226.895 165.984 227.321 C 165.971 227.747 165.958 228.172 165.945 228.597 C 165.945 229.021 165.946 229.445 165.946 229.868 C 165.959 230.289 165.972 230.710 165.986 231.131 C 166.012 231.550 166.038 231.968 166.065 232.386 C 166.104 232.800 166.143 233.215 166.182 233.629 C 166.235 234.040 166.287 234.450 166.339 234.860 C 166.404 235.266 166.469 235.672 166.534 236.077 C 166.612 236.478 166.689 236.878 166.767 237.278 C 166.857 237.673 166.947 238.068 167.037 238.462 C 167.140 238.850 167.242 239.238 167.345 239.626 C 167.460 240.007 167.574 240.389 167.689 240.769 C 167.815 241.144 167.942 241.517 168.068 241.891 C 168.207 242.257 168.345 242.623 168.483 242.988 C 168.633 243.346 168.783 243.703 168.932 244.061 C 169.094 244.409 169.255 244.758 169.415 245.106 C 169.587 245.446 169.759 245.785 169.931 246.124 C 170.114 246.454 170.296 246.784 170.479 247.113 C 170.672 247.433 170.865 247.752 171.058 248.071 C 171.261 248.381 171.464 248.690 171.667 248.998 C 171.880 249.297 172.092 249.595 172.305 249.892 C 172.527 250.179 172.749 250.466 172.971 250.753 C 173.203 251.028 173.434 251.304 173.665 251.579 C 173.905 251.843 174.145 252.106 174.384 252.369 C 174.633 252.621 174.881 252.872 175.129 253.123 C 175.385 253.362 175.641 253.601 175.897 253.840 C 176.161 254.066 176.424 254.293 176.688 254.518 C 176.959 254.732 177.230 254.946 177.500 255.159 C 177.778 255.359 178.056 255.559 178.333 255.760 C 178.617 255.947 178.901 256.134 179.185 256.321 C 179.475 256.495 179.765 256.668 180.055 256.842 C 180.351 257.002 180.646 257.162 180.941 257.322 C 181.242 257.468 181.543 257.615 181.843 257.761 C 182.149 257.894 182.455 258.026 182.760 258.159 C 183.070 258.278 183.380 258.396 183.689 258.515 C 183.742 258.533 183.794 258.550 183.847 258.568" fill="none" stroke="black" stroke-width="1.8" stroke-linecap="butt" stroke-linejoin="round" /><path d="M 302.182 215.205 C 301.859 215.329 301.536 215.453 301.212 215.578 C 300.888 215.719 300.564 215.861 300.240 216.002 C 299.917 216.161 299.593 216.319 299.269 216.478 C 298.946 216.653 298.622 216.829 298.298 217.004 C 297.976 217.196 297.654 217.389 297.331 217.581 C 297.010 217.790 296.689 217.999 296.368 218.208 C 296.049 218.433 295.730 218.658 295.410 218.884 C 295.093 219.125 294.776 219.367 294.459 219.609 C 294.145 219.866 293.830 220.123 293.516 220.381 C 293.205 220.654 292.894 220.928 292.582 221.201 C 292.275 221.490 291.968 221.778 291.660 222.067 C 291.357 222.371 291.053 222.675 290.750 222.979 C 290.451 223.297 290.152 223.616 289.853 223.934 C 289.559 224.267 289.265 224.600 288.971 224.933 C 288.683 225.280 288.394 225.626 288.106 225.974 C 287.823 226.333 287.541 226.694 287.258 227.054 C 286.982 227.427 286.706 227.801 286.429 228.175 C 286.160 228.560 285.890 228.946 285.620 229.332 C 285.358 229.730 285.096 230.128 284.833 230.526 C 284.579 230.935 284.324 231.344 284.069 231.754 C 283.822 232.174 283.575 232.595 283.328 233.015 C 283.090 233.446 282.851 233.876 282.613 234.307 C 282.383 234.747 282.153 235.188 281.923 235.628 C 281.703 236.078 281.482 236.527 281.261 236.977 C 281.050 237.435 280.839 237.893 280.627 238.351 C 280.426 238.816 280.224 239.282 280.023 239.748 C 279.831 240.221 279.640 240.694 279.448 241.167 C 279.267 241.646 279.086 242.125 278.905 242.605 C 278.735 243.090 278.565 243.575 278.394 244.060 C 278.235 244.550 278.075 245.040 277.916 245.530 C 277.767 246.024 277.619 246.519 277.471 247.013 C 277.334 247.511 277.197 248.009 277.060 248.507 C 276.935 249.007 276.810 249.508 276.684 250.009 C 276.571 250.512 276.457 251.014 276.344 251.517 C 276.242 252.021 276.141 252.525 276.039 253.029 C 275.950 253.534 275.860 254.038 275.771 254.543 C 275.694 255.047 275.617 255.552 275.539 256.056 C 275.474 256.560 275.410 257.063 275.345 257.566 C 275.292 258.068 275.240 258.570 275.187 259.071 C 275.147 259.571 275.107 260.070 275.067 260.569 C 275.039 261.066 275.012 261.562 274.984 262.058 C 274.969 262.550 274.954 263.042 274.939 263.534 C 274.937 264.022 274.934 264.510 274.931 264.997 C 274.941 265.480 274.951 265.962 274.961 266.444 C 274.983 266.921 275.006 267.397 275.028 267.873 C 275.063 268.343 275.097 268.812 275.132 269.282 C 275.179 269.744 275.226 270.207 275.272 270.668 C 275.331 271.123 275.390 271.577 275.449 272.031 C 275.520 272.477 275.591 272.923 275.662 273.368 C 275.745 273.805 275.828 274.241 275.911 274.677 C 276.005 275.104 276.100 275.531 276.194 275.957 C 276.300 276.374 276.406 276.790 276.512 277.206 C 276.629 277.612 276.747 278.017 276.864 278.422 C 276.992 278.816 277.120 279.210 277.249 279.604 C 277.388 279.986 277.527 280.368 277.666 280.750 C 277.816 281.120 277.965 281.489 278.115 281.858 C 278.275 282.215 278.435 282.572 278.594 282.928 C 278.765 283.272 278.935 283.616 279.104 283.959 C 279.284 284.289 279.464 284.619 279.643 284.948 C 279.833 285.264 280.022 285.580 280.210 285.895 C 280.409 286.197 280.607 286.498 280.805 286.799 C 281.012 287.086 281.219 287.373 281.425 287.659 C 281.641 287.931 281.856 288.203 282.071 288.474 C 282.295 288.731 282.519 288.988 282.742 289.244 C 282.973 289.485 283.204 289.726 283.435 289.966 C 283.674 290.192 283.913 290.417 284.151 290.642 C 284.397 290.852 284.642 291.061 284.887 291.270 C 285.140 291.464 285.392 291.657 285.644 291.850 C 285.903 292.027 286.161 292.204 286.419 292.381 C 286.684 292.542 286.948 292.703 287.212 292.863 C 287.482 293.008 287.752 293.152 288.021 293.296 C 288.297 293.424 288.572 293.552 288.846 293.680 C 289.126 293.791 289.406 293.903 289.685 294.014 C 289.970 294.109 290.254 294.204 290.537 294.299 C 290.826 294.377 291.114 294.455 291.401 294.533 C 291.693 294.595 291.985 294.657 292.276 294.719 C 292.571 294.764 292.866 294.810 293.160 294.855 C 293.459 294.884 293.756 294.913 294.053 294.942 C 294.354 294.954 294.654 294.967 294.953 294.980 C 295.256 294.976 295.558 294.973 295.860 294.969 C 296.164 294.949 296.468 294.930 296.771 294.910 C 297.077 294.874 297.382 294.839 297.686 294.803 C 297.993 294.752 298.299 294.700 298.604 294.649 C 298.912 294.582 299.218 294.515 299.524 294.448 C 299.832 294.365 300.139 294.283 300.445 294.201 C 300.752 294.103 301.059 294.005 301.365 293.908 C 301.672 293.795 301.978 293.682 302.284 293.569 C 302.590 293.442 302.895 293.314 303.200 293.187 C 303.505 293.045 303.809 292.903 304.113 292.761 C 304.416 292.604 304.719 292.448 305.021 292.292 C 305.322 292.121 305.623 291.951 305.924 291.781 C 306.223 291.596 306.522 291.412 306.820 291.228 C 307.117 291.030 307.413 290.833 307.709 290.635 C 308.003 290.424 308.297 290.214 308.590 290.003 C 308.881 289.779 309.171 289.555 309.461 289.332 C 309.749 289.096 310.036 288.859 310.323 288.624 C 310.607 288.375 310.890 288.126 311.173 287.878 C 311.453 287.618 311.733 287.357 312.012 287.097 C 312.288 286.825 312.563 286.553 312.838 286.282 C 313.109 285.998 313.380 285.715 313.651 285.432 C 313.917 285.138 314.183 284.844 314.449 284.550 C 314.711 284.245 314.972 283.941 315.233 283.637 C 315.489 283.322 315.745 283.007 316.001 282.693 C 316.251 282.368 316.502 282.044 316.752 281.719 C 316.997 281.385 317.242 281.051 317.486 280.718 C 317.725 280.375 317.964 280.032 318.203 279.689 C 318.436 279.337 318.668 278.986 318.901 278.635 C 319.127 278.275 319.354 277.915 319.580 277.555 C 319.800 277.187 320.019 276.820 320.239 276.452 C 320.452 276.077 320.665 275.702 320.878 275.327 C 321.084 274.944 321.290 274.562 321.496 274.180 C 321.695 273.791 321.893 273.402 322.092 273.013 C 322.284 272.618 322.475 272.223 322.667 271.828 C 322.851 271.426 323.035 271.025 323.219 270.624 C 323.395 270.217 323.571 269.811 323.747 269.405 C 323.916 268.993 324.084 268.581 324.253 268.170 C 324.413 267.753 324.574 267.337 324.734 266.921 C 324.887 266.500 325.039 266.080 325.191 265.659 C 325.335 265.235 325.479 264.811 325.623 264.386 C 325.759 263.959 325.895 263.531 326.030 263.103 C 326.158 262.673 326.285 262.242 326.412 261.811 C 326.530 261.378 326.649 260.945 326.767 260.512 C 326.877 260.076 326.986 259.641 327.096 259.206 C 327.197 258.769 327.298 258.332 327.398 257.895 C 327.490 257.456 327.582 257.018 327.674 256.580 C 327.756 256.141 327.839 255.701 327.922 255.262 C 327.995 254.823 328.069 254.383 328.142 253.944 C 328.207 253.504 328.271 253.065 328.335 252.625 C 328.390 252.186 328.445 251.747 328.500 251.308 C 328.546 250.870 328.591 250.432 328.637 249.993 C 328.673 249.557 328.709 249.120 328.745 248.683 C 328.771 248.248 328.798 247.813 328.825 247.378 C 328.842 246.945 328.859 246.512 328.876 246.079 C 328.883 245.649 328.890 245.219 328.898 244.788 C 328.896 244.361 328.893 243.934 328.891 243.507 C 328.879 243.083 328.867 242.660 328.855 242.236 C 328.834 241.816 328.812 241.397 328.791 240.976 C 328.759 240.561 328.728 240.146 328.697 239.730 C 328.656 239.320 328.615 238.910 328.574 238.499 C 328.523 238.094 328.473 237.689 328.422 237.283 C 328.362 236.884 328.301 236.484 328.241 236.085 C 328.171 235.691 328.101 235.298 328.031 234.904 C 327.951 234.518 327.872 234.131 327.792 233.744 C 327.703 233.364 327.614 232.984 327.524 232.604 C 327.426 232.232 327.327 231.859 327.228 231.487 C 327.120 231.122 327.012 230.758 326.903 230.393 C 326.786 230.037 326.668 229.681 326.550 229.324 C 326.424 228.977 326.297 228.629 326.169 228.281 C 326.033 227.943 325.897 227.604 325.761 227.265 C 325.616 226.937 325.470 226.608 325.325 226.278 C 325.170 225.960 325.016 225.641 324.861 225.321 C 324.698 225.013 324.535 224.704 324.371 224.395 C 324.199 224.098 324.027 223.800 323.854 223.501 C 323.674 223.215 323.493 222.928 323.312 222.641 C 323.122 222.366 322.933 222.091 322.743 221.815 C 322.546 221.552 322.348 221.289 322.150 221.025 C 321.944 220.774 321.738 220.523 321.532 220.272 C 321.318 220.034 321.104 219.795 320.890 219.557 C 320.668 219.332 320.446 219.106 320.224 218.880 C 319.995 218.669 319.765 218.457 319.535 218.244 C 319.299 218.046 319.062 217.848 318.824 217.649 C 318.580 217.465 318.336 217.281 318.092 217.096 C 317.841 216.927 317.590 216.757 317.338 216.586 C 317.081 216.431 316.823 216.276 316.565 216.120 C 316.301 215.980 316.036 215.840 315.772 215.699 C 315.501 215.574 315.231 215.449 314.960 215.324 C 314.684 215.214 314.408 215.105 314.131 214.995 C 313.849 214.901 313.567 214.807 313.285 214.713 C 312.998 214.635 312.710 214.557 312.422 214.479 C 312.131 214.417 311.838 214.355 311.545 214.293 C 311.249 214.248 310.952 214.202 310.654 214.157 C 310.353 214.128 310.052 214.099 309.750 214.070 C 309.445 214.058 309.140 214.045 308.834 214.033 C 308.526 214.038 308.217 214.042 307.907 214.047 C 307.596 214.068 307.283 214.090 306.971 214.111 C 306.656 214.150 306.341 214.188 306.025 214.227 C 305.708 214.283 305.391 214.338 305.073 214.394 C 304.753 214.467 304.434 214.540 304.114 214.613 C 303.793 214.703 303.472 214.793 303.150 214.883 C 302.828 214.990 302.505 215.097 302.182 215.205" fill="none" stroke="black" stroke-width="1.8" stroke-linecap="butt" stroke-linejoin="round" /><path d="M 238.098 257.844 C 238.406 258.755 238.714 259.666 239.021 260.575" fill="none" stroke="black" stroke-width="1.8" stroke-linecap="butt" stroke-linejoin="round" /><path d="M 240.137 263.873 C 240.405 264.666 240.673 265.457 240.940 266.248 C 241.754 267.541 242.566 268.831 243.376 270.118 C 244.161 271.093 244.944 272.066 245.725 273.036 C 246.492 273.836 247.258 274.634 248.023 275.431 C 248.776 276.111 249.529 276.789 250.280 277.466 C 251.022 278.054 251.762 278.640 252.502 279.225 C 253.232 279.736 253.961 280.246 254.688 280.755 C 255.407 281.200 256.124 281.644 256.839 282.087 C 257.545 282.472 258.250 282.857 258.954 283.241 C 259.646 283.572 260.338 283.902 261.029 284.232 C 261.708 284.512 262.386 284.791 263.062 285.071 C 263.193 285.116 263.324 285.162 263.455 285.208" fill="none" stroke="black" stroke-width="1.8" stroke-linecap="butt" stroke-linejoin="round" /><path d="M 237.878 255.377 C 238.327 252.504 238.779 249.618 239.233 246.719 C 239.825 245.327 240.417 243.932 241.011 242.534 C 241.635 241.438 242.259 240.341 242.885 239.242 C 243.526 238.301 244.167 237.359 244.809 236.416 C 245.461 235.576 246.113 234.735 246.765 233.893 C 247.423 233.127 248.081 232.360 248.739 231.593 C 249.401 230.885 250.062 230.177 250.723 229.469 C 251.385 228.811 252.048 228.152 252.710 227.494 C 253.370 226.879 254.031 226.263 254.692 225.648 C 255.349 225.072 256.007 224.496 256.664 223.920 C 257.316 223.380 257.968 222.840 258.620 222.300 C 259.266 221.794 259.911 221.288 260.556 220.783 C 261.194 220.310 261.831 219.837 262.467 219.364 C 263.095 218.923 263.722 218.482 264.348 218.041 C 264.964 217.631 265.580 217.221 266.195 216.811 C 266.799 216.431 267.402 216.052 268.004 215.673 C 268.594 215.323 269.183 214.974 269.771 214.626 C 270.346 214.306 270.919 213.987 271.492 213.668 C 272.051 213.378 272.608 213.089 273.165 212.800 C 273.705 212.541 274.245 212.281 274.784 212.022 C 275.307 211.792 275.828 211.562 276.349 211.333 C 276.852 211.133 277.354 210.933 277.855 210.733 C 278.338 210.563 278.820 210.393 279.301 210.223 C 279.763 210.082 280.224 209.942 280.683 209.802 C 281.123 209.691 281.563 209.580 282.001 209.470 C 282.418 209.389 282.835 209.308 283.250 209.228 C 283.645 209.177 284.038 209.126 284.431 209.076 C 284.802 209.055 285.172 209.035 285.541 209.014 C 285.888 209.024 286.234 209.033 286.580 209.043 C 286.733 209.062 286.886 209.081 287.039 209.101" fill="none" stroke="black" stroke-width="1.8" stroke-linecap="butt" stroke-linejoin="round" /><path d="M 287.358 209.140 C 287.420 209.148 287.483 209.156 287.545 209.164 C 287.570 209.170 287.595 209.176 287.620 209.182" fill="none" stroke="black" stroke-width="1.8" stroke-linecap="butt" stroke-linejoin="round" /></svg>