<svg xmlns="http://www.w3.org/2000/svg" width="700" height="520" viewBox="0 0 700 520"><rect width="100%" height="100%" fill="white" /><path d="M 603.784 220.108 C 604.949 218.474 606.119 216.833 607.294 215.184" fill="none" stroke="black" stroke-width="1.8" stroke-linecap="butt" stroke-linejoin="round" stroke-dasharray="4 4" opacity="0.5" /><path d="M 482.886 329.831 C 465.668 281.358 447.110 229.115 427.052 172.645" fill="none" stroke="black" stroke-width="1.8" stroke-linecap="butt" stroke-linejoin="round" stroke-dasharray="4 4" opacity="0.5" /><path d="M 525.410 291.238 C 534.759 282.753 544.383 274.018 554.294 265.023" fill="none" stroke="black" stroke-width="1.8" stroke-linecap="butt" stroke-linejoin="round" stroke-dasharray="4 4" opacity="0.5" /><path d="M 436.443 163.562 C 413.562 171.494 432.107 184.770 487.128 192.895 C 488.755 193.135 490.394 193.367 492.043 193.591" fill="none" stroke="black" stroke-width="1.8" stroke-linecap="butt" stroke-linejoin="round" stroke-dasharray="4 4" opacity="0.5" /><path d="M 460.429 158.855 C 450.746 159.917 442.449 161.481 436.443 163.562" fill="none" stroke="black" stroke-width="1.8" stroke-linecap="butt" stroke-linejoin="round" stroke-dasharray="4 4" opacity="0.5" /><path d="M 606.923 213.636 C 603.172 204.659 573.144 189.749 534.644 177.135 C 515.395 170.828 496.045 165.721 479.049 162.211" fill="none" stroke="black" stroke-width="1.8" stroke-linecap="butt" stroke-linejoin="round" stroke-dasharray="4 4" opacity="0.5" /><path d="M 436.443 163.562 C 436.087 163.691 435.730 163.819 435.373 163.948 C 435.036 164.080 434.698 164.212 434.359 164.345 C 434.041 164.480 433.722 164.616 433.403 164.752 C 433.105 164.890 432.806 165.029 432.506 165.168 C 432.228 165.310 431.949 165.453 431.670 165.595 C 431.412 165.741 431.154 165.886 430.895 166.032 C 430.659 166.181 430.422 166.330 430.184 166.479 C 429.969 166.631 429.753 166.783 429.537 166.935 C 429.343 167.090 429.149 167.245 428.955 167.401 C 428.784 167.559 428.612 167.717 428.440 167.876 C 428.291 168.037 428.142 168.198 427.993 168.360 C 427.867 168.524 427.742 168.688 427.615 168.853 C 427.513 169.019 427.411 169.186 427.308 169.354 C 427.230 169.523 427.151 169.693 427.073 169.864 C 427.019 170.036 426.965 170.208 426.910 170.382 C 426.881 170.556 426.851 170.731 426.822 170.907 C 426.817 171.084 426.813 171.262 426.808 171.440 C 426.829 171.620 426.850 171.800 426.871 171.981 C 426.918 172.163 426.965 172.345 427.012 172.528 C 427.085 172.712 427.158 172.897 427.231 173.082 C 427.330 173.269 427.429 173.455 427.529 173.643 C 427.655 173.831 427.781 174.020 427.908 174.209 C 428.061 174.399 428.214 174.590 428.368 174.781 C 428.548 174.973 428.729 175.165 428.910 175.358 C 429.118 175.551 429.326 175.745 429.535 175.940 C 429.770 176.134 430.007 176.330 430.244 176.526 C 430.507 176.722 430.772 176.918 431.037 177.116 C 431.329 177.313 431.621 177.511 431.915 177.709 C 432.235 177.907 432.556 178.106 432.878 178.306 C 433.227 178.504 433.577 178.704 433.928 178.904 C 434.305 179.104 434.684 179.304 435.064 179.505 C 435.470 179.705 435.877 179.906 436.286 180.107 C 436.721 180.308 437.157 180.509 437.595 180.710 C 438.058 180.911 438.524 181.112 438.990 181.313 C 439.483 181.514 439.977 181.715 440.473 181.916 C 440.994 182.116 441.517 182.317 442.042 182.519 C 442.592 182.718 443.144 182.918 443.697 183.119 C 444.276 183.318 444.856 183.517 445.438 183.718 C 446.045 183.915 446.654 184.114 447.265 184.313 C 447.900 184.510 448.537 184.707 449.176 184.905 C 449.839 185.101 450.504 185.297 451.171 185.493 C 451.862 185.687 452.555 185.882 453.250 186.077 C 453.967 186.269 454.688 186.461 455.410 186.654 C 456.155 186.844 456.901 187.035 457.651 187.226 C 458.422 187.414 459.195 187.602 459.971 187.791 C 460.768 187.976 461.567 188.161 462.369 188.347 C 463.192 188.530 464.016 188.713 464.844 188.896 C 465.691 189.075 466.540 189.255 467.392 189.435 C 468.263 189.612 469.137 189.788 470.013 189.965 C 470.908 190.138 471.805 190.311 472.705 190.484 C 473.622 190.653 474.542 190.822 475.464 190.992 C 476.403 191.157 477.344 191.322 478.288 191.487 C 479.248 191.648 480.211 191.809 481.176 191.970 C 482.156 192.126 483.138 192.283 484.123 192.440 C 485.122 192.591 486.124 192.743 487.128 192.895 C 488.145 193.041 489.164 193.188 490.186 193.335 C 490.935 193.437 491.685 193.539 492.436 193.642" fill="none" stroke="black" stroke-width="1.8" stroke-linecap="butt" stroke-linejoin="round" stroke-dasharray="4 4" opacity="0.5" /><path d="M 460.448 158.858 C 460.386 158.864 460.323 158.871 460.260 158.878 C 459.658 158.947 459.055 159.016 458.451 159.086 C 457.861 159.159 457.270 159.232 456.679 159.306 C 456.102 159.382 455.524 159.459 454.945 159.537 C 454.381 159.617 453.817 159.698 453.251 159.779 C 452.701 159.864 452.150 159.948 451.598 160.033 C 451.062 160.121 450.525 160.210 449.986 160.298 C 449.465 160.390 448.942 160.482 448.418 160.575 C 447.911 160.671 447.403 160.766 446.894 160.863 C 446.403 160.962 445.910 161.062 445.416 161.162 C 444.940 161.265 444.462 161.368 443.984 161.472 C 443.524 161.579 443.063 161.686 442.600 161.793 C 442.157 161.903 441.712 162.014 441.266 162.125 C 440.839 162.239 440.411 162.354 439.981 162.468 C 439.571 162.586 439.161 162.704 438.749 162.822 C 438.356 162.944 437.963 163.065 437.569 163.187 C 437.194 163.312 436.819 163.437 436.443 163.562" fill="none" stroke="black" stroke-width="1.8" stroke-linecap="butt" stroke-linejoin="round" stroke-dasharray="4 4" opacity="0.5" /><path d="M 429.650 169.415 C 429.332 169.546 429.013 169.678 428.694 169.811 C 428.393 169.945 428.092 170.080 427.790 170.215 C 427.507 170.353 427.224 170.491 426.939 170.629 C 444.422 167.672 460.987 164.870 476.704 162.212 C 475.988 162.245 475.272 162.278 474.555 162.311 C 473.850 162.348 473.144 162.385 472.437 162.422 C 471.743 162.462 471.047 162.503 470.352 162.544 C 469.668 162.588 468.984 162.633 468.299 162.677 C 467.626 162.725 466.953 162.773 466.279 162.821 C 465.618 162.873 464.957 162.925 464.294 162.977 C 463.645 163.032 462.995 163.088 462.344 163.143 C 461.707 163.202 461.068 163.262 460.429 163.321 C 459.804 163.383 459.178 163.446 458.551 163.509 C 457.938 163.575 457.324 163.641 456.709 163.708 C 456.109 163.778 455.507 163.847 454.905 163.917 C 454.317 163.991 453.729 164.064 453.139 164.138 C 452.565 164.214 451.989 164.291 451.412 164.368 C 450.851 164.448 450.288 164.529 449.725 164.609 C 449.177 164.693 448.628 164.776 448.078 164.860 C 447.544 164.947 447.008 165.035 446.472 165.122 C 445.952 165.212 445.430 165.303 444.908 165.394 C 444.402 165.487 443.894 165.581 443.386 165.675 C 442.894 165.772 442.401 165.870 441.907 165.967 C 441.430 166.067 440.951 166.168 440.472 166.269 C 440.010 166.372 439.546 166.476 439.082 166.580 C 438.634 166.687 438.186 166.794 437.736 166.901 C 437.304 167.011 436.871 167.122 436.437 167.232 C 436.021 167.345 435.603 167.459 435.185 167.572 C 434.784 167.689 434.382 167.805 433.980 167.922 C 433.595 168.042 433.209 168.162 432.823 168.282 C 432.454 168.404 432.085 168.527 431.715 168.650 C 431.363 168.776 431.011 168.902 430.657 169.028 C 430.322 169.156 429.986 169.285 429.650 169.415" fill="none" stroke="black" stroke-width="1.8" stroke-linecap="butt" stroke-linejoin="round" stroke-dasharray="4 4" opacity="0.5" /><path d="M 606.918 213.678 C 606.828 213.483 606.737 213.288 606.647 213.094 C 606.525 212.881 606.403 212.670 606.281 212.459 C 606.133 212.240 605.985 212.023 605.838 211.806 C 605.664 211.583 605.490 211.360 605.318 211.138 C 605.119 210.909 604.920 210.681 604.723 210.454 C 604.499 210.221 604.277 209.988 604.055 209.756 C 603.808 209.518 603.561 209.280 603.316 209.044 C 603.045 208.801 602.775 208.560 602.507 208.319 C 602.213 208.072 601.921 207.827 601.630 207.582 C 601.314 207.332 601.000 207.082 600.686 206.834 C 600.349 206.580 600.013 206.327 599.678 206.075 C 599.320 205.818 598.963 205.561 598.608 205.306 C 598.229 205.046 597.852 204.787 597.476 204.528 C 597.078 204.266 596.681 204.004 596.285 203.743 C 595.868 203.477 595.451 203.213 595.037 202.949 C 594.600 202.681 594.166 202.415 593.732 202.149 C 593.278 201.879 592.825 201.610 592.374 201.342 C 591.902 201.071 591.432 200.800 590.964 200.530 C 590.475 200.257 589.988 199.985 589.503 199.714 C 588.998 199.439 588.495 199.165 587.993 198.893 C 587.472 198.617 586.953 198.342 586.436 198.068 C 585.901 197.792 585.366 197.516 584.834 197.241 C 584.284 196.964 583.735 196.687 583.188 196.411 C 582.624 196.133 582.062 195.856 581.501 195.580 C 580.923 195.302 580.347 195.024 579.773 194.747 C 579.182 194.469 578.593 194.191 578.006 193.914 C 577.403 193.636 576.802 193.358 576.202 193.081 C 575.588 192.803 574.975 192.526 574.363 192.249 C 573.737 191.971 573.113 191.694 572.490 191.417 C 571.853 191.140 571.218 190.863 570.585 190.587 C 569.938 190.310 569.292 190.034 568.649 189.759 C 567.992 189.483 567.337 189.208 566.683 188.934 C 566.017 188.659 565.353 188.384 564.690 188.111 C 564.015 187.837 563.342 187.564 562.670 187.292 C 561.987 187.019 561.306 186.747 560.626 186.476 C 559.935 186.205 559.246 185.935 558.558 185.665 C 557.860 185.396 557.163 185.127 556.468 184.859 C 555.763 184.591 555.059 184.324 554.357 184.057 C 553.646 183.791 552.936 183.526 552.227 183.261 C 551.510 182.998 550.794 182.734 550.079 182.471 C 549.356 182.210 548.634 181.948 547.914 181.687 C 547.186 181.428 546.459 181.169 545.734 180.910 C 545.001 180.653 544.269 180.396 543.539 180.140 C 542.802 179.885 542.066 179.631 541.332 179.377 C 540.591 179.125 539.851 178.873 539.113 178.621 C 538.368 178.372 537.625 178.123 536.883 177.874 C 536.136 177.627 535.389 177.381 534.644 177.135 C 533.894 176.891 533.145 176.647 532.397 176.404 C 531.645 176.163 530.894 175.923 530.143 175.683 C 529.389 175.445 528.636 175.207 527.884 174.970 C 527.128 174.735 526.373 174.501 525.619 174.267 C 524.862 174.036 524.106 173.805 523.351 173.574 C 522.594 173.346 521.837 173.118 521.081 172.891 C 520.323 172.666 519.565 172.442 518.809 172.218 C 518.051 171.997 517.293 171.776 516.537 171.556 C 515.779 171.339 515.022 171.121 514.265 170.904 C 513.508 170.691 512.752 170.478 511.996 170.264 C 511.240 170.055 510.484 169.845 509.729 169.636 C 508.975 169.430 508.220 169.224 507.467 169.019 C 506.714 168.817 505.961 168.615 505.209 168.414 C 504.458 168.216 503.708 168.018 502.957 167.821 C 502.209 167.627 501.461 167.434 500.713 167.240 C 499.967 167.051 499.221 166.862 498.476 166.673 C 497.733 166.488 496.991 166.303 496.248 166.118 C 495.509 165.938 494.770 165.757 494.031 165.577 C 493.295 165.400 492.560 165.224 491.825 165.048 C 491.093 164.877 490.362 164.705 489.630 164.534 C 488.903 164.367 488.176 164.200 487.449 164.034 C 486.727 163.871 486.004 163.709 485.282 163.547 C 484.565 163.390 483.847 163.233 483.130 163.075 C 482.418 162.923 481.706 162.770 480.994 162.618 C 480.288 162.471 479.582 162.323 478.875 162.176" fill="none" stroke="black" stroke-width="1.8" stroke-linecap="butt" stroke-linejoin="round" stroke-dasharray="4 4" opacity="0.5" /><path d="M 460.921 257.710 C 462.120 262.031 463.317 266.346 464.512 270.655 C 465.180 273.189 465.848 275.722 466.516 278.254 C 467.008 280.142 467.500 282.030 467.992 283.918 C 468.392 285.438 468.792 286.958 469.191 288.479 C 469.534 289.752 469.876 291.025 470.218 292.300 C 470.522 293.392 470.826 294.485 471.130 295.579 C 471.406 296.532 471.682 297.486 471.959 298.440 C 472.215 299.281 472.471 300.122 472.728 300.964 C 472.969 301.711 473.211 302.460 473.452 303.209 C 473.682 303.878 473.913 304.548 474.143 305.218 C 474.365 305.819 474.587 306.421 474.809 307.024 C 475.025 307.566 475.241 308.108 475.457 308.652 C 475.668 309.141 475.880 309.631 476.091 310.121 C 476.300 310.564 476.509 311.006 476.718 311.449 C 476.925 311.849 477.132 312.249 477.339 312.649 C 477.546 313.009 477.752 313.370 477.959 313.731 C 478.166 314.055 478.374 314.379 478.581 314.704 C 478.790 314.994 478.999 315.285 479.208 315.576 C 479.418 315.834 479.629 316.093 479.841 316.352 C 480.055 316.580 480.269 316.809 480.483 317.038 C 480.701 317.237 480.919 317.437 481.137 317.637 C 481.359 317.809 481.582 317.981 481.805 318.154 C 482.033 318.299 482.261 318.444 482.489 318.590 C 482.723 318.709 482.958 318.828 483.192 318.948 C 483.433 319.041 483.675 319.135 483.916 319.228 C 484.165 319.296 484.414 319.364 484.664 319.432 C 484.921 319.475 485.179 319.518 485.437 319.560 C 485.705 319.578 485.972 319.595 486.240 319.612 C 486.518 319.604 486.796 319.595 487.075 319.587 C 487.364 319.553 487.654 319.518 487.945 319.484 C 488.247 319.423 488.550 319.362 488.853 319.301 C 489.169 319.213 489.486 319.125 489.804 319.037 C 490.135 318.921 490.467 318.805 490.800 318.688 C 491.149 318.543 491.498 318.398 491.847 318.253 C 492.214 318.078 492.581 317.903 492.949 317.728 C 493.336 317.522 493.723 317.316 494.111 317.109 C 494.519 316.871 494.928 316.632 495.338 316.392 C 495.769 316.120 496.202 315.847 496.636 315.573 C 497.093 315.265 497.551 314.956 498.010 314.647 C 498.495 314.302 498.981 313.956 499.469 313.609 C 499.984 313.224 500.500 312.839 501.018 312.453 C 501.565 312.027 502.114 311.601 502.664 311.173 C 503.247 310.705 503.831 310.236 504.417 309.765 C 505.037 309.253 505.658 308.739 506.282 308.223 C 506.942 307.664 507.605 307.103 508.269 306.541 C 508.972 305.934 509.677 305.325 510.385 304.714 C 511.134 304.057 511.885 303.399 512.638 302.738 C 513.434 302.031 514.233 301.321 515.035 300.609 C 515.881 299.851 516.730 299.090 517.582 298.326 C 518.480 297.515 519.381 296.702 520.285 295.886 C 520.722 295.489 521.160 295.092 521.599 294.694" fill="none" stroke="black" stroke-width="1.8" stroke-linecap="butt" stroke-linejoin="round" stroke-dasharray="4 4" opacity="0.5" /><path d="M 558.339 261.351 C 558.833 260.902 559.329 260.452 559.824 260.002 C 561.233 258.719 562.645 257.432 564.062 256.141 C 565.483 254.839 566.908 253.533 568.337 252.224 C 569.764 250.905 571.194 249.583 572.628 248.258 C 574.055 246.926 575.485 245.590 576.917 244.252 C 578.337 242.907 579.760 241.561 581.185 240.211 C 582.592 238.857 584.001 237.500 585.412 236.142 C 586.800 234.779 588.190 233.414 589.581 232.048 C 590.944 230.677 592.309 229.306 593.675 227.933 C 595.008 226.556 596.343 225.178 597.678 223.799 C 598.976 222.416 600.276 221.033 601.575 219.649 C 602.834 218.261 604.094 216.873 605.353 215.484" fill="none" stroke="black" stroke-width="1.8" stroke-linecap="butt" stroke-linejoin="round" stroke-dasharray="4 4" opacity="0.5" /><path d="M 452.231 230.771 C 450.290 225.690 448.334 220.572 446.365 215.417 C 444.980 212.093 443.587 208.749 442.184 205.385 C 441.009 202.691 439.827 199.982 438.637 197.255 C 437.591 194.914 436.539 192.558 435.480 190.188 C 434.530 188.075 433.574 185.949 432.612 183.810 C 431.741 181.857 430.866 179.891 429.984 177.912 C 429.185 176.075 428.380 174.225 427.570 172.362" fill="none" stroke="black" stroke-width="1.8" stroke-linecap="butt" stroke-linejoin="round" stroke-dasharray="4 4" opacity="0.5" /><path d="M 497.071 369.766 C 527.650 326.881 562.844 277.524 603.784 220.108" fill="none" stroke="black" stroke-width="1.8" stroke-linecap="butt" stroke-linejoin="round" /><path d="M 607.294 215.184 C 613.960 205.837 620.790 196.258 627.791 186.439" fill="none" stroke="black" stroke-width="1.8" stroke-linecap="butt" stroke-linejoin="round" /><path d="M 497.071 369.766 C 492.441 356.731 487.714 343.422 482.886 329.831" fill="none" stroke="black" stroke-width="1.8" stroke-linecap="butt" stroke-linejoin="round" /><path d="M 445.964 363.339 C 470.178 341.364 496.558 317.423 525.410 291.238" fill="none" stroke="black" stroke-width="1.8" stroke-linecap="butt" stroke-linejoin="round" /><path d="M 554.294 265.023 C 570.713 250.122 587.952 234.477 606.074 218.030" fill="none" stroke="black" stroke-width="1.8" stroke-linecap="butt" stroke-linejoin="round" /><path d="M 445.964 363.339 C 437.932 303.331 429.034 236.861 419.124 162.825" fill="none" stroke="black" stroke-width="1.8" stroke-linecap="butt" stroke-linejoin="round" /><path d="M 492.043 193.591 C 553.663 201.972 617.682 198.600 627.497 186.819 C 635.981 176.637 597.954 164.966 548.558 159.851 C 516.279 156.509 483.428 156.333 460.429 158.855" fill="none" stroke="black" stroke-width="1.8" stroke-linecap="butt" stroke-linejoin="round" /><path d="M 428.605 156.999 C 406.228 159.599 423.874 176.153 476.360 195.300 C 534.981 216.684 596.848 227.068 606.207 217.904 C 607.413 216.723 607.610 215.280 606.923 213.636" fill="none" stroke="black" stroke-width="1.8" stroke-linecap="butt" stroke-linejoin="round" /><path d="M 479.049 162.211 C 458.140 157.894 439.484 155.735 428.605 156.999" fill="none" stroke="black" stroke-width="1.8" stroke-linecap="butt" stroke-linejoin="round" /><path d="M 492.683 193.677 C 487.130 181.182 482.534 170.837 478.666 162.132" fill="none" stroke="black" stroke-width="1.8" stroke-linecap="butt" stroke-linejoin="round" /><path d="M 492.436 193.642 C 492.722 193.681 493.009 193.720 493.295 193.759 C 494.345 193.895 495.398 194.031 496.452 194.167 C 497.517 194.298 498.584 194.428 499.653 194.559 C 500.731 194.683 501.811 194.807 502.893 194.932 C 503.984 195.050 505.076 195.169 506.171 195.288 C 507.272 195.400 508.375 195.512 509.480 195.624 C 510.591 195.730 511.704 195.835 512.819 195.941 C 513.938 196.040 515.059 196.139 516.181 196.238 C 517.307 196.330 518.435 196.423 519.564 196.515 C 520.696 196.600 521.829 196.685 522.963 196.771 C 524.099 196.849 525.235 196.927 526.374 197.005 C 527.512 197.076 528.651 197.146 529.791 197.217 C 530.930 197.281 532.070 197.344 533.211 197.407 C 534.350 197.463 535.490 197.519 536.630 197.575 C 537.767 197.623 538.904 197.672 540.042 197.720 C 541.175 197.760 542.309 197.801 543.443 197.841 C 544.571 197.874 545.700 197.907 546.829 197.940 C 547.950 197.965 549.072 197.989 550.195 198.014 C 551.308 198.031 552.422 198.048 553.536 198.065 C 554.640 198.074 555.744 198.084 556.848 198.093 C 557.941 198.094 559.033 198.095 560.126 198.096 C 561.207 198.089 562.287 198.082 563.367 198.076 C 564.433 198.061 565.499 198.046 566.565 198.031 C 567.616 198.009 568.667 197.986 569.717 197.964 C 570.752 197.933 571.785 197.903 572.819 197.872 C 573.835 197.834 574.851 197.795 575.866 197.757 C 576.863 197.711 577.859 197.665 578.854 197.619 C 579.830 197.565 580.806 197.512 581.780 197.458 C 582.734 197.397 583.688 197.335 584.640 197.274 C 585.571 197.205 586.502 197.137 587.431 197.068 C 588.338 196.992 589.244 196.916 590.149 196.840 C 591.030 196.757 591.911 196.674 592.791 196.591 C 593.646 196.500 594.500 196.410 595.353 196.320 C 596.182 196.223 597.009 196.126 597.834 196.029 C 598.634 195.925 599.433 195.821 600.231 195.717 C 601.002 195.607 601.772 195.496 602.540 195.386 C 603.282 195.269 604.022 195.153 604.760 195.036 C 605.471 194.913 606.181 194.790 606.889 194.668 C 607.568 194.539 608.247 194.410 608.924 194.282 C 609.572 194.147 610.219 194.012 610.864 193.878 C 611.480 193.738 612.094 193.598 612.707 193.458 C 613.290 193.313 613.872 193.168 614.452 193.023 C 615.002 192.872 615.551 192.722 616.098 192.572 C 616.615 192.416 617.130 192.261 617.644 192.107 C 618.127 191.946 618.608 191.787 619.089 191.628 C 619.538 191.463 619.985 191.299 620.432 191.136 C 620.846 190.967 621.260 190.799 621.673 190.631 C 622.053 190.459 622.433 190.287 622.811 190.115 C 623.157 189.939 623.503 189.764 623.847 189.589 C 624.159 189.409 624.470 189.230 624.781 189.052 C 625.059 188.870 625.336 188.688 625.612 188.506 C 625.856 188.321 626.099 188.136 626.342 187.951 C 626.552 187.763 626.761 187.576 626.970 187.389 C 627.146 187.199 627.322 187.009 627.497 186.819 C 627.640 186.627 627.783 186.435 627.925 186.243 C 628.035 186.049 628.144 185.855 628.253 185.662 C 628.330 185.465 628.407 185.270 628.484 185.075 C 628.529 184.877 628.573 184.680 628.617 184.484 C 628.630 184.285 628.643 184.087 628.655 183.889 C 628.637 183.689 628.618 183.490 628.599 183.291 C 628.549 183.091 628.500 182.891 628.450 182.691 C 628.370 182.490 628.289 182.290 628.210 182.090 C 628.099 181.888 627.989 181.687 627.879 181.487 C 627.739 181.285 627.600 181.084 627.461 180.884 C 627.292 180.682 627.124 180.481 626.956 180.281 C 626.759 180.079 626.563 179.878 626.367 179.678 C 626.142 179.477 625.918 179.277 625.695 179.077 C 625.443 178.876 625.192 178.677 624.941 178.477 C 624.663 178.278 624.386 178.079 624.109 177.880 C 623.805 177.682 623.502 177.483 623.200 177.286 C 622.871 177.088 622.543 176.891 622.216 176.695 C 621.862 176.499 621.510 176.303 621.159 176.108 C 620.781 175.913 620.405 175.718 620.030 175.525 C 619.630 175.331 619.231 175.138 618.833 174.946 C 618.410 174.755 617.989 174.563 617.568 174.373 C 617.124 174.183 616.681 173.994 616.239 173.805 C 615.773 173.617 615.309 173.430 614.847 173.243 C 614.361 173.057 613.877 172.872 613.394 172.687 C 612.888 172.503 612.384 172.320 611.882 172.138 C 611.357 171.956 610.834 171.775 610.313 171.595 C 609.770 171.416 609.229 171.238 608.690 171.060 C 608.129 170.883 607.571 170.707 607.014 170.532 C 606.436 170.358 605.861 170.185 605.287 170.012 C 604.693 169.841 604.101 169.670 603.511 169.500 C 602.902 169.331 602.294 169.163 601.689 168.996 C 601.064 168.830 600.442 168.665 599.821 168.501 C 599.183 168.338 598.546 168.176 597.911 168.014 C 597.259 167.854 596.608 167.695 595.960 167.537 C 595.294 167.380 594.631 167.224 593.969 167.068 C 593.291 166.915 592.615 166.762 591.941 166.609 C 591.252 166.459 590.564 166.309 589.878 166.160 C 589.177 166.013 588.478 165.866 587.781 165.720 C 587.069 165.576 586.360 165.433 585.652 165.290 C 584.930 165.150 584.210 165.010 583.493 164.870 C 582.761 164.733 582.032 164.597 581.305 164.461 C 580.564 164.327 579.826 164.194 579.090 164.061 C 578.341 163.931 577.595 163.802 576.850 163.672 C 576.093 163.546 575.339 163.420 574.586 163.294 C 573.822 163.171 573.060 163.048 572.300 162.926 C 571.530 162.807 570.761 162.688 569.994 162.569 C 569.217 162.453 568.442 162.338 567.669 162.223 C 566.886 162.111 566.105 161.999 565.326 161.887 C 564.538 161.779 563.752 161.671 562.968 161.563 C 562.175 161.458 561.384 161.354 560.594 161.250 C 559.797 161.149 559.002 161.048 558.208 160.947 C 557.407 160.850 556.608 160.753 555.810 160.656 C 555.005 160.563 554.203 160.470 553.401 160.377 C 552.594 160.287 551.788 160.197 550.984 160.108 C 550.174 160.022 549.365 159.937 548.558 159.851 C 547.747 159.769 546.936 159.687 546.127 159.605 C 545.313 159.527 544.501 159.449 543.690 159.371 C 542.875 159.296 542.062 159.222 541.249 159.148 C 540.434 159.077 539.619 159.007 538.806 158.936 C 537.990 158.870 537.175 158.803 536.361 158.737 C 535.545 158.674 534.730 158.611 533.916 158.548 C 533.100 158.489 532.286 158.430 531.472 158.371 C 530.657 158.316 529.843 158.261 529.030 158.206 C 528.216 158.155 527.403 158.104 526.591 158.053 C 525.779 158.005 524.967 157.958 524.157 157.911 C 523.346 157.867 522.537 157.824 521.728 157.780 C 520.920 157.741 520.112 157.701 519.305 157.662 C 518.500 157.626 517.695 157.590 516.891 157.555 C 516.088 157.523 515.286 157.491 514.485 157.459 C 513.686 157.431 512.887 157.404 512.089 157.376 C 511.293 157.352 510.498 157.328 509.704 157.304 C 508.912 157.284 508.121 157.264 507.331 157.243 C 506.544 157.227 505.757 157.211 504.971 157.195 C 504.188 157.183 503.406 157.170 502.625 157.158 C 501.848 157.150 501.071 157.141 500.294 157.133 C 499.522 157.129 498.751 157.124 497.979 157.120 C 497.213 157.119 496.447 157.118 495.682 157.118 C 494.922 157.121 494.162 157.125 493.402 157.128 C 492.649 157.135 491.896 157.142 491.142 157.150 C 490.396 157.161 489.649 157.172 488.902 157.183 C 488.163 157.198 487.424 157.213 486.684 157.228 C 485.952 157.247 485.220 157.266 484.488 157.285 C 483.764 157.308 483.040 157.331 482.315 157.354 C 481.600 157.381 480.884 157.407 480.167 157.434 C 479.460 157.465 478.752 157.495 478.044 157.526 C 477.346 157.561 476.647 157.595 475.948 157.630 C 475.259 157.668 474.570 157.707 473.879 157.745 C 473.200 157.787 472.520 157.830 471.839 157.872 C 471.170 157.918 470.500 157.964 469.829 158.011 C 469.170 158.061 468.510 158.111 467.849 158.161 C 467.201 158.215 466.552 158.269 465.902 158.323 C 465.264 158.381 464.626 158.438 463.987 158.496 C 463.361 158.558 462.734 158.619 462.106 158.681 C 461.554 158.740 461.002 158.799 460.448 158.858" fill="none" stroke="black" stroke-width="1.8" stroke-linecap="butt" stroke-linejoin="round" /><path d="M 493.298 193.877 C 494.349 194.214 495.401 194.552 496.455 194.890 C 497.513 195.222 498.572 195.555 499.633 195.889 C 500.697 196.217 501.762 196.545 502.829 196.873 C 503.897 197.196 504.967 197.518 506.037 197.841 C 507.109 198.158 508.181 198.475 509.255 198.792 C 510.327 199.103 511.401 199.413 512.476 199.724 C 513.549 200.028 514.622 200.332 515.697 200.637 C 516.768 200.934 517.841 201.231 518.913 201.528 C 519.982 201.818 521.051 202.107 522.121 202.397 C 523.185 202.679 524.250 202.961 525.315 203.243 C 526.374 203.517 527.433 203.791 528.493 204.065 C 529.544 204.331 530.596 204.597 531.648 204.862 C 532.692 205.120 533.735 205.377 534.779 205.634 C 535.812 205.882 536.846 206.130 537.880 206.378 C 538.902 206.617 539.925 206.856 540.947 207.095 C 541.958 207.324 542.968 207.554 543.978 207.784 C 544.976 208.004 545.972 208.224 546.969 208.443 C 547.952 208.654 548.934 208.864 549.916 209.074 C 550.883 209.274 551.849 209.474 552.815 209.674 C 553.765 209.865 554.715 210.055 555.664 210.245 C 556.597 210.424 557.529 210.604 558.460 210.784 C 559.374 210.954 560.287 211.123 561.199 211.292 C 562.094 211.451 562.987 211.610 563.880 211.769 C 564.754 211.918 565.627 212.066 566.499 212.214 C 567.351 212.353 568.203 212.490 569.054 212.628 C 569.884 212.755 570.714 212.883 571.542 213.010 C 572.350 213.127 573.157 213.243 573.963 213.360 C 574.747 213.466 575.530 213.572 576.313 213.678 C 577.073 213.773 577.832 213.869 578.591 213.964 C 579.327 214.049 580.061 214.134 580.795 214.218 C 581.506 214.293 582.216 214.367 582.924 214.441 C 583.610 214.505 584.294 214.569 584.977 214.632 C 585.636 214.686 586.295 214.739 586.952 214.793 C 587.585 214.836 588.217 214.879 588.848 214.922 C 589.455 214.955 590.060 214.988 590.665 215.021 C 591.245 215.044 591.823 215.067 592.401 215.090 C 592.954 215.103 593.506 215.116 594.056 215.128 C 594.582 215.132 595.107 215.135 595.630 215.138 C 596.129 215.131 596.626 215.125 597.122 215.118 C 597.593 215.102 598.064 215.086 598.532 215.070 C 598.976 215.045 599.419 215.019 599.860 214.994 C 600.277 214.960 600.692 214.925 601.106 214.891 C 601.495 214.847 601.883 214.803 602.270 214.760 C 602.631 214.708 602.992 214.655 603.351 214.603 C 603.686 214.542 604.019 214.481 604.352 214.420 C 604.659 214.351 604.965 214.281 605.270 214.212 C 605.550 214.134 605.830 214.057 606.108 213.979 C 606.362 213.894 606.614 213.808 606.866 213.723" fill="none" stroke="black" stroke-width="1.8" stroke-linecap="butt" stroke-linejoin="round" /><path d="M 428.605 156.999 C 428.259 157.044 427.911 157.089 427.563 157.134 C 427.234 157.187 426.904 157.239 426.574 157.292 C 426.264 157.351 425.952 157.411 425.640 157.471 C 425.349 157.538 425.057 157.606 424.763 157.673 C 424.491 157.748 424.218 157.823 423.944 157.898 C 423.692 157.980 423.439 158.062 423.184 158.145 C 422.952 158.235 422.719 158.325 422.485 158.415 C 422.273 158.513 422.060 158.610 421.847 158.708 C 421.656 158.813 421.465 158.919 421.272 159.025 C 421.103 159.137 420.933 159.250 420.762 159.364 C 420.614 159.484 420.466 159.605 420.317 159.726 C 420.191 159.855 420.065 159.983 419.939 160.112 C 419.835 160.248 419.732 160.385 419.628 160.522 C 419.548 160.665 419.468 160.809 419.387 160.954 C 419.330 161.106 419.273 161.258 419.216 161.410 C 419.183 161.569 419.150 161.729 419.117 161.889 C 419.108 162.056 419.099 162.224 419.090 162.392 C 419.106 162.566 419.122 162.742 419.137 162.918 C 419.178 163.100 419.219 163.283 419.259 163.466 C 419.325 163.657 419.391 163.847 419.457 164.038 C 419.548 164.236 419.640 164.434 419.731 164.633 C 419.848 164.839 419.966 165.044 420.083 165.251 C 420.226 165.464 420.370 165.677 420.514 165.891 C 420.683 166.111 420.853 166.332 421.024 166.554 C 421.220 166.781 421.416 167.009 421.614 167.238 C 421.837 167.473 422.060 167.708 422.284 167.945 C 422.534 168.187 422.785 168.429 423.036 168.673 C 423.313 168.921 423.591 169.171 423.870 169.422 C 424.175 169.677 424.480 169.934 424.786 170.191 C 425.118 170.454 425.451 170.717 425.785 170.981 C 426.145 171.251 426.505 171.521 426.867 171.791 C 427.254 172.067 427.642 172.343 428.032 172.621 C 428.447 172.902 428.863 173.185 429.280 173.469 C 429.722 173.757 430.166 174.045 430.611 174.335 C 431.081 174.629 431.553 174.924 432.025 175.219 C 432.523 175.519 433.022 175.819 433.522 176.120 C 434.047 176.425 434.573 176.731 435.101 177.037 C 435.653 177.347 436.207 177.658 436.763 177.970 C 437.342 178.285 437.922 178.601 438.505 178.918 C 439.111 179.237 439.718 179.558 440.327 179.879 C 440.960 180.203 441.594 180.528 442.230 180.854 C 442.888 181.182 443.548 181.511 444.210 181.841 C 444.894 182.172 445.580 182.505 446.268 182.839 C 446.978 183.174 447.689 183.510 448.402 183.847 C 449.136 184.185 449.872 184.524 450.610 184.865 C 451.369 185.206 452.129 185.547 452.892 185.890 C 453.674 186.234 454.458 186.578 455.244 186.923 C 456.049 187.268 456.856 187.615 457.666 187.962 C 458.493 188.309 459.323 188.657 460.154 189.005 C 461.003 189.354 461.854 189.703 462.708 190.053 C 463.578 190.402 464.450 190.752 465.324 191.102 C 466.214 191.452 467.106 191.802 468.000 192.153 C 468.909 192.503 469.820 192.853 470.733 193.204 C 471.660 193.553 472.589 193.903 473.520 194.253 C 474.465 194.601 475.411 194.950 476.360 195.300 C 477.321 195.646 478.283 195.994 479.247 196.342 C 480.223 196.687 481.201 197.033 482.180 197.379 C 483.170 197.722 484.162 198.066 485.155 198.410 C 486.158 198.750 487.163 199.091 488.169 199.432 C 489.183 199.769 490.199 200.107 491.217 200.445 C 492.242 200.778 493.268 201.112 494.296 201.447 C 495.331 201.776 496.366 202.106 497.403 202.437 C 498.445 202.762 499.489 203.087 500.533 203.413 C 501.582 203.733 502.632 204.054 503.683 204.375 C 504.738 204.689 505.793 205.004 506.849 205.320 C 507.907 205.629 508.966 205.938 510.026 206.248 C 511.087 206.550 512.149 206.853 513.211 207.157 C 514.273 207.453 515.335 207.749 516.399 208.046 C 517.461 208.335 518.523 208.624 519.586 208.913 C 520.646 209.195 521.706 209.477 522.767 209.759 C 523.825 210.032 524.882 210.306 525.940 210.580 C 526.993 210.846 528.046 211.111 529.099 211.377 C 530.146 211.634 531.193 211.891 532.240 212.148 C 533.280 212.396 534.320 212.644 535.359 212.892 C 536.390 213.131 537.422 213.370 538.452 213.609 C 539.474 213.838 540.495 214.067 541.516 214.297 C 542.526 214.516 543.535 214.735 544.545 214.955 C 545.542 215.164 546.539 215.373 547.536 215.582 C 548.519 215.781 549.502 215.980 550.485 216.179 C 551.453 216.367 552.421 216.555 553.388 216.743 C 554.340 216.921 555.292 217.098 556.242 217.275 C 557.177 217.442 558.110 217.608 559.043 217.774 C 559.959 217.930 560.874 218.085 561.788 218.240 C 562.684 218.383 563.580 218.527 564.474 218.671 C 565.349 218.803 566.223 218.935 567.096 219.068 C 567.950 219.188 568.802 219.309 569.653 219.430 C 570.483 219.539 571.313 219.648 572.141 219.757 C 572.948 219.854 573.753 219.951 574.558 220.048 C 575.340 220.134 576.121 220.219 576.900 220.305 C 577.657 220.379 578.413 220.452 579.167 220.526 C 579.897 220.588 580.626 220.650 581.354 220.711 C 582.058 220.762 582.760 220.812 583.461 220.862 C 584.137 220.900 584.812 220.939 585.486 220.977 C 586.134 221.004 586.780 221.030 587.426 221.057 C 588.045 221.072 588.663 221.087 589.280 221.102 C 589.870 221.106 590.459 221.109 591.046 221.113 C 591.607 221.105 592.167 221.097 592.725 221.089 C 593.255 221.070 593.785 221.051 594.313 221.032 C 594.814 221.002 595.313 220.971 595.811 220.941 C 596.281 220.900 596.750 220.859 597.218 220.818 C 597.657 220.765 598.095 220.713 598.533 220.662 C 598.941 220.599 599.349 220.536 599.755 220.474 C 600.133 220.401 600.509 220.328 600.885 220.255 C 601.232 220.171 601.577 220.088 601.922 220.005 C 602.238 219.912 602.552 219.819 602.866 219.726 C 603.151 219.622 603.435 219.519 603.718 219.417 C 603.972 219.304 604.225 219.192 604.478 219.080 C 604.701 218.958 604.923 218.836 605.145 218.714 C 605.338 218.583 605.530 218.453 605.722 218.322 C 605.884 218.183 606.046 218.043 606.207 217.904 C 606.339 217.756 606.471 217.608 606.603 217.460 C 606.705 217.304 606.807 217.148 606.909 216.992 C 606.982 216.827 607.055 216.663 607.127 216.500 C 607.171 216.327 607.214 216.156 607.258 215.985 C 607.273 215.805 607.288 215.626 607.303 215.447 C 607.290 215.260 607.276 215.074 607.263 214.889 C 607.222 214.695 607.181 214.502 607.140 214.310 C 607.071 214.110 607.002 213.910 606.934 213.711 C 606.929 213.700 606.924 213.689 606.918 213.678" fill="none" stroke="black" stroke-width="1.8" stroke-linecap="butt" stroke-linejoin="round" /><path d="M 478.813 162.163 C 478.134 162.025 477.455 161.887 476.775 161.748 C 476.082 161.611 475.388 161.474 474.694 161.336 C 474.007 161.204 473.320 161.072 472.632 160.940 C 471.953 160.813 471.273 160.687 470.593 160.560 C 469.921 160.438 469.248 160.317 468.575 160.195 C 467.911 160.079 467.246 159.963 466.581 159.847 C 465.925 159.737 465.268 159.626 464.611 159.516 C 463.964 159.411 463.315 159.306 462.667 159.201 C 462.028 159.102 461.389 159.003 460.749 158.903 C 460.120 158.810 459.489 158.716 458.859 158.623 C 458.239 158.535 457.618 158.448 456.997 158.360 C 456.387 158.278 455.777 158.197 455.165 158.115 C 454.566 158.039 453.966 157.963 453.364 157.887 C 452.776 157.818 452.186 157.748 451.596 157.678 C 451.018 157.615 450.439 157.551 449.860 157.488 C 449.294 157.431 448.727 157.373 448.159 157.316 C 447.604 157.265 447.049 157.214 446.493 157.163 C 445.951 157.118 445.407 157.074 444.863 157.029 C 444.334 156.991 443.803 156.953 443.272 156.915 C 442.755 156.883 442.238 156.852 441.719 156.820 C 441.216 156.795 440.712 156.770 440.207 156.745 C 439.717 156.727 439.227 156.708 438.736 156.690 C 438.261 156.678 437.785 156.667 437.307 156.655 C 436.847 156.651 436.385 156.646 435.923 156.641 C 435.477 156.643 435.031 156.646 434.583 156.648 C 434.153 156.657 433.722 156.666 433.290 156.675 C 432.876 156.692 432.460 156.708 432.044 156.724 C 431.646 156.747 431.247 156.771 430.847 156.794 C 430.466 156.825 430.084 156.855 429.701 156.886 C 429.336 156.923 428.971 156.961 428.605 156.999" fill="none" stroke="black" stroke-width="1.8" stroke-linecap="butt" stroke-linejoin="round" /><path d="M 521.599 294.694 C 522.114 294.227 522.630 293.760 523.147 293.291 C 524.151 292.378 525.159 291.462 526.170 290.542 C 527.228 289.580 528.289 288.614 529.355 287.644 C 530.465 286.633 531.580 285.619 532.699 284.601 C 533.860 283.545 535.026 282.485 536.196 281.421 C 537.406 280.322 538.621 279.220 539.840 278.113 C 541.095 276.975 542.355 275.832 543.620 274.686 C 544.916 273.511 546.218 272.333 547.524 271.150 C 548.857 269.943 550.195 268.732 551.537 267.517 C 552.901 266.281 554.270 265.042 555.643 263.798 C 556.540 262.984 557.438 262.168 558.339 261.351" fill="none" stroke="black" stroke-width="1.8" stroke-linecap="butt" stroke-linejoin="round" /></svg>