<svg xmlns="http://www.w3.org/2000/svg" width="700" height="520" viewBox="0 0 700 520"><rect width="100%" height="100%" fill="white" /><path d="M 296.318 286.829 C 295.247 262.343 294.131 236.860 292.970 210.318" fill="none" stroke="black" stroke-width="1.8" stroke-linecap="butt" stroke-linejoin="round" stroke-dasharray="4 4" opacity="0.5" /><path d="M 197.793 263.244 C 218.432 270.156 240.532 277.558 264.254 285.503" fill="none" stroke="black" stroke-width="1.8" stroke-linecap="butt" stroke-linejoin="round" stroke-dasharray="4 4" opacity="0.5" /><path d="M 202.951 191.090 C 228.798 196.611 256.937 202.621 287.686 209.189" fill="none" stroke="black" stroke-width="1.8" stroke-linecap="butt" stroke-linejoin="round" stroke-dasharray="4 4" opacity="0.5" /><path d="M 218.532 278.259 C 207.058 283.111 201.143 289.378 201.685 295.219" fill="none" stroke="black" stroke-width="1.8" stroke-linecap="butt" stroke-linejoin="round" stroke-dasharray="4 4" opacity="0.5" /><path d="M 292.828 294.810 C 300.150 286.865 295.780 278.590 281.423 274.139 C 264.142 268.782 236.844 270.516 218.532 278.259" fill="none" stroke="black" stroke-width="1.8" stroke-linecap="butt" stroke-linejoin="round" stroke-dasharray="4 4" opacity="0.5" /><path d="M 192.310 191.283 C 191.239 191.542 190.185 191.866 189.151 192.253" fill="none" stroke="black" stroke-width="1.8" stroke-linecap="butt" stroke-linejoin="round" stroke-dasharray="4 4" opacity="0.5" /><path d="M 184.580 258.819 C 189.454 260.348 194.859 260.243 200.294 258.228 C 215.085 252.745 225.140 234.739 223.439 217.321 C 221.691 199.422 208.100 187.474 192.310 191.283" fill="none" stroke="black" stroke-width="1.8" stroke-linecap="butt" stroke-linejoin="round" stroke-dasharray="4 4" opacity="0.5" /><path d="M 218.532 278.259 C 217.768 278.610 215.517 279.624 216.194 279.304 C 215.822 279.485 215.449 279.666 215.075 279.847 C 214.715 280.033 214.353 280.218 213.991 280.405 C 214.626 280.069 211.343 281.909 211.934 281.558 C 212.819 281.031 208.368 283.935 209.145 283.376 C 208.864 283.585 208.583 283.794 208.301 284.004 C 209.036 283.439 205.428 286.533 206.041 285.942 C 205.822 286.162 205.602 286.383 205.382 286.604 C 205.180 286.827 204.977 287.050 204.774 287.273 C 204.589 287.498 204.403 287.723 204.217 287.949 C 204.048 288.175 203.880 288.402 203.711 288.630 C 204.139 288.019 202.234 291.320 202.517 290.697 C 202.705 290.285 201.879 292.504 202.000 292.088 C 201.942 292.320 201.885 292.552 201.827 292.785 C 201.955 292.163 201.694 295.491 201.663 294.870 C 201.683 295.080 201.702 295.290 201.722 295.501" fill="none" stroke="black" stroke-width="1.8" stroke-linecap="butt" stroke-linejoin="round" stroke-dasharray="4 4" opacity="0.5" /><path d="M 201.867 296.237 C 201.936 296.412 202.151 297.073 202.256 297.426" fill="none" stroke="black" stroke-width="1.8" stroke-linecap="butt" stroke-linejoin="round" stroke-dasharray="4 4" opacity="0.5" /><path d="M 202.332 297.607 C 202.527 297.900 203.096 298.903 203.346 299.387" fill="none" stroke="black" stroke-width="1.8" stroke-linecap="butt" stroke-linejoin="round" stroke-dasharray="4 4" opacity="0.5" /><path d="M 204.255 300.518 C 204.560 300.812 204.979 301.230 205.309 301.568" fill="none" stroke="black" stroke-width="1.8" stroke-linecap="butt" stroke-linejoin="round" stroke-dasharray="4 4" opacity="0.5" /><path d="M 292.774 294.802 C 293.058 294.511 293.256 294.315 293.124 294.466 C 292.760 294.880 294.519 292.661 294.226 293.076 C 294.381 292.843 294.536 292.611 294.690 292.379 C 294.826 292.146 294.961 291.914 295.096 291.682 C 294.758 292.308 296.147 288.987 295.966 289.602 C 296.024 289.373 296.082 289.144 296.140 288.915 C 296.179 288.687 296.218 288.459 296.257 288.232 C 296.178 288.843 296.196 285.626 296.267 286.217 C 296.340 286.811 295.561 283.700 295.779 284.268 C 295.688 284.057 295.598 283.847 295.508 283.637 C 295.400 283.429 295.292 283.222 295.185 283.015 C 295.498 283.568 293.457 280.697 293.906 281.216 C 293.730 281.024 293.555 280.832 293.379 280.641 C 293.708 280.980 291.799 279.206 292.183 279.529 C 291.960 279.350 291.737 279.172 291.515 278.993 C 292.135 279.468 288.508 277.043 289.243 277.475 C 288.962 277.316 288.681 277.158 288.400 277.000 C 289.175 277.419 284.755 275.297 285.631 275.671 C 285.298 275.534 284.965 275.398 284.632 275.262 C 284.287 275.131 283.942 275.000 283.597 274.870 C 283.240 274.745 282.883 274.620 282.527 274.495 C 283.502 274.823 278.061 273.203 279.119 273.481 C 278.719 273.381 278.320 273.280 277.921 273.180 C 278.644 273.354 274.688 272.483 275.442 272.634 C 276.577 272.862 270.333 271.786 271.531 271.961 C 272.731 272.136 266.170 271.343 267.422 271.464 C 266.952 271.423 266.483 271.381 266.014 271.339 C 265.539 271.304 265.064 271.269 264.590 271.233 C 264.109 271.205 263.630 271.176 263.150 271.148 C 264.446 271.215 257.424 271.001 258.751 271.014 C 258.256 271.012 257.760 271.011 257.264 271.009 C 258.153 271.006 253.367 271.090 254.264 271.062 C 255.613 271.020 248.366 271.388 249.725 271.292 C 249.219 271.331 248.713 271.371 248.207 271.410 C 247.701 271.455 247.195 271.501 246.689 271.547 C 248.047 271.415 240.798 272.263 242.149 272.078 C 241.648 272.150 241.146 272.222 240.644 272.294 C 241.538 272.160 236.774 272.943 237.659 272.786 C 238.986 272.549 231.960 273.953 233.258 273.665 C 232.779 273.775 232.299 273.885 231.818 273.996 C 231.344 274.112 230.869 274.228 230.394 274.345 C 231.660 274.025 225.013 275.867 226.231 275.498 C 227.039 275.254 222.780 276.619 223.562 276.354 C 223.130 276.504 222.697 276.655 222.263 276.806 C 221.840 276.962 221.416 277.118 220.991 277.275 C 220.174 277.602 219.354 277.930 218.532 278.259" fill="none" stroke="black" stroke-width="1.8" stroke-linecap="butt" stroke-linejoin="round" stroke-dasharray="4 4" opacity="0.5" /><path d="M 192.310 191.283 C 191.630 191.491 189.649 192.067 190.258 191.867 C 189.919 191.986 189.578 192.105 189.238 192.224 C 189.209 192.235 189.180 192.247 189.152 192.258" fill="none" stroke="black" stroke-width="1.8" stroke-linecap="butt" stroke-linejoin="round" stroke-dasharray="4 4" opacity="0.5" /><path d="M 173.854 251.659 C 174.065 251.890 174.286 252.133 174.487 252.356" fill="none" stroke="black" stroke-width="1.8" stroke-linecap="butt" stroke-linejoin="round" stroke-dasharray="4 4" opacity="0.5" /><path d="M 176.352 254.149 C 176.887 254.560 177.687 255.193 178.122 255.550" fill="none" stroke="black" stroke-width="1.8" stroke-linecap="butt" stroke-linejoin="round" stroke-dasharray="4 4" opacity="0.5" /><path d="M 180.961 257.302 C 181.528 257.518 183.944 258.573 183.789 258.547" fill="none" stroke="black" stroke-width="1.8" stroke-linecap="butt" stroke-linejoin="round" stroke-dasharray="4 4" opacity="0.5" /><path d="M 183.628 258.488 C 183.776 258.515 186.085 259.234 185.582 259.102 C 185.012 258.952 188.089 259.620 187.511 259.521 C 187.837 259.570 188.162 259.619 188.487 259.668 C 188.815 259.702 189.142 259.737 189.468 259.772 C 188.587 259.697 193.319 259.800 192.434 259.836 C 192.765 259.816 193.096 259.795 193.426 259.775 C 192.537 259.848 197.274 259.168 196.394 259.348 C 196.722 259.274 197.050 259.200 197.377 259.126 C 196.498 259.343 201.152 257.910 200.294 258.228 C 199.721 258.440 202.760 257.185 202.199 257.441 C 202.512 257.291 202.825 257.142 203.137 256.993 C 203.447 256.832 203.756 256.670 204.064 256.509 C 203.239 256.958 207.556 254.316 206.769 254.853 C 207.061 254.647 207.352 254.441 207.642 254.235 C 207.127 254.612 209.835 252.492 209.341 252.905 C 208.595 253.528 212.449 249.989 211.755 250.687 C 212.011 250.422 212.267 250.157 212.522 249.892 C 211.845 250.616 215.314 246.563 214.696 247.352 C 214.922 247.054 215.149 246.756 215.376 246.458 C 214.777 247.269 217.808 242.777 217.275 243.643 C 217.470 243.317 217.665 242.991 217.859 242.665 C 218.045 242.332 218.232 242.000 218.418 241.668 C 217.929 242.568 220.350 237.637 219.935 238.578 C 219.518 239.520 221.545 234.387 221.204 235.362 C 220.978 236.010 222.100 232.502 221.908 233.162 C 222.011 232.791 222.114 232.419 222.216 232.048 C 222.309 231.675 222.402 231.301 222.495 230.928 C 222.259 231.933 223.303 226.515 223.149 227.533 C 223.201 227.153 223.253 226.773 223.306 226.394 C 223.179 227.413 223.634 221.952 223.590 222.972 C 223.601 222.592 223.612 222.213 223.623 221.833 C 223.623 221.455 223.624 221.076 223.624 220.698 C 223.637 221.711 223.341 216.322 223.439 217.321 C 223.397 216.950 223.356 216.580 223.314 216.209 C 223.262 215.842 223.210 215.474 223.158 215.106 C 223.096 214.742 223.033 214.378 222.971 214.013 C 223.091 214.659 222.344 211.230 222.502 211.862 C 222.739 212.812 221.248 207.829 221.568 208.740 C 221.887 209.648 219.961 204.910 220.361 205.771 C 220.207 205.454 220.053 205.137 219.899 204.820 C 220.182 205.379 218.572 202.453 218.889 202.985 C 218.707 202.692 218.525 202.398 218.342 202.103 C 218.151 201.818 217.959 201.532 217.767 201.246 C 218.293 202.000 215.282 198.150 215.880 198.833 C 215.653 198.584 215.427 198.335 215.199 198.085 C 215.818 198.740 212.325 195.456 213.010 196.027 C 213.465 196.406 210.954 194.479 211.435 194.819 C 211.163 194.635 210.889 194.450 210.616 194.266 C 211.357 194.744 207.243 192.444 208.038 192.824 C 207.740 192.689 207.441 192.554 207.142 192.419 C 206.838 192.297 206.534 192.175 206.229 192.052 C 205.920 191.943 205.611 191.834 205.301 191.725 C 206.137 191.999 201.558 190.820 202.432 190.985 C 202.105 190.931 201.779 190.876 201.451 190.821 C 202.331 190.949 197.546 190.572 198.452 190.585 C 199.053 190.593 195.809 190.685 196.418 190.642 C 196.077 190.674 195.736 190.705 195.394 190.737 C 195.052 190.783 194.710 190.829 194.367 190.875 C 193.683 191.011 192.998 191.147 192.310 191.283" fill="none" stroke="black" stroke-width="1.8" stroke-linecap="butt" stroke-linejoin="round" stroke-dasharray="4 4" opacity="0.5" /><path d="M 252.119 225.486 C 251.720 227.927 251.322 230.359 250.925 232.782 C 250.430 233.939 249.935 235.093 249.440 236.246 C 248.925 237.146 248.411 238.046 247.897 238.945 C 249.121 236.981 241.542 246.929 243.127 245.161 C 242.591 245.735 242.054 246.309 241.518 246.882 C 242.882 245.475 235.168 252.700 236.683 251.404 C 236.148 251.848 235.613 252.293 235.078 252.738 C 234.546 253.158 234.014 253.578 233.481 253.999 C 232.953 254.395 232.423 254.792 231.894 255.190 C 233.266 254.185 225.791 259.266 227.210 258.373 C 226.700 258.685 226.191 258.998 225.680 259.310 C 225.178 259.602 224.675 259.894 224.171 260.187 C 225.054 259.688 220.342 262.194 221.217 261.757 C 222.505 261.115 215.743 264.140 216.977 263.654 C 218.206 263.171 211.878 265.286 213.011 264.980 C 213.774 264.775 209.834 265.649 210.542 265.529 C 210.150 265.585 209.758 265.641 209.365 265.697 C 208.987 265.728 208.608 265.759 208.228 265.790 C 209.252 265.740 204.222 265.428 205.078 265.595 C 204.759 265.517 204.439 265.438 204.119 265.359 C 203.816 265.248 203.512 265.138 203.208 265.027 C 202.921 264.883 202.633 264.739 202.345 264.594 C 203.132 265.052 199.469 261.837 200.055 262.585 C 199.834 262.266 199.612 261.947 199.390 261.626 C 200.020 262.660 197.238 255.876 197.657 257.399 C 197.483 256.678 197.309 255.955 197.134 255.228 C 196.949 254.215 196.765 253.197 196.579 252.175 C 196.249 249.750 195.916 247.309 195.582 244.852" fill="none" stroke="black" stroke-width="1.8" stroke-linecap="butt" stroke-linejoin="round" stroke-dasharray="4 4" opacity="0.5" /><path d="M 239.021 260.575 C 239.394 261.676 239.766 262.776 240.137 263.873" fill="none" stroke="black" stroke-width="1.8" stroke-linecap="butt" stroke-linejoin="round" stroke-dasharray="4 4" opacity="0.5" /><path d="M 245.931 273.030 C 247.337 274.160 251.877 278.337 252.674 279.235" fill="none" stroke="black" stroke-width="1.8" stroke-linecap="butt" stroke-linejoin="round" stroke-dasharray="4 4" opacity="0.5" /><path d="M 254.694 280.670 C 255.863 281.216 261.098 284.099 261.273 284.311" fill="none" stroke="black" stroke-width="1.8" stroke-linecap="butt" stroke-linejoin="round" stroke-dasharray="4 4" opacity="0.5" /><path d="M 263.455 285.208 C 263.988 285.394 264.520 285.580 265.052 285.766 C 265.701 285.952 266.349 286.138 266.996 286.324 C 265.325 285.895 274.143 287.331 272.524 287.225 C 273.103 287.244 273.682 287.262 274.258 287.281 C 274.818 287.260 275.377 287.240 275.934 287.220 C 274.962 287.289 280.017 286.552 279.103 286.757 C 277.748 287.062 284.554 284.658 283.371 285.250 C 282.181 285.844 287.997 281.965 287.016 282.816 C 286.349 283.394 289.648 280.023 289.083 280.702 C 289.391 280.301 289.698 279.901 290.005 279.502 C 290.287 279.070 290.569 278.639 290.851 278.208 C 290.105 279.446 293.426 272.363 292.927 273.767 C 293.106 273.211 293.285 272.655 293.464 272.100 C 293.617 271.510 293.769 270.922 293.922 270.335 C 294.049 269.713 294.175 269.092 294.302 268.472 C 293.980 270.282 295.052 260.305 294.966 262.224 C 294.987 261.443 295.008 260.663 295.028 259.884 C 295.007 262.279 294.540 249.180 294.722 251.686 C 294.630 250.549 294.537 249.413 294.445 248.277 C 294.316 246.871 294.188 245.466 294.060 244.061 C 293.848 241.315 293.636 238.564 293.424 235.809" fill="none" stroke="black" stroke-width="1.8" stroke-linecap="butt" stroke-linejoin="round" stroke-dasharray="4 4" opacity="0.5" /><path d="M 251.959 223.373 C 251.186 220.939 250.410 218.495 249.630 216.042 C 248.948 214.892 248.263 213.740 247.578 212.585 C 246.911 211.702 246.242 210.818 245.573 209.932 C 247.134 211.840 237.740 202.519 239.668 204.102 C 239.021 203.600 238.373 203.097 237.725 202.594 C 239.361 203.801 230.187 198.010 231.975 198.966 C 231.348 198.650 230.720 198.333 230.091 198.015 C 229.470 197.738 228.848 197.460 228.226 197.182 C 227.612 196.942 226.998 196.702 226.382 196.462 C 227.969 197.038 219.391 194.632 221.005 194.950 C 220.429 194.853 219.851 194.755 219.272 194.657 C 218.707 194.594 218.141 194.531 217.573 194.468 C 218.563 194.549 213.322 194.440 214.287 194.399 C 215.708 194.339 208.357 195.403 209.678 195.064 C 210.992 194.727 204.352 197.269 205.515 196.658 C 206.299 196.245 202.323 198.771 203.023 198.241 C 202.639 198.557 202.255 198.874 201.869 199.191 C 201.507 199.543 201.145 199.895 200.781 200.248 C 201.750 199.227 197.203 205.337 197.934 204.078 C 197.667 204.578 197.400 205.079 197.133 205.581 C 196.892 206.121 196.651 206.662 196.409 207.204 C 196.195 207.785 195.981 208.367 195.767 208.950 C 196.332 207.247 194.067 216.922 194.352 215.010 C 194.256 215.788 194.160 216.568 194.064 217.349 C 194.300 214.948 193.899 228.389 193.821 225.766 C 193.877 226.957 193.933 228.149 193.989 229.342 C 194.107 230.828 194.226 232.314 194.344 233.800 C 194.663 236.714 194.981 239.622 195.298 242.524" fill="none" stroke="black" stroke-width="1.8" stroke-linecap="butt" stroke-linejoin="round" stroke-dasharray="4 4" opacity="0.5" /><path d="M 243.757 238.367 C 244.980 236.839 246.992 234.196 248.139 232.620" fill="none" stroke="black" stroke-width="1.8" stroke-linecap="butt" stroke-linejoin="round" stroke-dasharray="4 4" opacity="0.5" /><path d="M 252.534 227.892 C 253.354 227.133 254.295 226.253 255.093 225.498" fill="none" stroke="black" stroke-width="1.8" stroke-linecap="butt" stroke-linejoin="round" stroke-dasharray="4 4" opacity="0.5" /><path d="M 264.226 218.258 C 264.969 217.767 265.805 217.209 266.520 216.727" fill="none" stroke="black" stroke-width="1.8" stroke-linecap="butt" stroke-linejoin="round" stroke-dasharray="4 4" opacity="0.5" /><path d="M 275.375 211.842 C 276.372 211.461 278.073 210.782 278.927 210.421" fill="none" stroke="black" stroke-width="1.8" stroke-linecap="butt" stroke-linejoin="round" stroke-dasharray="4 4" opacity="0.5" /><path d="M 279.516 210.223 C 280.402 210.029 282.549 209.484 283.191 209.287" fill="none" stroke="black" stroke-width="1.8" stroke-linecap="butt" stroke-linejoin="round" stroke-dasharray="4 4" opacity="0.5" /><path d="M 283.513 209.234 C 284.059 209.194 285.073 209.097 285.460 209.046" fill="none" stroke="black" stroke-width="1.8" stroke-linecap="butt" stroke-linejoin="round" stroke-dasharray="4 4" opacity="0.5" /><path d="M 287.039 209.101 C 287.145 209.114 287.252 209.127 287.358 209.140" fill="none" stroke="black" stroke-width="1.8" stroke-linecap="butt" stroke-linejoin="round" stroke-dasharray="4 4" opacity="0.5" /><path d="M 287.443 209.153 C 287.135 209.177 290.570 210.455 289.995 210.086 C 290.218 210.254 290.441 210.420 290.662 210.587 C 290.860 210.788 291.057 210.988 291.254 211.188 C 291.427 211.425 291.599 211.661 291.771 211.896 C 291.317 211.173 293.096 215.690 292.877 214.724 C 292.952 215.132 293.027 215.538 293.102 215.944 C 292.913 214.646 293.371 222.517 293.372 220.857 C 293.362 221.640 293.353 222.421 293.344 223.198 C 293.322 224.258 293.301 225.313 293.280 226.363 C 293.295 228.784 293.310 231.189 293.325 233.580" fill="none" stroke="black" stroke-width="1.8" stroke-linecap="butt" stroke-linejoin="round" stroke-dasharray="4 4" opacity="0.5" /><path d="M 292.970 210.318 C 291.980 187.699 290.955 164.281 289.894 140.021" fill="none" stroke="black" stroke-width="1.8" stroke-linecap="butt" stroke-linejoin="round" /><path d="M 201.711 295.430 C 196.016 248.647 189.866 198.128 183.205 143.406" fill="none" stroke="black" stroke-width="1.8" stroke-linecap="butt" stroke-linejoin="round" /><path d="M 184.143 258.672 C 188.624 260.173 193.173 261.697 197.793 263.244" fill="none" stroke="black" stroke-width="1.8" stroke-linecap="butt" stroke-linejoin="round" /><path d="M 264.254 285.503 C 272.652 288.316 281.263 291.200 290.096 294.158" fill="none" stroke="black" stroke-width="1.8" stroke-linecap="butt" stroke-linejoin="round" /><path d="M 287.686 209.189 C 295.610 210.882 303.718 212.614 312.016 214.386" fill="none" stroke="black" stroke-width="1.8" stroke-linecap="butt" stroke-linejoin="round" /><path d="M 201.685 295.219 C 202.077 299.440 205.841 303.412 213.269 306.354 C 232.213 313.859 265.148 311.338 284.231 301.112 C 287.981 299.103 290.836 296.971 292.828 294.810" fill="none" stroke="black" stroke-width="1.8" stroke-linecap="butt" stroke-linejoin="round" /><path d="M 203.464 136.679 C 180.741 139.930 175.767 144.932 195.305 147.750 C 216.201 150.764 253.744 149.749 275.799 145.659 C 295.911 141.930 293.798 137.269 273.729 135.082 C 254.778 133.017 224.389 133.685 203.464 136.679" fill="none" stroke="black" stroke-width="1.8" stroke-linecap="butt" stroke-linejoin="round" /><path d="M 189.151 192.253 C 174.039 197.913 163.703 216.504 166.339 234.860 C 168.120 247.259 175.394 255.936 184.580 258.819" fill="none" stroke="black" stroke-width="1.8" stroke-linecap="butt" stroke-linejoin="round" /><path d="M 302.182 215.205 C 286.280 220.905 273.652 245.007 275.028 267.873 C 276.355 289.929 290.194 300.317 305.021 292.292 C 318.886 284.787 329.221 263.387 328.891 243.507 C 328.550 222.984 316.989 209.896 302.182 215.205" fill="none" stroke="black" stroke-width="1.8" stroke-linecap="butt" stroke-linejoin="round" /><path d="M 201.722 295.501 C 201.724 295.520 201.726 295.540 201.728 295.560 C 201.770 295.788 201.812 296.016 201.853 296.245" fill="none" stroke="black" stroke-width="1.8" stroke-linecap="butt" stroke-linejoin="round" /><path d="M 202.256 297.426 C 202.312 297.617 202.337 297.717 202.288 297.601" fill="none" stroke="black" stroke-width="1.8" stroke-linecap="butt" stroke-linejoin="round" /><path d="M 203.346 299.387 C 203.467 299.623 203.513 299.734 203.402 299.581 C 203.567 299.794 203.732 300.008 203.897 300.222 C 203.748 300.041 203.941 300.214 204.255 300.518" fill="none" stroke="black" stroke-width="1.8" stroke-linecap="butt" stroke-linejoin="round" /><path d="M 205.309 301.568 C 205.714 301.984 205.986 302.279 205.747 302.078 C 205.115 301.542 208.933 304.307 208.139 303.810 C 207.612 303.480 210.620 305.193 210.024 304.883 C 209.131 304.419 214.311 306.767 213.269 306.354 C 213.664 306.504 214.060 306.654 214.456 306.804 C 214.869 306.947 215.281 307.089 215.695 307.232 C 216.123 307.367 216.552 307.502 216.982 307.638 C 217.426 307.765 217.871 307.893 218.317 308.020 C 217.103 307.689 223.918 309.288 222.586 309.022 C 221.257 308.757 228.640 309.988 227.211 309.794 C 225.785 309.599 233.636 310.441 232.130 310.321 C 232.694 310.361 233.258 310.401 233.823 310.441 C 234.395 310.472 234.967 310.502 235.539 310.533 C 236.118 310.554 236.697 310.575 237.275 310.596 C 236.236 310.567 241.854 310.632 240.797 310.637 C 241.390 310.629 241.983 310.622 242.576 310.614 C 240.978 310.647 249.569 310.265 247.959 310.375 C 248.559 310.329 249.158 310.284 249.758 310.238 C 250.357 310.183 250.956 310.129 251.555 310.074 C 252.152 310.010 252.749 309.946 253.346 309.882 C 251.744 310.066 260.233 308.888 258.665 309.144 C 257.093 309.400 265.355 307.850 263.840 308.173 C 264.401 308.049 264.962 307.924 265.522 307.800 C 264.025 308.145 271.814 306.141 270.401 306.545 C 270.923 306.390 271.444 306.236 271.964 306.083 C 270.577 306.506 277.716 304.104 276.437 304.578 C 276.908 304.398 277.378 304.219 277.848 304.039 C 278.305 303.854 278.761 303.669 279.216 303.484 C 278.413 303.820 282.565 301.973 281.819 302.326 C 281.070 302.680 284.919 300.743 284.231 301.112 C 284.609 300.903 284.986 300.695 285.363 300.486 C 284.370 301.053 289.291 297.955 288.445 298.546 C 288.752 298.324 289.058 298.102 289.365 297.881 C 288.563 298.481 292.437 295.233 291.790 295.846 C 291.516 296.106 292.278 295.309 292.774 294.802" fill="none" stroke="black" stroke-width="1.8" stroke-linecap="butt" stroke-linejoin="round" /><path d="M 203.464 136.679 C 202.585 136.815 199.995 137.209 200.777 137.084 C 200.347 137.155 199.917 137.225 199.486 137.296 C 199.068 137.368 198.650 137.440 198.232 137.512 C 198.966 137.382 195.153 138.098 195.842 137.961 C 196.872 137.756 191.661 138.889 192.577 138.670 C 192.246 138.752 191.913 138.834 191.581 138.915 C 192.449 138.695 188.152 139.905 188.888 139.673 C 188.624 139.760 188.360 139.846 188.095 139.933 C 187.849 140.020 187.603 140.107 187.356 140.195 C 187.129 140.283 186.902 140.371 186.673 140.460 C 186.465 140.548 186.257 140.638 186.048 140.727 C 186.580 140.487 184.156 141.784 184.528 141.539 C 184.775 141.377 183.653 142.251 183.825 142.087 C 183.740 142.178 183.655 142.270 183.570 142.362 C 183.769 142.116 183.180 143.430 183.200 143.184 C 183.204 143.275 183.208 143.366 183.212 143.457 C 183.239 143.547 183.266 143.638 183.293 143.728 C 183.224 143.567 183.814 144.424 183.662 144.265 C 183.435 144.028 185.160 145.281 184.742 145.050 C 184.909 145.135 185.076 145.220 185.243 145.305 C 184.764 145.079 187.839 146.258 187.169 146.043 C 186.502 145.830 190.575 146.932 189.720 146.734 C 189.153 146.602 192.407 147.286 191.759 147.162 C 190.789 146.977 196.450 147.915 195.305 147.750 C 195.740 147.810 196.176 147.870 196.612 147.930 C 197.067 147.987 197.522 148.044 197.978 148.101 C 198.453 148.156 198.927 148.210 199.403 148.264 C 199.896 148.315 200.389 148.366 200.883 148.417 C 199.535 148.284 207.129 148.925 205.641 148.819 C 204.156 148.713 212.428 149.207 210.823 149.128 C 209.221 149.050 218.059 149.389 216.360 149.340 C 216.997 149.356 217.634 149.372 218.272 149.389 C 218.918 149.401 219.564 149.413 220.211 149.425 C 220.866 149.434 221.520 149.442 222.175 149.451 C 220.998 149.439 227.365 149.465 226.166 149.467 C 226.839 149.464 227.512 149.461 228.185 149.458 C 226.371 149.471 236.136 149.318 234.304 149.362 C 234.987 149.344 235.669 149.325 236.352 149.307 C 237.034 149.285 237.717 149.263 238.399 149.241 C 239.080 149.215 239.761 149.189 240.441 149.164 C 238.614 149.238 248.301 148.765 246.510 148.868 C 244.716 148.970 254.158 148.349 252.426 148.478 C 253.068 148.428 253.709 148.379 254.349 148.329 C 252.637 148.467 261.552 147.665 259.934 147.826 C 260.532 147.765 261.129 147.703 261.725 147.641 C 260.135 147.811 268.318 146.851 266.851 147.040 C 267.391 146.968 267.931 146.897 268.470 146.825 C 268.994 146.751 269.517 146.677 270.040 146.604 C 269.118 146.738 273.884 146.002 273.027 146.142 C 272.167 146.283 276.590 145.512 275.799 145.659 C 276.233 145.576 276.667 145.493 277.100 145.410 C 275.958 145.636 281.622 144.405 280.648 144.640 C 281.002 144.552 281.355 144.464 281.708 144.376 C 280.784 144.614 285.260 143.328 284.511 143.570 C 284.011 143.732 286.479 142.862 286.058 143.025 C 285.635 143.188 287.687 142.313 287.344 142.476 C 287.526 142.384 287.707 142.293 287.889 142.201 C 288.048 142.110 288.208 142.018 288.367 141.927 C 287.967 142.173 289.633 140.867 289.410 141.109 C 289.483 141.019 289.555 140.929 289.628 140.839 C 289.679 140.749 289.730 140.660 289.781 140.571 C 289.672 140.811 289.795 139.550 289.857 139.781 C 289.919 140.014 289.147 138.797 289.372 139.019 C 289.278 138.936 289.184 138.854 289.090 138.772 C 288.976 138.691 288.862 138.610 288.748 138.529 C 289.081 138.745 286.896 137.626 287.379 137.828 C 287.189 137.754 287.000 137.679 286.811 137.604 C 287.166 137.737 285.097 137.046 285.514 137.172 C 285.271 137.102 285.029 137.033 284.787 136.964 C 285.462 137.148 281.505 136.207 282.308 136.374 C 282.000 136.313 281.693 136.251 281.386 136.190 C 282.234 136.353 277.390 135.530 278.352 135.675 C 277.986 135.622 277.620 135.569 277.255 135.517 C 276.876 135.466 276.497 135.415 276.118 135.365 C 275.726 135.317 275.334 135.268 274.942 135.220 C 276.014 135.347 270.029 134.721 271.194 134.828 C 270.754 134.789 270.314 134.751 269.875 134.712 C 270.671 134.779 266.311 134.443 267.143 134.501 C 268.395 134.589 261.505 134.174 262.828 134.241 C 264.153 134.309 256.902 134.003 258.286 134.050 C 257.767 134.034 257.248 134.018 256.729 134.002 C 256.203 133.988 255.678 133.974 255.152 133.961 C 254.620 133.950 254.089 133.939 253.558 133.928 C 254.994 133.954 247.207 133.871 248.681 133.876 C 248.130 133.876 247.580 133.875 247.029 133.875 C 248.016 133.873 242.697 133.905 243.695 133.895 C 245.195 133.879 237.127 134.021 238.642 133.984 C 238.078 133.999 237.514 134.014 236.949 134.029 C 236.385 134.046 235.820 134.064 235.255 134.082 C 236.771 134.031 228.666 134.358 230.179 134.287 C 229.617 134.314 229.056 134.342 228.494 134.370 C 229.495 134.318 224.150 134.621 225.144 134.560 C 226.634 134.468 218.730 135.011 220.193 134.899 C 219.652 134.942 219.111 134.984 218.569 135.027 C 218.033 135.072 217.497 135.117 216.961 135.162 C 218.391 135.038 210.864 135.751 212.246 135.608 C 213.163 135.514 208.322 136.042 209.212 135.939 C 208.720 135.998 208.227 136.056 207.733 136.115 C 207.249 136.175 206.765 136.236 206.280 136.297 C 205.345 136.424 204.406 136.551 203.464 136.679" fill="none" stroke="black" stroke-width="1.8" stroke-linecap="butt" stroke-linejoin="round" /><path d="M 189.152 192.258 C 188.842 192.380 188.532 192.502 188.222 192.625 C 188.824 192.374 185.620 193.857 186.213 193.555 C 187.103 193.102 182.414 195.832 183.274 195.266 C 182.957 195.483 182.639 195.701 182.320 195.918 C 183.166 195.318 178.753 198.817 179.554 198.111 C 179.260 198.379 178.964 198.648 178.669 198.917 C 178.381 199.198 178.092 199.479 177.804 199.760 C 177.523 200.053 177.242 200.345 176.961 200.638 C 177.704 199.838 173.896 204.360 174.574 203.472 C 174.326 203.808 174.078 204.143 173.830 204.479 C 174.264 203.872 172.027 207.220 172.427 206.579 C 173.028 205.616 170.032 210.949 170.549 209.922 C 170.362 210.308 170.175 210.694 169.987 211.081 C 170.474 210.035 168.114 215.764 168.508 214.671 C 168.367 215.081 168.226 215.490 168.085 215.900 C 167.957 216.313 167.828 216.727 167.700 217.141 C 167.918 216.399 166.866 220.409 167.040 219.656 C 166.949 220.079 166.858 220.502 166.767 220.925 C 166.994 219.787 166.057 225.906 166.180 224.761 C 166.141 225.188 166.101 225.615 166.062 226.042 C 166.036 226.469 166.010 226.895 165.984 227.321 C 166.019 226.561 165.958 230.621 165.946 229.868 C 165.928 228.734 166.305 234.735 166.182 233.629 C 166.060 232.521 166.992 238.344 166.767 237.278 C 166.857 237.673 166.947 238.068 167.037 238.462 C 167.140 238.850 167.242 239.238 167.345 239.626 C 167.053 238.593 168.869 243.958 168.483 242.988 C 168.633 243.346 168.783 243.703 168.932 244.061 C 168.515 243.112 170.982 247.983 170.479 247.113 C 170.672 247.433 170.865 247.752 171.058 248.071 C 171.261 248.381 171.464 248.690 171.667 248.998 C 171.295 248.456 173.375 251.254 172.971 250.753 C 172.700 250.416 173.237 250.986 173.854 251.659" fill="none" stroke="black" stroke-width="1.8" stroke-linecap="butt" stroke-linejoin="round" /><path d="M 174.487 252.356 C 175.012 252.939 175.400 253.387 175.129 253.123 C 175.385 253.362 175.641 253.601 175.897 253.840 C 175.671 253.638 175.928 253.824 176.352 254.149" fill="none" stroke="black" stroke-width="1.8" stroke-linecap="butt" stroke-linejoin="round" /><path d="M 178.122 255.550 C 178.406 255.783 178.534 255.898 178.333 255.760 C 178.617 255.947 178.901 256.134 179.185 256.321 C 179.475 256.495 179.765 256.668 180.055 256.842 C 180.351 257.002 180.646 257.162 180.941 257.322" fill="none" stroke="black" stroke-width="1.8" stroke-linecap="butt" stroke-linejoin="round" /><path d="M 183.789 258.547 C 183.776 258.545 183.743 258.534 183.689 258.515 C 183.626 258.492 183.609 258.484 183.628 258.488" fill="none" stroke="black" stroke-width="1.8" stroke-linecap="butt" stroke-linejoin="round" /><path d="M 302.182 215.205 C 301.538 215.486 299.661 216.270 300.240 216.002 C 299.917 216.161 299.593 216.319 299.269 216.478 C 298.946 216.653 298.622 216.829 298.298 217.004 C 298.874 216.677 295.796 218.596 296.368 218.208 C 297.226 217.626 292.675 221.095 293.516 220.381 C 293.205 220.654 292.894 220.928 292.582 221.201 C 293.411 220.448 289.056 224.810 289.853 223.934 C 289.559 224.267 289.265 224.600 288.971 224.933 C 288.683 225.280 288.394 225.626 288.106 225.974 C 287.823 226.333 287.541 226.694 287.258 227.054 C 288.007 226.071 284.138 231.610 284.833 230.526 C 284.579 230.935 284.324 231.344 284.069 231.754 C 284.516 231.014 282.195 235.085 282.613 234.307 C 283.241 233.139 280.073 239.591 280.627 238.351 C 280.426 238.816 280.224 239.282 280.023 239.748 C 280.550 238.489 277.951 245.369 278.394 244.060 C 278.235 244.550 278.075 245.040 277.916 245.530 C 277.767 246.024 277.619 246.519 277.471 247.013 C 277.725 246.128 276.471 250.904 276.684 250.009 C 276.571 250.512 276.457 251.014 276.344 251.517 C 276.633 250.166 275.349 257.408 275.539 256.056 C 275.474 256.560 275.410 257.063 275.345 257.566 C 275.292 258.068 275.240 258.570 275.187 259.071 C 275.270 258.178 274.946 262.939 274.984 262.058 C 275.042 260.730 275.004 267.729 274.961 266.444 C 274.918 265.157 275.414 271.897 275.272 270.668 C 275.331 271.123 275.390 271.577 275.449 272.031 C 275.520 272.477 275.591 272.923 275.662 273.368 C 275.456 272.183 276.811 278.307 276.512 277.206 C 276.629 277.612 276.747 278.017 276.864 278.422 C 276.534 277.348 278.529 282.831 278.115 281.858 C 278.275 282.215 278.435 282.572 278.594 282.928 C 278.765 283.272 278.935 283.616 279.104 283.959 C 278.792 283.357 280.555 286.445 280.210 285.895 C 279.690 285.066 282.659 289.182 282.071 288.474 C 282.295 288.731 282.519 288.988 282.742 289.244 C 282.131 288.575 285.554 291.809 284.887 291.270 C 285.140 291.464 285.392 291.657 285.644 291.850 C 285.903 292.027 286.161 292.204 286.419 292.381 C 286.684 292.542 286.948 292.703 287.212 292.863 C 286.494 292.453 290.440 294.290 289.685 294.014 C 289.182 293.830 291.918 294.658 291.401 294.533 C 290.883 294.408 293.688 294.921 293.160 294.855 C 293.459 294.884 293.756 294.913 294.053 294.942 C 294.354 294.954 294.654 294.967 294.953 294.980 C 294.144 294.968 298.505 294.687 297.686 294.803 C 297.993 294.752 298.299 294.700 298.604 294.649 C 297.781 294.808 302.186 293.626 301.365 293.908 C 301.672 293.795 301.978 293.682 302.284 293.569 C 301.461 293.892 305.829 291.854 305.021 292.292 C 304.482 292.584 307.350 290.888 306.820 291.228 C 307.117 291.030 307.413 290.833 307.709 290.635 C 308.003 290.424 308.297 290.214 308.590 290.003 C 307.805 290.587 311.928 287.197 311.173 287.878 C 311.453 287.618 311.733 287.357 312.012 287.097 C 311.516 287.573 314.129 284.918 313.651 285.432 C 312.929 286.208 316.679 281.836 316.001 282.693 C 316.251 282.368 316.502 282.044 316.752 281.719 C 316.087 282.604 319.516 277.681 318.901 278.635 C 319.127 278.275 319.354 277.915 319.580 277.555 C 318.981 278.532 322.038 273.146 321.496 274.180 C 321.695 273.791 321.893 273.402 322.092 273.013 C 322.284 272.618 322.475 272.223 322.667 271.828 C 322.162 272.897 324.694 267.059 324.253 268.170 C 323.811 269.281 325.999 263.243 325.623 264.386 C 325.374 265.147 326.631 261.041 326.412 261.811 C 326.530 261.378 326.649 260.945 326.767 260.512 C 326.877 260.076 326.986 259.641 327.096 259.206 C 326.814 260.376 328.132 254.083 327.922 255.262 C 327.995 254.823 328.069 254.383 328.142 253.944 C 327.958 255.123 328.746 248.819 328.637 249.993 C 328.673 249.557 328.709 249.120 328.745 248.683 C 328.771 248.248 328.798 247.813 328.825 247.378 C 328.766 248.541 328.872 242.364 328.891 243.507 C 328.879 243.083 328.867 242.660 328.855 242.236 C 328.834 241.816 328.812 241.397 328.791 240.976 C 328.759 240.561 328.728 240.146 328.697 239.730 C 328.761 240.467 328.323 236.565 328.422 237.283 C 328.571 238.362 327.565 232.713 327.792 233.744 C 328.018 234.771 326.600 229.424 326.903 230.393 C 326.786 230.037 326.668 229.681 326.550 229.324 C 326.768 229.951 325.509 226.669 325.761 227.265 C 325.616 226.937 325.470 226.608 325.325 226.278 C 325.170 225.960 325.016 225.641 324.861 225.321 C 325.287 226.162 322.814 221.885 323.312 222.641 C 323.122 222.366 322.933 222.091 322.743 221.815 C 323.262 222.537 320.303 218.933 320.890 219.557 C 321.278 219.970 319.118 217.878 319.535 218.244 C 319.299 218.046 319.062 217.848 318.824 217.649 C 319.468 218.162 315.862 215.723 316.565 216.120 C 316.301 215.980 316.036 215.840 315.772 215.699 C 315.501 215.574 315.231 215.449 314.960 215.324 C 314.684 215.214 314.408 215.105 314.131 214.995 C 314.878 215.267 310.753 214.149 311.545 214.293 C 311.249 214.248 310.952 214.202 310.654 214.157 C 311.455 214.256 307.072 214.082 307.907 214.047 C 308.461 214.024 305.460 214.311 306.025 214.227 C 305.708 214.283 305.391 214.338 305.073 214.394 C 304.753 214.467 304.434 214.540 304.114 214.613 C 303.472 214.809 302.828 215.007 302.182 215.205" fill="none" stroke="black" stroke-width="1.8" stroke-linecap="butt" stroke-linejoin="round" /><path d="M 238.098 257.844 C 238.406 258.755 238.714 259.666 239.021 260.575" fill="none" stroke="black" stroke-width="1.8" stroke-linecap="butt" stroke-linejoin="round" /><path d="M 240.137 263.873 C 240.405 264.666 240.673 265.457 240.940 266.248 C 241.754 267.541 242.566 268.831 243.376 270.118 C 244.161 271.093 244.944 272.066 245.725 273.036 C 245.365 272.625 245.500 272.683 245.931 273.030" fill="none" stroke="black" stroke-width="1.8" stroke-linecap="butt" stroke-linejoin="round" /><path d="M 252.674 279.235 C 252.867 279.453 252.842 279.479 252.502 279.225 C 253.232 279.736 253.961 280.246 254.688 280.755 C 254.369 280.544 254.413 280.539 254.694 280.670" fill="none" stroke="black" stroke-width="1.8" stroke-linecap="butt" stroke-linejoin="round" /><path d="M 261.273 284.311 C 261.298 284.341 261.224 284.319 261.029 284.232 C 261.708 284.512 262.386 284.791 263.062 285.071 C 263.193 285.116 263.324 285.162 263.455 285.208" fill="none" stroke="black" stroke-width="1.8" stroke-linecap="butt" stroke-linejoin="round" /><path d="M 237.878 255.377 C 238.327 252.504 238.779 249.618 239.233 246.719 C 239.825 245.327 240.417 243.932 241.011 242.534 C 241.635 241.438 242.259 240.341 242.885 239.242 C 242.454 239.936 242.922 239.411 243.757 238.367" fill="none" stroke="black" stroke-width="1.8" stroke-linecap="butt" stroke-linejoin="round" /><path d="M 248.139 232.620 C 248.926 231.539 249.304 230.961 248.739 231.593 C 249.401 230.885 250.062 230.177 250.723 229.469 C 250.065 230.149 251.120 229.201 252.534 227.892" fill="none" stroke="black" stroke-width="1.8" stroke-linecap="butt" stroke-linejoin="round" /><path d="M 255.093 225.498 C 256.431 224.233 257.369 223.319 256.664 223.920 C 257.316 223.380 257.968 222.840 258.620 222.300 C 259.266 221.794 259.911 221.288 260.556 220.783 C 261.194 220.310 261.831 219.837 262.467 219.364 C 261.802 219.845 262.851 219.168 264.226 218.258" fill="none" stroke="black" stroke-width="1.8" stroke-linecap="butt" stroke-linejoin="round" /><path d="M 266.520 216.727 C 267.756 215.894 268.627 215.292 268.004 215.673 C 268.594 215.323 269.183 214.974 269.771 214.626 C 270.346 214.306 270.919 213.987 271.492 213.668 C 270.490 214.207 275.741 211.582 274.784 212.022 C 274.362 212.217 274.712 212.096 275.375 211.842" fill="none" stroke="black" stroke-width="1.8" stroke-linecap="butt" stroke-linejoin="round" /><path d="M 278.927 210.421 C 279.406 210.220 279.622 210.117 279.301 210.223 C 278.990 210.325 279.136 210.307 279.516 210.223" fill="none" stroke="black" stroke-width="1.8" stroke-linecap="butt" stroke-linejoin="round" /><path d="M 283.191 209.287 C 283.399 209.223 283.450 209.196 283.250 209.228 C 283.039 209.262 283.197 209.258 283.513 209.234" fill="none" stroke="black" stroke-width="1.8" stroke-linecap="butt" stroke-linejoin="round" /><path d="M 285.460 209.046 C 285.620 209.025 285.673 209.012 285.541 209.014 C 285.888 209.024 286.234 209.033 286.580 209.043 C 286.733 209.062 286.886 209.081 287.039 209.101" fill="none" stroke="black" stroke-width="1.8" stroke-linecap="butt" stroke-linejoin="round" /><path d="M 287.358 209.140 C 287.420 209.148 287.483 209.156 287.545 209.164 C 287.495 209.155 287.462 209.151 287.443 209.153" fill="none" stroke="black" stroke-width="1.8" stroke-linecap="butt" stroke-linejoin="round" /></svg>