<svg xmlns="http://www.w3.org/2000/svg" width="700" height="520" viewBox="0 0 700 520"><rect width="100%" height="100%" fill="white" /><path d="M 603.784 220.108 C 604.949 218.474 606.119 216.833 607.294 215.184" fill="none" stroke="black" stroke-width="1.8" stroke-linecap="butt" stroke-linejoin="round" stroke-dasharray="4 4" opacity="0.5" /><path d="M 482.886 329.831 C 465.668 281.358 447.110 229.115 427.052 172.645" fill="none" stroke="black" stroke-width="1.8" stroke-linecap="butt" stroke-linejoin="round" stroke-dasharray="4 4" opacity="0.5" /><path d="M 525.410 291.238 C 534.759 282.753 544.383 274.018 554.294 265.023" fill="none" stroke="black" stroke-width="1.8" stroke-linecap="butt" stroke-linejoin="round" stroke-dasharray="4 4" opacity="0.5" /><path d="M 436.443 163.562 C 413.562 171.494 432.107 184.770 487.128 192.895 C 488.755 193.135 490.394 193.367 492.043 193.591" fill="none" stroke="black" stroke-width="1.8" stroke-linecap="butt" stroke-linejoin="round" stroke-dasharray="4 4" opacity="0.5" /><path d="M 460.429 158.855 C 450.746 159.917 442.449 161.481 436.443 163.562" fill="none" stroke="black" stroke-width="1.8" stroke-linecap="butt" stroke-linejoin="round" stroke-dasharray="4 4" opacity="0.5" /><path d="M 606.923 213.636 C 603.172 204.659 573.144 189.749 534.644 177.135 C 515.395 170.828 496.045 165.721 479.049 162.211" fill="none" stroke="black" stroke-width="1.8" stroke-linecap="butt" stroke-linejoin="round" stroke-dasharray="4 4" opacity="0.5" /><path d="M 436.443 163.562 C 435.773 163.824 433.770 164.585 434.359 164.345 C 434.041 164.480 433.722 164.616 433.403 164.752 C 433.105 164.890 432.806 165.029 432.506 165.168 C 433.022 164.918 430.451 166.296 430.895 166.032 C 431.559 165.638 428.461 167.824 428.955 167.401 C 428.784 167.559 428.612 167.717 428.440 167.876 C 428.869 167.448 427.064 169.809 427.308 169.354 C 427.230 169.523 427.151 169.693 427.073 169.864 C 427.019 170.036 426.965 170.208 426.910 170.382 C 426.985 170.071 426.823 171.761 426.808 171.440 C 426.829 171.620 426.850 171.800 426.871 171.981 C 426.918 172.163 426.965 172.345 427.012 172.528 C 426.852 172.037 428.285 174.721 427.908 174.209 C 428.061 174.399 428.214 174.590 428.368 174.781 C 428.548 174.973 428.729 175.165 428.910 175.358 C 428.390 174.841 431.789 177.648 431.037 177.116 C 431.329 177.313 431.621 177.511 431.915 177.709 C 432.235 177.907 432.556 178.106 432.878 178.306 C 431.981 177.773 437.425 180.650 436.286 180.107 C 436.721 180.308 437.157 180.509 437.595 180.710 C 436.791 180.352 441.385 182.277 440.473 181.916 C 439.566 181.558 444.712 183.478 443.697 183.119 C 444.276 183.318 444.856 183.517 445.438 183.718 C 443.847 183.185 453.004 186.020 451.171 185.493 C 449.354 184.971 459.702 187.737 457.651 187.226 C 456.295 186.888 463.825 188.678 462.369 188.347 C 463.192 188.530 464.016 188.713 464.844 188.896 C 462.602 188.410 475.155 190.946 472.705 190.484 C 473.622 190.653 474.542 190.822 475.464 190.992 C 476.403 191.157 477.344 191.322 478.288 191.487 C 475.738 191.050 489.852 193.297 487.128 192.895 C 488.145 193.041 489.164 193.188 490.186 193.335 C 489.197 193.196 490.484 193.355 492.418 193.602" fill="none" stroke="black" stroke-width="1.8" stroke-linecap="butt" stroke-linejoin="round" stroke-dasharray="4 4" opacity="0.5" /><path d="M 460.567 158.876 C 459.037 159.038 457.753 159.169 458.451 159.086 C 457.861 159.159 457.270 159.232 456.679 159.306 C 456.102 159.382 455.524 159.459 454.945 159.537 C 456.477 159.325 448.559 160.542 449.986 160.298 C 449.465 160.390 448.942 160.482 448.418 160.575 C 449.800 160.323 442.719 161.755 443.984 161.472 C 444.822 161.284 440.484 162.327 441.266 162.125 C 440.839 162.239 440.411 162.354 439.981 162.468 C 439.571 162.586 439.161 162.704 438.749 162.822 C 437.984 163.068 437.215 163.315 436.443 163.562" fill="none" stroke="black" stroke-width="1.8" stroke-linecap="butt" stroke-linejoin="round" stroke-dasharray="4 4" opacity="0.5" /><path d="M 429.650 169.415 C 428.732 169.815 427.832 170.218 426.939 170.629 C 444.422 167.672 460.987 164.870 476.704 162.212 C 455.656 163.311 440.759 165.566 429.650 169.415" fill="none" stroke="black" stroke-width="1.8" stroke-linecap="butt" stroke-linejoin="round" stroke-dasharray="4 4" opacity="0.5" /><path d="M 513.167 199.799 C 556.080 211.878 591.416 217.334 605.959 213.953" fill="none" stroke="black" stroke-width="1.8" stroke-linecap="butt" stroke-linejoin="round" stroke-dasharray="4 4" opacity="0.5" /><path d="M 606.881 213.692 C 606.583 213.256 605.486 211.324 605.838 211.806 C 605.664 211.583 605.490 211.360 605.318 211.138 C 605.819 211.746 602.625 208.403 603.316 209.044 C 603.045 208.801 602.775 208.560 602.507 208.319 C 602.213 208.072 601.921 207.827 601.630 207.582 C 602.449 208.250 597.625 204.617 598.608 205.306 C 599.599 206.002 593.898 202.238 595.037 202.949 C 594.600 202.681 594.166 202.415 593.732 202.149 C 593.278 201.879 592.825 201.610 592.374 201.342 C 591.902 201.071 591.432 200.800 590.964 200.530 C 592.255 201.263 585.027 197.331 586.436 198.068 C 585.901 197.792 585.366 197.516 584.834 197.241 C 585.804 197.736 580.486 195.085 581.501 195.580 C 580.923 195.302 580.347 195.024 579.773 194.747 C 579.182 194.469 578.593 194.191 578.006 193.914 C 579.611 194.663 570.804 190.676 572.490 191.417 C 571.853 191.140 571.218 190.863 570.585 190.587 C 571.732 191.082 565.506 188.444 566.683 188.934 C 566.017 188.659 565.353 188.384 564.690 188.111 C 564.015 187.837 563.342 187.564 562.670 187.292 C 564.496 188.026 554.592 184.141 556.468 184.859 C 555.763 184.591 555.059 184.324 554.357 184.057 C 555.623 184.534 548.796 182.003 550.079 182.471 C 552.015 183.178 541.572 179.455 543.539 180.140 C 542.802 179.885 542.066 179.631 541.332 179.377 C 543.319 180.058 532.639 176.478 534.644 177.135 C 536.657 177.794 525.861 174.337 527.884 174.970 C 527.128 174.735 526.373 174.501 525.619 174.267 C 527.652 174.893 516.776 171.621 518.809 172.218 C 520.846 172.816 509.966 169.697 511.996 170.264 C 514.029 170.833 503.191 167.878 505.209 168.414 C 504.458 168.216 503.708 168.018 502.957 167.821 C 502.209 167.627 501.461 167.434 500.713 167.240 C 499.967 167.051 499.221 166.862 498.476 166.673 C 499.806 167.007 492.713 165.258 494.031 165.577 C 496.012 166.056 485.501 163.591 487.449 164.034 C 488.744 164.327 481.852 162.798 483.130 163.075 C 482.418 162.923 481.706 162.770 480.994 162.618 C 481.796 162.788 480.481 162.524 478.825 162.188" fill="none" stroke="black" stroke-width="1.8" stroke-linecap="butt" stroke-linejoin="round" stroke-dasharray="4 4" opacity="0.5" /><path d="M 460.921 257.710 C 462.120 262.031 463.317 266.346 464.512 270.655 C 465.180 273.189 465.848 275.722 466.516 278.254 C 467.008 280.142 467.500 282.030 467.992 283.918 C 468.392 285.438 468.792 286.958 469.191 288.479 C 468.401 285.502 472.841 301.414 471.959 298.440 C 472.215 299.281 472.471 300.122 472.728 300.964 C 471.854 298.172 477.273 312.743 476.091 310.121 C 475.744 309.350 477.733 313.373 477.339 312.649 C 476.831 311.715 479.810 316.364 479.208 315.576 C 478.328 314.424 483.534 319.188 482.489 318.590 C 481.857 318.228 485.316 319.575 484.664 319.432 C 482.512 318.962 493.955 317.311 491.847 318.253 C 490.005 319.076 499.863 313.362 498.010 314.647 C 497.120 315.264 501.921 311.764 501.018 312.453 C 498.899 314.067 510.498 304.635 508.269 306.541 C 508.972 305.934 509.677 305.325 510.385 304.714 C 511.134 304.057 511.885 303.399 512.638 302.738 C 511.192 304.014 519.092 296.968 517.582 298.326 C 516.326 299.456 521.324 294.934 522.903 293.508" fill="none" stroke="black" stroke-width="1.8" stroke-linecap="butt" stroke-linejoin="round" stroke-dasharray="4 4" opacity="0.5" /><path d="M 552.053 267.042 C 555.515 263.891 567.037 253.423 564.062 256.141 C 565.483 254.839 566.908 253.533 568.337 252.224 C 564.517 255.738 585.024 236.546 581.185 240.211 C 578.656 242.625 592.061 229.584 589.581 232.048 C 590.944 230.677 592.309 229.306 593.675 227.933 C 595.008 226.556 596.343 225.178 597.678 223.799 C 595.319 226.272 602.755 218.256 605.353 215.484" fill="none" stroke="black" stroke-width="1.8" stroke-linecap="butt" stroke-linejoin="round" stroke-dasharray="4 4" opacity="0.5" /><path d="M 452.231 230.771 C 443.388 208.813 436.437 192.394 427.570 172.362" fill="none" stroke="black" stroke-width="1.8" stroke-linecap="butt" stroke-linejoin="round" stroke-dasharray="4 4" opacity="0.5" /><path d="M 497.071 369.766 C 527.650 326.881 562.844 277.524 603.784 220.108" fill="none" stroke="black" stroke-width="1.8" stroke-linecap="butt" stroke-linejoin="round" /><path d="M 607.294 215.184 C 613.960 205.837 620.790 196.258 627.791 186.439" fill="none" stroke="black" stroke-width="1.8" stroke-linecap="butt" stroke-linejoin="round" /><path d="M 497.071 369.766 C 492.441 356.731 487.714 343.422 482.886 329.831" fill="none" stroke="black" stroke-width="1.8" stroke-linecap="butt" stroke-linejoin="round" /><path d="M 445.964 363.339 C 470.178 341.364 496.558 317.423 525.410 291.238" fill="none" stroke="black" stroke-width="1.8" stroke-linecap="butt" stroke-linejoin="round" /><path d="M 554.294 265.023 C 570.713 250.122 587.952 234.477 606.074 218.030" fill="none" stroke="black" stroke-width="1.8" stroke-linecap="butt" stroke-linejoin="round" /><path d="M 445.964 363.339 C 437.932 303.331 429.034 236.861 419.124 162.825" fill="none" stroke="black" stroke-width="1.8" stroke-linecap="butt" stroke-linejoin="round" /><path d="M 492.043 193.591 C 553.663 201.972 617.682 198.600 627.497 186.819 C 635.981 176.637 597.954 164.966 548.558 159.851 C 516.279 156.509 483.428 156.333 460.429 158.855" fill="none" stroke="black" stroke-width="1.8" stroke-linecap="butt" stroke-linejoin="round" /><path d="M 428.605 156.999 C 406.228 159.599 423.874 176.153 476.360 195.300 C 534.981 216.684 596.848 227.068 606.207 217.904 C 607.413 216.723 607.610 215.280 606.923 213.636" fill="none" stroke="black" stroke-width="1.8" stroke-linecap="butt" stroke-linejoin="round" /><path d="M 479.049 162.211 C 458.140 157.894 439.484 155.735 428.605 156.999" fill="none" stroke="black" stroke-width="1.8" stroke-linecap="butt" stroke-linejoin="round" /><path d="M 492.683 193.677 C 487.130 181.182 482.534 170.837 478.666 162.132" fill="none" stroke="black" stroke-width="1.8" stroke-linecap="butt" stroke-linejoin="round" /><path d="M 492.418 193.602 C 495.900 194.047 501.507 194.779 499.653 194.559 C 496.774 194.217 512.465 195.917 509.480 195.624 C 507.502 195.429 518.195 196.409 516.181 196.238 C 517.307 196.330 518.435 196.423 519.564 196.515 C 520.696 196.600 521.829 196.685 522.963 196.771 C 519.917 196.551 536.279 197.568 533.211 197.407 C 534.350 197.463 535.490 197.519 536.630 197.575 C 534.595 197.482 545.467 197.907 543.443 197.841 C 544.571 197.874 545.700 197.907 546.829 197.940 C 543.806 197.862 559.801 198.106 556.848 198.093 C 557.941 198.094 559.033 198.095 560.126 198.096 C 561.207 198.089 562.287 198.082 563.367 198.076 C 564.433 198.061 565.499 198.046 566.565 198.031 C 567.616 198.009 568.667 197.986 569.717 197.964 C 570.752 197.933 571.785 197.903 572.819 197.872 C 570.062 197.965 584.369 197.304 581.780 197.458 C 582.734 197.397 583.688 197.335 584.640 197.274 C 582.105 197.449 595.118 196.358 592.791 196.591 C 593.646 196.500 594.500 196.410 595.353 196.320 C 593.090 196.572 604.565 195.082 602.540 195.386 C 603.282 195.269 604.022 195.153 604.760 195.036 C 602.807 195.359 612.554 193.510 610.864 193.878 C 609.734 194.124 615.461 192.759 614.452 193.023 C 612.929 193.421 620.333 191.194 619.089 191.628 C 619.538 191.463 619.985 191.299 620.432 191.136 C 620.846 190.967 621.260 190.799 621.673 190.631 C 622.053 190.459 622.433 190.287 622.811 190.115 C 623.157 189.939 623.503 189.764 623.847 189.589 C 624.159 189.409 624.470 189.230 624.781 189.052 C 623.987 189.539 627.485 186.884 626.970 187.389 C 627.146 187.199 627.322 187.009 627.497 186.819 C 627.640 186.627 627.783 186.435 627.925 186.243 C 627.585 186.764 628.694 183.955 628.617 184.484 C 628.630 184.285 628.643 184.087 628.655 183.889 C 628.637 183.689 628.618 183.490 628.599 183.291 C 628.549 183.091 628.500 182.891 628.450 182.691 C 628.370 182.490 628.289 182.290 628.210 182.090 C 628.467 182.632 626.468 179.743 626.956 180.281 C 626.759 180.079 626.563 179.878 626.367 179.678 C 626.935 180.220 623.333 177.349 624.109 177.880 C 623.805 177.682 623.502 177.483 623.200 177.286 C 622.871 177.088 622.543 176.891 622.216 176.695 C 623.135 177.225 617.735 174.433 618.833 174.946 C 619.941 175.465 613.578 172.744 614.847 173.243 C 614.361 173.057 613.877 172.872 613.394 172.687 C 612.888 172.503 612.384 172.320 611.882 172.138 C 611.357 171.956 610.834 171.775 610.313 171.595 C 611.749 172.080 603.724 169.551 605.287 170.012 C 604.693 169.841 604.101 169.670 603.511 169.500 C 604.587 169.803 598.698 168.209 599.821 168.501 C 599.183 168.338 598.546 168.176 597.911 168.014 C 597.259 167.854 596.608 167.695 595.960 167.537 C 595.294 167.380 594.631 167.224 593.969 167.068 C 595.776 167.485 585.895 165.332 587.781 165.720 C 589.681 166.111 579.339 164.100 581.305 164.461 C 582.620 164.702 575.510 163.444 576.850 163.672 C 576.093 163.546 575.339 163.420 574.586 163.294 C 576.631 163.629 565.584 161.918 567.669 162.223 C 566.886 162.111 566.105 161.999 565.326 161.887 C 564.538 161.779 563.752 161.671 562.968 161.563 C 564.380 161.753 556.784 160.771 558.208 160.947 C 557.407 160.850 556.608 160.753 555.810 160.656 C 557.968 160.913 546.388 159.626 548.558 159.851 C 550.739 160.077 539.066 158.954 541.249 159.148 C 540.434 159.077 539.619 159.007 538.806 158.936 C 541.000 159.121 529.287 158.218 531.472 158.371 C 532.930 158.473 525.140 157.965 526.591 158.053 C 525.779 158.005 524.967 157.958 524.157 157.911 C 526.338 158.033 514.733 157.464 516.891 157.555 C 516.088 157.523 515.286 157.491 514.485 157.459 C 513.686 157.431 512.887 157.404 512.089 157.376 C 514.232 157.445 502.863 157.157 504.971 157.195 C 507.080 157.233 495.913 157.113 497.979 157.120 C 499.354 157.124 492.049 157.137 493.402 157.128 C 492.649 157.135 491.896 157.142 491.142 157.150 C 493.157 157.125 482.530 157.341 484.488 157.285 C 483.764 157.308 483.040 157.331 482.315 157.354 C 481.600 157.381 480.884 157.407 480.167 157.434 C 481.439 157.383 474.706 157.695 475.948 157.630 C 477.189 157.564 470.631 157.951 471.839 157.872 C 471.170 157.918 470.500 157.964 469.829 158.011 C 469.170 158.061 468.510 158.111 467.849 158.161 C 467.201 158.215 466.552 158.269 465.902 158.323 C 465.264 158.381 464.626 158.438 463.987 158.496 C 464.948 158.405 462.552 158.666 460.567 158.876" fill="none" stroke="black" stroke-width="1.8" stroke-linecap="butt" stroke-linejoin="round" /><path d="M 493.298 193.877 C 499.971 195.975 506.614 197.954 513.167 199.799" fill="none" stroke="black" stroke-width="1.8" stroke-linecap="butt" stroke-linejoin="round" /><path d="M 605.959 213.953 C 606.272 213.880 606.574 213.804 606.866 213.723" fill="none" stroke="black" stroke-width="1.8" stroke-linecap="butt" stroke-linejoin="round" /><path d="M 428.605 156.999 C 427.952 157.103 426.000 157.392 426.574 157.292 C 426.264 157.351 425.952 157.411 425.640 157.471 C 425.349 157.538 425.057 157.606 424.763 157.673 C 425.268 157.546 422.748 158.300 423.184 158.145 C 423.836 157.914 420.784 159.319 421.272 159.025 C 421.757 158.732 419.629 160.470 419.939 160.112 C 419.835 160.248 419.732 160.385 419.628 160.522 C 419.548 160.665 419.468 160.809 419.387 160.954 C 419.330 161.106 419.273 161.258 419.216 161.410 C 419.183 161.569 419.150 161.729 419.117 161.889 C 419.108 162.056 419.099 162.224 419.090 162.392 C 419.106 162.566 419.122 162.742 419.137 162.918 C 419.062 162.438 420.013 165.179 419.731 164.633 C 419.848 164.839 419.966 165.044 420.083 165.251 C 419.851 164.877 421.352 166.956 421.024 166.554 C 420.534 165.953 423.750 169.337 423.036 168.673 C 423.313 168.921 423.591 169.171 423.870 169.422 C 423.090 168.744 427.878 172.529 426.867 171.791 C 427.254 172.067 427.642 172.343 428.032 172.621 C 428.447 172.902 428.863 173.185 429.280 173.469 C 428.514 172.959 432.895 175.753 432.025 175.219 C 431.161 174.689 436.070 177.590 435.101 177.037 C 433.656 176.212 442.002 180.750 440.327 179.879 C 440.960 180.203 441.594 180.528 442.230 180.854 C 440.497 179.979 450.354 184.758 448.402 183.847 C 446.465 182.943 457.389 187.854 455.244 186.923 C 453.825 186.307 461.660 189.630 460.154 189.005 C 461.003 189.354 461.854 189.703 462.708 190.053 C 463.578 190.402 464.450 190.752 465.324 191.102 C 466.214 191.452 467.106 191.802 468.000 192.153 C 465.584 191.215 478.931 196.238 476.360 195.300 C 477.321 195.646 478.283 195.994 479.247 196.342 C 476.647 195.413 490.889 200.345 488.169 199.432 C 485.459 198.522 500.201 203.319 497.403 202.437 C 495.547 201.852 505.567 204.943 503.683 204.375 C 504.738 204.689 505.793 205.004 506.849 205.320 C 504.012 204.482 519.256 208.833 516.399 208.046 C 517.461 208.335 518.523 208.624 519.586 208.913 C 520.646 209.195 521.706 209.477 522.767 209.759 C 520.875 209.262 530.976 211.844 529.099 211.377 C 530.146 211.634 531.193 211.891 532.240 212.148 C 533.280 212.396 534.320 212.644 535.359 212.892 C 532.576 212.238 547.239 215.530 544.545 214.955 C 545.542 215.164 546.539 215.373 547.536 215.582 C 548.519 215.781 549.502 215.980 550.485 216.179 C 547.861 215.658 561.524 218.206 559.043 217.774 C 559.959 217.930 560.874 218.085 561.788 218.240 C 562.684 218.383 563.580 218.527 564.474 218.671 C 565.349 218.803 566.223 218.935 567.096 219.068 C 564.772 218.727 576.685 220.293 574.558 220.048 C 575.340 220.134 576.121 220.219 576.900 220.305 C 577.657 220.379 578.413 220.452 579.167 220.526 C 577.167 220.343 587.256 221.064 585.486 220.977 C 583.705 220.889 592.584 221.107 591.046 221.113 C 591.607 221.105 592.167 221.097 592.725 221.089 C 593.255 221.070 593.785 221.051 594.313 221.032 C 594.814 221.002 595.313 220.971 595.811 220.941 C 594.506 221.037 600.804 220.292 599.755 220.474 C 600.133 220.401 600.509 220.328 600.885 220.255 C 600.238 220.395 603.400 219.551 602.866 219.726 C 603.151 219.622 603.435 219.519 603.718 219.417 C 602.994 219.707 606.195 217.961 605.722 218.322 C 605.884 218.183 606.046 218.043 606.207 217.904 C 606.339 217.756 606.471 217.608 606.603 217.460 C 606.287 217.871 607.336 215.515 607.258 215.985 C 607.273 215.805 607.288 215.626 607.303 215.447 C 607.290 215.260 607.276 215.074 607.263 214.889 C 607.222 214.695 607.181 214.502 607.140 214.310 C 607.071 214.110 607.002 213.910 606.934 213.711" fill="none" stroke="black" stroke-width="1.8" stroke-linecap="butt" stroke-linejoin="round" /><path d="M 478.825 162.188 C 476.545 161.726 473.619 161.127 474.694 161.336 C 474.007 161.204 473.320 161.072 472.632 160.940 C 471.953 160.813 471.273 160.687 470.593 160.560 C 471.800 160.781 465.399 159.645 466.581 159.847 C 467.761 160.050 461.515 159.018 462.667 159.201 C 462.028 159.102 461.389 159.003 460.749 158.903 C 460.120 158.810 459.489 158.716 458.859 158.623 C 460.536 158.866 451.762 157.692 453.364 157.887 C 452.776 157.818 452.186 157.748 451.596 157.678 C 451.018 157.615 450.439 157.551 449.860 157.488 C 449.294 157.431 448.727 157.373 448.159 157.316 C 447.604 157.265 447.049 157.214 446.493 157.163 C 447.965 157.291 440.343 156.744 441.719 156.820 C 441.216 156.795 440.712 156.770 440.207 156.745 C 441.539 156.803 434.699 156.638 435.923 156.641 C 436.733 156.644 432.532 156.698 433.290 156.675 C 432.876 156.692 432.460 156.708 432.044 156.724 C 431.646 156.747 431.247 156.771 430.847 156.794 C 430.104 156.862 429.356 156.930 428.605 156.999" fill="none" stroke="black" stroke-width="1.8" stroke-linecap="butt" stroke-linejoin="round" /><path d="M 522.903 293.508 C 523.368 293.089 523.532 292.941 523.147 293.291 C 524.151 292.378 525.159 291.462 526.170 290.542 C 523.289 293.163 539.316 278.587 536.196 281.421 C 537.406 280.322 538.621 279.220 539.840 278.113 C 537.599 280.145 549.875 269.021 547.524 271.150 C 548.857 269.943 550.195 268.732 551.537 267.517 C 550.722 268.255 551.066 267.940 552.053 267.042" fill="none" stroke="black" stroke-width="1.8" stroke-linecap="butt" stroke-linejoin="round" /></svg>