<svg xmlns="http://www.w3.org/2000/svg" width="700" height="520" viewBox="0 0 700 520"><rect width="100%" height="100%" fill="white" /><path d="M 603.784 220.108 C 604.949 218.474 606.119 216.833 607.294 215.184" fill="none" stroke="black" stroke-width="1.8" stroke-dasharray="4 4" /><path d="M 482.886 329.831 C 465.668 281.358 447.110 229.115 427.052 172.645" fill="none" stroke="black" stroke-width="1.8" stroke-dasharray="4 4" /><path d="M 522.531 293.850 C 533.781 283.640 545.432 273.066 557.506 262.108" fill="none" stroke="black" stroke-width="1.8" stroke-dasharray="4 4" /><path d="M 436.443 163.562 C 413.562 171.494 432.107 184.770 487.128 192.895" fill="none" stroke="black" stroke-width="1.8" stroke-dasharray="4 4" /><path d="M 487.128 192.895 C 488.958 193.165 490.802 193.425 492.658 193.675" fill="none" stroke="black" stroke-width="1.8" stroke-dasharray="4 4" /><path d="M 460.429 158.855 C 450.746 159.917 442.449 161.481 436.443 163.562" fill="none" stroke="black" stroke-width="1.8" stroke-dasharray="4 4" /><path d="M 606.945 213.690 C 603.293 204.719 573.219 189.773 534.644 177.135" fill="none" stroke="black" stroke-width="1.8" stroke-dasharray="4 4" /><path d="M 534.644 177.135 C 515.259 170.783 495.768 165.648 478.680 162.135" fill="none" stroke="black" stroke-width="1.8" stroke-dasharray="4 4" /><path d="M 460.921 257.710 C 462.120 262.031 463.317 266.346 464.512 270.655" fill="none" stroke="black" stroke-width="1.8" stroke-dasharray="4 4" /><path d="M 464.512 270.655 C 465.180 273.189 465.848 275.722 466.516 278.254" fill="none" stroke="black" stroke-width="1.8" stroke-dasharray="4 4" /><path d="M 466.516 278.254 C 467.008 280.142 467.500 282.030 467.992 283.918" fill="none" stroke="black" stroke-width="1.8" stroke-dasharray="4 4" /><path d="M 467.992 283.918 C 468.392 285.438 468.792 286.958 469.191 288.479" fill="none" stroke="black" stroke-width="1.8" stroke-dasharray="4 4" /><path d="M 469.191 288.479 C 469.534 289.752 469.876 291.025 470.218 292.300" fill="none" stroke="black" stroke-width="1.8" stroke-dasharray="4 4" /><path d="M 470.218 292.300 C 470.522 293.392 470.826 294.485 471.130 295.579" fill="none" stroke="black" stroke-width="1.8" stroke-dasharray="4 4" /><path d="M 471.130 295.579 C 471.406 296.532 471.682 297.486 471.959 298.440" fill="none" stroke="black" stroke-width="1.8" stroke-dasharray="4 4" /><path d="M 471.959 298.440 C 472.215 299.281 472.471 300.122 472.728 300.964" fill="none" stroke="black" stroke-width="1.8" stroke-dasharray="4 4" /><path d="M 472.728 300.964 C 472.969 301.711 473.211 302.460 473.452 303.209" fill="none" stroke="black" stroke-width="1.8" stroke-dasharray="4 4" /><path d="M 473.452 303.209 C 473.682 303.878 473.913 304.548 474.143 305.218" fill="none" stroke="black" stroke-width="1.8" stroke-dasharray="4 4" /><path d="M 474.143 305.218 C 474.365 305.819 474.587 306.421 474.809 307.024" fill="none" stroke="black" stroke-width="1.8" stroke-dasharray="4 4" /><path d="M 474.809 307.024 C 475.025 307.566 475.241 308.108 475.457 308.652" fill="none" stroke="black" stroke-width="1.8" stroke-dasharray="4 4" /><path d="M 475.457 308.652 C 475.668 309.141 475.880 309.631 476.091 310.121" fill="none" stroke="black" stroke-width="1.8" stroke-dasharray="4 4" /><path d="M 476.091 310.121 C 476.300 310.564 476.509 311.006 476.718 311.449" fill="none" stroke="black" stroke-width="1.8" stroke-dasharray="4 4" /><path d="M 476.718 311.449 C 476.925 311.849 477.132 312.249 477.339 312.649" fill="none" stroke="black" stroke-width="1.8" stroke-dasharray="4 4" /><path d="M 477.339 312.649 C 477.546 313.009 477.752 313.370 477.959 313.731" fill="none" stroke="black" stroke-width="1.8" stroke-dasharray="4 4" /><path d="M 477.959 313.731 C 478.166 314.055 478.374 314.379 478.581 314.704" fill="none" stroke="black" stroke-width="1.8" stroke-dasharray="4 4" /><path d="M 478.581 314.704 C 478.790 314.994 478.999 315.285 479.208 315.576" fill="none" stroke="black" stroke-width="1.8" stroke-dasharray="4 4" /><path d="M 479.208 315.576 C 479.418 315.834 479.629 316.093 479.841 316.352" fill="none" stroke="black" stroke-width="1.8" stroke-dasharray="4 4" /><path d="M 479.841 316.352 C 480.055 316.580 480.269 316.809 480.483 317.038" fill="none" stroke="black" stroke-width="1.8" stroke-dasharray="4 4" /><path d="M 480.483 317.038 C 480.701 317.237 480.919 317.437 481.137 317.637" fill="none" stroke="black" stroke-width="1.8" stroke-dasharray="4 4" /><path d="M 481.137 317.637 C 481.359 317.809 481.582 317.981 481.805 318.154" fill="none" stroke="black" stroke-width="1.8" stroke-dasharray="4 4" /><path d="M 481.805 318.154 C 482.033 318.299 482.261 318.444 482.489 318.590" fill="none" stroke="black" stroke-width="1.8" stroke-dasharray="4 4" /><path d="M 482.489 318.590 C 482.723 318.709 482.958 318.828 483.192 318.948" fill="none" stroke="black" stroke-width="1.8" stroke-dasharray="4 4" /><path d="M 483.192 318.948 C 483.433 319.041 483.675 319.135 483.916 319.228" fill="none" stroke="black" stroke-width="1.8" stroke-dasharray="4 4" /><path d="M 483.916 319.228 C 484.165 319.296 484.414 319.364 484.664 319.432" fill="none" stroke="black" stroke-width="1.8" stroke-dasharray="4 4" /><path d="M 484.664 319.432 C 484.921 319.475 485.179 319.518 485.437 319.560" fill="none" stroke="black" stroke-width="1.8" stroke-dasharray="4 4" /><path d="M 485.437 319.560 C 485.705 319.578 485.972 319.595 486.240 319.612" fill="none" stroke="black" stroke-width="1.8" stroke-dasharray="4 4" /><path d="M 486.240 319.612 C 486.518 319.604 486.796 319.595 487.075 319.587" fill="none" stroke="black" stroke-width="1.8" stroke-dasharray="4 4" /><path d="M 487.075 319.587 C 487.364 319.553 487.654 319.518 487.945 319.484" fill="none" stroke="black" stroke-width="1.8" stroke-dasharray="4 4" /><path d="M 487.945 319.484 C 488.247 319.423 488.550 319.362 488.853 319.301" fill="none" stroke="black" stroke-width="1.8" stroke-dasharray="4 4" /><path d="M 488.853 319.301 C 489.169 319.213 489.486 319.125 489.804 319.037" fill="none" stroke="black" stroke-width="1.8" stroke-dasharray="4 4" /><path d="M 489.804 319.037 C 490.135 318.921 490.467 318.805 490.800 318.688" fill="none" stroke="black" stroke-width="1.8" stroke-dasharray="4 4" /><path d="M 490.800 318.688 C 491.149 318.543 491.498 318.398 491.847 318.253" fill="none" stroke="black" stroke-width="1.8" stroke-dasharray="4 4" /><path d="M 491.847 318.253 C 492.214 318.078 492.581 317.903 492.949 317.728" fill="none" stroke="black" stroke-width="1.8" stroke-dasharray="4 4" /><path d="M 492.949 317.728 C 493.336 317.522 493.723 317.316 494.111 317.109" fill="none" stroke="black" stroke-width="1.8" stroke-dasharray="4 4" /><path d="M 494.111 317.109 C 494.519 316.871 494.928 316.632 495.338 316.392" fill="none" stroke="black" stroke-width="1.8" stroke-dasharray="4 4" /><path d="M 495.338 316.392 C 495.769 316.120 496.202 315.847 496.636 315.573" fill="none" stroke="black" stroke-width="1.8" stroke-dasharray="4 4" /><path d="M 496.636 315.573 C 497.093 315.265 497.551 314.956 498.010 314.647" fill="none" stroke="black" stroke-width="1.8" stroke-dasharray="4 4" /><path d="M 498.010 314.647 C 498.495 314.302 498.981 313.956 499.469 313.609" fill="none" stroke="black" stroke-width="1.8" stroke-dasharray="4 4" /><path d="M 499.469 313.609 C 499.984 313.224 500.500 312.839 501.018 312.453" fill="none" stroke="black" stroke-width="1.8" stroke-dasharray="4 4" /><path d="M 501.018 312.453 C 501.565 312.027 502.114 311.601 502.664 311.173" fill="none" stroke="black" stroke-width="1.8" stroke-dasharray="4 4" /><path d="M 502.664 311.173 C 503.247 310.705 503.831 310.236 504.417 309.765" fill="none" stroke="black" stroke-width="1.8" stroke-dasharray="4 4" /><path d="M 504.417 309.765 C 505.037 309.253 505.658 308.739 506.282 308.223" fill="none" stroke="black" stroke-width="1.8" stroke-dasharray="4 4" /><path d="M 506.282 308.223 C 506.942 307.664 507.605 307.103 508.269 306.541" fill="none" stroke="black" stroke-width="1.8" stroke-dasharray="4 4" /><path d="M 508.269 306.541 C 508.972 305.934 509.677 305.325 510.385 304.714" fill="none" stroke="black" stroke-width="1.8" stroke-dasharray="4 4" /><path d="M 510.385 304.714 C 511.134 304.057 511.885 303.399 512.638 302.738" fill="none" stroke="black" stroke-width="1.8" stroke-dasharray="4 4" /><path d="M 512.638 302.738 C 513.434 302.031 514.233 301.321 515.035 300.609" fill="none" stroke="black" stroke-width="1.8" stroke-dasharray="4 4" /><path d="M 515.035 300.609 C 515.881 299.851 516.730 299.090 517.582 298.326" fill="none" stroke="black" stroke-width="1.8" stroke-dasharray="4 4" /><path d="M 517.582 298.326 C 518.480 297.515 519.381 296.702 520.285 295.886" fill="none" stroke="black" stroke-width="1.8" stroke-dasharray="4 4" /><path d="M 520.285 295.886 C 521.220 295.038 522.158 294.187 523.100 293.333" fill="none" stroke="black" stroke-width="1.8" stroke-dasharray="4 4" /><path d="M 523.229 293.216 C 524.094 292.430 524.961 291.641 525.832 290.850" fill="none" stroke="black" stroke-width="1.8" stroke-dasharray="4 4" /><path d="M 527.132 289.667 C 527.429 289.397 527.726 289.126 528.024 288.855" fill="none" stroke="black" stroke-width="1.8" stroke-dasharray="4 4" /><path d="M 549.312 269.532 C 549.569 269.298 549.827 269.065 550.085 268.832" fill="none" stroke="black" stroke-width="1.8" stroke-dasharray="4 4" /><path d="M 552.000 267.097 C 553.148 266.058 554.299 265.015 555.453 263.969" fill="none" stroke="black" stroke-width="1.8" stroke-dasharray="4 4" /><path d="M 555.746 263.705 C 557.101 262.474 558.461 261.240 559.824 260.002" fill="none" stroke="black" stroke-width="1.8" stroke-dasharray="4 4" /><path d="M 559.824 260.002 C 561.233 258.719 562.645 257.432 564.062 256.141" fill="none" stroke="black" stroke-width="1.8" stroke-dasharray="4 4" /><path d="M 564.062 256.141 C 565.483 254.839 566.908 253.533 568.337 252.224" fill="none" stroke="black" stroke-width="1.8" stroke-dasharray="4 4" /><path d="M 568.337 252.224 C 569.764 250.905 571.194 249.583 572.628 248.258" fill="none" stroke="black" stroke-width="1.8" stroke-dasharray="4 4" /><path d="M 572.628 248.258 C 574.055 246.926 575.485 245.590 576.917 244.252" fill="none" stroke="black" stroke-width="1.8" stroke-dasharray="4 4" /><path d="M 576.917 244.252 C 578.337 242.907 579.760 241.561 581.185 240.211" fill="none" stroke="black" stroke-width="1.8" stroke-dasharray="4 4" /><path d="M 581.185 240.211 C 582.592 238.857 584.001 237.500 585.412 236.142" fill="none" stroke="black" stroke-width="1.8" stroke-dasharray="4 4" /><path d="M 585.412 236.142 C 586.800 234.779 588.190 233.414 589.581 232.048" fill="none" stroke="black" stroke-width="1.8" stroke-dasharray="4 4" /><path d="M 589.581 232.048 C 590.944 230.677 592.309 229.306 593.675 227.933" fill="none" stroke="black" stroke-width="1.8" stroke-dasharray="4 4" /><path d="M 593.675 227.933 C 595.008 226.556 596.343 225.178 597.678 223.799" fill="none" stroke="black" stroke-width="1.8" stroke-dasharray="4 4" /><path d="M 597.678 223.799 C 598.976 222.416 600.276 221.033 601.575 219.649" fill="none" stroke="black" stroke-width="1.8" stroke-dasharray="4 4" /><path d="M 601.575 219.649 C 602.834 218.261 604.094 216.873 605.353 215.484" fill="none" stroke="black" stroke-width="1.8" stroke-dasharray="4 4" /><path d="M 452.231 230.771 C 450.290 225.690 448.334 220.572 446.365 215.417" fill="none" stroke="black" stroke-width="1.8" stroke-dasharray="4 4" /><path d="M 446.365 215.417 C 444.980 212.093 443.587 208.749 442.184 205.385" fill="none" stroke="black" stroke-width="1.8" stroke-dasharray="4 4" /><path d="M 442.184 205.385 C 441.009 202.691 439.827 199.982 438.637 197.255" fill="none" stroke="black" stroke-width="1.8" stroke-dasharray="4 4" /><path d="M 438.637 197.255 C 437.591 194.914 436.539 192.558 435.480 190.188" fill="none" stroke="black" stroke-width="1.8" stroke-dasharray="4 4" /><path d="M 435.480 190.188 C 434.530 188.075 433.574 185.949 432.612 183.810" fill="none" stroke="black" stroke-width="1.8" stroke-dasharray="4 4" /><path d="M 432.612 183.810 C 431.741 181.857 430.866 179.891 429.984 177.912" fill="none" stroke="black" stroke-width="1.8" stroke-dasharray="4 4" /><path d="M 429.984 177.912 C 429.185 176.075 428.380 174.225 427.570 172.362" fill="none" stroke="black" stroke-width="1.8" stroke-dasharray="4 4" /><path d="M 497.071 369.766 C 527.650 326.881 562.844 277.524 603.784 220.108" fill="none" stroke="black" stroke-width="1.8" /><path d="M 607.294 215.184 C 613.960 205.837 620.790 196.258 627.791 186.439" fill="none" stroke="black" stroke-width="1.8" /><path d="M 497.071 369.766 C 492.441 356.731 487.714 343.422 482.886 329.831" fill="none" stroke="black" stroke-width="1.8" /><path d="M 445.964 363.339 C 469.373 342.095 494.804 319.014 522.531 293.850" fill="none" stroke="black" stroke-width="1.8" /><path d="M 557.506 262.108 C 572.956 248.086 589.128 233.409 606.074 218.030" fill="none" stroke="black" stroke-width="1.8" /><path d="M 445.964 363.339 C 437.932 303.331 429.034 236.861 419.124 162.825" fill="none" stroke="black" stroke-width="1.8" /><path d="M 492.658 193.675 C 554.126 201.947 617.720 198.555 627.497 186.819" fill="none" stroke="black" stroke-width="1.8" /><path d="M 627.497 186.819 C 635.981 176.637 597.954 164.966 548.558 159.851" fill="none" stroke="black" stroke-width="1.8" /><path d="M 548.558 159.851 C 516.279 156.509 483.428 156.333 460.429 158.855" fill="none" stroke="black" stroke-width="1.8" /><path d="M 428.605 156.999 C 406.228 159.599 423.874 176.153 476.360 195.300" fill="none" stroke="black" stroke-width="1.8" /><path d="M 476.360 195.300 C 534.981 216.684 596.848 227.068 606.207 217.904" fill="none" stroke="black" stroke-width="1.8" /><path d="M 606.207 217.904 C 607.400 216.736 607.605 215.311 606.945 213.690" fill="none" stroke="black" stroke-width="1.8" /><path d="M 478.680 162.135 C 457.924 157.869 439.422 155.742 428.605 156.999" fill="none" stroke="black" stroke-width="1.8" /><path d="M 523.147 293.291 C 523.174 293.266 523.202 293.241 523.229 293.216" fill="none" stroke="black" stroke-width="1.8" /><path d="M 525.832 290.850 C 525.945 290.748 526.057 290.645 526.170 290.542" fill="none" stroke="black" stroke-width="1.8" /><path d="M 526.170 290.542 C 526.491 290.251 526.811 289.959 527.132 289.667" fill="none" stroke="black" stroke-width="1.8" /><path d="M 528.024 288.855 C 528.467 288.452 528.911 288.048 529.355 287.644" fill="none" stroke="black" stroke-width="1.8" /><path d="M 529.355 287.644 C 530.465 286.633 531.580 285.619 532.699 284.601" fill="none" stroke="black" stroke-width="1.8" /><path d="M 532.699 284.601 C 533.860 283.545 535.026 282.485 536.196 281.421" fill="none" stroke="black" stroke-width="1.8" /><path d="M 536.196 281.421 C 537.406 280.322 538.621 279.220 539.840 278.113" fill="none" stroke="black" stroke-width="1.8" /><path d="M 539.840 278.113 C 541.095 276.975 542.355 275.832 543.620 274.686" fill="none" stroke="black" stroke-width="1.8" /><path d="M 543.620 274.686 C 544.916 273.511 546.218 272.333 547.524 271.150" fill="none" stroke="black" stroke-width="1.8" /><path d="M 547.524 271.150 C 548.119 270.611 548.715 270.072 549.312 269.532" fill="none" stroke="black" stroke-width="1.8" /><path d="M 550.085 268.832 C 550.568 268.394 551.052 267.956 551.537 267.517" fill="none" stroke="black" stroke-width="1.8" /><path d="M 551.537 267.517 C 551.691 267.377 551.846 267.237 552.000 267.097" fill="none" stroke="black" stroke-width="1.8" /><path d="M 555.453 263.969 C 555.517 263.912 555.580 263.855 555.643 263.798" fill="none" stroke="black" stroke-width="1.8" /><path d="M 555.643 263.798 C 555.677 263.767 555.712 263.736 555.746 263.705" fill="none" stroke="black" stroke-width="1.8" /></svg>