<svg xmlns="http://www.w3.org/2000/svg" width="700" height="520" viewBox="0 0 700 520"><rect width="100%" height="100%" fill="white" /><path d="M 603.784 220.108 C 604.949 218.474 606.119 216.833 607.294 215.184" fill="none" stroke="black" stroke-width="1.8" stroke-dasharray="4 4" /><path d="M 482.886 329.831 C 465.668 281.358 447.110 229.115 427.052 172.645" fill="none" stroke="black" stroke-width="1.8" stroke-dasharray="4 4" /><path d="M 523.277 293.173 C 534.035 283.410 545.158 273.314 556.668 262.869" fill="none" stroke="black" stroke-width="1.8" stroke-dasharray="4 4" /><path d="M 436.443 163.562 C 413.562 171.494 432.107 184.770 487.128 192.895" fill="none" stroke="black" stroke-width="1.8" stroke-dasharray="4 4" /><path d="M 487.128 192.895 C 488.901 193.156 490.688 193.409 492.486 193.652" fill="none" stroke="black" stroke-width="1.8" stroke-dasharray="4 4" /><path d="M 460.429 158.855 C 450.746 159.917 442.449 161.481 436.443 163.562" fill="none" stroke="black" stroke-width="1.8" stroke-dasharray="4 4" /><path d="M 606.939 213.675 C 603.259 204.703 573.198 189.767 534.644 177.135" fill="none" stroke="black" stroke-width="1.8" stroke-dasharray="4 4" /><path d="M 534.644 177.135 C 515.297 170.796 495.846 165.668 478.784 162.157" fill="none" stroke="black" stroke-width="1.8" stroke-dasharray="4 4" /><path d="M 436.443 163.562 C 435.773 163.824 433.701 164.613 434.359 164.345" fill="none" stroke="black" stroke-width="1.8" stroke-dasharray="4 4" /><path d="M 434.359 164.345 C 434.687 164.211 433.094 164.889 433.403 164.752" fill="none" stroke="black" stroke-width="1.8" stroke-dasharray="4 4" /><path d="M 433.403 164.752 C 434.019 164.478 431.131 165.884 431.670 165.595" fill="none" stroke="black" stroke-width="1.8" stroke-dasharray="4 4" /><path d="M 431.670 165.595 C 432.205 165.308 429.730 166.781 430.184 166.479" fill="none" stroke="black" stroke-width="1.8" stroke-dasharray="4 4" /><path d="M 430.184 166.479 C 430.860 166.030 427.957 168.357 428.440 167.876" fill="none" stroke="black" stroke-width="1.8" stroke-dasharray="4 4" /><path d="M 428.440 167.876 C 428.600 167.716 427.855 168.523 427.993 168.360" fill="none" stroke="black" stroke-width="1.8" stroke-dasharray="4 4" /><path d="M 427.993 168.360 C 428.130 168.197 427.501 169.019 427.615 168.853" fill="none" stroke="black" stroke-width="1.8" stroke-dasharray="4 4" /><path d="M 427.615 168.853 C 427.729 168.687 427.217 169.523 427.308 169.354" fill="none" stroke="black" stroke-width="1.8" stroke-dasharray="4 4" /><path d="M 427.308 169.354 C 427.398 169.186 427.006 170.035 427.073 169.864" fill="none" stroke="black" stroke-width="1.8" stroke-dasharray="4 4" /><path d="M 427.073 169.864 C 427.271 169.352 426.833 171.980 426.808 171.440" fill="none" stroke="black" stroke-width="1.8" stroke-dasharray="4 4" /><path d="M 426.808 171.440 C 426.800 171.262 426.905 172.163 426.871 171.981" fill="none" stroke="black" stroke-width="1.8" stroke-dasharray="4 4" /><path d="M 426.871 171.981 C 426.804 171.619 427.404 173.455 427.231 173.082" fill="none" stroke="black" stroke-width="1.8" stroke-dasharray="4 4" /><path d="M 427.231 173.082 C 427.145 172.897 427.642 173.831 427.529 173.643" fill="none" stroke="black" stroke-width="1.8" stroke-dasharray="4 4" /><path d="M 427.529 173.643 C 427.417 173.455 428.048 174.399 427.908 174.209" fill="none" stroke="black" stroke-width="1.8" stroke-dasharray="4 4" /><path d="M 427.908 174.209 C 427.491 173.643 430.205 176.526 429.535 175.940" fill="none" stroke="black" stroke-width="1.8" stroke-dasharray="4 4" /><path d="M 429.535 175.940 C 429.313 175.745 430.494 176.722 430.244 176.526" fill="none" stroke="black" stroke-width="1.8" stroke-dasharray="4 4" /><path d="M 430.244 176.526 C 429.745 176.135 432.531 178.107 431.915 177.709" fill="none" stroke="black" stroke-width="1.8" stroke-dasharray="4 4" /><path d="M 431.915 177.709 C 430.999 177.117 436.248 180.109 435.064 179.505" fill="none" stroke="black" stroke-width="1.8" stroke-dasharray="4 4" /><path d="M 435.064 179.505 C 433.891 178.907 440.436 181.920 438.990 181.313" fill="none" stroke="black" stroke-width="1.8" stroke-dasharray="4 4" /><path d="M 438.990 181.313 C 438.034 180.913 443.120 182.921 442.042 182.519" fill="none" stroke="black" stroke-width="1.8" stroke-dasharray="4 4" /><path d="M 442.042 182.519 C 440.438 181.920 449.142 184.910 447.265 184.313" fill="none" stroke="black" stroke-width="1.8" stroke-dasharray="4 4" /><path d="M 447.265 184.313 C 446.643 184.115 449.828 185.102 449.176 184.905" fill="none" stroke="black" stroke-width="1.8" stroke-dasharray="4 4" /><path d="M 449.176 184.905 C 448.526 184.709 451.851 185.689 451.171 185.493" fill="none" stroke="black" stroke-width="1.8" stroke-dasharray="4 4" /><path d="M 451.171 185.493 C 450.493 185.298 453.957 186.270 453.250 186.077" fill="none" stroke="black" stroke-width="1.8" stroke-dasharray="4 4" /><path d="M 453.250 186.077 C 452.544 185.883 456.144 186.846 455.410 186.654" fill="none" stroke="black" stroke-width="1.8" stroke-dasharray="4 4" /><path d="M 455.410 186.654 C 453.220 186.082 464.816 188.903 462.369 188.347" fill="none" stroke="black" stroke-width="1.8" stroke-dasharray="4 4" /><path d="M 462.369 188.347 C 461.558 188.163 465.682 189.078 464.844 188.896" fill="none" stroke="black" stroke-width="1.8" stroke-dasharray="4 4" /><path d="M 464.844 188.896 C 464.007 188.715 468.255 189.614 467.392 189.435" fill="none" stroke="black" stroke-width="1.8" stroke-dasharray="4 4" /><path d="M 467.392 189.435 C 465.674 189.080 474.526 190.827 472.705 190.484" fill="none" stroke="black" stroke-width="1.8" stroke-dasharray="4 4" /><path d="M 472.705 190.484 C 471.797 190.313 476.396 191.159 475.464 190.992" fill="none" stroke="black" stroke-width="1.8" stroke-dasharray="4 4" /><path d="M 475.464 190.992 C 472.683 190.492 487.109 192.903 484.123 192.440" fill="none" stroke="black" stroke-width="1.8" stroke-dasharray="4 4" /><path d="M 484.123 192.440 C 483.132 192.286 488.139 193.044 487.128 192.895" fill="none" stroke="black" stroke-width="1.8" stroke-dasharray="4 4" /><path d="M 487.128 192.895 C 486.118 192.746 491.215 193.479 490.186 193.335" fill="none" stroke="black" stroke-width="1.8" stroke-dasharray="4 4" /><path d="M 490.186 193.335 C 489.514 193.240 491.494 193.510 492.656 193.669" fill="none" stroke="black" stroke-width="1.8" stroke-dasharray="4 4" /><path d="M 460.454 158.859 C 460.209 158.885 460.090 158.897 460.260 158.878" fill="none" stroke="black" stroke-width="1.8" stroke-dasharray="4 4" /><path d="M 460.260 158.878 C 460.869 158.810 457.853 159.157 458.451 159.086" fill="none" stroke="black" stroke-width="1.8" stroke-dasharray="4 4" /><path d="M 458.451 159.086 C 460.237 158.873 451.573 160.028 453.251 159.779" fill="none" stroke="black" stroke-width="1.8" stroke-dasharray="4 4" /><path d="M 453.251 159.779 C 453.808 159.696 451.053 160.120 451.598 160.033" fill="none" stroke="black" stroke-width="1.8" stroke-dasharray="4 4" /><path d="M 451.598 160.033 C 452.141 159.947 449.456 160.389 449.986 160.298" fill="none" stroke="black" stroke-width="1.8" stroke-dasharray="4 4" /><path d="M 449.986 160.298 C 451.572 160.028 443.957 161.467 445.416 161.162" fill="none" stroke="black" stroke-width="1.8" stroke-dasharray="4 4" /><path d="M 445.416 161.162 C 446.384 160.959 441.692 162.011 442.600 161.793" fill="none" stroke="black" stroke-width="1.8" stroke-dasharray="4 4" /><path d="M 442.600 161.793 C 443.505 161.576 439.140 162.701 439.981 162.468" fill="none" stroke="black" stroke-width="1.8" stroke-dasharray="4 4" /><path d="M 439.981 162.468 C 440.401 162.352 438.356 162.944 438.749 162.822" fill="none" stroke="black" stroke-width="1.8" stroke-dasharray="4 4" /><path d="M 438.749 162.822 C 439.531 162.581 437.254 163.320 436.443 163.562" fill="none" stroke="black" stroke-width="1.8" stroke-dasharray="4 4" /><path d="M 429.650 169.415 C 443.175 167.811 471.251 163.098 477.922 161.980" fill="none" stroke="black" stroke-width="1.8" stroke-dasharray="4 4" /><path d="M 477.970 161.990 C 477.617 162.052 477.196 162.126 476.704 162.212" fill="none" stroke="black" stroke-width="1.8" stroke-dasharray="4 4" /><path d="M 476.704 162.212 C 461.246 164.920 442.285 165.038 429.650 169.415" fill="none" stroke="black" stroke-width="1.8" stroke-dasharray="4 4" /><path d="M 497.595 195.213 C 547.696 210.610 590.780 217.991 606.641 213.784" fill="none" stroke="black" stroke-width="1.8" stroke-dasharray="4 4" /><path d="M 606.789 213.749 C 606.620 213.237 606.504 212.818 606.647 213.094" fill="none" stroke="black" stroke-width="1.8" stroke-dasharray="4 4" /><path d="M 606.647 213.094 C 606.756 213.303 606.147 212.244 606.281 212.459" fill="none" stroke="black" stroke-width="1.8" stroke-dasharray="4 4" /><path d="M 606.281 212.459 C 606.417 212.674 605.677 211.587 605.838 211.806" fill="none" stroke="black" stroke-width="1.8" stroke-dasharray="4 4" /><path d="M 605.838 211.806 C 606.160 212.248 604.303 209.995 604.723 210.454" fill="none" stroke="black" stroke-width="1.8" stroke-dasharray="4 4" /><path d="M 604.723 210.454 C 604.934 210.685 603.821 209.521 604.055 209.756" fill="none" stroke="black" stroke-width="1.8" stroke-dasharray="4 4" /><path d="M 604.055 209.756 C 604.290 209.991 603.058 208.805 603.316 209.044" fill="none" stroke="black" stroke-width="1.8" stroke-dasharray="4 4" /><path d="M 603.316 209.044 C 604.094 209.766 599.715 206.084 600.686 206.834" fill="none" stroke="black" stroke-width="1.8" stroke-dasharray="4 4" /><path d="M 600.686 206.834 C 601.012 207.085 599.332 205.821 599.678 206.075" fill="none" stroke="black" stroke-width="1.8" stroke-dasharray="4 4" /><path d="M 599.678 206.075 C 600.374 206.586 596.704 204.009 597.476 204.528" fill="none" stroke="black" stroke-width="1.8" stroke-dasharray="4 4" /><path d="M 597.476 204.528 C 598.643 205.314 592.407 201.349 593.732 202.149" fill="none" stroke="black" stroke-width="1.8" stroke-dasharray="4 4" /><path d="M 593.732 202.149 C 595.070 202.956 588.024 198.899 589.503 199.714" fill="none" stroke="black" stroke-width="1.8" stroke-dasharray="4 4" /><path d="M 589.503 199.714 C 589.999 199.987 587.482 198.619 587.993 198.893" fill="none" stroke="black" stroke-width="1.8" stroke-dasharray="4 4" /><path d="M 587.993 198.893 C 588.505 199.167 585.910 197.793 586.436 198.068" fill="none" stroke="black" stroke-width="1.8" stroke-dasharray="4 4" /><path d="M 586.436 198.068 C 588.022 198.898 579.800 194.752 581.501 195.580" fill="none" stroke="black" stroke-width="1.8" stroke-dasharray="4 4" /><path d="M 581.501 195.580 C 582.071 195.858 579.191 194.470 579.773 194.747" fill="none" stroke="black" stroke-width="1.8" stroke-dasharray="4 4" /><path d="M 579.773 194.747 C 580.356 195.025 577.412 193.637 578.006 193.914" fill="none" stroke="black" stroke-width="1.8" stroke-dasharray="4 4" /><path d="M 578.006 193.914 C 579.199 194.471 573.129 191.696 574.363 192.249" fill="none" stroke="black" stroke-width="1.8" stroke-dasharray="4 4" /><path d="M 574.363 192.249 C 574.983 192.527 571.861 191.141 572.490 191.417" fill="none" stroke="black" stroke-width="1.8" stroke-dasharray="4 4" /><path d="M 572.490 191.417 C 574.386 192.251 564.711 188.113 566.683 188.934" fill="none" stroke="black" stroke-width="1.8" stroke-dasharray="4 4" /><path d="M 566.683 188.934 C 567.344 189.209 564.022 187.838 564.690 188.111" fill="none" stroke="black" stroke-width="1.8" stroke-dasharray="4 4" /><path d="M 564.690 188.111 C 565.360 188.385 561.994 187.020 562.670 187.292" fill="none" stroke="black" stroke-width="1.8" stroke-dasharray="4 4" /><path d="M 562.670 187.292 C 564.709 188.112 554.375 184.057 556.468 184.859" fill="none" stroke="black" stroke-width="1.8" stroke-dasharray="4 4" /><path d="M 556.468 184.859 C 557.169 185.127 553.651 183.791 554.357 184.057" fill="none" stroke="black" stroke-width="1.8" stroke-dasharray="4 4" /><path d="M 554.357 184.057 C 555.065 184.324 551.515 182.997 552.227 183.261" fill="none" stroke="black" stroke-width="1.8" stroke-dasharray="4 4" /><path d="M 552.227 183.261 C 552.941 183.526 549.361 182.209 550.079 182.471" fill="none" stroke="black" stroke-width="1.8" stroke-dasharray="4 4" /><path d="M 550.079 182.471 C 552.241 183.260 541.344 179.375 543.539 180.140" fill="none" stroke="black" stroke-width="1.8" stroke-dasharray="4 4" /><path d="M 543.539 180.140 C 544.274 180.396 540.595 179.124 541.332 179.377" fill="none" stroke="black" stroke-width="1.8" stroke-dasharray="4 4" /><path d="M 541.332 179.377 C 543.550 180.138 532.407 176.402 534.644 177.135" fill="none" stroke="black" stroke-width="1.8" stroke-dasharray="4 4" /><path d="M 534.644 177.135 C 536.891 177.871 525.626 174.264 527.884 174.970" fill="none" stroke="black" stroke-width="1.8" stroke-dasharray="4 4" /><path d="M 527.884 174.970 C 528.638 175.206 524.864 174.034 525.619 174.267" fill="none" stroke="black" stroke-width="1.8" stroke-dasharray="4 4" /><path d="M 525.619 174.267 C 527.889 174.966 516.540 171.551 518.809 172.218" fill="none" stroke="black" stroke-width="1.8" stroke-dasharray="4 4" /><path d="M 518.809 172.218 C 519.567 172.441 515.780 171.337 516.537 171.556" fill="none" stroke="black" stroke-width="1.8" stroke-dasharray="4 4" /><path d="M 516.537 171.556 C 517.294 171.775 513.509 170.689 514.265 170.904" fill="none" stroke="black" stroke-width="1.8" stroke-dasharray="4 4" /><path d="M 514.265 170.904 C 515.022 171.120 511.240 170.053 511.996 170.264" fill="none" stroke="black" stroke-width="1.8" stroke-dasharray="4 4" /><path d="M 511.996 170.264 C 513.509 170.688 505.961 168.612 507.467 169.019" fill="none" stroke="black" stroke-width="1.8" stroke-dasharray="4 4" /><path d="M 507.467 169.019 C 509.728 169.630 498.473 166.667 500.713 167.240" fill="none" stroke="black" stroke-width="1.8" stroke-dasharray="4 4" /><path d="M 500.713 167.240 C 502.954 167.815 491.820 165.042 494.031 165.577" fill="none" stroke="black" stroke-width="1.8" stroke-dasharray="4 4" /><path d="M 494.031 165.577 C 495.505 165.933 488.172 164.196 489.630 164.534" fill="none" stroke="black" stroke-width="1.8" stroke-dasharray="4 4" /><path d="M 489.630 164.534 C 490.359 164.703 486.724 163.869 487.449 164.034" fill="none" stroke="black" stroke-width="1.8" stroke-dasharray="4 4" /><path d="M 487.449 164.034 C 489.622 164.527 478.866 162.168 480.994 162.618" fill="none" stroke="black" stroke-width="1.8" stroke-dasharray="4 4" /><path d="M 480.994 162.618 C 481.703 162.768 478.172 162.031 478.875 162.176" fill="none" stroke="black" stroke-width="1.8" stroke-dasharray="4 4" /><path d="M 478.875 162.176 C 479.068 162.215 478.946 162.191 478.681 162.137" fill="none" stroke="black" stroke-width="1.8" stroke-dasharray="4 4" /><path d="M 460.921 257.710 C 462.100 262.057 465.689 274.978 464.512 270.655" fill="none" stroke="black" stroke-width="1.8" stroke-dasharray="4 4" /><path d="M 464.512 270.655 C 463.826 268.137 467.182 280.792 466.516 278.254" fill="none" stroke="black" stroke-width="1.8" stroke-dasharray="4 4" /><path d="M 466.516 278.254 C 465.625 274.860 470.099 291.896 469.191 288.479" fill="none" stroke="black" stroke-width="1.8" stroke-dasharray="4 4" /><path d="M 469.191 288.479 C 468.242 284.903 473.195 302.454 472.728 300.964" fill="none" stroke="black" stroke-width="1.8" stroke-dasharray="4 4" /><path d="M 472.728 300.964 C 472.281 299.537 474.643 306.624 474.143 305.218" fill="none" stroke="black" stroke-width="1.8" stroke-dasharray="4 4" /><path d="M 474.143 305.218 C 473.928 304.613 475.038 307.622 474.809 307.024" fill="none" stroke="black" stroke-width="1.8" stroke-dasharray="4 4" /><path d="M 474.809 307.024 C 474.408 305.975 476.547 311.133 476.091 310.121" fill="none" stroke="black" stroke-width="1.8" stroke-dasharray="4 4" /><path d="M 476.091 310.121 C 474.770 307.189 483.148 319.335 481.137 317.637" fill="none" stroke="black" stroke-width="1.8" stroke-dasharray="4 4" /><path d="M 481.137 317.637 C 479.305 316.091 489.055 319.438 487.075 319.587" fill="none" stroke="black" stroke-width="1.8" stroke-dasharray="4 4" /><path d="M 487.075 319.587 C 486.480 319.632 489.443 319.159 488.853 319.301" fill="none" stroke="black" stroke-width="1.8" stroke-dasharray="4 4" /><path d="M 488.853 319.301 C 487.850 319.542 492.840 317.809 491.847 318.253" fill="none" stroke="black" stroke-width="1.8" stroke-dasharray="4 4" /><path d="M 491.847 318.253 C 489.795 319.170 500.077 313.214 498.010 314.647" fill="none" stroke="black" stroke-width="1.8" stroke-dasharray="4 4" /><path d="M 498.010 314.647 C 497.015 315.337 502.028 311.683 501.018 312.453" fill="none" stroke="black" stroke-width="1.8" stroke-dasharray="4 4" /><path d="M 501.018 312.453 C 498.659 314.250 510.754 304.416 508.269 306.541" fill="none" stroke="black" stroke-width="1.8" stroke-dasharray="4 4" /><path d="M 508.269 306.541 C 507.570 307.139 511.097 304.094 510.385 304.714" fill="none" stroke="black" stroke-width="1.8" stroke-dasharray="4 4" /><path d="M 510.385 304.714 C 509.641 305.361 513.397 302.068 512.638 302.738" fill="none" stroke="black" stroke-width="1.8" stroke-dasharray="4 4" /><path d="M 512.638 302.738 C 511.025 304.162 519.267 296.809 517.582 298.326" fill="none" stroke="black" stroke-width="1.8" stroke-dasharray="4 4" /><path d="M 517.582 298.326 C 516.692 299.127 521.197 295.061 520.285 295.886" fill="none" stroke="black" stroke-width="1.8" stroke-dasharray="4 4" /><path d="M 520.285 295.886 C 518.768 297.259 524.576 291.985 526.091 290.612" fill="none" stroke="black" stroke-width="1.8" stroke-dasharray="4 4" /><path d="M 530.329 286.761 C 532.497 284.791 536.647 281.019 538.863 279.004" fill="none" stroke="black" stroke-width="1.8" stroke-dasharray="4 4" /><path d="M 551.039 267.966 C 551.935 267.142 567.828 252.700 564.062 256.141" fill="none" stroke="black" stroke-width="1.8" stroke-dasharray="4 4" /><path d="M 564.062 256.141 C 562.645 257.436 569.768 250.907 568.337 252.224" fill="none" stroke="black" stroke-width="1.8" stroke-dasharray="4 4" /><path d="M 568.337 252.224 C 564.085 256.136 585.461 236.128 581.185 240.211" fill="none" stroke="black" stroke-width="1.8" stroke-dasharray="4 4" /><path d="M 581.185 240.211 C 578.366 242.902 592.347 229.300 589.581 232.048" fill="none" stroke="black" stroke-width="1.8" stroke-dasharray="4 4" /><path d="M 589.581 232.048 C 588.206 233.414 595.027 226.555 593.675 227.933" fill="none" stroke="black" stroke-width="1.8" stroke-dasharray="4 4" /><path d="M 593.675 227.933 C 592.327 229.306 598.997 222.417 597.678 223.799" fill="none" stroke="black" stroke-width="1.8" stroke-dasharray="4 4" /><path d="M 597.678 223.799 C 595.048 226.557 602.755 218.256 605.353 215.484" fill="none" stroke="black" stroke-width="1.8" stroke-dasharray="4 4" /><path d="M 452.231 230.771 C 443.388 208.813 436.437 192.394 427.570 172.362" fill="none" stroke="black" stroke-width="1.8" stroke-dasharray="4 4" /><path d="M 497.071 369.766 C 527.650 326.881 562.844 277.524 603.784 220.108" fill="none" stroke="black" stroke-width="1.8" /><path d="M 607.294 215.184 C 613.960 205.837 620.790 196.258 627.791 186.439" fill="none" stroke="black" stroke-width="1.8" /><path d="M 497.071 369.766 C 492.441 356.731 487.714 343.422 482.886 329.831" fill="none" stroke="black" stroke-width="1.8" /><path d="M 445.964 363.339 C 469.582 341.905 495.259 318.602 523.277 293.173" fill="none" stroke="black" stroke-width="1.8" /><path d="M 556.668 262.869 C 572.371 248.617 588.822 233.687 606.074 218.030" fill="none" stroke="black" stroke-width="1.8" /><path d="M 445.964 363.339 C 437.932 303.331 429.034 236.861 419.124 162.825" fill="none" stroke="black" stroke-width="1.8" /><path d="M 492.486 193.652 C 553.996 201.954 617.709 198.568 627.497 186.819" fill="none" stroke="black" stroke-width="1.8" /><path d="M 627.497 186.819 C 635.981 176.637 597.954 164.966 548.558 159.851" fill="none" stroke="black" stroke-width="1.8" /><path d="M 548.558 159.851 C 516.279 156.509 483.428 156.333 460.429 158.855" fill="none" stroke="black" stroke-width="1.8" /><path d="M 428.605 156.999 C 406.228 159.599 423.874 176.153 476.360 195.300" fill="none" stroke="black" stroke-width="1.8" /><path d="M 476.360 195.300 C 534.981 216.684 596.848 227.068 606.207 217.904" fill="none" stroke="black" stroke-width="1.8" /><path d="M 606.207 217.904 C 607.404 216.732 607.607 215.303 606.939 213.675" fill="none" stroke="black" stroke-width="1.8" /><path d="M 478.784 162.157 C 457.984 157.876 439.439 155.740 428.605 156.999" fill="none" stroke="black" stroke-width="1.8" /><path d="M 492.683 193.677 C 487.130 181.182 482.534 170.837 478.666 162.132" fill="none" stroke="black" stroke-width="1.8" /><path d="M 492.656 193.669 C 493.271 193.754 493.657 193.807 493.295 193.759" fill="none" stroke="black" stroke-width="1.8" /><path d="M 493.295 193.759 C 490.173 193.344 506.161 195.298 502.893 194.932" fill="none" stroke="black" stroke-width="1.8" /><path d="M 502.893 194.932 C 499.644 194.569 516.176 196.249 512.819 195.941" fill="none" stroke="black" stroke-width="1.8" /><path d="M 512.819 195.941 C 511.702 195.839 517.307 196.334 516.181 196.238" fill="none" stroke="black" stroke-width="1.8" /><path d="M 516.181 196.238 C 512.816 195.952 529.793 197.229 526.374 197.005" fill="none" stroke="black" stroke-width="1.8" /><path d="M 526.374 197.005 C 525.236 196.930 530.932 197.284 529.791 197.217" fill="none" stroke="black" stroke-width="1.8" /><path d="M 529.791 197.217 C 528.652 197.150 534.352 197.467 533.211 197.407" fill="none" stroke="black" stroke-width="1.8" /><path d="M 533.211 197.407 C 532.072 197.348 537.769 197.627 536.630 197.575" fill="none" stroke="black" stroke-width="1.8" /><path d="M 536.630 197.575 C 535.492 197.523 541.178 197.764 540.042 197.720" fill="none" stroke="black" stroke-width="1.8" /><path d="M 540.042 197.720 C 536.639 197.587 553.549 198.077 550.195 198.014" fill="none" stroke="black" stroke-width="1.8" /><path d="M 550.195 198.014 C 549.077 197.993 554.645 198.078 553.536 198.065" fill="none" stroke="black" stroke-width="1.8" /><path d="M 553.536 198.065 C 552.427 198.052 557.946 198.098 556.848 198.093" fill="none" stroke="black" stroke-width="1.8" /><path d="M 556.848 198.093 C 554.651 198.082 565.513 198.054 563.367 198.076" fill="none" stroke="black" stroke-width="1.8" /><path d="M 563.367 198.076 C 560.147 198.108 575.890 197.769 572.819 197.872" fill="none" stroke="black" stroke-width="1.8" /><path d="M 572.819 197.872 C 569.743 197.975 584.669 197.286 581.780 197.458" fill="none" stroke="black" stroke-width="1.8" /><path d="M 581.780 197.458 C 580.815 197.515 585.582 197.209 584.640 197.274" fill="none" stroke="black" stroke-width="1.8" /><path d="M 584.640 197.274 C 581.811 197.469 595.388 196.331 592.791 196.591" fill="none" stroke="black" stroke-width="1.8" /><path d="M 592.791 196.591 C 591.922 196.677 596.194 196.226 595.353 196.320" fill="none" stroke="black" stroke-width="1.8" /><path d="M 595.353 196.320 C 593.670 196.508 601.797 195.503 600.231 195.717" fill="none" stroke="black" stroke-width="1.8" /><path d="M 600.231 195.717 C 598.660 195.932 606.207 194.797 604.760 195.036" fill="none" stroke="black" stroke-width="1.8" /><path d="M 604.760 195.036 C 604.035 195.156 607.582 194.542 606.889 194.668" fill="none" stroke="black" stroke-width="1.8" /><path d="M 606.889 194.668 C 604.801 195.046 614.495 193.032 612.707 193.458" fill="none" stroke="black" stroke-width="1.8" /><path d="M 612.707 193.458 C 612.108 193.601 615.017 192.875 614.452 193.023" fill="none" stroke="black" stroke-width="1.8" /><path d="M 614.452 193.023 C 613.887 193.171 616.630 192.419 616.098 192.572" fill="none" stroke="black" stroke-width="1.8" /><path d="M 616.098 192.572 C 615.566 192.725 618.142 191.949 617.644 192.107" fill="none" stroke="black" stroke-width="1.8" /><path d="M 617.644 192.107 C 616.144 192.580 622.857 190.123 621.673 190.631" fill="none" stroke="black" stroke-width="1.8" /><path d="M 621.673 190.631 C 621.276 190.802 623.173 189.942 622.811 190.115" fill="none" stroke="black" stroke-width="1.8" /><path d="M 622.811 190.115 C 622.448 190.289 624.175 189.412 623.847 189.589" fill="none" stroke="black" stroke-width="1.8" /><path d="M 623.847 189.589 C 623.519 189.766 625.075 188.872 624.781 189.052" fill="none" stroke="black" stroke-width="1.8" /><path d="M 624.781 189.052 C 623.895 189.596 627.545 186.826 626.970 187.389" fill="none" stroke="black" stroke-width="1.8" /><path d="M 626.970 187.389 C 626.777 187.578 627.656 186.629 627.497 186.819" fill="none" stroke="black" stroke-width="1.8" /><path d="M 627.497 186.819 C 627.338 187.011 628.051 186.051 627.925 186.243" fill="none" stroke="black" stroke-width="1.8" /><path d="M 627.925 186.243 C 627.545 186.825 628.703 183.894 628.617 184.484" fill="none" stroke="black" stroke-width="1.8" /><path d="M 628.617 184.484 C 628.589 184.682 628.652 183.691 628.655 183.889" fill="none" stroke="black" stroke-width="1.8" /><path d="M 628.655 183.889 C 628.659 184.088 628.565 183.092 628.599 183.291" fill="none" stroke="black" stroke-width="1.8" /><path d="M 628.599 183.291 C 628.634 183.491 628.385 182.491 628.450 182.691" fill="none" stroke="black" stroke-width="1.8" /><path d="M 628.450 182.691 C 628.515 182.892 628.115 181.889 628.210 182.090" fill="none" stroke="black" stroke-width="1.8" /><path d="M 628.210 182.090 C 628.497 182.695 626.412 179.681 626.956 180.281" fill="none" stroke="black" stroke-width="1.8" /><path d="M 626.956 180.281 C 627.139 180.482 626.157 179.478 626.367 179.678" fill="none" stroke="black" stroke-width="1.8" /><path d="M 626.367 179.678 C 627.001 180.283 623.243 177.288 624.109 177.880" fill="none" stroke="black" stroke-width="1.8" /><path d="M 624.109 177.880 C 624.400 178.079 622.885 177.089 623.200 177.286" fill="none" stroke="black" stroke-width="1.8" /><path d="M 623.200 177.286 C 623.516 177.484 621.876 176.499 622.216 176.695" fill="none" stroke="black" stroke-width="1.8" /><path d="M 622.216 176.695 C 622.899 177.089 619.258 175.139 620.030 175.525" fill="none" stroke="black" stroke-width="1.8" /><path d="M 620.030 175.525 C 620.808 175.913 616.707 173.994 617.568 174.373" fill="none" stroke="black" stroke-width="1.8" /><path d="M 617.568 174.373 C 618.436 174.755 613.901 172.871 614.847 173.243" fill="none" stroke="black" stroke-width="1.8" /><path d="M 614.847 173.243 C 615.322 173.430 612.900 172.503 613.394 172.687" fill="none" stroke="black" stroke-width="1.8" /><path d="M 613.394 172.687 C 613.889 172.872 611.369 171.956 611.882 172.138" fill="none" stroke="black" stroke-width="1.8" /><path d="M 611.882 172.138 C 612.396 172.320 609.782 171.416 610.313 171.595" fill="none" stroke="black" stroke-width="1.8" /><path d="M 610.313 171.595 C 611.917 172.137 603.544 169.498 605.287 170.012" fill="none" stroke="black" stroke-width="1.8" /><path d="M 605.287 170.012 C 605.871 170.184 602.912 169.331 603.511 169.500" fill="none" stroke="black" stroke-width="1.8" /><path d="M 603.511 169.500 C 605.318 170.010 595.989 167.534 597.911 168.014" fill="none" stroke="black" stroke-width="1.8" /><path d="M 597.911 168.014 C 599.850 168.498 589.905 166.157 591.941 166.609" fill="none" stroke="black" stroke-width="1.8" /><path d="M 591.941 166.609 C 592.624 166.761 589.186 166.012 589.878 166.160" fill="none" stroke="black" stroke-width="1.8" /><path d="M 589.878 166.160 C 591.967 166.606 581.328 164.457 583.493 164.870" fill="none" stroke="black" stroke-width="1.8" /><path d="M 583.493 164.870 C 584.218 165.009 580.572 164.326 581.305 164.461" fill="none" stroke="black" stroke-width="1.8" /><path d="M 581.305 164.461 C 582.039 164.596 578.348 163.930 579.090 164.061" fill="none" stroke="black" stroke-width="1.8" /><path d="M 579.090 164.061 C 579.833 164.193 576.100 163.545 576.850 163.672" fill="none" stroke="black" stroke-width="1.8" /><path d="M 576.850 163.672 C 579.110 164.057 567.687 162.219 569.994 162.569" fill="none" stroke="black" stroke-width="1.8" /><path d="M 569.994 162.569 C 570.767 162.686 566.892 162.109 567.669 162.223" fill="none" stroke="black" stroke-width="1.8" /><path d="M 567.669 162.223 C 568.448 162.336 564.543 161.778 565.326 161.887" fill="none" stroke="black" stroke-width="1.8" /><path d="M 565.326 161.887 C 567.684 162.218 555.823 160.652 558.208 160.947" fill="none" stroke="black" stroke-width="1.8" /><path d="M 558.208 160.947 C 559.006 161.046 555.009 160.561 555.810 160.656" fill="none" stroke="black" stroke-width="1.8" /><path d="M 555.810 160.656 C 558.219 160.943 546.137 159.600 548.558 159.851" fill="none" stroke="black" stroke-width="1.8" /><path d="M 548.558 159.851 C 550.993 160.103 538.813 158.931 541.249 159.148" fill="none" stroke="black" stroke-width="1.8" /><path d="M 541.249 159.148 C 542.064 159.220 537.992 158.868 538.806 158.936" fill="none" stroke="black" stroke-width="1.8" /><path d="M 538.806 158.936 C 539.621 159.005 535.547 158.672 536.361 158.737" fill="none" stroke="black" stroke-width="1.8" /><path d="M 536.361 158.737 C 538.810 158.931 526.594 158.047 529.030 158.206" fill="none" stroke="black" stroke-width="1.8" /><path d="M 529.030 158.206 C 529.844 158.259 525.779 158.003 526.591 158.053" fill="none" stroke="black" stroke-width="1.8" /><path d="M 526.591 158.053 C 527.404 158.102 523.346 157.865 524.157 157.911" fill="none" stroke="black" stroke-width="1.8" /><path d="M 524.157 157.911 C 525.779 158.002 517.694 157.586 519.305 157.662" fill="none" stroke="black" stroke-width="1.8" /><path d="M 519.305 157.662 C 521.726 157.775 509.701 157.298 512.089 157.376" fill="none" stroke="black" stroke-width="1.8" /><path d="M 512.089 157.376 C 514.481 157.454 502.619 157.152 504.971 157.195" fill="none" stroke="black" stroke-width="1.8" /><path d="M 504.971 157.195 C 505.755 157.209 501.845 157.148 502.625 157.158" fill="none" stroke="black" stroke-width="1.8" /><path d="M 502.625 157.158 C 503.404 157.168 499.519 157.127 500.294 157.133" fill="none" stroke="black" stroke-width="1.8" /><path d="M 500.294 157.133 C 501.068 157.139 497.210 157.117 497.979 157.120" fill="none" stroke="black" stroke-width="1.8" /><path d="M 497.979 157.120 C 498.748 157.122 494.919 157.119 495.682 157.118" fill="none" stroke="black" stroke-width="1.8" /><path d="M 495.682 157.118 C 497.207 157.115 489.642 157.168 491.142 157.150" fill="none" stroke="black" stroke-width="1.8" /><path d="M 491.142 157.150 C 493.391 157.122 482.303 157.348 484.488 157.285" fill="none" stroke="black" stroke-width="1.8" /><path d="M 484.488 157.285 C 485.944 157.243 478.743 157.492 480.167 157.434" fill="none" stroke="black" stroke-width="1.8" /><path d="M 480.167 157.434 C 481.590 157.377 474.559 157.703 475.948 157.630" fill="none" stroke="black" stroke-width="1.8" /><path d="M 475.948 157.630 C 476.642 157.593 473.194 157.785 473.879 157.745" fill="none" stroke="black" stroke-width="1.8" /><path d="M 473.879 157.745 C 474.564 157.705 471.164 157.916 471.839 157.872" fill="none" stroke="black" stroke-width="1.8" /><path d="M 471.839 157.872 C 473.861 157.739 463.967 158.491 465.902 158.323" fill="none" stroke="black" stroke-width="1.8" /><path d="M 465.902 158.323 C 466.545 158.267 463.354 158.556 463.987 158.496" fill="none" stroke="black" stroke-width="1.8" /><path d="M 463.987 158.496 C 464.619 158.436 461.484 158.745 462.106 158.681" fill="none" stroke="black" stroke-width="1.8" /><path d="M 462.106 158.681 C 462.553 158.635 461.086 158.792 460.454 158.859" fill="none" stroke="black" stroke-width="1.8" /><path d="M 493.298 193.877 C 494.731 194.328 496.164 194.773 497.595 195.213" fill="none" stroke="black" stroke-width="1.8" /><path d="M 606.641 213.784 C 606.717 213.764 606.792 213.743 606.866 213.723" fill="none" stroke="black" stroke-width="1.8" /><path d="M 428.605 156.999 C 427.952 157.103 425.931 157.404 426.574 157.292" fill="none" stroke="black" stroke-width="1.8" /><path d="M 426.574 157.292 C 426.894 157.235 425.338 157.535 425.640 157.471" fill="none" stroke="black" stroke-width="1.8" /><path d="M 425.640 157.471 C 426.242 157.344 423.416 158.055 423.944 157.898" fill="none" stroke="black" stroke-width="1.8" /><path d="M 423.944 157.898 C 424.469 157.741 422.038 158.604 422.485 158.415" fill="none" stroke="black" stroke-width="1.8" /><path d="M 422.485 158.415 C 423.151 158.135 420.282 159.716 420.762 159.364" fill="none" stroke="black" stroke-width="1.8" /><path d="M 420.762 159.364 C 420.921 159.247 420.179 159.851 420.317 159.726" fill="none" stroke="black" stroke-width="1.8" /><path d="M 420.317 159.726 C 420.454 159.602 419.824 160.245 419.939 160.112" fill="none" stroke="black" stroke-width="1.8" /><path d="M 419.939 160.112 C 420.053 159.980 419.536 160.662 419.628 160.522" fill="none" stroke="black" stroke-width="1.8" /><path d="M 419.628 160.522 C 419.903 160.103 419.054 162.382 419.117 161.889" fill="none" stroke="black" stroke-width="1.8" /><path d="M 419.117 161.889 C 419.138 161.726 419.094 162.563 419.090 162.392" fill="none" stroke="black" stroke-width="1.8" /><path d="M 419.090 162.392 C 419.087 162.221 419.166 163.097 419.137 162.918" fill="none" stroke="black" stroke-width="1.8" /><path d="M 419.137 162.918 C 419.081 162.561 419.615 164.429 419.457 164.038" fill="none" stroke="black" stroke-width="1.8" /><path d="M 419.457 164.038 C 419.378 163.844 419.836 164.836 419.731 164.633" fill="none" stroke="black" stroke-width="1.8" /><path d="M 419.731 164.633 C 419.627 164.432 420.214 165.461 420.083 165.251" fill="none" stroke="black" stroke-width="1.8" /><path d="M 420.083 165.251 C 419.694 164.625 422.247 167.937 421.614 167.238" fill="none" stroke="black" stroke-width="1.8" /><path d="M 421.614 167.238 C 421.404 167.007 422.522 168.184 422.284 167.945" fill="none" stroke="black" stroke-width="1.8" /><path d="M 422.284 167.945 C 421.812 167.468 424.455 169.930 423.870 169.422" fill="none" stroke="black" stroke-width="1.8" /><path d="M 423.870 169.422 C 423.000 168.666 427.996 172.615 426.867 171.791" fill="none" stroke="black" stroke-width="1.8" /><path d="M 426.867 171.791 C 426.121 171.247 430.142 174.042 429.280 173.469" fill="none" stroke="black" stroke-width="1.8" /><path d="M 429.280 173.469 C 428.851 173.183 431.070 174.627 430.611 174.335" fill="none" stroke="black" stroke-width="1.8" /><path d="M 430.611 174.335 C 429.245 173.464 436.729 177.967 435.101 177.037" fill="none" stroke="black" stroke-width="1.8" /><path d="M 435.101 177.037 C 434.562 176.730 437.331 178.284 436.763 177.970" fill="none" stroke="black" stroke-width="1.8" /><path d="M 436.763 177.970 C 436.196 177.657 439.100 179.236 438.505 178.918" fill="none" stroke="black" stroke-width="1.8" /><path d="M 438.505 178.918 C 437.911 178.600 440.949 180.203 440.327 179.879" fill="none" stroke="black" stroke-width="1.8" /><path d="M 440.327 179.879 C 438.474 178.916 448.373 183.846 446.268 182.839" fill="none" stroke="black" stroke-width="1.8" /><path d="M 446.268 182.839 C 444.181 181.840 455.217 186.923 452.892 185.890" fill="none" stroke="black" stroke-width="1.8" /><path d="M 452.892 185.890 C 450.584 184.865 462.684 190.055 460.154 189.005" fill="none" stroke="black" stroke-width="1.8" /><path d="M 460.154 189.005 C 458.477 188.310 467.092 191.804 465.324 191.102" fill="none" stroke="black" stroke-width="1.8" /><path d="M 465.324 191.102 C 464.442 190.753 468.902 192.504 468.000 192.153" fill="none" stroke="black" stroke-width="1.8" /><path d="M 468.000 192.153 C 465.304 191.106 479.231 196.347 476.360 195.300" fill="none" stroke="black" stroke-width="1.8" /><path d="M 476.360 195.300 C 475.406 194.952 480.219 196.689 479.247 196.342" fill="none" stroke="black" stroke-width="1.8" /><path d="M 479.247 196.342 C 478.278 195.996 483.166 197.724 482.180 197.379" fill="none" stroke="black" stroke-width="1.8" /><path d="M 482.180 197.379 C 481.196 197.035 486.154 198.752 485.155 198.410" fill="none" stroke="black" stroke-width="1.8" /><path d="M 485.155 198.410 C 482.169 197.386 497.395 202.445 494.296 201.447" fill="none" stroke="black" stroke-width="1.8" /><path d="M 494.296 201.447 C 493.266 201.115 498.443 202.765 497.403 202.437" fill="none" stroke="black" stroke-width="1.8" /><path d="M 497.403 202.437 C 496.364 202.109 501.581 203.736 500.533 203.413" fill="none" stroke="black" stroke-width="1.8" /><path d="M 500.533 203.413 C 499.487 203.090 504.737 204.693 503.683 204.375" fill="none" stroke="black" stroke-width="1.8" /><path d="M 503.683 204.375 C 500.531 203.423 516.400 208.057 513.211 207.157" fill="none" stroke="black" stroke-width="1.8" /><path d="M 513.211 207.157 C 512.149 206.857 517.462 208.339 516.399 208.046" fill="none" stroke="black" stroke-width="1.8" /><path d="M 516.399 208.046 C 515.336 207.753 520.648 209.199 519.586 208.913" fill="none" stroke="black" stroke-width="1.8" /><path d="M 519.586 208.913 C 516.404 208.058 532.249 212.161 529.099 211.377" fill="none" stroke="black" stroke-width="1.8" /><path d="M 529.099 211.377 C 525.950 210.593 541.529 214.311 538.452 213.609" fill="none" stroke="black" stroke-width="1.8" /><path d="M 538.452 213.609 C 536.400 213.141 546.551 215.383 544.545 214.955" fill="none" stroke="black" stroke-width="1.8" /><path d="M 544.545 214.955 C 543.541 214.740 548.526 215.786 547.536 215.582" fill="none" stroke="black" stroke-width="1.8" /><path d="M 547.536 215.582 C 546.545 215.378 551.460 216.372 550.485 216.179" fill="none" stroke="black" stroke-width="1.8" /><path d="M 550.485 216.179 C 547.556 215.598 561.812 218.256 559.043 217.774" fill="none" stroke="black" stroke-width="1.8" /><path d="M 559.043 217.774 C 558.118 217.613 562.693 218.389 561.788 218.240" fill="none" stroke="black" stroke-width="1.8" /><path d="M 561.788 218.240 C 560.883 218.090 565.358 218.809 564.474 218.671" fill="none" stroke="black" stroke-width="1.8" /><path d="M 564.474 218.671 C 563.588 218.533 567.959 219.194 567.096 219.068" fill="none" stroke="black" stroke-width="1.8" /><path d="M 567.096 219.068 C 564.502 218.688 576.931 220.322 574.558 220.048" fill="none" stroke="black" stroke-width="1.8" /><path d="M 574.558 220.048 C 573.764 219.957 577.668 220.384 576.900 220.305" fill="none" stroke="black" stroke-width="1.8" /><path d="M 576.900 220.305 C 576.131 220.225 579.908 220.594 579.167 220.526" fill="none" stroke="black" stroke-width="1.8" /><path d="M 579.167 220.526 C 576.934 220.322 587.461 221.074 585.486 220.977" fill="none" stroke="black" stroke-width="1.8" /><path d="M 585.486 220.977 C 584.824 220.944 588.057 221.078 587.426 221.057" fill="none" stroke="black" stroke-width="1.8" /><path d="M 587.426 221.057 C 586.793 221.036 589.883 221.111 589.280 221.102" fill="none" stroke="black" stroke-width="1.8" /><path d="M 589.280 221.102 C 588.070 221.083 593.811 221.062 592.725 221.089" fill="none" stroke="black" stroke-width="1.8" /><path d="M 592.725 221.089 C 591.633 221.116 596.777 220.870 595.811 220.941" fill="none" stroke="black" stroke-width="1.8" /><path d="M 595.811 220.941 C 595.326 220.977 597.671 220.771 597.218 220.818" fill="none" stroke="black" stroke-width="1.8" /><path d="M 597.218 220.818 C 595.852 220.958 601.964 220.021 600.885 220.255" fill="none" stroke="black" stroke-width="1.8" /><path d="M 600.885 220.255 C 600.523 220.333 602.252 219.917 601.922 220.005" fill="none" stroke="black" stroke-width="1.8" /><path d="M 601.922 220.005 C 601.591 220.094 603.165 219.628 602.866 219.726" fill="none" stroke="black" stroke-width="1.8" /><path d="M 602.866 219.726 C 602.567 219.824 603.986 219.309 603.718 219.417" fill="none" stroke="black" stroke-width="1.8" /><path d="M 603.718 219.417 C 602.909 219.741 606.250 217.919 605.722 218.322" fill="none" stroke="black" stroke-width="1.8" /><path d="M 605.722 218.322 C 605.544 218.458 606.354 217.761 606.207 217.904" fill="none" stroke="black" stroke-width="1.8" /><path d="M 606.207 217.904 C 606.060 218.048 606.719 217.308 606.603 217.460" fill="none" stroke="black" stroke-width="1.8" /><path d="M 606.603 217.460 C 606.250 217.919 607.345 215.461 607.258 215.985" fill="none" stroke="black" stroke-width="1.8" /><path d="M 607.258 215.985 C 607.229 216.160 607.304 215.265 607.303 215.447" fill="none" stroke="black" stroke-width="1.8" /><path d="M 607.303 215.447 C 607.302 215.630 607.236 214.699 607.263 214.889" fill="none" stroke="black" stroke-width="1.8" /><path d="M 607.263 214.889 C 607.309 215.207 607.005 214.402 606.789 213.749" fill="none" stroke="black" stroke-width="1.8" /><path d="M 478.681 162.137 C 477.979 161.995 476.268 161.647 476.775 161.748" fill="none" stroke="black" stroke-width="1.8" /><path d="M 476.775 161.748 C 477.472 161.888 474.003 161.202 474.694 161.336" fill="none" stroke="black" stroke-width="1.8" /><path d="M 474.694 161.336 C 475.384 161.471 471.949 160.811 472.632 160.940" fill="none" stroke="black" stroke-width="1.8" /><path d="M 472.632 160.940 C 473.316 161.070 469.916 160.435 470.593 160.560" fill="none" stroke="black" stroke-width="1.8" /><path d="M 470.593 160.560 C 472.618 160.932 462.651 159.192 464.611 159.516" fill="none" stroke="black" stroke-width="1.8" /><path d="M 464.611 159.516 C 465.263 159.623 462.022 159.099 462.667 159.201" fill="none" stroke="black" stroke-width="1.8" /><path d="M 462.667 159.201 C 463.952 159.405 457.606 158.441 458.859 158.623" fill="none" stroke="black" stroke-width="1.8" /><path d="M 458.859 158.623 C 460.107 158.804 453.953 157.957 455.165 158.115" fill="none" stroke="black" stroke-width="1.8" /><path d="M 455.165 158.115 C 455.770 158.193 452.769 157.815 453.364 157.887" fill="none" stroke="black" stroke-width="1.8" /><path d="M 453.364 157.887 C 455.145 158.105 446.471 157.153 448.159 157.316" fill="none" stroke="black" stroke-width="1.8" /><path d="M 448.159 157.316 C 448.719 157.370 445.943 157.115 446.493 157.163" fill="none" stroke="black" stroke-width="1.8" /><path d="M 446.493 157.163 C 447.041 157.211 444.326 156.988 444.863 157.029" fill="none" stroke="black" stroke-width="1.8" /><path d="M 444.863 157.029 C 445.400 157.071 442.747 156.880 443.272 156.915" fill="none" stroke="black" stroke-width="1.8" /><path d="M 443.272 156.915 C 443.795 156.950 441.208 156.792 441.719 156.820" fill="none" stroke="black" stroke-width="1.8" /><path d="M 441.719 156.820 C 443.247 156.905 435.896 156.631 437.307 156.655" fill="none" stroke="black" stroke-width="1.8" /><path d="M 437.307 156.655 C 438.243 156.672 433.703 156.659 434.583 156.648" fill="none" stroke="black" stroke-width="1.8" /><path d="M 434.583 156.648 C 435.459 156.637 431.228 156.764 432.044 156.724" fill="none" stroke="black" stroke-width="1.8" /><path d="M 432.044 156.724 C 432.451 156.704 430.466 156.825 430.847 156.794" fill="none" stroke="black" stroke-width="1.8" /><path d="M 430.847 156.794 C 431.607 156.733 429.393 156.943 428.605 156.999" fill="none" stroke="black" stroke-width="1.8" /><path d="M 526.091 290.612 C 526.489 290.251 526.587 290.163 526.170 290.542" fill="none" stroke="black" stroke-width="1.8" /><path d="M 526.170 290.542 C 525.123 291.495 530.431 286.664 529.355 287.644" fill="none" stroke="black" stroke-width="1.8" /><path d="M 529.355 287.644 C 528.440 288.476 529.038 287.933 530.329 286.761" fill="none" stroke="black" stroke-width="1.8" /><path d="M 538.863 279.004 C 540.212 277.777 540.834 277.211 539.840 278.113" fill="none" stroke="black" stroke-width="1.8" /><path d="M 539.840 278.113 C 538.596 279.241 544.896 273.529 543.620 274.686" fill="none" stroke="black" stroke-width="1.8" /><path d="M 543.620 274.686 C 542.334 275.851 548.840 269.958 547.524 271.150" fill="none" stroke="black" stroke-width="1.8" /><path d="M 547.524 271.150 C 546.201 272.348 552.889 266.293 551.537 267.517" fill="none" stroke="black" stroke-width="1.8" /><path d="M 551.537 267.517 C 551.060 267.949 550.920 268.075 551.039 267.966" fill="none" stroke="black" stroke-width="1.8" /></svg>