<svg xmlns="http://www.w3.org/2000/svg" width="700" height="520" viewBox="0 0 700 520"><rect width="100%" height="100%" fill="white" /><path d="M 324.007 260.166 C 340.206 267.447 357.395 275.172 375.665 283.383" fill="none" stroke="black" stroke-width="1.8" stroke-dasharray="4 4" /><path d="M 322.320 194.309 C 339.551 199.996 357.906 206.053 377.499 212.520" fill="none" stroke="black" stroke-width="1.8" stroke-dasharray="4 4" /><path d="M 268.758 284.132 C 284.788 292.927 301.897 302.314 320.201 312.356" fill="none" stroke="black" stroke-width="1.8" stroke-dasharray="4 4" /><path d="M 262.938 213.111 C 279.952 220.071 298.201 227.536 317.824 235.564" fill="none" stroke="black" stroke-width="1.8" stroke-dasharray="4 4" /><path d="M 324.007 260.166 C 323.468 239.124 322.906 217.191 322.320 194.309" fill="none" stroke="black" stroke-width="1.8" stroke-dasharray="4 4" /><path d="M 375.665 283.383 C 376.249 260.836 376.859 237.239 377.499 212.520" fill="none" stroke="black" stroke-width="1.8" stroke-dasharray="4 4" /><path d="M 268.758 284.132 C 266.907 261.538 264.969 237.889 262.938 213.111" fill="none" stroke="black" stroke-width="1.8" stroke-dasharray="4 4" /><path d="M 320.201 312.356 C 319.448 288.051 318.658 262.487 317.824 235.564" fill="none" stroke="black" stroke-width="1.8" stroke-dasharray="4 4" /><path d="M 324.007 260.166 C 306.714 267.667 288.334 275.641 268.758 284.132" fill="none" stroke="black" stroke-width="1.8" stroke-dasharray="4 4" /><path d="M 375.665 283.383 C 358.416 292.394 339.970 302.029 320.201 312.356" fill="none" stroke="black" stroke-width="1.8" stroke-dasharray="4 4" /><path d="M 322.320 194.309 C 303.815 200.168 284.064 206.422 262.938 213.111" fill="none" stroke="black" stroke-width="1.8" stroke-dasharray="4 4" /><path d="M 377.499 212.520 C 359.038 219.648 339.200 227.309 317.824 235.564" fill="none" stroke="black" stroke-width="1.8" stroke-dasharray="4 4" /><path d="M 360.710 283.144 C 380.973 292.475 402.693 302.478 426.033 313.227" fill="none" stroke="black" stroke-width="1.8" stroke-dasharray="4 4" /><path d="M 361.529 207.249 C 368.983 209.709 376.630 212.233 384.476 214.823" fill="none" stroke="black" stroke-width="1.8" stroke-dasharray="4 4" /><path d="M 299.450 314.214 C 319.764 325.874 341.721 338.478 365.530 352.144" fill="none" stroke="black" stroke-width="1.8" stroke-dasharray="4 4" /><path d="M 295.099 231.466 C 308.022 236.882 321.606 242.575 335.903 248.567" fill="none" stroke="black" stroke-width="1.8" stroke-dasharray="4 4" /><path d="M 360.710 283.144 C 360.970 259.073 361.243 233.805 361.529 207.249" fill="none" stroke="black" stroke-width="1.8" stroke-dasharray="4 4" /><path d="M 426.033 313.227 C 427.646 292.821 429.328 271.530 431.085 249.297" fill="none" stroke="black" stroke-width="1.8" stroke-dasharray="4 4" /><path d="M 299.450 314.214 C 298.078 288.128 296.630 260.588 295.099 231.466" fill="none" stroke="black" stroke-width="1.8" stroke-dasharray="4 4" /><path d="M 365.530 352.144 C 365.860 332.527 366.204 312.059 366.564 290.682" fill="none" stroke="black" stroke-width="1.8" stroke-dasharray="4 4" /><path d="M 360.710 283.144 C 341.751 292.760 321.385 303.089 299.450 314.214" fill="none" stroke="black" stroke-width="1.8" stroke-dasharray="4 4" /><path d="M 426.033 313.227 C 407.476 325.163 387.376 338.092 365.530 352.144" fill="none" stroke="black" stroke-width="1.8" stroke-dasharray="4 4" /><path d="M 361.529 207.249 C 341.096 214.698 319.021 222.746 295.099 231.466" fill="none" stroke="black" stroke-width="1.8" stroke-dasharray="4 4" /><path d="M 381.526 339.477 C 404.682 351.931 429.682 365.377 456.756 379.940" fill="none" stroke="black" stroke-width="1.8" stroke-dasharray="4 4" /><path d="M 384.198 260.155 C 392.427 263.487 400.882 266.910 409.573 270.429" fill="none" stroke="black" stroke-width="1.8" stroke-dasharray="4 4" /><path d="M 316.056 381.283 C 339.474 397.224 365.019 414.614 392.995 433.659" fill="none" stroke="black" stroke-width="1.8" stroke-dasharray="4 4" /><path d="M 381.526 339.477 C 382.369 314.450 383.258 288.049 384.198 260.155" fill="none" stroke="black" stroke-width="1.8" stroke-dasharray="4 4" /><path d="M 456.756 379.940 C 459.427 357.537 462.235 333.984 465.190 309.191" fill="none" stroke="black" stroke-width="1.8" stroke-dasharray="4 4" /><path d="M 316.056 381.283 C 315.151 357.448 314.197 332.307 313.189 305.751" fill="none" stroke="black" stroke-width="1.8" stroke-dasharray="4 4" /><path d="M 392.995 433.659 C 394.104 411.943 395.272 389.077 396.503 364.968" fill="none" stroke="black" stroke-width="1.8" stroke-dasharray="4 4" /><path d="M 381.526 339.477 C 361.426 352.312 339.673 366.202 316.056 381.283" fill="none" stroke="black" stroke-width="1.8" stroke-dasharray="4 4" /><path d="M 456.756 379.940 C 437.399 396.248 416.234 414.080 392.995 433.659" fill="none" stroke="black" stroke-width="1.8" stroke-dasharray="4 4" /><path d="M 384.198 260.155 C 371.388 266.372 357.914 272.911 343.722 279.799" fill="none" stroke="black" stroke-width="1.8" stroke-dasharray="4 4" /><path d="M 319.826 236.826 C 339.345 244.827 360.320 253.424 382.920 262.688" fill="none" stroke="black" stroke-width="1.8" stroke-dasharray="4 4" /><path d="M 251.282 263.539 C 270.467 273.620 291.269 284.550 313.902 296.443" fill="none" stroke="black" stroke-width="1.8" stroke-dasharray="4 4" /><path d="M 319.826 236.826 C 319.068 210.751 318.272 183.333 317.433 154.466" fill="none" stroke="black" stroke-width="1.8" stroke-dasharray="4 4" /><path d="M 382.920 262.688 C 383.284 251.507 383.655 240.076 384.035 228.388" fill="none" stroke="black" stroke-width="1.8" stroke-dasharray="4 4" /><path d="M 251.282 263.539 C 250.522 255.742 249.749 247.824 248.965 239.781" fill="none" stroke="black" stroke-width="1.8" stroke-dasharray="4 4" /><path d="M 313.902 296.443 C 313.870 295.577 313.838 294.709 313.806 293.840" fill="none" stroke="black" stroke-width="1.8" stroke-dasharray="4 4" /><path d="M 319.826 236.826 C 298.671 245.071 275.889 253.950 251.282 263.539" fill="none" stroke="black" stroke-width="1.8" stroke-dasharray="4 4" /><path d="M 382.920 262.688 C 361.826 273.004 338.902 284.216 313.902 296.443" fill="none" stroke="black" stroke-width="1.8" stroke-dasharray="4 4" /><path d="M 643.032 278.169 C 494.117 232.802 388.902 200.749 310.611 176.898" fill="none" stroke="black" stroke-width="1.8" stroke-dasharray="4 4" /><path d="M 310.611 176.898 C 259.917 191.103 199.513 208.030 126.316 228.542" fill="none" stroke="black" stroke-width="1.8" stroke-dasharray="4 4" /><path d="M 260.613 348.992 C 316.706 399.301 382.906 458.675 462.216 529.807" fill="none" stroke="black" stroke-width="1.8" stroke-dasharray="4 4" /><path d="M 462.216 529.807 C 523.576 444.414 571.858 377.221 610.840 322.970" fill="none" stroke="black" stroke-width="1.8" stroke-dasharray="4 4" /><path d="M 265.068 239.098 C 281.724 246.769 299.558 254.982 318.698 263.796" fill="none" stroke="black" stroke-width="1.8" stroke-dasharray="4 4" /><path d="M 318.698 263.796 C 339.483 254.732 358.810 246.303 376.828 238.445" fill="none" stroke="black" stroke-width="1.8" stroke-dasharray="4 4" /><path d="M 376.828 238.445 C 357.719 231.306 339.790 224.607 322.935 218.309" fill="none" stroke="black" stroke-width="1.8" stroke-dasharray="4 4" /><path d="M 322.935 218.309 C 304.873 224.798 285.624 231.713 265.068 239.098" fill="none" stroke="black" stroke-width="1.8" stroke-dasharray="4 4" /><path d="M 297.581 278.661 C 318.600 289.334 341.389 300.905 366.180 313.493" fill="none" stroke="black" stroke-width="1.8" stroke-dasharray="4 4" /><path d="M 366.180 313.493 C 388.873 300.551 409.683 288.682 428.836 277.759" fill="none" stroke="black" stroke-width="1.8" stroke-dasharray="4 4" /><path d="M 428.836 277.759 C 404.563 267.949 382.032 258.844 361.064 250.370" fill="none" stroke="black" stroke-width="1.8" stroke-dasharray="4 4" /><path d="M 361.064 250.370 C 341.469 259.102 320.368 268.506 297.581 278.661" fill="none" stroke="black" stroke-width="1.8" stroke-dasharray="4 4" /><path d="M 313.652 317.965 C 326.722 325.360 340.445 333.124 354.870 341.286" fill="none" stroke="black" stroke-width="1.8" stroke-dasharray="4 4" /><path d="M 438.428 335.116 C 447.389 328.760 456.002 322.651 464.286 316.776" fill="none" stroke="black" stroke-width="1.8" stroke-dasharray="4 4" /><path d="M 464.286 316.776 C 435.063 303.916 408.224 292.105 383.488 281.220" fill="none" stroke="black" stroke-width="1.8" stroke-dasharray="4 4" /><path d="M 383.488 281.220 C 362.167 292.439 338.974 304.642 313.652 317.965" fill="none" stroke="black" stroke-width="1.8" stroke-dasharray="4 4" /><path d="M 295.845 245.650 C 308.786 255.767 322.259 266.299 336.300 277.275" fill="none" stroke="black" stroke-width="1.8" stroke-dasharray="4 4" /><path d="M 341.135 281.055 C 349.353 287.479 357.770 294.059 366.394 300.800" fill="none" stroke="black" stroke-width="1.8" stroke-dasharray="4 4" /><path d="M 366.394 300.800 C 379.274 290.523 391.622 280.671 403.469 271.218" fill="none" stroke="black" stroke-width="1.8" stroke-dasharray="4 4" /><path d="M 431.016 249.126 C 410.236 235.616 390.538 222.809 371.841 210.653" fill="none" stroke="black" stroke-width="1.8" stroke-dasharray="4 4" /><path d="M 371.841 210.653 C 364.404 210.984 356.943 211.317 349.456 211.651" fill="none" stroke="black" stroke-width="1.8" stroke-dasharray="4 4" /><path d="M 349.456 211.651 C 332.549 222.373 314.705 233.689 295.845 245.650" fill="none" stroke="black" stroke-width="1.8" stroke-dasharray="4 4" /><path d="M 355.815 341.932 C 368.697 352.909 382.061 364.297 395.934 376.119" fill="none" stroke="black" stroke-width="1.8" stroke-dasharray="4 4" /><path d="M 395.934 376.119 C 410.488 362.028 424.330 348.626 437.512 335.864" fill="none" stroke="black" stroke-width="1.8" stroke-dasharray="4 4" /><path d="M 465.132 308.998 C 446.000 295.670 427.750 282.956 410.322 270.815" fill="none" stroke="black" stroke-width="1.8" stroke-dasharray="4 4" /><path d="M 403.593 270.995 C 387.882 271.917 372.058 272.846 356.119 273.782" fill="none" stroke="black" stroke-width="1.8" stroke-dasharray="4 4" /><path d="M 356.119 273.782 C 342.466 283.902 328.197 294.476 313.273 305.537" fill="none" stroke="black" stroke-width="1.8" stroke-dasharray="4 4" /><path d="M 336.480 277.282 C 352.980 265.338 368.651 253.994 383.553 243.207" fill="none" stroke="black" stroke-width="1.8" stroke-dasharray="4 4" /><path d="M 383.553 243.207 C 360.582 227.486 339.013 212.725 318.722 198.839" fill="none" stroke="black" stroke-width="1.8" stroke-dasharray="4 4" /><path d="M 318.722 198.839 C 297.024 211.535 273.846 225.096 249.031 239.615" fill="none" stroke="black" stroke-width="1.8" stroke-dasharray="4 4" /><path d="M 318.330 251.886 C 324.806 249.198 331.138 246.571 337.330 244.001" fill="none" stroke="black" stroke-width="1.8" stroke-dasharray="4 4" /><path d="M 337.330 244.001 C 337.266 238.757 337.201 233.459 337.135 228.107" fill="none" stroke="black" stroke-width="1.8" stroke-dasharray="4 4" /><path d="M 319.376 221.329 C 313.092 223.606 306.668 225.933 300.099 228.313" fill="none" stroke="black" stroke-width="1.8" stroke-dasharray="4 4" /><path d="M 337.135 228.107 C 331.087 225.799 325.169 223.540 319.376 221.329" fill="none" stroke="black" stroke-width="1.8" stroke-dasharray="4 4" /><path d="M 300.099 228.313 C 300.354 233.669 300.607 238.971 300.857 244.219" fill="none" stroke="black" stroke-width="1.8" stroke-dasharray="4 4" /><path d="M 300.857 244.219 C 306.555 246.719 312.377 249.274 318.330 251.886" fill="none" stroke="black" stroke-width="1.8" stroke-dasharray="4 4" /><path d="M 406.883 269.340 C 406.000 269.805 405.113 270.273 404.222 270.742" fill="none" stroke="black" stroke-width="1.8" stroke-dasharray="4 4" /><path d="M 403.586 327.666 C 404.642 308.990 405.740 289.563 406.883 269.340" fill="none" stroke="black" stroke-width="1.8" stroke-dasharray="4 4" /><path d="M 344.015 339.794 C 357.395 331.829 370.136 324.244 382.283 317.013" fill="none" stroke="black" stroke-width="1.8" stroke-dasharray="4 4" /><path d="M 382.283 317.013 C 389.221 320.482 396.320 324.032 403.586 327.666" fill="none" stroke="black" stroke-width="1.8" stroke-dasharray="4 4" /><path d="M 343.632 279.930 C 343.765 300.718 343.893 320.656 344.015 339.794" fill="none" stroke="black" stroke-width="1.8" stroke-dasharray="4 4" /><path d="M 343.418 246.496 C 328.752 252.718 313.277 259.282 296.926 266.218" fill="none" stroke="black" stroke-width="1.8" stroke-dasharray="4 4" /><path d="M 343.210 213.928 C 343.281 225.011 343.350 235.864 343.418 246.496" fill="none" stroke="black" stroke-width="1.8" stroke-dasharray="4 4" /><path d="M 383.951 228.289 C 369.734 223.278 356.169 218.496 343.210 213.928" fill="none" stroke="black" stroke-width="1.8" stroke-dasharray="4 4" /><path d="M 336.500 285.391 C 336.465 282.768 336.429 280.132 336.393 277.482" fill="none" stroke="black" stroke-width="1.8" stroke-dasharray="4 4" /><path d="M 296.926 266.218 C 309.481 272.300 322.656 278.683 336.500 285.391" fill="none" stroke="black" stroke-width="1.8" stroke-dasharray="4 4" /><path d="M 355.601 341.589 C 383.324 339.536 410.700 337.509 437.738 335.506" fill="none" stroke="black" stroke-width="1.8" stroke-dasharray="4 4" /><path d="M 384.476 214.823 C 399.699 219.847 415.705 225.129 432.555 230.690" fill="none" stroke="black" stroke-width="1.8" /><path d="M 335.903 248.567 C 345.914 252.763 356.291 257.112 367.053 261.622" fill="none" stroke="black" stroke-width="1.8" /><path d="M 431.085 249.297 C 431.569 243.169 432.059 236.967 432.555 230.690" fill="none" stroke="black" stroke-width="1.8" /><path d="M 366.564 290.682 C 366.724 281.182 366.887 271.498 367.053 261.622" fill="none" stroke="black" stroke-width="1.8" /><path d="M 432.555 230.690 C 412.621 240.104 390.873 250.374 367.053 261.622" fill="none" stroke="black" stroke-width="1.8" /><path d="M 409.573 270.429 C 427.634 277.741 446.757 285.482 467.038 293.693" fill="none" stroke="black" stroke-width="1.8" /><path d="M 312.774 294.819 C 338.407 308.239 366.617 323.007 397.812 339.339" fill="none" stroke="black" stroke-width="1.8" /><path d="M 465.190 309.191 C 465.800 304.080 466.415 298.914 467.038 293.693" fill="none" stroke="black" stroke-width="1.8" /><path d="M 313.189 305.751 C 313.051 302.134 312.913 298.490 312.774 294.819" fill="none" stroke="black" stroke-width="1.8" /><path d="M 396.503 364.968 C 396.932 356.582 397.368 348.040 397.812 339.339" fill="none" stroke="black" stroke-width="1.8" /><path d="M 343.722 279.799 C 333.781 284.623 323.472 289.627 312.774 294.819" fill="none" stroke="black" stroke-width="1.8" /><path d="M 467.038 293.693 C 446.229 307.414 423.271 322.552 397.812 339.339" fill="none" stroke="black" stroke-width="1.8" /><path d="M 317.432 154.422 C 338.467 159.874 361.205 165.768 385.863 172.160" fill="none" stroke="black" stroke-width="1.8" /><path d="M 242.425 172.750 C 263.016 179.758 285.512 187.415 310.192 195.815" fill="none" stroke="black" stroke-width="1.8" /><path d="M 384.035 228.388 C 384.623 210.293 385.232 191.562 385.863 172.160" fill="none" stroke="black" stroke-width="1.8" /><path d="M 248.965 239.781 C 246.875 218.362 244.697 196.037 242.425 172.750" fill="none" stroke="black" stroke-width="1.8" /><path d="M 313.806 293.840 C 312.677 263.205 311.474 230.596 310.192 195.815" fill="none" stroke="black" stroke-width="1.8" /><path d="M 317.432 154.422 C 294.436 160.041 269.517 166.130 242.425 172.750" fill="none" stroke="black" stroke-width="1.8" /><path d="M 385.863 172.160 C 362.931 179.329 337.816 187.180 310.192 195.815" fill="none" stroke="black" stroke-width="1.8" /><path d="M 68.043 244.871 C 136.113 298.793 245.749 385.642 451.761 548.836" fill="none" stroke="black" stroke-width="1.8" /><path d="M 451.761 548.836 C 558.967 418.290 624.085 338.996 667.833 285.724" fill="none" stroke="black" stroke-width="1.8" /><path d="M 667.833 285.724 C 659.410 283.158 651.144 280.640 643.032 278.169" fill="none" stroke="black" stroke-width="1.8" /><path d="M 126.316 228.542 C 107.831 233.722 88.430 239.158 68.043 244.871" fill="none" stroke="black" stroke-width="1.8" /><path d="M 83.887 190.488 C 131.598 233.279 189.330 285.058 260.613 348.992" fill="none" stroke="black" stroke-width="1.8" /><path d="M 610.840 322.970 C 629.460 297.057 646.276 273.655 661.538 252.414" fill="none" stroke="black" stroke-width="1.8" /><path d="M 661.538 252.414 C 517.556 184.114 407.459 131.888 320.544 90.659" fill="none" stroke="black" stroke-width="1.8" /><path d="M 320.544 90.659 C 256.951 117.484 179.707 150.068 83.887 190.488" fill="none" stroke="black" stroke-width="1.8" /><path d="M 354.870 341.286 C 368.113 348.779 381.978 356.624 396.510 364.846" fill="none" stroke="black" stroke-width="1.8" /><path d="M 396.510 364.846 C 411.320 354.342 425.268 344.449 438.428 335.116" fill="none" stroke="black" stroke-width="1.8" /><path d="M 336.300 277.275 C 337.904 278.529 339.515 279.789 341.135 281.055" fill="none" stroke="black" stroke-width="1.8" /><path d="M 403.469 271.218 C 412.983 263.627 422.187 256.284 431.094 249.177" fill="none" stroke="black" stroke-width="1.8" /><path d="M 431.094 249.177 C 431.068 249.160 431.042 249.143 431.016 249.126" fill="none" stroke="black" stroke-width="1.8" /><path d="M 313.183 305.604 C 326.806 317.212 341.004 329.311 355.815 341.932" fill="none" stroke="black" stroke-width="1.8" /><path d="M 437.512 335.864 C 447.071 326.609 456.297 317.677 465.207 309.050" fill="none" stroke="black" stroke-width="1.8" /><path d="M 410.322 270.815 C 410.227 270.749 410.132 270.682 410.037 270.616" fill="none" stroke="black" stroke-width="1.8" /><path d="M 410.037 270.616 C 407.891 270.742 405.743 270.868 403.593 270.995" fill="none" stroke="black" stroke-width="1.8" /><path d="M 313.273 305.537 C 313.243 305.559 313.213 305.582 313.183 305.604" fill="none" stroke="black" stroke-width="1.8" /><path d="M 248.953 239.661 C 269.104 256.453 290.669 274.422 313.801 293.698" fill="none" stroke="black" stroke-width="1.8" /><path d="M 313.801 293.698 C 321.537 288.098 329.095 282.627 336.480 277.282" fill="none" stroke="black" stroke-width="1.8" /><path d="M 249.031 239.615 C 249.005 239.630 248.979 239.646 248.953 239.661" fill="none" stroke="black" stroke-width="1.8" /><path d="M 404.222 270.742 C 392.286 277.033 379.749 283.641 366.565 290.589" fill="none" stroke="black" stroke-width="1.8" /><path d="M 366.565 290.589 C 358.717 286.912 351.075 283.331 343.632 279.843" fill="none" stroke="black" stroke-width="1.8" /><path d="M 335.999 248.608 C 352.993 241.431 368.977 234.680 384.037 228.320" fill="none" stroke="black" stroke-width="1.8" /><path d="M 384.037 228.320 C 384.008 228.309 383.980 228.299 383.951 228.289" fill="none" stroke="black" stroke-width="1.8" /><path d="M 336.393 277.482 C 336.264 268.039 336.133 258.416 335.999 248.608" fill="none" stroke="black" stroke-width="1.8" /><path d="M 260.235 348.652 C 292.478 346.264 324.263 343.910 355.601 341.589" fill="none" stroke="black" stroke-width="1.8" /><path d="M 437.738 335.506 C 497.092 331.110 554.843 326.833 611.055 322.670" fill="none" stroke="black" stroke-width="1.8" /></svg>