<svg xmlns="http://www.w3.org/2000/svg" width="700" height="520" viewBox="0 0 700 520"><rect width="100%" height="100%" fill="white" /><path d="M 296.318 286.829 C 295.247 262.343 294.131 236.860 292.970 210.318" fill="none" stroke="black" stroke-width="1.8" stroke-dasharray="4 4" /><path d="M 197.793 263.244 C 218.485 270.174 240.645 277.596 264.436 285.564" fill="none" stroke="black" stroke-width="1.8" stroke-dasharray="4 4" /><path d="M 202.951 191.090 C 228.823 196.616 256.991 202.633 287.774 209.208" fill="none" stroke="black" stroke-width="1.8" stroke-dasharray="4 4" /><path d="M 218.532 278.259 C 207.058 283.111 201.143 289.378 201.685 295.219" fill="none" stroke="black" stroke-width="1.8" stroke-dasharray="4 4" /><path d="M 292.828 294.810 C 300.150 286.865 295.780 278.590 281.423 274.139" fill="none" stroke="black" stroke-width="1.8" stroke-dasharray="4 4" /><path d="M 281.423 274.139 C 264.142 268.782 236.844 270.516 218.532 278.259" fill="none" stroke="black" stroke-width="1.8" stroke-dasharray="4 4" /><path d="M 192.310 191.283 C 191.239 191.542 190.185 191.866 189.151 192.253" fill="none" stroke="black" stroke-width="1.8" stroke-dasharray="4 4" /><path d="M 184.580 258.819 C 189.454 260.348 194.859 260.243 200.294 258.228" fill="none" stroke="black" stroke-width="1.8" stroke-dasharray="4 4" /><path d="M 200.294 258.228 C 215.085 252.745 225.140 234.739 223.439 217.321" fill="none" stroke="black" stroke-width="1.8" stroke-dasharray="4 4" /><path d="M 223.439 217.321 C 221.691 199.422 208.100 187.474 192.310 191.283" fill="none" stroke="black" stroke-width="1.8" stroke-dasharray="4 4" /><path d="M 218.532 278.259 C 217.768 278.610 215.436 279.662 216.194 279.304" fill="none" stroke="black" stroke-width="1.8" stroke-dasharray="4 4" /><path d="M 216.194 279.304 C 216.573 279.125 214.708 280.031 215.075 279.847" fill="none" stroke="black" stroke-width="1.8" stroke-dasharray="4 4" /><path d="M 215.075 279.847 C 215.809 279.481 212.257 281.360 212.944 280.975" fill="none" stroke="black" stroke-width="1.8" stroke-dasharray="4 4" /><path d="M 212.944 280.975 C 213.970 280.400 209.122 283.372 210.033 282.759" fill="none" stroke="black" stroke-width="1.8" stroke-dasharray="4 4" /><path d="M 210.033 282.759 C 210.336 282.555 208.856 283.584 209.145 283.376" fill="none" stroke="black" stroke-width="1.8" stroke-dasharray="4 4" /><path d="M 209.145 283.376 C 209.434 283.169 208.026 284.215 208.301 284.004" fill="none" stroke="black" stroke-width="1.8" stroke-dasharray="4 4" /><path d="M 208.301 284.004 C 209.121 283.373 205.356 286.602 206.041 285.942" fill="none" stroke="black" stroke-width="1.8" stroke-dasharray="4 4" /><path d="M 206.041 285.942 C 206.495 285.504 204.385 287.722 204.774 287.273" fill="none" stroke="black" stroke-width="1.8" stroke-dasharray="4 4" /><path d="M 204.774 287.273 C 204.968 287.049 204.039 288.175 204.217 287.949" fill="none" stroke="black" stroke-width="1.8" stroke-dasharray="4 4" /><path d="M 204.217 287.949 C 204.394 287.723 203.551 288.858 203.711 288.630" fill="none" stroke="black" stroke-width="1.8" stroke-dasharray="4 4" /><path d="M 203.711 288.630 C 204.189 287.949 202.201 291.393 202.517 290.697" fill="none" stroke="black" stroke-width="1.8" stroke-dasharray="4 4" /><path d="M 202.517 290.697 C 202.622 290.466 202.144 291.624 202.230 291.392" fill="none" stroke="black" stroke-width="1.8" stroke-dasharray="4 4" /><path d="M 202.230 291.392 C 202.316 291.160 201.932 292.321 202.000 292.088" fill="none" stroke="black" stroke-width="1.8" stroke-dasharray="4 4" /><path d="M 202.000 292.088 C 202.067 291.856 201.779 293.018 201.827 292.785" fill="none" stroke="black" stroke-width="1.8" stroke-dasharray="4 4" /><path d="M 201.827 292.785 C 201.970 292.091 201.698 295.563 201.663 294.870" fill="none" stroke="black" stroke-width="1.8" stroke-dasharray="4 4" /><path d="M 201.663 294.870 C 201.652 294.659 201.742 295.604 201.733 295.590" fill="none" stroke="black" stroke-width="1.8" stroke-dasharray="4 4" /><path d="M 201.724 295.531 C 201.724 295.492 201.838 296.109 201.859 296.248" fill="none" stroke="black" stroke-width="1.8" stroke-dasharray="4 4" /><path d="M 201.844 296.184 C 201.865 296.166 202.279 297.452 202.316 297.638" fill="none" stroke="black" stroke-width="1.8" stroke-dasharray="4 4" /><path d="M 202.263 297.510 C 202.331 297.522 203.399 299.414 203.473 299.642" fill="none" stroke="black" stroke-width="1.8" stroke-dasharray="4 4" /><path d="M 203.874 300.158 C 204.124 300.356 205.529 301.763 205.806 302.088" fill="none" stroke="black" stroke-width="1.8" stroke-dasharray="4 4" /><path d="M 208.567 304.031 C 208.868 304.200 209.253 304.419 209.564 304.598" fill="none" stroke="black" stroke-width="1.8" stroke-dasharray="4 4" /><path d="M 210.147 304.905 C 210.782 305.173 212.478 305.941 213.151 306.265" fill="none" stroke="black" stroke-width="1.8" stroke-dasharray="4 4" /><path d="M 214.720 306.856 C 215.510 307.090 217.220 307.628 218.044 307.901" fill="none" stroke="black" stroke-width="1.8" stroke-dasharray="4 4" /><path d="M 220.135 308.441 C 221.036 308.621 222.707 308.973 223.635 309.178" fill="none" stroke="black" stroke-width="1.8" stroke-dasharray="4 4" /><path d="M 232.924 310.335 C 233.924 310.383 235.447 310.464 236.460 310.524" fill="none" stroke="black" stroke-width="1.8" stroke-dasharray="4 4" /><path d="M 238.172 310.571 C 239.179 310.569 240.649 310.574 241.664 310.583" fill="none" stroke="black" stroke-width="1.8" stroke-dasharray="4 4" /><path d="M 247.146 310.380 C 248.149 310.299 249.561 310.192 250.564 310.121" fill="none" stroke="black" stroke-width="1.8" stroke-dasharray="4 4" /><path d="M 254.315 309.719 C 255.310 309.576 256.711 309.382 257.701 309.249" fill="none" stroke="black" stroke-width="1.8" stroke-dasharray="4 4" /><path d="M 262.978 308.306 C 263.954 308.084 265.383 307.767 266.348 307.559" fill="none" stroke="black" stroke-width="1.8" stroke-dasharray="4 4" /><path d="M 272.556 305.853 C 273.474 305.537 274.962 305.036 275.860 304.742" fill="none" stroke="black" stroke-width="1.8" stroke-dasharray="4 4" /><path d="M 280.856 302.725 C 281.643 302.330 283.161 301.590 283.920 301.232" fill="none" stroke="black" stroke-width="1.8" stroke-dasharray="4 4" /><path d="M 285.520 300.351 C 286.171 299.924 287.658 298.989 288.280 298.615" fill="none" stroke="black" stroke-width="1.8" stroke-dasharray="4 4" /><path d="M 290.244 297.152 C 290.680 296.727 292.033 295.500 292.445 295.156" fill="none" stroke="black" stroke-width="1.8" stroke-dasharray="4 4" /><path d="M 292.803 294.806 C 293.014 294.577 293.224 294.351 293.124 294.466" fill="none" stroke="black" stroke-width="1.8" stroke-dasharray="4 4" /><path d="M 293.124 294.466 C 292.513 295.161 295.124 291.685 294.690 292.379" fill="none" stroke="black" stroke-width="1.8" stroke-dasharray="4 4" /><path d="M 294.690 292.379 C 294.545 292.611 295.222 291.451 295.096 291.682" fill="none" stroke="black" stroke-width="1.8" stroke-dasharray="4 4" /><path d="M 295.096 291.682 C 294.970 291.915 295.550 290.756 295.444 290.987" fill="none" stroke="black" stroke-width="1.8" stroke-dasharray="4 4" /><path d="M 295.444 290.987 C 295.231 291.451 296.101 289.144 295.966 289.602" fill="none" stroke="black" stroke-width="1.8" stroke-dasharray="4 4" /><path d="M 295.966 289.602 C 295.762 290.293 296.348 286.881 296.317 287.554" fill="none" stroke="black" stroke-width="1.8" stroke-dasharray="4 4" /><path d="M 296.317 287.554 C 296.306 287.779 296.312 286.660 296.320 286.882" fill="none" stroke="black" stroke-width="1.8" stroke-dasharray="4 4" /><path d="M 296.320 286.882 C 296.345 287.553 295.807 284.266 295.996 284.909" fill="none" stroke="black" stroke-width="1.8" stroke-dasharray="4 4" /><path d="M 295.996 284.909 C 296.123 285.340 295.310 283.220 295.508 283.637" fill="none" stroke="black" stroke-width="1.8" stroke-dasharray="4 4" /><path d="M 295.508 283.637 C 295.607 283.846 295.068 282.810 295.185 283.015" fill="none" stroke="black" stroke-width="1.8" stroke-dasharray="4 4" /><path d="M 295.185 283.015 C 295.535 283.633 293.406 280.636 293.906 281.216" fill="none" stroke="black" stroke-width="1.8" stroke-dasharray="4 4" /><path d="M 293.906 281.216 C 294.073 281.410 293.196 280.451 293.379 280.641" fill="none" stroke="black" stroke-width="1.8" stroke-dasharray="4 4" /><path d="M 293.379 280.641 C 293.563 280.831 292.606 279.893 292.805 280.078" fill="none" stroke="black" stroke-width="1.8" stroke-dasharray="4 4" /><path d="M 292.805 280.078 C 293.005 280.264 291.968 279.348 292.183 279.529" fill="none" stroke="black" stroke-width="1.8" stroke-dasharray="4 4" /><path d="M 292.183 279.529 C 292.830 280.072 289.267 277.469 290.044 277.966" fill="none" stroke="black" stroke-width="1.8" stroke-dasharray="4 4" /><path d="M 290.044 277.966 C 290.304 278.133 288.969 277.314 289.243 277.475" fill="none" stroke="black" stroke-width="1.8" stroke-dasharray="4 4" /><path d="M 289.243 277.475 C 290.067 277.959 285.653 275.664 286.593 276.097" fill="none" stroke="black" stroke-width="1.8" stroke-dasharray="4 4" /><path d="M 286.593 276.097 C 286.908 276.242 285.305 275.532 285.631 275.671" fill="none" stroke="black" stroke-width="1.8" stroke-dasharray="4 4" /><path d="M 285.631 275.671 C 286.286 275.950 282.896 274.615 283.597 274.870" fill="none" stroke="black" stroke-width="1.8" stroke-dasharray="4 4" /><path d="M 283.597 274.870 C 283.948 274.997 282.164 274.374 282.527 274.495" fill="none" stroke="black" stroke-width="1.8" stroke-dasharray="4 4" /><path d="M 282.527 274.495 C 282.889 274.617 281.049 274.023 281.423 274.139" fill="none" stroke="black" stroke-width="1.8" stroke-dasharray="4 4" /><path d="M 281.423 274.139 C 281.796 274.255 279.902 273.691 280.286 273.801" fill="none" stroke="black" stroke-width="1.8" stroke-dasharray="4 4" /><path d="M 280.286 273.801 C 281.440 274.130 275.458 272.625 276.695 272.898" fill="none" stroke="black" stroke-width="1.8" stroke-dasharray="4 4" /><path d="M 276.695 272.898 C 277.109 272.989 275.020 272.550 275.442 272.634" fill="none" stroke="black" stroke-width="1.8" stroke-dasharray="4 4" /><path d="M 275.442 272.634 C 276.710 272.888 270.194 271.766 271.531 271.961" fill="none" stroke="black" stroke-width="1.8" stroke-dasharray="4 4" /><path d="M 271.531 271.961 C 272.871 272.156 266.024 271.329 267.422 271.464" fill="none" stroke="black" stroke-width="1.8" stroke-dasharray="4 4" /><path d="M 267.422 271.464 C 267.888 271.510 265.542 271.300 266.014 271.339" fill="none" stroke="black" stroke-width="1.8" stroke-dasharray="4 4" /><path d="M 266.014 271.339 C 266.486 271.377 264.112 271.202 264.590 271.233" fill="none" stroke="black" stroke-width="1.8" stroke-dasharray="4 4" /><path d="M 264.590 271.233 C 265.067 271.265 262.667 271.123 263.150 271.148" fill="none" stroke="black" stroke-width="1.8" stroke-dasharray="4 4" /><path d="M 263.150 271.148 C 264.597 271.223 257.269 270.999 258.751 271.014" fill="none" stroke="black" stroke-width="1.8" stroke-dasharray="4 4" /><path d="M 258.751 271.014 C 259.246 271.018 256.766 271.011 257.264 271.009" fill="none" stroke="black" stroke-width="1.8" stroke-dasharray="4 4" /><path d="M 257.264 271.009 C 257.761 271.007 255.268 271.034 255.768 271.025" fill="none" stroke="black" stroke-width="1.8" stroke-dasharray="4 4" /><path d="M 255.768 271.025 C 256.767 271.008 251.747 271.163 252.755 271.118" fill="none" stroke="black" stroke-width="1.8" stroke-dasharray="4 4" /><path d="M 252.755 271.118 C 254.265 271.052 246.689 271.537 248.207 271.410" fill="none" stroke="black" stroke-width="1.8" stroke-dasharray="4 4" /><path d="M 248.207 271.410 C 248.713 271.367 246.183 271.596 246.689 271.547" fill="none" stroke="black" stroke-width="1.8" stroke-dasharray="4 4" /><path d="M 246.689 271.547 C 247.195 271.498 244.667 271.760 245.172 271.704" fill="none" stroke="black" stroke-width="1.8" stroke-dasharray="4 4" /><path d="M 245.172 271.704 C 245.678 271.648 243.154 271.944 243.659 271.881" fill="none" stroke="black" stroke-width="1.8" stroke-dasharray="4 4" /><path d="M 243.659 271.881 C 245.169 271.694 237.653 272.776 239.147 272.530" fill="none" stroke="black" stroke-width="1.8" stroke-dasharray="4 4" /><path d="M 239.147 272.530 C 240.142 272.367 235.197 273.249 236.180 273.060" fill="none" stroke="black" stroke-width="1.8" stroke-dasharray="4 4" /><path d="M 236.180 273.060 C 236.671 272.965 234.225 273.454 234.713 273.353" fill="none" stroke="black" stroke-width="1.8" stroke-dasharray="4 4" /><path d="M 234.713 273.353 C 236.171 273.051 228.976 274.703 230.394 274.345" fill="none" stroke="black" stroke-width="1.8" stroke-dasharray="4 4" /><path d="M 230.394 274.345 C 230.866 274.225 228.521 274.837 228.987 274.711" fill="none" stroke="black" stroke-width="1.8" stroke-dasharray="4 4" /><path d="M 228.987 274.711 C 230.382 274.336 223.548 276.346 224.885 275.917" fill="none" stroke="black" stroke-width="1.8" stroke-dasharray="4 4" /><path d="M 224.885 275.917 C 225.773 275.633 221.406 277.114 222.263 276.806" fill="none" stroke="black" stroke-width="1.8" stroke-dasharray="4 4" /><path d="M 222.263 276.806 C 222.692 276.653 220.577 277.436 220.991 277.275" fill="none" stroke="black" stroke-width="1.8" stroke-dasharray="4 4" /><path d="M 220.991 277.275 C 221.818 276.953 219.375 277.939 218.532 278.259" fill="none" stroke="black" stroke-width="1.8" stroke-dasharray="4 4" /><path d="M 192.310 191.283 C 191.630 191.491 189.576 192.091 190.258 191.867" fill="none" stroke="black" stroke-width="1.8" stroke-dasharray="4 4" /><path d="M 190.258 191.867 C 190.599 191.755 188.898 192.351 189.238 192.224" fill="none" stroke="black" stroke-width="1.8" stroke-dasharray="4 4" /><path d="M 189.238 192.224 C 189.397 192.165 189.334 192.197 189.154 192.276" fill="none" stroke="black" stroke-width="1.8" stroke-dasharray="4 4" /><path d="M 188.913 192.379 C 188.546 192.536 188.009 192.761 187.620 192.920" fill="none" stroke="black" stroke-width="1.8" stroke-dasharray="4 4" /><path d="M 187.187 193.118 C 186.655 193.425 184.963 194.330 184.344 194.637" fill="none" stroke="black" stroke-width="1.8" stroke-dasharray="4 4" /><path d="M 182.214 196.045 C 181.673 196.495 180.341 197.552 179.740 198.008" fill="none" stroke="black" stroke-width="1.8" stroke-dasharray="4 4" /><path d="M 175.167 202.794 C 174.719 203.422 173.850 204.598 173.368 205.231" fill="none" stroke="black" stroke-width="1.8" stroke-dasharray="4 4" /><path d="M 172.937 205.879 C 172.542 206.555 171.818 207.756 171.396 208.435" fill="none" stroke="black" stroke-width="1.8" stroke-dasharray="4 4" /><path d="M 169.842 211.529 C 169.549 212.265 169.039 213.504 168.725 214.239" fill="none" stroke="black" stroke-width="1.8" stroke-dasharray="4 4" /><path d="M 166.330 223.946 C 166.267 224.742 166.143 226.095 166.061 226.879" fill="none" stroke="black" stroke-width="1.8" stroke-dasharray="4 4" /><path d="M 166.057 231.504 C 166.144 232.293 166.281 233.746 166.342 234.514" fill="none" stroke="black" stroke-width="1.8" stroke-dasharray="4 4" /><path d="M 166.635 236.359 C 166.822 237.115 167.170 238.640 167.322 239.369" fill="none" stroke="black" stroke-width="1.8" stroke-dasharray="4 4" /><path d="M 167.452 239.833 C 167.710 240.548 168.242 242.121 168.456 242.803" fill="none" stroke="black" stroke-width="1.8" stroke-dasharray="4 4" /><path d="M 169.326 244.826 C 169.418 245.016 169.515 245.216 169.605 245.403" fill="none" stroke="black" stroke-width="1.8" stroke-dasharray="4 4" /><path d="M 171.115 248.097 C 171.512 248.614 172.687 250.263 172.993 250.733" fill="none" stroke="black" stroke-width="1.8" stroke-dasharray="4 4" /><path d="M 174.374 252.321 C 174.775 252.657 176.513 254.279 176.768 254.559" fill="none" stroke="black" stroke-width="1.8" stroke-dasharray="4 4" /><path d="M 177.430 255.083 C 177.747 255.251 180.091 256.797 180.173 256.897" fill="none" stroke="black" stroke-width="1.8" stroke-dasharray="4 4" /><path d="M 180.320 256.979 C 180.460 257.055 180.625 257.144 180.754 257.215" fill="none" stroke="black" stroke-width="1.8" stroke-dasharray="4 4" /><path d="M 180.827 257.253 C 180.901 257.236 184.258 258.698 183.767 258.542" fill="none" stroke="black" stroke-width="1.8" stroke-dasharray="4 4" /><path d="M 183.616 258.487 C 183.433 258.406 186.180 259.259 185.582 259.102" fill="none" stroke="black" stroke-width="1.8" stroke-dasharray="4 4" /><path d="M 185.582 259.102 C 184.624 258.850 189.463 259.793 188.487 259.668" fill="none" stroke="black" stroke-width="1.8" stroke-dasharray="4 4" /><path d="M 188.487 259.668 C 188.161 259.626 189.796 259.800 189.468 259.772" fill="none" stroke="black" stroke-width="1.8" stroke-dasharray="4 4" /><path d="M 189.468 259.772 C 189.140 259.744 190.783 259.849 190.454 259.835" fill="none" stroke="black" stroke-width="1.8" stroke-dasharray="4 4" /><path d="M 190.454 259.835 C 190.125 259.821 191.773 259.856 191.443 259.856" fill="none" stroke="black" stroke-width="1.8" stroke-dasharray="4 4" /><path d="M 191.443 259.856 C 190.451 259.856 195.405 259.551 194.417 259.673" fill="none" stroke="black" stroke-width="1.8" stroke-dasharray="4 4" /><path d="M 194.417 259.673 C 194.087 259.714 195.736 259.476 195.407 259.531" fill="none" stroke="black" stroke-width="1.8" stroke-dasharray="4 4" /><path d="M 195.407 259.531 C 195.077 259.585 196.722 259.281 196.394 259.348" fill="none" stroke="black" stroke-width="1.8" stroke-dasharray="4 4" /><path d="M 196.394 259.348 C 196.065 259.416 197.704 259.046 197.377 259.126" fill="none" stroke="black" stroke-width="1.8" stroke-dasharray="4 4" /><path d="M 197.377 259.126 C 196.395 259.368 201.253 257.872 200.294 258.228" fill="none" stroke="black" stroke-width="1.8" stroke-dasharray="4 4" /><path d="M 200.294 258.228 C 199.973 258.347 201.569 257.722 201.251 257.853" fill="none" stroke="black" stroke-width="1.8" stroke-dasharray="4 4" /><path d="M 201.251 257.853 C 200.297 258.247 204.984 256.009 204.064 256.509" fill="none" stroke="black" stroke-width="1.8" stroke-dasharray="4 4" /><path d="M 204.064 256.509 C 203.757 256.676 205.282 255.813 204.979 255.991" fill="none" stroke="black" stroke-width="1.8" stroke-dasharray="4 4" /><path d="M 204.979 255.991 C 204.676 256.170 206.179 255.249 205.881 255.439" fill="none" stroke="black" stroke-width="1.8" stroke-dasharray="4 4" /><path d="M 205.881 255.439 C 204.985 256.008 209.347 252.921 208.500 253.585" fill="none" stroke="black" stroke-width="1.8" stroke-dasharray="4 4" /><path d="M 208.500 253.585 C 207.933 254.029 210.706 251.711 210.164 252.194" fill="none" stroke="black" stroke-width="1.8" stroke-dasharray="4 4" /><path d="M 210.164 252.194 C 209.892 252.436 211.234 251.204 210.969 251.455" fill="none" stroke="black" stroke-width="1.8" stroke-dasharray="4 4" /><path d="M 210.969 251.455 C 210.173 252.209 214.002 248.238 213.268 249.071" fill="none" stroke="black" stroke-width="1.8" stroke-dasharray="4 4" /><path d="M 213.268 249.071 C 213.023 249.349 214.231 247.937 213.993 248.224" fill="none" stroke="black" stroke-width="1.8" stroke-dasharray="4 4" /><path d="M 213.993 248.224 C 213.755 248.510 214.926 247.058 214.696 247.352" fill="none" stroke="black" stroke-width="1.8" stroke-dasharray="4 4" /><path d="M 214.696 247.352 C 214.003 248.236 217.287 243.654 216.666 244.602" fill="none" stroke="black" stroke-width="1.8" stroke-dasharray="4 4" /><path d="M 216.666 244.602 C 216.045 245.551 218.962 240.663 218.418 241.668" fill="none" stroke="black" stroke-width="1.8" stroke-dasharray="4 4" /><path d="M 218.418 241.668 C 218.236 242.003 219.123 240.313 218.950 240.654" fill="none" stroke="black" stroke-width="1.8" stroke-dasharray="4 4" /><path d="M 218.950 240.654 C 218.604 241.335 220.245 237.877 219.935 238.578" fill="none" stroke="black" stroke-width="1.8" stroke-dasharray="4 4" /><path d="M 219.935 238.578 C 219.780 238.929 220.532 237.163 220.386 237.518" fill="none" stroke="black" stroke-width="1.8" stroke-dasharray="4 4" /><path d="M 220.386 237.518 C 220.240 237.874 220.946 236.086 220.809 236.446" fill="none" stroke="black" stroke-width="1.8" stroke-dasharray="4 4" /><path d="M 220.809 236.446 C 220.400 237.524 222.231 232.053 221.908 233.162" fill="none" stroke="black" stroke-width="1.8" stroke-dasharray="4 4" /><path d="M 221.908 233.162 C 221.801 233.531 222.314 231.676 222.216 232.048" fill="none" stroke="black" stroke-width="1.8" stroke-dasharray="4 4" /><path d="M 222.216 232.048 C 222.119 232.421 222.582 230.553 222.495 230.928" fill="none" stroke="black" stroke-width="1.8" stroke-dasharray="4 4" /><path d="M 222.495 230.928 C 222.231 232.051 223.321 226.395 223.149 227.533" fill="none" stroke="black" stroke-width="1.8" stroke-dasharray="4 4" /><path d="M 223.149 227.533 C 223.091 227.912 223.353 226.014 223.306 226.394" fill="none" stroke="black" stroke-width="1.8" stroke-dasharray="4 4" /><path d="M 223.306 226.394 C 223.164 227.533 223.639 221.832 223.590 222.972" fill="none" stroke="black" stroke-width="1.8" stroke-dasharray="4 4" /><path d="M 223.590 222.972 C 223.574 223.352 223.629 221.454 223.623 221.833" fill="none" stroke="black" stroke-width="1.8" stroke-dasharray="4 4" /><path d="M 223.623 221.833 C 223.612 222.591 223.563 218.814 223.594 219.566" fill="none" stroke="black" stroke-width="1.8" stroke-dasharray="4 4" /><path d="M 223.594 219.566 C 223.609 219.943 223.506 218.066 223.532 218.440" fill="none" stroke="black" stroke-width="1.8" stroke-dasharray="4 4" /><path d="M 223.532 218.440 C 223.558 218.815 223.403 216.949 223.439 217.321" fill="none" stroke="black" stroke-width="1.8" stroke-dasharray="4 4" /><path d="M 223.439 217.321 C 223.548 218.435 222.768 212.925 222.971 214.013" fill="none" stroke="black" stroke-width="1.8" stroke-dasharray="4 4" /><path d="M 222.971 214.013 C 223.038 214.375 222.674 212.573 222.752 212.931" fill="none" stroke="black" stroke-width="1.8" stroke-dasharray="4 4" /><path d="M 222.752 212.931 C 222.830 213.290 222.414 211.508 222.502 211.862" fill="none" stroke="black" stroke-width="1.8" stroke-dasharray="4 4" /><path d="M 222.502 211.862 C 222.767 212.923 221.210 207.722 221.568 208.740" fill="none" stroke="black" stroke-width="1.8" stroke-dasharray="4 4" /><path d="M 221.568 208.740 C 221.925 209.755 219.913 204.809 220.361 205.771" fill="none" stroke="black" stroke-width="1.8" stroke-dasharray="4 4" /><path d="M 220.361 205.771 C 220.510 206.091 219.741 204.507 219.899 204.820" fill="none" stroke="black" stroke-width="1.8" stroke-dasharray="4 4" /><path d="M 219.899 204.820 C 220.058 205.133 219.240 203.586 219.409 203.892" fill="none" stroke="black" stroke-width="1.8" stroke-dasharray="4 4" /><path d="M 219.409 203.892 C 219.577 204.197 218.712 202.687 218.889 202.985" fill="none" stroke="black" stroke-width="1.8" stroke-dasharray="4 4" /><path d="M 218.889 202.985 C 219.422 203.878 216.548 199.595 217.164 200.414" fill="none" stroke="black" stroke-width="1.8" stroke-dasharray="4 4" /><path d="M 217.164 200.414 C 217.370 200.687 216.321 199.346 216.535 199.609" fill="none" stroke="black" stroke-width="1.8" stroke-dasharray="4 4" /><path d="M 216.535 199.609 C 216.749 199.873 215.657 198.579 215.880 198.833" fill="none" stroke="black" stroke-width="1.8" stroke-dasharray="4 4" /><path d="M 215.880 198.833 C 216.325 199.340 214.015 196.900 214.494 197.368" fill="none" stroke="black" stroke-width="1.8" stroke-dasharray="4 4" /><path d="M 214.494 197.368 C 215.210 198.068 211.445 194.801 212.234 195.406" fill="none" stroke="black" stroke-width="1.8" stroke-dasharray="4 4" /><path d="M 212.234 195.406 C 212.496 195.607 211.166 194.628 211.435 194.819" fill="none" stroke="black" stroke-width="1.8" stroke-dasharray="4 4" /><path d="M 211.435 194.819 C 211.705 195.008 210.339 194.087 210.616 194.266" fill="none" stroke="black" stroke-width="1.8" stroke-dasharray="4 4" /><path d="M 210.616 194.266 C 211.444 194.800 207.149 192.399 208.038 192.824" fill="none" stroke="black" stroke-width="1.8" stroke-dasharray="4 4" /><path d="M 208.038 192.824 C 208.334 192.966 206.840 192.290 207.142 192.419" fill="none" stroke="black" stroke-width="1.8" stroke-dasharray="4 4" /><path d="M 207.142 192.419 C 207.744 192.676 204.676 191.520 205.301 191.725" fill="none" stroke="black" stroke-width="1.8" stroke-dasharray="4 4" /><path d="M 205.301 191.725 C 205.613 191.827 204.041 191.348 204.358 191.437" fill="none" stroke="black" stroke-width="1.8" stroke-dasharray="4 4" /><path d="M 204.358 191.437 C 205.306 191.704 200.464 190.678 201.451 190.821" fill="none" stroke="black" stroke-width="1.8" stroke-dasharray="4 4" /><path d="M 201.451 190.821 C 201.780 190.869 200.128 190.666 200.460 190.700" fill="none" stroke="black" stroke-width="1.8" stroke-dasharray="4 4" /><path d="M 200.460 190.700 C 201.453 190.800 196.419 190.621 197.438 190.592" fill="none" stroke="black" stroke-width="1.8" stroke-dasharray="4 4" /><path d="M 197.438 190.592 C 198.115 190.572 194.709 190.814 195.394 190.737" fill="none" stroke="black" stroke-width="1.8" stroke-dasharray="4 4" /><path d="M 195.394 190.737 C 195.735 190.698 194.025 190.935 194.367 190.875" fill="none" stroke="black" stroke-width="1.8" stroke-dasharray="4 4" /><path d="M 194.367 190.875 C 195.050 190.754 193.000 191.173 192.310 191.283" fill="none" stroke="black" stroke-width="1.8" stroke-dasharray="4 4" /><path d="M 216.977 263.654 C 216.103 263.947 213.431 264.877 214.300 264.604" fill="none" stroke="black" stroke-width="1.8" stroke-dasharray="4 4" /><path d="M 214.300 264.604 C 214.736 264.467 212.588 265.094 213.011 264.980" fill="none" stroke="black" stroke-width="1.8" stroke-dasharray="4 4" /><path d="M 213.011 264.980 C 213.436 264.866 211.347 265.381 211.758 265.289" fill="none" stroke="black" stroke-width="1.8" stroke-dasharray="4 4" /><path d="M 211.758 265.289 C 212.588 265.105 208.602 265.783 209.365 265.697" fill="none" stroke="black" stroke-width="1.8" stroke-dasharray="4 4" /><path d="M 209.365 265.697 C 209.753 265.653 207.859 265.809 208.228 265.790" fill="none" stroke="black" stroke-width="1.8" stroke-dasharray="4 4" /><path d="M 208.228 265.790 C 209.370 265.734 204.123 265.409 205.078 265.595" fill="none" stroke="black" stroke-width="1.8" stroke-dasharray="4 4" /><path d="M 205.078 265.595 C 205.409 265.660 203.811 265.265 204.119 265.359" fill="none" stroke="black" stroke-width="1.8" stroke-dasharray="4 4" /><path d="M 204.119 265.359 C 205.088 265.653 200.776 263.472 201.532 264.051" fill="none" stroke="black" stroke-width="1.8" stroke-dasharray="4 4" /><path d="M 201.532 264.051 C 201.799 264.255 200.526 263.146 200.768 263.386" fill="none" stroke="black" stroke-width="1.8" stroke-dasharray="4 4" /><path d="M 200.768 263.386 C 201.019 263.635 199.829 262.297 200.055 262.585" fill="none" stroke="black" stroke-width="1.8" stroke-dasharray="4 4" /><path d="M 200.055 262.585 C 201.321 264.201 197.449 257.032 198.197 259.097" fill="none" stroke="black" stroke-width="1.8" stroke-dasharray="4 4" /><path d="M 198.197 259.097 C 198.391 259.630 197.490 256.791 197.657 257.399" fill="none" stroke="black" stroke-width="1.8" stroke-dasharray="4 4" /><path d="M 197.657 257.399 C 197.844 258.080 196.971 254.442 197.134 255.228" fill="none" stroke="black" stroke-width="1.8" stroke-dasharray="4 4" /><path d="M 197.134 255.228 C 197.331 256.183 196.403 251.002 196.579 252.175" fill="none" stroke="black" stroke-width="1.8" stroke-dasharray="4 4" /><path d="M 196.579 252.175 C 196.920 254.457 195.950 247.112 195.582 244.852" fill="none" stroke="black" stroke-width="1.8" stroke-dasharray="4 4" /><path d="M 238.263 258.202 C 239.282 260.481 240.935 265.413 241.192 266.545" fill="none" stroke="black" stroke-width="1.8" stroke-dasharray="4 4" /><path d="M 240.982 266.149 C 241.390 266.666 242.886 269.126 243.360 269.982" fill="none" stroke="black" stroke-width="1.8" stroke-dasharray="4 4" /><path d="M 243.668 270.411 C 244.165 271.011 245.024 272.086 245.499 272.698" fill="none" stroke="black" stroke-width="1.8" stroke-dasharray="4 4" /><path d="M 245.402 272.591 C 245.524 272.309 254.041 280.063 253.125 279.646" fill="none" stroke="black" stroke-width="1.8" stroke-dasharray="4 4" /><path d="M 252.860 279.455 C 253.319 279.772 254.020 280.263 254.438 280.561" fill="none" stroke="black" stroke-width="1.8" stroke-dasharray="4 4" /><path d="M 254.955 280.902 C 255.432 281.193 256.264 281.709 256.682 281.974" fill="none" stroke="black" stroke-width="1.8" stroke-dasharray="4 4" /><path d="M 256.577 281.912 C 256.507 281.726 264.320 285.484 263.245 285.136" fill="none" stroke="black" stroke-width="1.8" stroke-dasharray="4 4" /><path d="M 262.982 285.036 C 263.136 285.076 265.637 285.952 265.052 285.766" fill="none" stroke="black" stroke-width="1.8" stroke-dasharray="4 4" /><path d="M 265.052 285.766 C 263.770 285.357 270.162 286.997 268.891 286.750" fill="none" stroke="black" stroke-width="1.8" stroke-dasharray="4 4" /><path d="M 268.891 286.750 C 267.666 286.513 273.717 287.303 272.524 287.225" fill="none" stroke="black" stroke-width="1.8" stroke-dasharray="4 4" /><path d="M 272.524 287.225 C 271.941 287.187 274.831 287.280 274.258 287.281" fill="none" stroke="black" stroke-width="1.8" stroke-dasharray="4 4" /><path d="M 274.258 287.281 C 273.693 287.282 276.486 287.180 275.934 287.220" fill="none" stroke="black" stroke-width="1.8" stroke-dasharray="4 4" /><path d="M 275.934 287.220 C 275.388 287.259 278.080 286.967 277.550 287.044" fill="none" stroke="black" stroke-width="1.8" stroke-dasharray="4 4" /><path d="M 277.550 287.044 C 275.981 287.273 283.409 285.300 282.015 285.858" fill="none" stroke="black" stroke-width="1.8" stroke-dasharray="4 4" /><path d="M 282.015 285.858 C 281.552 286.043 283.811 285.030 283.371 285.250" fill="none" stroke="black" stroke-width="1.8" stroke-dasharray="4 4" /><path d="M 283.371 285.250 C 282.930 285.470 285.073 284.285 284.657 284.539" fill="none" stroke="black" stroke-width="1.8" stroke-dasharray="4 4" /><path d="M 284.657 284.539 C 283.395 285.307 289.105 280.766 288.087 281.807" fill="none" stroke="black" stroke-width="1.8" stroke-dasharray="4 4" /><path d="M 288.087 281.807 C 287.740 282.162 289.401 280.320 289.083 280.702" fill="none" stroke="black" stroke-width="1.8" stroke-dasharray="4 4" /><path d="M 289.083 280.702 C 288.761 281.089 290.297 279.090 290.005 279.502" fill="none" stroke="black" stroke-width="1.8" stroke-dasharray="4 4" /><path d="M 290.005 279.502 C 289.708 279.921 291.118 277.765 290.851 278.208" fill="none" stroke="black" stroke-width="1.8" stroke-dasharray="4 4" /><path d="M 290.851 278.208 C 290.302 279.120 292.739 274.345 292.312 275.341" fill="none" stroke="black" stroke-width="1.8" stroke-dasharray="4 4" /><path d="M 292.312 275.341 C 291.866 276.383 293.787 270.984 293.464 272.100" fill="none" stroke="black" stroke-width="1.8" stroke-dasharray="4 4" /><path d="M 293.464 272.100 C 293.296 272.679 294.060 269.739 293.922 270.335" fill="none" stroke="black" stroke-width="1.8" stroke-dasharray="4 4" /><path d="M 293.922 270.335 C 293.483 272.237 294.996 262.397 294.824 264.425" fill="none" stroke="black" stroke-width="1.8" stroke-dasharray="4 4" /><path d="M 294.824 264.425 C 294.762 265.153 294.999 261.484 294.966 262.224" fill="none" stroke="black" stroke-width="1.8" stroke-dasharray="4 4" /><path d="M 294.966 262.224 C 294.931 262.998 295.035 259.098 295.028 259.884" fill="none" stroke="black" stroke-width="1.8" stroke-dasharray="4 4" /><path d="M 295.028 259.884 C 294.991 264.045 294.470 248.212 294.722 251.686" fill="none" stroke="black" stroke-width="1.8" stroke-dasharray="4 4" /><path d="M 294.722 251.686 C 294.804 252.816 294.345 247.131 294.445 248.277" fill="none" stroke="black" stroke-width="1.8" stroke-dasharray="4 4" /><path d="M 294.445 248.277 C 294.566 249.676 293.944 242.649 294.060 244.061" fill="none" stroke="black" stroke-width="1.8" stroke-dasharray="4 4" /><path d="M 294.060 244.061 C 294.285 246.819 293.646 238.581 293.424 235.809" fill="none" stroke="black" stroke-width="1.8" stroke-dasharray="4 4" /><path d="M 252.119 225.486 C 251.420 227.865 250.333 235.158 250.925 232.782" fill="none" stroke="black" stroke-width="1.8" stroke-dasharray="4 4" /><path d="M 250.925 232.782 C 251.229 231.565 248.885 237.375 249.440 236.246" fill="none" stroke="black" stroke-width="1.8" stroke-dasharray="4 4" /><path d="M 249.440 236.246 C 249.896 235.319 247.346 239.828 247.897 238.945" fill="none" stroke="black" stroke-width="1.8" stroke-dasharray="4 4" /><path d="M 247.897 238.945 C 248.386 238.159 245.773 242.003 246.323 241.248" fill="none" stroke="black" stroke-width="1.8" stroke-dasharray="4 4" /><path d="M 246.323 241.248 C 248.434 238.347 238.534 249.961 241.518 246.882" fill="none" stroke="black" stroke-width="1.8" stroke-dasharray="4 4" /><path d="M 241.518 246.882 C 242.043 246.340 239.357 249.013 239.905 248.486" fill="none" stroke="black" stroke-width="1.8" stroke-dasharray="4 4" /><path d="M 239.905 248.486 C 240.433 247.978 237.746 250.483 238.292 249.989" fill="none" stroke="black" stroke-width="1.8" stroke-dasharray="4 4" /><path d="M 238.292 249.989 C 239.830 248.596 231.823 255.276 233.481 253.999" fill="none" stroke="black" stroke-width="1.8" stroke-dasharray="4 4" /><path d="M 233.481 253.999 C 234.006 253.595 231.360 255.580 231.894 255.190" fill="none" stroke="black" stroke-width="1.8" stroke-dasharray="4 4" /><path d="M 231.894 255.190 C 233.424 254.069 225.627 259.369 227.210 258.373" fill="none" stroke="black" stroke-width="1.8" stroke-dasharray="4 4" /><path d="M 227.210 258.373 C 228.218 257.739 223.157 260.759 224.171 260.187" fill="none" stroke="black" stroke-width="1.8" stroke-dasharray="4 4" /><path d="M 224.171 260.187 C 224.667 259.906 222.187 261.266 222.682 261.002" fill="none" stroke="black" stroke-width="1.8" stroke-dasharray="4 4" /><path d="M 222.682 261.002 C 223.172 260.742 220.730 262.000 221.217 261.757" fill="none" stroke="black" stroke-width="1.8" stroke-dasharray="4 4" /><path d="M 221.217 261.757 C 222.178 261.278 219.325 262.620 218.363 263.084" fill="none" stroke="black" stroke-width="1.8" stroke-dasharray="4 4" /><path d="M 209.678 195.064 C 208.760 195.416 205.943 196.411 206.848 196.023" fill="none" stroke="black" stroke-width="1.8" stroke-dasharray="4 4" /><path d="M 206.848 196.023 C 207.303 195.828 205.081 196.886 205.515 196.658" fill="none" stroke="black" stroke-width="1.8" stroke-dasharray="4 4" /><path d="M 205.515 196.658 C 205.951 196.428 203.825 197.660 204.239 197.397" fill="none" stroke="black" stroke-width="1.8" stroke-dasharray="4 4" /><path d="M 204.239 197.397 C 205.077 196.864 201.131 199.853 201.869 199.191" fill="none" stroke="black" stroke-width="1.8" stroke-dasharray="4 4" /><path d="M 201.869 199.191 C 202.245 198.854 200.432 200.616 200.781 200.248" fill="none" stroke="black" stroke-width="1.8" stroke-dasharray="4 4" /><path d="M 200.781 200.248 C 201.861 199.110 197.119 205.482 197.934 204.078" fill="none" stroke="black" stroke-width="1.8" stroke-dasharray="4 4" /><path d="M 197.934 204.078 C 198.217 203.591 196.881 206.096 197.133 205.581" fill="none" stroke="black" stroke-width="1.8" stroke-dasharray="4 4" /><path d="M 197.133 205.581 C 197.924 203.959 194.714 212.689 195.208 210.826" fill="none" stroke="black" stroke-width="1.8" stroke-dasharray="4 4" /><path d="M 195.208 210.826 C 195.382 210.167 194.595 213.527 194.735 212.842" fill="none" stroke="black" stroke-width="1.8" stroke-dasharray="4 4" /><path d="M 194.735 212.842 C 194.880 212.132 194.243 215.746 194.352 215.010" fill="none" stroke="black" stroke-width="1.8" stroke-dasharray="4 4" /><path d="M 194.352 215.010 C 194.972 210.853 193.754 226.592 193.789 222.666" fill="none" stroke="black" stroke-width="1.8" stroke-dasharray="4 4" /><path d="M 193.789 222.666 C 193.798 221.646 193.852 226.815 193.821 225.766" fill="none" stroke="black" stroke-width="1.8" stroke-dasharray="4 4" /><path d="M 193.821 225.766 C 193.785 224.588 194.068 230.551 193.989 229.342" fill="none" stroke="black" stroke-width="1.8" stroke-dasharray="4 4" /><path d="M 193.989 229.342 C 193.893 227.869 194.493 235.298 194.344 233.800" fill="none" stroke="black" stroke-width="1.8" stroke-dasharray="4 4" /><path d="M 194.344 233.800 C 194.053 230.869 195.036 239.603 195.298 242.524" fill="none" stroke="black" stroke-width="1.8" stroke-dasharray="4 4" /><path d="M 237.984 254.987 C 238.575 252.695 239.325 247.877 239.426 246.516" fill="none" stroke="black" stroke-width="1.8" stroke-dasharray="4 4" /><path d="M 239.387 246.631 C 239.738 245.915 240.499 244.050 240.883 243.036" fill="none" stroke="black" stroke-width="1.8" stroke-dasharray="4 4" /><path d="M 242.689 239.710 C 243.340 239.202 249.197 231.561 249.372 231.000" fill="none" stroke="black" stroke-width="1.8" stroke-dasharray="4 4" /><path d="M 252.684 227.585 C 253.686 226.769 257.862 223.096 258.737 222.261" fill="none" stroke="black" stroke-width="1.8" stroke-dasharray="4 4" /><path d="M 261.007 220.488 C 261.812 219.915 263.206 218.906 263.973 218.342" fill="none" stroke="black" stroke-width="1.8" stroke-dasharray="4 4" /><path d="M 264.738 217.816 C 265.522 217.317 266.947 216.393 267.688 215.904" fill="none" stroke="black" stroke-width="1.8" stroke-dasharray="4 4" /><path d="M 273.025 212.900 C 273.646 212.673 277.534 210.958 278.000 210.703" fill="none" stroke="black" stroke-width="1.8" stroke-dasharray="4 4" /><path d="M 280.499 209.874 C 280.703 209.904 284.572 209.150 284.570 209.075" fill="none" stroke="black" stroke-width="1.8" stroke-dasharray="4 4" /><path d="M 284.528 209.079 C 284.782 209.068 285.293 209.039 285.498 209.024" fill="none" stroke="black" stroke-width="1.8" stroke-dasharray="4 4" /><path d="M 285.565 209.023 C 285.789 209.034 286.460 209.053 286.597 209.050" fill="none" stroke="black" stroke-width="1.8" stroke-dasharray="4 4" /><path d="M 286.554 209.047 C 286.706 209.075 287.621 209.188 287.583 209.172" fill="none" stroke="black" stroke-width="1.8" stroke-dasharray="4 4" /><path d="M 287.482 209.154 C 287.160 209.125 289.739 209.905 289.253 209.684" fill="none" stroke="black" stroke-width="1.8" stroke-dasharray="4 4" /><path d="M 289.253 209.684 C 288.721 209.441 291.071 210.945 290.662 210.587" fill="none" stroke="black" stroke-width="1.8" stroke-dasharray="4 4" /><path d="M 290.662 210.587 C 290.450 210.400 291.436 211.403 291.254 211.188" fill="none" stroke="black" stroke-width="1.8" stroke-dasharray="4 4" /><path d="M 291.254 211.188 C 290.672 210.501 292.895 214.604 292.581 213.653" fill="none" stroke="black" stroke-width="1.8" stroke-dasharray="4 4" /><path d="M 292.581 213.653 C 292.469 213.311 292.962 215.097 292.877 214.724" fill="none" stroke="black" stroke-width="1.8" stroke-dasharray="4 4" /><path d="M 292.877 214.724 C 292.789 214.333 293.163 216.368 293.102 215.944" fill="none" stroke="black" stroke-width="1.8" stroke-dasharray="4 4" /><path d="M 293.102 215.944 C 292.774 213.684 293.371 223.155 293.372 220.857" fill="none" stroke="black" stroke-width="1.8" stroke-dasharray="4 4" /><path d="M 293.372 220.857 C 293.372 220.105 293.330 224.026 293.344 223.198" fill="none" stroke="black" stroke-width="1.8" stroke-dasharray="4 4" /><path d="M 293.344 223.198 C 293.361 222.185 293.278 227.544 293.280 226.363" fill="none" stroke="black" stroke-width="1.8" stroke-dasharray="4 4" /><path d="M 293.280 226.363 C 293.284 224.042 293.327 231.371 293.325 233.580" fill="none" stroke="black" stroke-width="1.8" stroke-dasharray="4 4" /><path d="M 251.959 223.373 C 250.896 221.035 248.655 213.638 249.630 216.042" fill="none" stroke="black" stroke-width="1.8" stroke-dasharray="4 4" /><path d="M 249.630 216.042 C 250.128 217.269 246.832 211.462 247.578 212.585" fill="none" stroke="black" stroke-width="1.8" stroke-dasharray="4 4" /><path d="M 247.578 212.585 C 248.188 213.504 244.868 209.072 245.573 209.932" fill="none" stroke="black" stroke-width="1.8" stroke-dasharray="4 4" /><path d="M 245.573 209.932 C 246.198 210.697 242.904 206.998 243.590 207.716" fill="none" stroke="black" stroke-width="1.8" stroke-dasharray="4 4" /><path d="M 243.590 207.716 C 246.213 210.463 234.121 199.936 237.725 202.594" fill="none" stroke="black" stroke-width="1.8" stroke-dasharray="4 4" /><path d="M 237.725 202.594 C 238.356 203.060 235.140 200.811 235.794 201.245" fill="none" stroke="black" stroke-width="1.8" stroke-dasharray="4 4" /><path d="M 235.794 201.245 C 236.423 201.663 233.229 199.653 233.877 200.040" fill="none" stroke="black" stroke-width="1.8" stroke-dasharray="4 4" /><path d="M 233.877 200.040 C 235.696 201.126 226.290 196.371 228.226 197.182" fill="none" stroke="black" stroke-width="1.8" stroke-dasharray="4 4" /><path d="M 228.226 197.182 C 228.836 197.438 225.764 196.237 226.382 196.462" fill="none" stroke="black" stroke-width="1.8" stroke-dasharray="4 4" /><path d="M 226.382 196.462 C 228.152 197.105 219.204 194.595 221.005 194.950" fill="none" stroke="black" stroke-width="1.8" stroke-dasharray="4 4" /><path d="M 221.005 194.950 C 222.151 195.177 216.436 194.375 217.573 194.468" fill="none" stroke="black" stroke-width="1.8" stroke-dasharray="4 4" /><path d="M 217.573 194.468 C 218.130 194.514 215.360 194.370 215.911 194.382" fill="none" stroke="black" stroke-width="1.8" stroke-dasharray="4 4" /><path d="M 215.911 194.382 C 216.455 194.394 213.750 194.421 214.287 194.399" fill="none" stroke="black" stroke-width="1.8" stroke-dasharray="4 4" /><path d="M 214.287 194.399 C 215.347 194.354 212.226 194.660 211.168 194.740" fill="none" stroke="black" stroke-width="1.8" stroke-dasharray="4 4" /><path d="M 292.970 210.318 C 291.980 187.699 290.955 164.281 289.894 140.021" fill="none" stroke="black" stroke-width="1.8" /><path d="M 201.711 295.430 C 196.016 248.647 189.866 198.128 183.205 143.406" fill="none" stroke="black" stroke-width="1.8" /><path d="M 184.143 258.672 C 188.624 260.173 193.173 261.697 197.793 263.244" fill="none" stroke="black" stroke-width="1.8" /><path d="M 264.436 285.564 C 272.777 288.357 281.327 291.221 290.096 294.158" fill="none" stroke="black" stroke-width="1.8" /><path d="M 287.774 209.208 C 295.670 210.895 303.749 212.620 312.016 214.386" fill="none" stroke="black" stroke-width="1.8" /><path d="M 201.685 295.219 C 202.077 299.440 205.841 303.412 213.269 306.354" fill="none" stroke="black" stroke-width="1.8" /><path d="M 213.269 306.354 C 232.213 313.859 265.148 311.338 284.231 301.112" fill="none" stroke="black" stroke-width="1.8" /><path d="M 284.231 301.112 C 287.981 299.103 290.836 296.971 292.828 294.810" fill="none" stroke="black" stroke-width="1.8" /><path d="M 203.464 136.679 C 180.741 139.930 175.767 144.932 195.305 147.750" fill="none" stroke="black" stroke-width="1.8" /><path d="M 195.305 147.750 C 216.201 150.764 253.744 149.749 275.799 145.659" fill="none" stroke="black" stroke-width="1.8" /><path d="M 275.799 145.659 C 295.911 141.930 293.798 137.269 273.729 135.082" fill="none" stroke="black" stroke-width="1.8" /><path d="M 273.729 135.082 C 254.778 133.017 224.389 133.685 203.464 136.679" fill="none" stroke="black" stroke-width="1.8" /><path d="M 189.151 192.253 C 174.039 197.913 163.703 216.504 166.339 234.860" fill="none" stroke="black" stroke-width="1.8" /><path d="M 166.339 234.860 C 168.120 247.259 175.394 255.936 184.580 258.819" fill="none" stroke="black" stroke-width="1.8" /><path d="M 302.182 215.205 C 286.280 220.905 273.652 245.007 275.028 267.873" fill="none" stroke="black" stroke-width="1.8" /><path d="M 275.028 267.873 C 276.355 289.929 290.194 300.317 305.021 292.292" fill="none" stroke="black" stroke-width="1.8" /><path d="M 305.021 292.292 C 318.886 284.787 329.221 263.387 328.891 243.507" fill="none" stroke="black" stroke-width="1.8" /><path d="M 328.891 243.507 C 328.550 222.984 316.989 209.896 302.182 215.205" fill="none" stroke="black" stroke-width="1.8" /><path d="M 201.733 295.590 C 201.732 295.588 201.730 295.579 201.728 295.560" fill="none" stroke="black" stroke-width="1.8" /><path d="M 201.728 295.560 C 201.726 295.544 201.725 295.534 201.724 295.531" fill="none" stroke="black" stroke-width="1.8" /><path d="M 201.853 296.245 C 201.844 296.206 201.842 296.186 201.844 296.184" fill="none" stroke="black" stroke-width="1.8" /><path d="M 202.316 297.638 C 202.324 297.674 202.316 297.668 202.288 297.601" fill="none" stroke="black" stroke-width="1.8" /><path d="M 202.288 297.601 C 202.262 297.537 202.254 297.508 202.263 297.510" fill="none" stroke="black" stroke-width="1.8" /><path d="M 203.473 299.642 C 203.486 299.683 203.466 299.670 203.402 299.581" fill="none" stroke="black" stroke-width="1.8" /><path d="M 203.402 299.581 C 203.248 299.365 204.072 300.434 203.897 300.222" fill="none" stroke="black" stroke-width="1.8" /><path d="M 203.897 300.222 C 203.820 300.129 203.820 300.115 203.874 300.158" fill="none" stroke="black" stroke-width="1.8" /><path d="M 205.747 302.078 C 205.512 301.878 206.741 302.865 206.485 302.670" fill="none" stroke="black" stroke-width="1.8" /><path d="M 206.485 302.670 C 206.230 302.475 207.558 303.438 207.283 303.248" fill="none" stroke="black" stroke-width="1.8" /><path d="M 207.283 303.248 C 207.007 303.058 208.434 303.995 208.139 303.810" fill="none" stroke="black" stroke-width="1.8" /><path d="M 208.139 303.810 C 207.932 303.680 208.182 303.815 208.567 304.031" fill="none" stroke="black" stroke-width="1.8" /><path d="M 209.564 304.598 C 209.987 304.842 210.273 305.013 210.024 304.883" fill="none" stroke="black" stroke-width="1.8" /><path d="M 210.024 304.883 C 209.806 304.770 209.892 304.798 210.147 304.905" fill="none" stroke="black" stroke-width="1.8" /><path d="M 213.151 306.265 C 213.448 306.408 213.546 306.464 213.269 306.354" fill="none" stroke="black" stroke-width="1.8" /><path d="M 213.269 306.354 C 212.882 306.201 214.861 306.951 214.456 306.804" fill="none" stroke="black" stroke-width="1.8" /><path d="M 214.456 306.804 C 214.157 306.696 214.322 306.737 214.720 306.856" fill="none" stroke="black" stroke-width="1.8" /><path d="M 218.044 307.901 C 218.489 308.048 218.675 308.118 218.317 308.020" fill="none" stroke="black" stroke-width="1.8" /><path d="M 218.317 308.020 C 217.864 307.897 220.165 308.495 219.697 308.379" fill="none" stroke="black" stroke-width="1.8" /><path d="M 219.697 308.379 C 219.315 308.285 219.579 308.330 220.135 308.441" fill="none" stroke="black" stroke-width="1.8" /><path d="M 223.635 309.178 C 224.237 309.312 224.527 309.383 224.091 309.306" fill="none" stroke="black" stroke-width="1.8" /><path d="M 224.091 309.306 C 223.583 309.216 226.154 309.644 225.634 309.563" fill="none" stroke="black" stroke-width="1.8" /><path d="M 225.634 309.563 C 225.114 309.482 227.742 309.866 227.211 309.794" fill="none" stroke="black" stroke-width="1.8" /><path d="M 227.211 309.794 C 226.680 309.721 229.363 310.060 228.821 309.997" fill="none" stroke="black" stroke-width="1.8" /><path d="M 228.821 309.997 C 227.738 309.871 233.251 310.411 232.130 310.321" fill="none" stroke="black" stroke-width="1.8" /><path d="M 232.130 310.321 C 231.605 310.279 232.078 310.295 232.924 310.335" fill="none" stroke="black" stroke-width="1.8" /><path d="M 236.460 310.524 C 237.337 310.576 237.832 310.612 237.275 310.596" fill="none" stroke="black" stroke-width="1.8" /><path d="M 237.275 310.596 C 236.714 310.581 237.248 310.573 238.172 310.571" fill="none" stroke="black" stroke-width="1.8" /><path d="M 241.664 310.583 C 242.609 310.591 243.159 310.602 242.576 310.614" fill="none" stroke="black" stroke-width="1.8" /><path d="M 242.576 310.614 C 241.982 310.627 244.963 310.541 244.365 310.563" fill="none" stroke="black" stroke-width="1.8" /><path d="M 244.365 310.563 C 243.768 310.585 246.759 310.452 246.160 310.483" fill="none" stroke="black" stroke-width="1.8" /><path d="M 246.160 310.483 C 245.565 310.514 246.156 310.460 247.146 310.380" fill="none" stroke="black" stroke-width="1.8" /><path d="M 250.564 310.121 C 251.557 310.050 252.151 310.015 251.555 310.074" fill="none" stroke="black" stroke-width="1.8" /><path d="M 251.555 310.074 C 250.956 310.133 253.942 309.813 253.346 309.882" fill="none" stroke="black" stroke-width="1.8" /><path d="M 253.346 309.882 C 252.753 309.950 253.336 309.860 254.315 309.719" fill="none" stroke="black" stroke-width="1.8" /><path d="M 257.701 309.249 C 258.668 309.120 259.243 309.049 258.665 309.144" fill="none" stroke="black" stroke-width="1.8" /><path d="M 258.665 309.144 C 258.080 309.239 260.987 308.741 260.409 308.845" fill="none" stroke="black" stroke-width="1.8" /><path d="M 260.409 308.845 C 259.830 308.949 262.707 308.409 262.135 308.521" fill="none" stroke="black" stroke-width="1.8" /><path d="M 262.135 308.521 C 261.579 308.630 262.091 308.507 262.978 308.306" fill="none" stroke="black" stroke-width="1.8" /><path d="M 266.348 307.559 C 267.207 307.374 267.700 307.274 267.177 307.404" fill="none" stroke="black" stroke-width="1.8" /><path d="M 267.177 307.404 C 266.630 307.540 269.341 306.842 268.804 306.985" fill="none" stroke="black" stroke-width="1.8" /><path d="M 268.804 306.985 C 267.729 307.272 272.994 305.768 271.964 306.083" fill="none" stroke="black" stroke-width="1.8" /><path d="M 271.964 306.083 C 271.494 306.226 271.860 306.093 272.556 305.853" fill="none" stroke="black" stroke-width="1.8" /><path d="M 275.860 304.742 C 276.515 304.527 276.857 304.422 276.437 304.578" fill="none" stroke="black" stroke-width="1.8" /><path d="M 276.437 304.578 C 275.959 304.754 278.311 303.857 277.848 304.039" fill="none" stroke="black" stroke-width="1.8" /><path d="M 277.848 304.039 C 277.384 304.222 279.665 303.296 279.216 303.484" fill="none" stroke="black" stroke-width="1.8" /><path d="M 279.216 303.484 C 278.767 303.672 280.974 302.720 280.541 302.913" fill="none" stroke="black" stroke-width="1.8" /><path d="M 280.541 302.913 C 280.183 303.072 280.391 302.959 280.856 302.725" fill="none" stroke="black" stroke-width="1.8" /><path d="M 283.920 301.232 C 284.342 301.033 284.531 300.951 284.231 301.112" fill="none" stroke="black" stroke-width="1.8" /><path d="M 284.231 301.112 C 283.845 301.319 285.731 300.276 285.363 300.486" fill="none" stroke="black" stroke-width="1.8" /><path d="M 285.363 300.486 C 285.085 300.645 285.203 300.558 285.520 300.351" fill="none" stroke="black" stroke-width="1.8" /><path d="M 288.280 298.615 C 288.559 298.447 288.665 298.392 288.445 298.546" fill="none" stroke="black" stroke-width="1.8" /><path d="M 288.445 298.546 C 288.129 298.766 289.662 297.658 289.365 297.881" fill="none" stroke="black" stroke-width="1.8" /><path d="M 289.365 297.881 C 289.067 298.104 290.508 296.984 290.229 297.209" fill="none" stroke="black" stroke-width="1.8" /><path d="M 290.229 297.209 C 290.048 297.355 290.084 297.308 290.244 297.152" fill="none" stroke="black" stroke-width="1.8" /><path d="M 292.486 295.158 C 292.374 295.274 292.588 295.038 292.803 294.806" fill="none" stroke="black" stroke-width="1.8" /><path d="M 203.464 136.679 C 202.585 136.815 199.903 137.224 200.777 137.084" fill="none" stroke="black" stroke-width="1.8" /><path d="M 200.777 137.084 C 201.213 137.015 199.061 137.367 199.486 137.296" fill="none" stroke="black" stroke-width="1.8" /><path d="M 199.486 137.296 C 200.332 137.153 196.218 137.884 197.016 137.734" fill="none" stroke="black" stroke-width="1.8" /><path d="M 197.016 137.734 C 198.208 137.511 192.551 138.669 193.621 138.430" fill="none" stroke="black" stroke-width="1.8" /><path d="M 193.621 138.430 C 193.976 138.350 192.237 138.752 192.577 138.670" fill="none" stroke="black" stroke-width="1.8" /><path d="M 192.577 138.670 C 192.917 138.590 191.256 138.998 191.581 138.915" fill="none" stroke="black" stroke-width="1.8" /><path d="M 191.581 138.915 C 192.550 138.669 188.066 139.932 188.888 139.673" fill="none" stroke="black" stroke-width="1.8" /><path d="M 188.888 139.673 C 189.434 139.502 186.881 140.371 187.356 140.195" fill="none" stroke="black" stroke-width="1.8" /><path d="M 187.356 140.195 C 187.593 140.107 186.455 140.548 186.673 140.460" fill="none" stroke="black" stroke-width="1.8" /><path d="M 186.673 140.460 C 186.891 140.371 185.849 140.816 186.048 140.727" fill="none" stroke="black" stroke-width="1.8" /><path d="M 186.048 140.727 C 186.642 140.460 184.112 141.813 184.528 141.539" fill="none" stroke="black" stroke-width="1.8" /><path d="M 184.528 141.539 C 184.666 141.448 184.028 141.904 184.145 141.813" fill="none" stroke="black" stroke-width="1.8" /><path d="M 184.145 141.813 C 184.262 141.722 183.729 142.179 183.825 142.087" fill="none" stroke="black" stroke-width="1.8" /><path d="M 183.825 142.087 C 183.921 141.996 183.495 142.453 183.570 142.362" fill="none" stroke="black" stroke-width="1.8" /><path d="M 183.570 142.362 C 183.792 142.088 183.178 143.458 183.200 143.184" fill="none" stroke="black" stroke-width="1.8" /><path d="M 183.200 143.184 C 183.208 143.093 183.227 143.548 183.212 143.457" fill="none" stroke="black" stroke-width="1.8" /><path d="M 183.212 143.457 C 183.197 143.366 183.331 143.819 183.293 143.728" fill="none" stroke="black" stroke-width="1.8" /><path d="M 183.293 143.728 C 183.216 143.548 183.832 144.443 183.662 144.265" fill="none" stroke="black" stroke-width="1.8" /><path d="M 183.662 144.265 C 183.408 144.000 185.209 145.308 184.742 145.050" fill="none" stroke="black" stroke-width="1.8" /><path d="M 184.742 145.050 C 184.587 144.965 185.422 145.390 185.243 145.305" fill="none" stroke="black" stroke-width="1.8" /><path d="M 185.243 145.305 C 184.709 145.053 187.917 146.283 187.169 146.043" fill="none" stroke="black" stroke-width="1.8" /><path d="M 187.169 146.043 C 186.920 145.964 188.222 146.357 187.950 146.279" fill="none" stroke="black" stroke-width="1.8" /><path d="M 187.950 146.279 C 187.678 146.202 189.096 146.585 188.801 146.510" fill="none" stroke="black" stroke-width="1.8" /><path d="M 188.801 146.510 C 188.506 146.434 190.037 146.807 189.720 146.734" fill="none" stroke="black" stroke-width="1.8" /><path d="M 189.720 146.734 C 189.086 146.587 192.484 147.301 191.759 147.162" fill="none" stroke="black" stroke-width="1.8" /><path d="M 191.759 147.162 C 190.676 146.956 196.584 147.935 195.305 147.750" fill="none" stroke="black" stroke-width="1.8" /><path d="M 195.305 147.750 C 194.880 147.689 197.058 147.989 196.612 147.930" fill="none" stroke="black" stroke-width="1.8" /><path d="M 196.612 147.930 C 195.278 147.755 202.393 148.566 200.883 148.417" fill="none" stroke="black" stroke-width="1.8" /><path d="M 200.883 148.417 C 200.381 148.368 202.938 148.607 202.418 148.561" fill="none" stroke="black" stroke-width="1.8" /><path d="M 202.418 148.561 C 200.860 148.422 209.032 149.041 207.324 148.933" fill="none" stroke="black" stroke-width="1.8" /><path d="M 207.324 148.933 C 206.756 148.896 209.636 149.068 209.052 149.036" fill="none" stroke="black" stroke-width="1.8" /><path d="M 209.052 149.036 C 208.469 149.003 211.420 149.157 210.823 149.128" fill="none" stroke="black" stroke-width="1.8" /><path d="M 210.823 149.128 C 210.226 149.099 213.243 149.236 212.633 149.210" fill="none" stroke="black" stroke-width="1.8" /><path d="M 212.633 149.210 C 211.415 149.159 217.625 149.376 216.360 149.340" fill="none" stroke="black" stroke-width="1.8" /><path d="M 216.360 149.340 C 214.466 149.286 224.150 149.471 222.175 149.451" fill="none" stroke="black" stroke-width="1.8" /><path d="M 222.175 149.451 C 220.201 149.431 230.210 149.443 228.185 149.458" fill="none" stroke="black" stroke-width="1.8" /><path d="M 228.185 149.458 C 227.510 149.463 230.896 149.429 230.217 149.437" fill="none" stroke="black" stroke-width="1.8" /><path d="M 230.217 149.437 C 229.538 149.446 232.939 149.393 232.258 149.405" fill="none" stroke="black" stroke-width="1.8" /><path d="M 232.258 149.405 C 230.214 149.443 240.441 149.169 238.399 149.241" fill="none" stroke="black" stroke-width="1.8" /><path d="M 238.399 149.241 C 237.717 149.265 241.121 149.136 240.441 149.164" fill="none" stroke="black" stroke-width="1.8" /><path d="M 240.441 149.164 C 238.401 149.246 248.509 148.753 246.510 148.868" fill="none" stroke="black" stroke-width="1.8" /><path d="M 246.510 148.868 C 245.843 148.906 249.164 148.706 248.503 148.748" fill="none" stroke="black" stroke-width="1.8" /><path d="M 248.503 148.748 C 247.842 148.789 251.130 148.573 250.476 148.618" fill="none" stroke="black" stroke-width="1.8" /><path d="M 250.476 148.618 C 248.512 148.753 258.118 148.007 256.243 148.170" fill="none" stroke="black" stroke-width="1.8" /><path d="M 256.243 148.170 C 255.617 148.225 258.721 147.945 258.106 148.003" fill="none" stroke="black" stroke-width="1.8" /><path d="M 258.106 148.003 C 256.874 148.118 262.904 147.516 261.725 147.641" fill="none" stroke="black" stroke-width="1.8" /><path d="M 261.725 147.641 C 259.950 147.831 268.488 146.829 266.851 147.040" fill="none" stroke="black" stroke-width="1.8" /><path d="M 266.851 147.040 C 266.303 147.111 269.001 146.753 268.470 146.825" fill="none" stroke="black" stroke-width="1.8" /><path d="M 268.470 146.825 C 267.938 146.898 270.555 146.529 270.040 146.604" fill="none" stroke="black" stroke-width="1.8" /><path d="M 270.040 146.604 C 269.524 146.679 272.057 146.299 271.560 146.376" fill="none" stroke="black" stroke-width="1.8" /><path d="M 271.560 146.376 C 270.062 146.607 277.124 145.413 275.799 145.659" fill="none" stroke="black" stroke-width="1.8" /><path d="M 275.799 145.659 C 275.355 145.741 277.523 145.327 277.100 145.410" fill="none" stroke="black" stroke-width="1.8" /><path d="M 277.100 145.410 C 275.825 145.662 281.735 144.378 280.648 144.640" fill="none" stroke="black" stroke-width="1.8" /><path d="M 280.648 144.640 C 280.283 144.727 282.051 144.288 281.708 144.376" fill="none" stroke="black" stroke-width="1.8" /><path d="M 281.708 144.376 C 281.365 144.464 283.028 144.021 282.706 144.110" fill="none" stroke="black" stroke-width="1.8" /><path d="M 282.706 144.110 C 281.737 144.378 286.088 143.026 285.317 143.298" fill="none" stroke="black" stroke-width="1.8" /><path d="M 285.317 143.298 C 285.059 143.389 286.294 142.934 286.058 143.025" fill="none" stroke="black" stroke-width="1.8" /><path d="M 286.058 143.025 C 285.348 143.299 288.398 141.928 287.889 142.201" fill="none" stroke="black" stroke-width="1.8" /><path d="M 287.889 142.201 C 287.718 142.293 288.516 141.836 288.367 141.927" fill="none" stroke="black" stroke-width="1.8" /><path d="M 288.367 141.927 C 288.218 142.019 288.907 141.562 288.780 141.653" fill="none" stroke="black" stroke-width="1.8" /><path d="M 288.780 141.653 C 288.526 141.836 289.577 140.929 289.410 141.109" fill="none" stroke="black" stroke-width="1.8" /><path d="M 289.410 141.109 C 289.160 141.380 289.926 140.041 289.869 140.305" fill="none" stroke="black" stroke-width="1.8" /><path d="M 289.869 140.305 C 289.850 140.393 289.892 139.954 289.895 140.042" fill="none" stroke="black" stroke-width="1.8" /><path d="M 289.895 140.042 C 289.901 140.304 289.403 139.018 289.595 139.269" fill="none" stroke="black" stroke-width="1.8" /><path d="M 289.595 139.269 C 289.723 139.438 288.882 138.609 289.090 138.772" fill="none" stroke="black" stroke-width="1.8" /><path d="M 289.090 138.772 C 289.194 138.854 288.625 138.449 288.748 138.529" fill="none" stroke="black" stroke-width="1.8" /><path d="M 288.748 138.529 C 289.120 138.771 286.840 137.603 287.379 137.828" fill="none" stroke="black" stroke-width="1.8" /><path d="M 287.379 137.828 C 287.559 137.904 286.613 137.531 286.811 137.604" fill="none" stroke="black" stroke-width="1.8" /><path d="M 286.811 137.604 C 287.009 137.678 285.973 137.313 286.189 137.385" fill="none" stroke="black" stroke-width="1.8" /><path d="M 286.189 137.385 C 286.405 137.458 285.280 137.102 285.514 137.172" fill="none" stroke="black" stroke-width="1.8" /><path d="M 285.514 137.172 C 286.216 137.383 282.334 136.372 283.183 136.565" fill="none" stroke="black" stroke-width="1.8" /><path d="M 283.183 136.565 C 283.467 136.629 282.009 136.312 282.308 136.374" fill="none" stroke="black" stroke-width="1.8" /><path d="M 282.308 136.374 C 283.208 136.562 278.376 135.672 279.407 135.840" fill="none" stroke="black" stroke-width="1.8" /><path d="M 279.407 135.840 C 279.751 135.896 277.994 135.621 278.352 135.675" fill="none" stroke="black" stroke-width="1.8" /><path d="M 278.352 135.675 C 279.070 135.783 275.348 135.266 276.118 135.365" fill="none" stroke="black" stroke-width="1.8" /><path d="M 276.118 135.365 C 276.504 135.414 274.544 135.173 274.942 135.220" fill="none" stroke="black" stroke-width="1.8" /><path d="M 274.942 135.220 C 275.341 135.267 273.318 135.038 273.729 135.082" fill="none" stroke="black" stroke-width="1.8" /><path d="M 273.729 135.082 C 274.140 135.127 272.056 134.909 272.479 134.952" fill="none" stroke="black" stroke-width="1.8" /><path d="M 272.479 134.952 C 273.748 135.079 267.161 134.498 268.524 134.603" fill="none" stroke="black" stroke-width="1.8" /><path d="M 268.524 134.603 C 268.980 134.638 266.678 134.469 267.143 134.501" fill="none" stroke="black" stroke-width="1.8" /><path d="M 267.143 134.501 C 268.541 134.599 261.352 134.166 262.828 134.241" fill="none" stroke="black" stroke-width="1.8" /><path d="M 262.828 134.241 C 264.307 134.317 256.741 133.998 258.286 134.050" fill="none" stroke="black" stroke-width="1.8" /><path d="M 258.286 134.050 C 258.802 134.067 256.207 133.987 256.729 134.002" fill="none" stroke="black" stroke-width="1.8" /><path d="M 256.729 134.002 C 257.251 134.016 254.624 133.949 255.152 133.961" fill="none" stroke="black" stroke-width="1.8" /><path d="M 255.152 133.961 C 255.681 133.973 253.023 133.918 253.558 133.928" fill="none" stroke="black" stroke-width="1.8" /><path d="M 253.558 133.928 C 255.161 133.957 247.036 133.871 248.681 133.876" fill="none" stroke="black" stroke-width="1.8" /><path d="M 248.681 133.876 C 249.229 133.878 246.477 133.875 247.029 133.875" fill="none" stroke="black" stroke-width="1.8" /><path d="M 247.029 133.875 C 247.581 133.874 244.811 133.884 245.367 133.881" fill="none" stroke="black" stroke-width="1.8" /><path d="M 245.367 133.881 C 246.478 133.874 240.895 133.934 242.017 133.917" fill="none" stroke="black" stroke-width="1.8" /><path d="M 242.017 133.917 C 243.697 133.891 235.255 134.078 236.949 134.029" fill="none" stroke="black" stroke-width="1.8" /><path d="M 236.949 134.029 C 237.514 134.012 234.690 134.101 235.255 134.082" fill="none" stroke="black" stroke-width="1.8" /><path d="M 235.255 134.082 C 235.820 134.063 232.996 134.164 233.561 134.142" fill="none" stroke="black" stroke-width="1.8" /><path d="M 233.561 134.142 C 234.125 134.121 231.304 134.235 231.868 134.211" fill="none" stroke="black" stroke-width="1.8" /><path d="M 231.868 134.211 C 233.557 134.139 225.138 134.556 226.815 134.461" fill="none" stroke="black" stroke-width="1.8" /><path d="M 226.815 134.461 C 227.930 134.398 222.377 134.739 223.482 134.665" fill="none" stroke="black" stroke-width="1.8" /><path d="M 223.482 134.665 C 224.034 134.629 221.283 134.818 221.831 134.779" fill="none" stroke="black" stroke-width="1.8" /><path d="M 221.831 134.779 C 223.473 134.662 215.358 135.300 216.961 135.162" fill="none" stroke="black" stroke-width="1.8" /><path d="M 216.961 135.162 C 217.494 135.116 214.842 135.352 215.370 135.304" fill="none" stroke="black" stroke-width="1.8" /><path d="M 215.370 135.304 C 216.948 135.159 209.197 135.936 210.717 135.770" fill="none" stroke="black" stroke-width="1.8" /><path d="M 210.717 135.770 C 211.727 135.660 206.754 136.234 207.733 136.115" fill="none" stroke="black" stroke-width="1.8" /><path d="M 207.733 136.115 C 208.221 136.055 205.807 136.359 206.280 136.297" fill="none" stroke="black" stroke-width="1.8" /><path d="M 206.280 136.297 C 207.225 136.172 204.429 136.554 203.464 136.679" fill="none" stroke="black" stroke-width="1.8" /><path d="M 189.154 192.276 C 189.088 192.305 189.006 192.340 188.913 192.379" fill="none" stroke="black" stroke-width="1.8" /><path d="M 187.620 192.920 C 187.228 193.080 186.985 193.174 187.214 193.069" fill="none" stroke="black" stroke-width="1.8" /><path d="M 184.344 194.637 C 184.103 194.757 184.026 194.786 184.242 194.655" fill="none" stroke="black" stroke-width="1.8" /><path d="M 184.242 194.655 C 184.567 194.458 182.954 195.477 183.274 195.266" fill="none" stroke="black" stroke-width="1.8" /><path d="M 183.274 195.266 C 183.595 195.056 182.005 196.143 182.320 195.918" fill="none" stroke="black" stroke-width="1.8" /><path d="M 182.320 195.918 C 182.543 195.761 182.460 195.840 182.214 196.045" fill="none" stroke="black" stroke-width="1.8" /><path d="M 179.740 198.008 C 179.451 198.227 179.332 198.307 179.554 198.111" fill="none" stroke="black" stroke-width="1.8" /><path d="M 179.554 198.111 C 180.151 197.586 177.234 200.334 177.804 199.760" fill="none" stroke="black" stroke-width="1.8" /><path d="M 177.804 199.760 C 178.089 199.473 176.683 200.937 176.961 200.638" fill="none" stroke="black" stroke-width="1.8" /><path d="M 176.961 200.638 C 177.238 200.340 175.871 201.860 176.140 201.550" fill="none" stroke="black" stroke-width="1.8" /><path d="M 176.140 201.550 C 176.410 201.241 175.083 202.816 175.344 202.495" fill="none" stroke="black" stroke-width="1.8" /><path d="M 175.344 202.495 C 175.557 202.234 175.439 202.414 175.167 202.794" fill="none" stroke="black" stroke-width="1.8" /><path d="M 173.368 205.231 C 173.068 205.626 172.918 205.809 173.114 205.515" fill="none" stroke="black" stroke-width="1.8" /><path d="M 173.114 205.515 C 173.311 205.220 173.194 205.438 172.937 205.879" fill="none" stroke="black" stroke-width="1.8" /><path d="M 171.396 208.435 C 171.115 208.887 170.968 209.107 171.143 208.784" fill="none" stroke="black" stroke-width="1.8" /><path d="M 171.143 208.784 C 171.347 208.408 170.356 210.305 170.549 209.922" fill="none" stroke="black" stroke-width="1.8" /><path d="M 170.549 209.922 C 170.742 209.539 169.806 211.471 169.987 211.081" fill="none" stroke="black" stroke-width="1.8" /><path d="M 169.987 211.081 C 170.147 210.739 170.049 211.008 169.842 211.529" fill="none" stroke="black" stroke-width="1.8" /><path d="M 168.725 214.239 C 168.501 214.764 168.378 215.031 168.508 214.671" fill="none" stroke="black" stroke-width="1.8" /><path d="M 168.508 214.671 C 168.654 214.264 167.951 216.311 168.085 215.900" fill="none" stroke="black" stroke-width="1.8" /><path d="M 168.085 215.900 C 168.220 215.488 167.577 217.557 167.700 217.141" fill="none" stroke="black" stroke-width="1.8" /><path d="M 167.700 217.141 C 167.944 216.310 166.845 220.500 167.040 219.656" fill="none" stroke="black" stroke-width="1.8" /><path d="M 167.040 219.656 C 167.137 219.234 166.682 221.350 166.767 220.925" fill="none" stroke="black" stroke-width="1.8" /><path d="M 166.767 220.925 C 166.851 220.501 166.461 222.626 166.532 222.201" fill="none" stroke="black" stroke-width="1.8" /><path d="M 166.532 222.201 C 166.604 221.775 166.278 223.906 166.337 223.480" fill="none" stroke="black" stroke-width="1.8" /><path d="M 166.337 223.480 C 166.388 223.105 166.374 223.389 166.330 223.946" fill="none" stroke="black" stroke-width="1.8" /><path d="M 166.061 226.879 C 166.004 227.420 165.967 227.690 165.984 227.321" fill="none" stroke="black" stroke-width="1.8" /><path d="M 165.984 227.321 C 166.004 226.895 165.939 229.022 165.945 228.597" fill="none" stroke="black" stroke-width="1.8" /><path d="M 165.945 228.597 C 165.958 227.748 166.025 231.970 165.986 231.131" fill="none" stroke="black" stroke-width="1.8" /><path d="M 165.986 231.131 C 165.969 230.780 166.003 231.012 166.057 231.504" fill="none" stroke="black" stroke-width="1.8" /><path d="M 166.342 234.514 C 166.378 234.978 166.387 235.192 166.339 234.860" fill="none" stroke="black" stroke-width="1.8" /><path d="M 166.339 234.860 C 166.280 234.452 166.605 236.480 166.534 236.077" fill="none" stroke="black" stroke-width="1.8" /><path d="M 166.534 236.077 C 166.477 235.756 166.531 235.939 166.635 236.359" fill="none" stroke="black" stroke-width="1.8" /><path d="M 167.322 239.369 C 167.402 239.756 167.428 239.920 167.345 239.626" fill="none" stroke="black" stroke-width="1.8" /><path d="M 167.345 239.626 C 167.262 239.334 167.323 239.476 167.452 239.833" fill="none" stroke="black" stroke-width="1.8" /><path d="M 168.456 242.803 C 168.557 243.125 168.587 243.248 168.483 242.988" fill="none" stroke="black" stroke-width="1.8" /><path d="M 168.483 242.988 C 168.339 242.626 169.088 244.413 168.932 244.061" fill="none" stroke="black" stroke-width="1.8" /><path d="M 168.932 244.061 C 168.796 243.751 169.040 244.238 169.326 244.826" fill="none" stroke="black" stroke-width="1.8" /><path d="M 169.605 245.403 C 169.873 245.961 170.080 246.406 169.931 246.124" fill="none" stroke="black" stroke-width="1.8" /><path d="M 169.931 246.124 C 169.754 245.790 170.667 247.437 170.479 247.113" fill="none" stroke="black" stroke-width="1.8" /><path d="M 170.479 247.113 C 170.291 246.788 171.256 248.385 171.058 248.071" fill="none" stroke="black" stroke-width="1.8" /><path d="M 171.058 248.071 C 170.933 247.873 170.976 247.915 171.115 248.097" fill="none" stroke="black" stroke-width="1.8" /><path d="M 172.971 250.753 C 172.744 250.472 173.900 251.848 173.665 251.579" fill="none" stroke="black" stroke-width="1.8" /><path d="M 173.665 251.579 C 173.429 251.309 174.628 252.626 174.384 252.369" fill="none" stroke="black" stroke-width="1.8" /><path d="M 176.768 254.559 C 176.824 254.621 176.808 254.617 176.688 254.518" fill="none" stroke="black" stroke-width="1.8" /><path d="M 176.688 254.518 C 176.420 254.298 177.774 255.365 177.500 255.159" fill="none" stroke="black" stroke-width="1.8" /><path d="M 177.500 255.159 C 177.383 255.070 177.369 255.052 177.430 255.083" fill="none" stroke="black" stroke-width="1.8" /><path d="M 180.173 256.897 C 180.185 256.911 180.150 256.896 180.055 256.842" fill="none" stroke="black" stroke-width="1.8" /><path d="M 180.055 256.842 C 179.939 256.776 180.101 256.861 180.320 256.979" fill="none" stroke="black" stroke-width="1.8" /><path d="M 180.754 257.215 C 180.933 257.312 181.046 257.375 180.941 257.322" fill="none" stroke="black" stroke-width="1.8" /><path d="M 180.941 257.322 C 180.853 257.276 180.818 257.255 180.827 257.253" fill="none" stroke="black" stroke-width="1.8" /><path d="M 183.767 258.542 C 183.747 258.535 183.721 258.527 183.689 258.515" fill="none" stroke="black" stroke-width="1.8" /><path d="M 183.689 258.515 C 183.651 258.502 183.628 258.492 183.616 258.487" fill="none" stroke="black" stroke-width="1.8" /><path d="M 302.182 215.205 C 301.538 215.486 299.591 216.303 300.240 216.002" fill="none" stroke="black" stroke-width="1.8" /><path d="M 300.240 216.002 C 300.564 215.852 298.945 216.645 299.269 216.478" fill="none" stroke="black" stroke-width="1.8" /><path d="M 299.269 216.478 C 299.915 216.144 296.687 217.983 297.331 217.581" fill="none" stroke="black" stroke-width="1.8" /><path d="M 297.331 217.581 C 298.294 216.981 293.510 220.359 294.459 219.609" fill="none" stroke="black" stroke-width="1.8" /><path d="M 294.459 219.609 C 294.774 219.359 293.203 220.647 293.516 220.381" fill="none" stroke="black" stroke-width="1.8" /><path d="M 293.516 220.381 C 293.828 220.116 292.273 221.482 292.582 221.201" fill="none" stroke="black" stroke-width="1.8" /><path d="M 292.582 221.201 C 293.508 220.360 288.962 224.913 289.853 223.934" fill="none" stroke="black" stroke-width="1.8" /><path d="M 289.853 223.934 C 290.445 223.284 287.534 226.681 288.106 225.974" fill="none" stroke="black" stroke-width="1.8" /><path d="M 288.106 225.974 C 288.391 225.620 286.978 227.422 287.258 227.054" fill="none" stroke="black" stroke-width="1.8" /><path d="M 287.258 227.054 C 287.537 226.688 286.156 228.554 286.429 228.175" fill="none" stroke="black" stroke-width="1.8" /><path d="M 286.429 228.175 C 286.702 227.795 285.354 229.724 285.620 229.332" fill="none" stroke="black" stroke-width="1.8" /><path d="M 285.620 229.332 C 286.417 228.158 282.600 234.293 283.328 233.015" fill="none" stroke="black" stroke-width="1.8" /><path d="M 283.328 233.015 C 284.055 231.740 280.613 238.339 281.261 236.977" fill="none" stroke="black" stroke-width="1.8" /><path d="M 281.261 236.977 C 281.477 236.523 280.421 238.813 280.627 238.351" fill="none" stroke="black" stroke-width="1.8" /><path d="M 280.627 238.351 C 280.834 237.889 279.826 240.218 280.023 239.748" fill="none" stroke="black" stroke-width="1.8" /><path d="M 280.023 239.748 C 280.612 238.341 277.899 245.523 278.394 244.060" fill="none" stroke="black" stroke-width="1.8" /><path d="M 278.394 244.060 C 278.559 243.572 277.762 246.022 277.916 245.530" fill="none" stroke="black" stroke-width="1.8" /><path d="M 277.916 245.530 C 278.070 245.038 277.328 247.509 277.471 247.013" fill="none" stroke="black" stroke-width="1.8" /><path d="M 277.471 247.013 C 277.756 246.021 276.446 251.012 276.684 250.009" fill="none" stroke="black" stroke-width="1.8" /><path d="M 276.684 250.009 C 276.804 249.507 276.236 252.020 276.344 251.517" fill="none" stroke="black" stroke-width="1.8" /><path d="M 276.344 251.517 C 276.451 251.014 275.944 253.533 276.039 253.029" fill="none" stroke="black" stroke-width="1.8" /><path d="M 276.039 253.029 C 276.135 252.525 275.688 255.047 275.771 254.543" fill="none" stroke="black" stroke-width="1.8" /><path d="M 275.771 254.543 C 276.021 253.029 275.049 260.572 275.187 259.071" fill="none" stroke="black" stroke-width="1.8" /><path d="M 275.187 259.071 C 275.233 258.571 275.033 261.067 275.067 260.569" fill="none" stroke="black" stroke-width="1.8" /><path d="M 275.067 260.569 C 275.135 259.573 274.922 264.514 274.939 263.534" fill="none" stroke="black" stroke-width="1.8" /><path d="M 274.939 263.534 C 274.966 262.064 275.113 269.290 275.028 267.873" fill="none" stroke="black" stroke-width="1.8" /><path d="M 275.028 267.873 C 275.000 267.400 275.173 269.748 275.132 269.282" fill="none" stroke="black" stroke-width="1.8" /><path d="M 275.132 269.282 C 275.009 267.883 275.893 274.689 275.662 273.368" fill="none" stroke="black" stroke-width="1.8" /><path d="M 275.662 273.368 C 275.431 272.043 276.846 278.436 276.512 277.206" fill="none" stroke="black" stroke-width="1.8" /><path d="M 276.512 277.206 C 276.400 276.795 276.986 278.821 276.864 278.422" fill="none" stroke="black" stroke-width="1.8" /><path d="M 276.864 278.422 C 276.618 277.622 277.954 281.500 277.666 280.750" fill="none" stroke="black" stroke-width="1.8" /><path d="M 277.666 280.750 C 277.521 280.374 278.269 282.221 278.115 281.858" fill="none" stroke="black" stroke-width="1.8" /><path d="M 278.115 281.858 C 277.960 281.495 278.759 283.278 278.594 282.928" fill="none" stroke="black" stroke-width="1.8" /><path d="M 278.594 282.928 C 278.099 281.876 280.790 286.819 280.210 285.895" fill="none" stroke="black" stroke-width="1.8" /><path d="M 280.210 285.895 C 280.017 285.586 281.007 287.093 280.805 286.799" fill="none" stroke="black" stroke-width="1.8" /><path d="M 280.805 286.799 C 280.602 286.505 281.636 287.938 281.425 287.659" fill="none" stroke="black" stroke-width="1.8" /><path d="M 281.425 287.659 C 280.791 286.820 284.138 290.664 283.435 289.966" fill="none" stroke="black" stroke-width="1.8" /><path d="M 283.435 289.966 C 283.200 289.733 284.393 290.859 284.151 290.642" fill="none" stroke="black" stroke-width="1.8" /><path d="M 284.151 290.642 C 283.423 289.989 287.201 292.886 286.419 292.381" fill="none" stroke="black" stroke-width="1.8" /><path d="M 286.419 292.381 C 286.157 292.212 287.479 293.016 287.212 292.863" fill="none" stroke="black" stroke-width="1.8" /><path d="M 287.212 292.863 C 286.409 292.405 290.529 294.322 289.685 294.014" fill="none" stroke="black" stroke-width="1.8" /><path d="M 289.685 294.014 C 289.121 293.807 291.980 294.673 291.401 294.533" fill="none" stroke="black" stroke-width="1.8" /><path d="M 291.401 294.533 C 290.530 294.323 294.947 295.004 294.053 294.942" fill="none" stroke="black" stroke-width="1.8" /><path d="M 294.053 294.942 C 293.754 294.921 295.254 294.984 294.953 294.980" fill="none" stroke="black" stroke-width="1.8" /><path d="M 294.953 294.980 C 294.652 294.975 296.162 294.957 295.860 294.969" fill="none" stroke="black" stroke-width="1.8" /><path d="M 295.860 294.969 C 295.556 294.981 297.075 294.882 296.771 294.910" fill="none" stroke="black" stroke-width="1.8" /><path d="M 296.771 294.910 C 295.856 294.993 300.442 294.224 299.524 294.448" fill="none" stroke="black" stroke-width="1.8" /><path d="M 299.524 294.448 C 299.217 294.523 300.751 294.111 300.445 294.201" fill="none" stroke="black" stroke-width="1.8" /><path d="M 300.445 294.201 C 300.138 294.291 301.671 293.802 301.365 293.908" fill="none" stroke="black" stroke-width="1.8" /><path d="M 301.365 293.908 C 301.058 294.013 302.589 293.449 302.284 293.569" fill="none" stroke="black" stroke-width="1.8" /><path d="M 302.284 293.569 C 301.364 293.931 305.924 291.803 305.021 292.292" fill="none" stroke="black" stroke-width="1.8" /><path d="M 305.021 292.292 C 304.719 292.455 306.223 291.603 305.924 291.781" fill="none" stroke="black" stroke-width="1.8" /><path d="M 305.924 291.781 C 305.023 292.313 309.464 289.353 308.590 290.003" fill="none" stroke="black" stroke-width="1.8" /><path d="M 308.590 290.003 C 308.298 290.220 309.750 289.102 309.461 289.332" fill="none" stroke="black" stroke-width="1.8" /><path d="M 309.461 289.332 C 309.172 289.562 310.608 288.381 310.323 288.624" fill="none" stroke="black" stroke-width="1.8" /><path d="M 310.323 288.624 C 309.466 289.352 313.656 285.451 312.838 286.282" fill="none" stroke="black" stroke-width="1.8" /><path d="M 312.838 286.282 C 312.291 286.837 314.976 283.952 314.449 284.550" fill="none" stroke="black" stroke-width="1.8" /><path d="M 314.449 284.550 C 314.185 284.850 315.491 283.327 315.233 283.637" fill="none" stroke="black" stroke-width="1.8" /><path d="M 315.233 283.637 C 314.456 284.567 318.211 279.704 317.486 280.718" fill="none" stroke="black" stroke-width="1.8" /><path d="M 317.486 280.718 C 317.244 281.056 318.438 279.342 318.203 279.689" fill="none" stroke="black" stroke-width="1.8" /><path d="M 318.203 279.689 C 317.967 280.037 319.130 278.279 318.901 278.635" fill="none" stroke="black" stroke-width="1.8" /><path d="M 318.901 278.635 C 318.212 279.703 321.505 274.192 320.878 275.327" fill="none" stroke="black" stroke-width="1.8" /><path d="M 320.878 275.327 C 320.249 276.464 323.229 270.634 322.667 271.828" fill="none" stroke="black" stroke-width="1.8" /><path d="M 322.667 271.828 C 322.479 272.226 323.399 270.220 323.219 270.624" fill="none" stroke="black" stroke-width="1.8" /><path d="M 323.219 270.624 C 322.858 271.432 324.582 267.342 324.253 268.170" fill="none" stroke="black" stroke-width="1.8" /><path d="M 324.253 268.170 C 324.088 268.584 324.891 266.502 324.734 266.921" fill="none" stroke="black" stroke-width="1.8" /><path d="M 324.734 266.921 C 324.578 267.339 325.340 265.237 325.191 265.659" fill="none" stroke="black" stroke-width="1.8" /><path d="M 325.191 265.659 C 324.747 266.927 326.780 260.516 326.412 261.811" fill="none" stroke="black" stroke-width="1.8" /><path d="M 326.412 261.811 C 326.289 262.243 326.881 260.077 326.767 260.512" fill="none" stroke="black" stroke-width="1.8" /><path d="M 326.767 260.512 C 326.653 260.946 327.201 258.769 327.096 259.206" fill="none" stroke="black" stroke-width="1.8" /><path d="M 327.096 259.206 C 326.781 260.514 328.156 253.944 327.922 255.262" fill="none" stroke="black" stroke-width="1.8" /><path d="M 327.922 255.262 C 327.844 255.702 328.211 253.504 328.142 253.944" fill="none" stroke="black" stroke-width="1.8" /><path d="M 328.142 253.944 C 327.936 255.261 328.759 248.680 328.637 249.993" fill="none" stroke="black" stroke-width="1.8" /><path d="M 328.637 249.993 C 328.596 250.431 328.776 248.247 328.745 248.683" fill="none" stroke="black" stroke-width="1.8" /><path d="M 328.745 248.683 C 328.682 249.554 328.900 245.215 328.876 246.079" fill="none" stroke="black" stroke-width="1.8" /><path d="M 328.876 246.079 C 328.863 246.510 328.900 244.359 328.898 244.788" fill="none" stroke="black" stroke-width="1.8" /><path d="M 328.898 244.788 C 328.895 245.217 328.884 243.081 328.891 243.507" fill="none" stroke="black" stroke-width="1.8" /><path d="M 328.891 243.507 C 328.912 244.781 328.588 238.491 328.697 239.730" fill="none" stroke="black" stroke-width="1.8" /><path d="M 328.697 239.730 C 328.733 240.143 328.528 238.091 328.574 238.499" fill="none" stroke="black" stroke-width="1.8" /><path d="M 328.574 238.499 C 328.620 238.907 328.366 236.881 328.422 237.283" fill="none" stroke="black" stroke-width="1.8" /><path d="M 328.422 237.283 C 328.588 238.488 327.538 232.592 327.792 233.744" fill="none" stroke="black" stroke-width="1.8" /><path d="M 327.792 233.744 C 328.045 234.892 326.564 229.310 326.903 230.393" fill="none" stroke="black" stroke-width="1.8" /><path d="M 326.903 230.393 C 327.016 230.753 326.428 228.972 326.550 229.324" fill="none" stroke="black" stroke-width="1.8" /><path d="M 326.550 229.324 C 326.673 229.676 326.038 227.938 326.169 228.281" fill="none" stroke="black" stroke-width="1.8" /><path d="M 326.169 228.281 C 326.301 228.624 325.620 226.931 325.761 227.265" fill="none" stroke="black" stroke-width="1.8" /><path d="M 325.761 227.265 C 326.182 228.264 323.867 223.484 324.371 224.395" fill="none" stroke="black" stroke-width="1.8" /><path d="M 324.371 224.395 C 324.539 224.698 323.678 223.209 323.854 223.501" fill="none" stroke="black" stroke-width="1.8" /><path d="M 323.854 223.501 C 324.031 223.794 323.126 222.360 323.312 222.641" fill="none" stroke="black" stroke-width="1.8" /><path d="M 323.312 222.641 C 323.681 223.202 321.745 220.510 322.150 221.025" fill="none" stroke="black" stroke-width="1.8" /><path d="M 322.150 221.025 C 322.754 221.795 319.545 218.223 320.224 218.880" fill="none" stroke="black" stroke-width="1.8" /><path d="M 320.224 218.880 C 320.449 219.099 319.302 218.039 319.535 218.244" fill="none" stroke="black" stroke-width="1.8" /><path d="M 319.535 218.244 C 319.768 218.449 318.583 217.458 318.824 217.649" fill="none" stroke="black" stroke-width="1.8" /><path d="M 318.824 217.649 C 319.544 218.222 315.780 215.676 316.565 216.120" fill="none" stroke="black" stroke-width="1.8" /><path d="M 316.565 216.120 C 316.826 216.268 315.504 215.566 315.772 215.699" fill="none" stroke="black" stroke-width="1.8" /><path d="M 315.772 215.699 C 316.306 215.964 313.571 214.791 314.131 214.995" fill="none" stroke="black" stroke-width="1.8" /><path d="M 314.131 214.995 C 314.410 215.096 313.000 214.627 313.285 214.713" fill="none" stroke="black" stroke-width="1.8" /><path d="M 313.285 214.713 C 314.136 214.970 309.755 214.045 310.654 214.157" fill="none" stroke="black" stroke-width="1.8" /><path d="M 310.654 214.157 C 310.953 214.194 309.446 214.049 309.750 214.070" fill="none" stroke="black" stroke-width="1.8" /><path d="M 309.750 214.070 C 310.658 214.131 306.028 214.202 306.971 214.111" fill="none" stroke="black" stroke-width="1.8" /><path d="M 306.971 214.111 C 307.597 214.051 304.434 214.523 305.073 214.394" fill="none" stroke="black" stroke-width="1.8" /><path d="M 305.073 214.394 C 305.391 214.330 303.793 214.703 304.114 214.613" fill="none" stroke="black" stroke-width="1.8" /><path d="M 304.114 214.613 C 304.754 214.433 302.828 215.038 302.182 215.205" fill="none" stroke="black" stroke-width="1.8" /><path d="M 238.098 257.844 C 238.150 257.954 238.206 258.074 238.263 258.202" fill="none" stroke="black" stroke-width="1.8" /><path d="M 241.192 266.545 C 241.275 266.909 241.213 266.881 240.940 266.248" fill="none" stroke="black" stroke-width="1.8" /><path d="M 240.940 266.248 C 240.839 266.012 240.868 266.005 240.982 266.149" fill="none" stroke="black" stroke-width="1.8" /><path d="M 243.360 269.982 C 243.531 270.292 243.570 270.392 243.376 270.118" fill="none" stroke="black" stroke-width="1.8" /><path d="M 243.376 270.118 C 243.172 269.828 243.341 270.016 243.668 270.411" fill="none" stroke="black" stroke-width="1.8" /><path d="M 245.499 272.698 C 245.812 273.101 245.958 273.303 245.725 273.036" fill="none" stroke="black" stroke-width="1.8" /><path d="M 245.725 273.036 C 245.487 272.763 245.388 272.623 245.402 272.591" fill="none" stroke="black" stroke-width="1.8" /><path d="M 253.125 279.646 C 253.028 279.602 252.827 279.468 252.502 279.225" fill="none" stroke="black" stroke-width="1.8" /><path d="M 252.502 279.225 C 252.274 279.055 252.487 279.198 252.860 279.455" fill="none" stroke="black" stroke-width="1.8" /><path d="M 254.438 280.561 C 254.748 280.782 254.903 280.897 254.688 280.755" fill="none" stroke="black" stroke-width="1.8" /><path d="M 254.688 280.755 C 254.481 280.619 254.642 280.712 254.955 280.902" fill="none" stroke="black" stroke-width="1.8" /><path d="M 256.682 281.974 C 256.925 282.128 257.028 282.197 256.839 282.087" fill="none" stroke="black" stroke-width="1.8" /><path d="M 256.839 282.087 C 256.666 281.986 256.584 281.930 256.577 281.912" fill="none" stroke="black" stroke-width="1.8" /><path d="M 263.245 285.136 C 263.200 285.122 263.139 285.100 263.062 285.071" fill="none" stroke="black" stroke-width="1.8" /><path d="M 263.062 285.071 C 262.983 285.041 262.961 285.031 262.982 285.036" fill="none" stroke="black" stroke-width="1.8" /><path d="M 237.878 255.377 C 237.912 255.257 237.948 255.126 237.984 254.987" fill="none" stroke="black" stroke-width="1.8" /><path d="M 239.426 246.516 C 239.463 246.016 239.412 245.984 239.233 246.719" fill="none" stroke="black" stroke-width="1.8" /><path d="M 239.233 246.719 C 239.154 247.042 239.230 246.952 239.387 246.631" fill="none" stroke="black" stroke-width="1.8" /><path d="M 240.883 243.036 C 241.109 242.441 241.204 242.139 241.011 242.534" fill="none" stroke="black" stroke-width="1.8" /><path d="M 241.011 242.534 C 240.462 243.658 243.556 238.161 242.885 239.242" fill="none" stroke="black" stroke-width="1.8" /><path d="M 242.885 239.242 C 242.620 239.669 242.574 239.799 242.689 239.710" fill="none" stroke="black" stroke-width="1.8" /><path d="M 249.372 231.000 C 249.406 230.891 249.222 231.053 248.739 231.593" fill="none" stroke="black" stroke-width="1.8" /><path d="M 248.739 231.593 C 248.096 232.312 251.400 228.771 250.723 229.469" fill="none" stroke="black" stroke-width="1.8" /><path d="M 250.723 229.469 C 250.076 230.138 253.384 226.845 252.710 227.494" fill="none" stroke="black" stroke-width="1.8" /><path d="M 252.710 227.494 C 252.374 227.817 252.410 227.808 252.684 227.585" fill="none" stroke="black" stroke-width="1.8" /><path d="M 258.737 222.261 C 258.969 222.040 258.970 222.018 258.620 222.300" fill="none" stroke="black" stroke-width="1.8" /><path d="M 258.620 222.300 C 257.980 222.816 261.205 220.288 260.556 220.783" fill="none" stroke="black" stroke-width="1.8" /><path d="M 260.556 220.783 C 260.193 221.060 260.467 220.872 261.007 220.488" fill="none" stroke="black" stroke-width="1.8" /><path d="M 263.973 218.342 C 264.468 217.978 264.702 217.799 264.348 218.041" fill="none" stroke="black" stroke-width="1.8" /><path d="M 264.348 218.041 C 264.004 218.277 264.244 218.131 264.738 217.816" fill="none" stroke="black" stroke-width="1.8" /><path d="M 267.688 215.904 C 268.130 215.612 268.330 215.474 268.004 215.673" fill="none" stroke="black" stroke-width="1.8" /><path d="M 268.004 215.673 C 267.412 216.035 270.356 214.289 269.771 214.626" fill="none" stroke="black" stroke-width="1.8" /><path d="M 269.771 214.626 C 269.193 214.958 272.061 213.362 271.492 213.668" fill="none" stroke="black" stroke-width="1.8" /><path d="M 271.492 213.668 C 270.929 213.971 273.716 212.525 273.165 212.800" fill="none" stroke="black" stroke-width="1.8" /><path d="M 273.165 212.800 C 272.911 212.927 272.888 212.950 273.025 212.900" fill="none" stroke="black" stroke-width="1.8" /><path d="M 278.000 210.703 C 278.088 210.655 278.055 210.659 277.855 210.733" fill="none" stroke="black" stroke-width="1.8" /><path d="M 277.855 210.733 C 277.363 210.918 279.772 210.068 279.301 210.223" fill="none" stroke="black" stroke-width="1.8" /><path d="M 279.301 210.223 C 278.829 210.378 281.133 209.676 280.683 209.802" fill="none" stroke="black" stroke-width="1.8" /><path d="M 280.683 209.802 C 280.521 209.847 280.468 209.869 280.499 209.874" fill="none" stroke="black" stroke-width="1.8" /><path d="M 284.570 209.075 C 284.570 209.067 284.527 209.067 284.431 209.076" fill="none" stroke="black" stroke-width="1.8" /><path d="M 284.431 209.076 C 284.326 209.086 284.389 209.085 284.528 209.079" fill="none" stroke="black" stroke-width="1.8" /><path d="M 287.583 209.172 C 287.579 209.170 287.567 209.168 287.545 209.164" fill="none" stroke="black" stroke-width="1.8" /><path d="M 287.545 209.164 C 287.517 209.159 287.496 209.156 287.482 209.154" fill="none" stroke="black" stroke-width="1.8" /></svg>