<svg xmlns="http://www.w3.org/2000/svg" width="700" height="520" viewBox="0 0 700 520"><rect width="100%" height="100%" fill="white" /><path d="M 293.348 218.951 C 292.242 193.673 291.091 167.390 289.895 140.038" fill="none" stroke="black" stroke-width="1.8" stroke-dasharray="4 4" /><path d="M 193.175 225.312 C 189.988 199.126 186.667 171.852 183.207 143.423" fill="none" stroke="black" stroke-width="1.8" stroke-dasharray="4 4" /><path d="M 249.740 289.115 C 263.390 267.152 277.615 244.265 292.451 220.394" fill="none" stroke="black" stroke-width="1.8" stroke-dasharray="4 4" /><path d="M 249.740 289.115 C 232.511 269.681 214.101 248.916 194.385 226.677" fill="none" stroke="black" stroke-width="1.8" stroke-dasharray="4 4" /><path d="M 218.532 278.259 C 207.058 283.111 201.143 289.378 201.685 295.219" fill="none" stroke="black" stroke-width="1.8" stroke-dasharray="4 4" /><path d="M 296.315 286.760 C 296.045 281.689 290.946 277.092 281.423 274.139" fill="none" stroke="black" stroke-width="1.8" stroke-dasharray="4 4" /><path d="M 281.423 274.139 C 264.142 268.782 236.844 270.516 218.532 278.259" fill="none" stroke="black" stroke-width="1.8" stroke-dasharray="4 4" /><path d="M 218.532 278.259 C 217.768 278.610 215.436 279.662 216.194 279.304" fill="none" stroke="black" stroke-width="1.8" stroke-dasharray="4 4" /><path d="M 216.194 279.304 C 216.573 279.125 214.708 280.031 215.075 279.847" fill="none" stroke="black" stroke-width="1.8" stroke-dasharray="4 4" /><path d="M 215.075 279.847 C 215.809 279.481 212.257 281.360 212.944 280.975" fill="none" stroke="black" stroke-width="1.8" stroke-dasharray="4 4" /><path d="M 212.944 280.975 C 213.970 280.400 209.122 283.372 210.033 282.759" fill="none" stroke="black" stroke-width="1.8" stroke-dasharray="4 4" /><path d="M 210.033 282.759 C 210.336 282.555 208.856 283.584 209.145 283.376" fill="none" stroke="black" stroke-width="1.8" stroke-dasharray="4 4" /><path d="M 209.145 283.376 C 209.434 283.169 208.026 284.215 208.301 284.004" fill="none" stroke="black" stroke-width="1.8" stroke-dasharray="4 4" /><path d="M 208.301 284.004 C 209.121 283.373 205.356 286.602 206.041 285.942" fill="none" stroke="black" stroke-width="1.8" stroke-dasharray="4 4" /><path d="M 206.041 285.942 C 206.495 285.504 204.385 287.722 204.774 287.273" fill="none" stroke="black" stroke-width="1.8" stroke-dasharray="4 4" /><path d="M 204.774 287.273 C 204.968 287.049 204.039 288.175 204.217 287.949" fill="none" stroke="black" stroke-width="1.8" stroke-dasharray="4 4" /><path d="M 204.217 287.949 C 204.394 287.723 203.551 288.858 203.711 288.630" fill="none" stroke="black" stroke-width="1.8" stroke-dasharray="4 4" /><path d="M 203.711 288.630 C 204.189 287.949 202.201 291.393 202.517 290.697" fill="none" stroke="black" stroke-width="1.8" stroke-dasharray="4 4" /><path d="M 202.517 290.697 C 202.622 290.466 202.144 291.624 202.230 291.392" fill="none" stroke="black" stroke-width="1.8" stroke-dasharray="4 4" /><path d="M 202.230 291.392 C 202.316 291.160 201.932 292.321 202.000 292.088" fill="none" stroke="black" stroke-width="1.8" stroke-dasharray="4 4" /><path d="M 202.000 292.088 C 202.067 291.856 201.779 293.018 201.827 292.785" fill="none" stroke="black" stroke-width="1.8" stroke-dasharray="4 4" /><path d="M 201.827 292.785 C 201.970 292.091 201.698 295.563 201.663 294.870" fill="none" stroke="black" stroke-width="1.8" stroke-dasharray="4 4" /><path d="M 201.663 294.870 C 201.652 294.659 201.742 295.604 201.733 295.590" fill="none" stroke="black" stroke-width="1.8" stroke-dasharray="4 4" /><path d="M 201.724 295.531 C 201.724 295.492 201.838 296.109 201.859 296.248" fill="none" stroke="black" stroke-width="1.8" stroke-dasharray="4 4" /><path d="M 201.844 296.184 C 201.865 296.166 202.279 297.452 202.316 297.638" fill="none" stroke="black" stroke-width="1.8" stroke-dasharray="4 4" /><path d="M 202.263 297.510 C 202.331 297.522 203.399 299.414 203.473 299.642" fill="none" stroke="black" stroke-width="1.8" stroke-dasharray="4 4" /><path d="M 203.874 300.158 C 204.124 300.356 205.529 301.763 205.806 302.088" fill="none" stroke="black" stroke-width="1.8" stroke-dasharray="4 4" /><path d="M 208.567 304.031 C 208.868 304.200 209.253 304.419 209.564 304.598" fill="none" stroke="black" stroke-width="1.8" stroke-dasharray="4 4" /><path d="M 210.147 304.905 C 210.782 305.173 212.478 305.941 213.151 306.265" fill="none" stroke="black" stroke-width="1.8" stroke-dasharray="4 4" /><path d="M 214.720 306.856 C 215.510 307.090 217.220 307.628 218.044 307.901" fill="none" stroke="black" stroke-width="1.8" stroke-dasharray="4 4" /><path d="M 220.135 308.441 C 221.036 308.621 222.707 308.973 223.635 309.178" fill="none" stroke="black" stroke-width="1.8" stroke-dasharray="4 4" /><path d="M 232.924 310.335 C 233.924 310.383 235.447 310.464 236.460 310.524" fill="none" stroke="black" stroke-width="1.8" stroke-dasharray="4 4" /><path d="M 238.172 310.571 C 239.179 310.569 240.649 310.574 241.664 310.583" fill="none" stroke="black" stroke-width="1.8" stroke-dasharray="4 4" /><path d="M 247.146 310.380 C 248.149 310.299 249.561 310.192 250.564 310.121" fill="none" stroke="black" stroke-width="1.8" stroke-dasharray="4 4" /><path d="M 254.315 309.719 C 255.310 309.576 256.711 309.382 257.701 309.249" fill="none" stroke="black" stroke-width="1.8" stroke-dasharray="4 4" /><path d="M 262.978 308.306 C 263.954 308.084 265.383 307.767 266.348 307.559" fill="none" stroke="black" stroke-width="1.8" stroke-dasharray="4 4" /><path d="M 272.556 305.853 C 273.474 305.537 274.962 305.036 275.860 304.742" fill="none" stroke="black" stroke-width="1.8" stroke-dasharray="4 4" /><path d="M 280.856 302.725 C 281.643 302.330 283.161 301.590 283.920 301.232" fill="none" stroke="black" stroke-width="1.8" stroke-dasharray="4 4" /><path d="M 285.520 300.351 C 286.171 299.924 287.658 298.989 288.280 298.615" fill="none" stroke="black" stroke-width="1.8" stroke-dasharray="4 4" /><path d="M 290.244 297.152 C 290.680 296.727 292.033 295.500 292.445 295.156" fill="none" stroke="black" stroke-width="1.8" stroke-dasharray="4 4" /><path d="M 293.078 294.473 C 293.324 294.097 294.461 292.585 294.697 292.324" fill="none" stroke="black" stroke-width="1.8" stroke-dasharray="4 4" /><path d="M 295.434 290.964 C 295.527 290.680 295.871 289.770 295.959 289.578" fill="none" stroke="black" stroke-width="1.8" stroke-dasharray="4 4" /><path d="M 295.925 289.690 C 295.891 289.574 296.290 287.270 296.317 287.478" fill="none" stroke="black" stroke-width="1.8" stroke-dasharray="4 4" /><path d="M 296.313 287.562 C 296.309 287.432 296.313 286.778 296.319 286.860" fill="none" stroke="black" stroke-width="1.8" stroke-dasharray="4 4" /><path d="M 296.321 286.923 C 296.320 287.400 295.811 284.281 295.996 284.909" fill="none" stroke="black" stroke-width="1.8" stroke-dasharray="4 4" /><path d="M 295.996 284.909 C 296.123 285.340 295.310 283.220 295.508 283.637" fill="none" stroke="black" stroke-width="1.8" stroke-dasharray="4 4" /><path d="M 295.508 283.637 C 295.607 283.846 295.068 282.810 295.185 283.015" fill="none" stroke="black" stroke-width="1.8" stroke-dasharray="4 4" /><path d="M 295.185 283.015 C 295.535 283.633 293.406 280.636 293.906 281.216" fill="none" stroke="black" stroke-width="1.8" stroke-dasharray="4 4" /><path d="M 293.906 281.216 C 294.073 281.410 293.196 280.451 293.379 280.641" fill="none" stroke="black" stroke-width="1.8" stroke-dasharray="4 4" /><path d="M 293.379 280.641 C 293.563 280.831 292.606 279.893 292.805 280.078" fill="none" stroke="black" stroke-width="1.8" stroke-dasharray="4 4" /><path d="M 292.805 280.078 C 293.005 280.264 291.968 279.348 292.183 279.529" fill="none" stroke="black" stroke-width="1.8" stroke-dasharray="4 4" /><path d="M 292.183 279.529 C 292.830 280.072 289.267 277.469 290.044 277.966" fill="none" stroke="black" stroke-width="1.8" stroke-dasharray="4 4" /><path d="M 290.044 277.966 C 290.304 278.133 288.969 277.314 289.243 277.475" fill="none" stroke="black" stroke-width="1.8" stroke-dasharray="4 4" /><path d="M 289.243 277.475 C 290.067 277.959 285.653 275.664 286.593 276.097" fill="none" stroke="black" stroke-width="1.8" stroke-dasharray="4 4" /><path d="M 286.593 276.097 C 286.908 276.242 285.305 275.532 285.631 275.671" fill="none" stroke="black" stroke-width="1.8" stroke-dasharray="4 4" /><path d="M 285.631 275.671 C 286.286 275.950 282.896 274.615 283.597 274.870" fill="none" stroke="black" stroke-width="1.8" stroke-dasharray="4 4" /><path d="M 283.597 274.870 C 283.948 274.997 282.164 274.374 282.527 274.495" fill="none" stroke="black" stroke-width="1.8" stroke-dasharray="4 4" /><path d="M 282.527 274.495 C 282.889 274.617 281.049 274.023 281.423 274.139" fill="none" stroke="black" stroke-width="1.8" stroke-dasharray="4 4" /><path d="M 281.423 274.139 C 281.796 274.255 279.902 273.691 280.286 273.801" fill="none" stroke="black" stroke-width="1.8" stroke-dasharray="4 4" /><path d="M 280.286 273.801 C 281.440 274.130 275.458 272.625 276.695 272.898" fill="none" stroke="black" stroke-width="1.8" stroke-dasharray="4 4" /><path d="M 276.695 272.898 C 277.109 272.989 275.020 272.550 275.442 272.634" fill="none" stroke="black" stroke-width="1.8" stroke-dasharray="4 4" /><path d="M 275.442 272.634 C 276.710 272.888 270.194 271.766 271.531 271.961" fill="none" stroke="black" stroke-width="1.8" stroke-dasharray="4 4" /><path d="M 271.531 271.961 C 272.871 272.156 266.024 271.329 267.422 271.464" fill="none" stroke="black" stroke-width="1.8" stroke-dasharray="4 4" /><path d="M 267.422 271.464 C 267.888 271.510 265.542 271.300 266.014 271.339" fill="none" stroke="black" stroke-width="1.8" stroke-dasharray="4 4" /><path d="M 266.014 271.339 C 266.486 271.377 264.112 271.202 264.590 271.233" fill="none" stroke="black" stroke-width="1.8" stroke-dasharray="4 4" /><path d="M 264.590 271.233 C 265.067 271.265 262.667 271.123 263.150 271.148" fill="none" stroke="black" stroke-width="1.8" stroke-dasharray="4 4" /><path d="M 263.150 271.148 C 264.597 271.223 257.269 270.999 258.751 271.014" fill="none" stroke="black" stroke-width="1.8" stroke-dasharray="4 4" /><path d="M 258.751 271.014 C 259.246 271.018 256.766 271.011 257.264 271.009" fill="none" stroke="black" stroke-width="1.8" stroke-dasharray="4 4" /><path d="M 257.264 271.009 C 257.761 271.007 255.268 271.034 255.768 271.025" fill="none" stroke="black" stroke-width="1.8" stroke-dasharray="4 4" /><path d="M 255.768 271.025 C 256.767 271.008 251.747 271.163 252.755 271.118" fill="none" stroke="black" stroke-width="1.8" stroke-dasharray="4 4" /><path d="M 252.755 271.118 C 254.265 271.052 246.689 271.537 248.207 271.410" fill="none" stroke="black" stroke-width="1.8" stroke-dasharray="4 4" /><path d="M 248.207 271.410 C 248.713 271.367 246.183 271.596 246.689 271.547" fill="none" stroke="black" stroke-width="1.8" stroke-dasharray="4 4" /><path d="M 246.689 271.547 C 247.195 271.498 244.667 271.760 245.172 271.704" fill="none" stroke="black" stroke-width="1.8" stroke-dasharray="4 4" /><path d="M 245.172 271.704 C 245.678 271.648 243.154 271.944 243.659 271.881" fill="none" stroke="black" stroke-width="1.8" stroke-dasharray="4 4" /><path d="M 243.659 271.881 C 245.169 271.694 237.653 272.776 239.147 272.530" fill="none" stroke="black" stroke-width="1.8" stroke-dasharray="4 4" /><path d="M 239.147 272.530 C 240.142 272.367 235.197 273.249 236.180 273.060" fill="none" stroke="black" stroke-width="1.8" stroke-dasharray="4 4" /><path d="M 236.180 273.060 C 236.671 272.965 234.225 273.454 234.713 273.353" fill="none" stroke="black" stroke-width="1.8" stroke-dasharray="4 4" /><path d="M 234.713 273.353 C 236.171 273.051 228.976 274.703 230.394 274.345" fill="none" stroke="black" stroke-width="1.8" stroke-dasharray="4 4" /><path d="M 230.394 274.345 C 230.866 274.225 228.521 274.837 228.987 274.711" fill="none" stroke="black" stroke-width="1.8" stroke-dasharray="4 4" /><path d="M 228.987 274.711 C 230.382 274.336 223.548 276.346 224.885 275.917" fill="none" stroke="black" stroke-width="1.8" stroke-dasharray="4 4" /><path d="M 224.885 275.917 C 225.773 275.633 221.406 277.114 222.263 276.806" fill="none" stroke="black" stroke-width="1.8" stroke-dasharray="4 4" /><path d="M 222.263 276.806 C 222.692 276.653 220.577 277.436 220.991 277.275" fill="none" stroke="black" stroke-width="1.8" stroke-dasharray="4 4" /><path d="M 220.991 277.275 C 221.818 276.953 219.375 277.939 218.532 278.259" fill="none" stroke="black" stroke-width="1.8" stroke-dasharray="4 4" /><path d="M 211.406 211.306 C 209.576 211.885 204.282 213.705 205.975 213.078" fill="none" stroke="black" stroke-width="1.8" stroke-dasharray="4 4" /><path d="M 205.975 213.078 C 206.818 212.767 202.765 214.367 203.543 214.038" fill="none" stroke="black" stroke-width="1.8" stroke-dasharray="4 4" /><path d="M 203.543 214.038 C 204.703 213.549 199.296 216.082 200.295 215.559" fill="none" stroke="black" stroke-width="1.8" stroke-dasharray="4 4" /><path d="M 200.295 215.559 C 201.945 214.696 194.959 219.199 196.092 218.265" fill="none" stroke="black" stroke-width="1.8" stroke-dasharray="4 4" /><path d="M 196.092 218.265 C 197.432 217.160 192.851 222.839 193.325 221.682" fill="none" stroke="black" stroke-width="1.8" stroke-dasharray="4 4" /><path d="M 193.325 221.682 C 193.482 221.299 192.958 223.217 193.010 222.833" fill="none" stroke="black" stroke-width="1.8" stroke-dasharray="4 4" /><path d="M 193.010 222.833 C 193.062 222.451 193.069 224.358 193.014 223.978" fill="none" stroke="black" stroke-width="1.8" stroke-dasharray="4 4" /><path d="M 193.014 223.978 C 192.986 223.788 193.193 224.734 193.138 224.545" fill="none" stroke="black" stroke-width="1.8" stroke-dasharray="4 4" /><path d="M 193.138 224.545 C 192.825 223.471 196.605 228.408 195.757 227.915" fill="none" stroke="black" stroke-width="1.8" stroke-dasharray="4 4" /><path d="M 195.574 227.774 C 195.682 227.823 196.960 228.692 197.164 228.853" fill="none" stroke="black" stroke-width="1.8" stroke-dasharray="4 4" /><path d="M 197.021 228.767 C 197.183 228.800 199.832 230.125 200.093 230.301" fill="none" stroke="black" stroke-width="1.8" stroke-dasharray="4 4" /><path d="M 199.875 230.209 C 200.281 230.322 203.125 231.350 203.620 231.561" fill="none" stroke="black" stroke-width="1.8" stroke-dasharray="4 4" /><path d="M 203.752 231.601 C 204.304 231.750 205.371 232.048 205.961 232.218" fill="none" stroke="black" stroke-width="1.8" stroke-dasharray="4 4" /><path d="M 207.357 232.560 C 207.557 232.465 218.183 234.188 218.388 234.345" fill="none" stroke="black" stroke-width="1.8" stroke-dasharray="4 4" /><path d="M 217.728 234.274 C 218.834 234.326 224.626 234.779 225.797 234.904" fill="none" stroke="black" stroke-width="1.8" stroke-dasharray="4 4" /><path d="M 225.935 234.911 C 227.194 234.936 230.224 235.024 231.514 235.073" fill="none" stroke="black" stroke-width="1.8" stroke-dasharray="4 4" /><path d="M 235.550 235.070 C 236.370 234.934 248.653 234.287 249.483 234.334" fill="none" stroke="black" stroke-width="1.8" stroke-dasharray="4 4" /><path d="M 251.461 234.140 C 252.772 233.971 255.697 233.617 256.987 233.472" fill="none" stroke="black" stroke-width="1.8" stroke-dasharray="4 4" /><path d="M 257.666 233.377 C 258.919 233.164 261.828 232.698 263.050 232.513" fill="none" stroke="black" stroke-width="1.8" stroke-dasharray="4 4" /><path d="M 262.825 232.553 C 263.284 232.341 274.113 229.884 274.574 229.888" fill="none" stroke="black" stroke-width="1.8" stroke-dasharray="4 4" /><path d="M 273.971 230.058 C 274.740 229.767 279.718 228.168 280.417 227.989" fill="none" stroke="black" stroke-width="1.8" stroke-dasharray="4 4" /><path d="M 280.042 228.127 C 280.518 227.868 285.012 225.954 285.426 225.836" fill="none" stroke="black" stroke-width="1.8" stroke-dasharray="4 4" /><path d="M 284.949 226.071 C 284.487 226.134 290.998 221.970 290.692 222.411" fill="none" stroke="black" stroke-width="1.8" stroke-dasharray="4 4" /><path d="M 290.467 222.610 C 290.444 222.549 292.340 220.513 292.208 220.752" fill="none" stroke="black" stroke-width="1.8" stroke-dasharray="4 4" /><path d="M 292.112 220.882 C 291.590 221.474 293.335 217.087 293.285 217.977" fill="none" stroke="black" stroke-width="1.8" stroke-dasharray="4 4" /><path d="M 293.285 217.977 C 293.253 218.534 292.852 215.809 293.043 216.341" fill="none" stroke="black" stroke-width="1.8" stroke-dasharray="4 4" /><path d="M 293.043 216.341 C 293.170 216.698 292.292 214.946 292.515 215.290" fill="none" stroke="black" stroke-width="1.8" stroke-dasharray="4 4" /><path d="M 292.515 215.290 C 293.188 216.328 287.820 211.489 289.279 212.381" fill="none" stroke="black" stroke-width="1.8" stroke-dasharray="4 4" /><path d="M 289.279 212.381 C 289.524 212.531 288.247 211.793 288.513 211.938" fill="none" stroke="black" stroke-width="1.8" stroke-dasharray="4 4" /><path d="M 288.513 211.938 C 289.311 212.376 284.886 210.296 285.855 210.690" fill="none" stroke="black" stroke-width="1.8" stroke-dasharray="4 4" /><path d="M 285.855 210.690 C 286.829 211.086 281.566 209.225 282.695 209.573" fill="none" stroke="black" stroke-width="1.8" stroke-dasharray="4 4" /><path d="M 282.695 209.573 C 283.450 209.806 279.513 208.695 280.331 208.906" fill="none" stroke="black" stroke-width="1.8" stroke-dasharray="4 4" /><path d="M 280.331 208.906 C 282.796 209.542 269.230 206.875 272.172 207.303" fill="none" stroke="black" stroke-width="1.8" stroke-dasharray="4 4" /><path d="M 272.172 207.303 C 272.665 207.375 270.171 207.031 270.676 207.097" fill="none" stroke="black" stroke-width="1.8" stroke-dasharray="4 4" /><path d="M 270.676 207.097 C 272.190 207.294 264.388 206.441 265.992 206.585" fill="none" stroke="black" stroke-width="1.8" stroke-dasharray="4 4" /><path d="M 265.992 206.585 C 267.063 206.680 261.621 206.263 262.725 206.334" fill="none" stroke="black" stroke-width="1.8" stroke-dasharray="4 4" /><path d="M 262.725 206.334 C 263.831 206.406 258.229 206.111 259.363 206.158" fill="none" stroke="black" stroke-width="1.8" stroke-dasharray="4 4" /><path d="M 259.363 206.158 C 259.931 206.181 257.077 206.080 257.651 206.097" fill="none" stroke="black" stroke-width="1.8" stroke-dasharray="4 4" /><path d="M 257.651 206.097 C 261.089 206.199 243.488 206.248 247.069 206.126" fill="none" stroke="black" stroke-width="1.8" stroke-dasharray="4 4" /><path d="M 247.069 206.126 C 250.645 206.005 232.698 207.166 236.279 206.823" fill="none" stroke="black" stroke-width="1.8" stroke-dasharray="4 4" /><path d="M 236.279 206.823 C 237.472 206.710 231.532 207.339 232.714 207.201" fill="none" stroke="black" stroke-width="1.8" stroke-dasharray="4 4" /><path d="M 232.714 207.201 C 235.657 206.858 221.213 208.943 224.034 208.453" fill="none" stroke="black" stroke-width="1.8" stroke-dasharray="4 4" /><path d="M 224.034 208.453 C 225.720 208.161 217.456 209.749 219.073 209.406" fill="none" stroke="black" stroke-width="1.8" stroke-dasharray="4 4" /><path d="M 219.073 209.406 C 220.147 209.179 214.868 210.370 215.905 210.121" fill="none" stroke="black" stroke-width="1.8" stroke-dasharray="4 4" /><path d="M 215.905 210.121 C 217.452 209.750 212.932 210.914 211.406 211.306" fill="none" stroke="black" stroke-width="1.8" stroke-dasharray="4 4" /><path d="M 296.318 286.829 C 295.363 265.008 294.374 242.396 293.348 218.951" fill="none" stroke="black" stroke-width="1.8" /><path d="M 201.711 295.430 C 198.971 272.921 196.128 249.565 193.175 225.312" fill="none" stroke="black" stroke-width="1.8" /><path d="M 292.451 220.394 C 307.953 195.452 324.151 169.388 341.096 142.125" fill="none" stroke="black" stroke-width="1.8" /><path d="M 194.385 226.677 C 173.198 202.780 150.392 177.055 125.773 149.285" fill="none" stroke="black" stroke-width="1.8" /><path d="M 201.685 295.219 C 202.077 299.440 205.841 303.412 213.269 306.354" fill="none" stroke="black" stroke-width="1.8" /><path d="M 213.269 306.354 C 232.213 313.859 265.148 311.338 284.231 301.112" fill="none" stroke="black" stroke-width="1.8" /><path d="M 284.231 301.112 C 292.673 296.589 296.565 291.457 296.315 286.760" fill="none" stroke="black" stroke-width="1.8" /><path d="M 203.464 136.679 C 180.741 139.930 175.767 144.932 195.305 147.750" fill="none" stroke="black" stroke-width="1.8" /><path d="M 195.305 147.750 C 216.201 150.764 253.744 149.749 275.799 145.659" fill="none" stroke="black" stroke-width="1.8" /><path d="M 275.799 145.659 C 295.911 141.930 293.798 137.269 273.729 135.082" fill="none" stroke="black" stroke-width="1.8" /><path d="M 273.729 135.082 C 254.778 133.017 224.389 133.685 203.464 136.679" fill="none" stroke="black" stroke-width="1.8" /><path d="M 172.762 132.867 C 125.265 138.967 107.387 149.371 145.094 155.861" fill="none" stroke="black" stroke-width="1.8" /><path d="M 145.094 155.861 C 188.780 163.379 273.892 160.775 318.811 150.999" fill="none" stroke="black" stroke-width="1.8" /><path d="M 318.811 150.999 C 355.712 142.968 345.084 133.940 304.936 130.042" fill="none" stroke="black" stroke-width="1.8" /><path d="M 304.936 130.042 C 268.861 126.539 213.366 127.652 172.762 132.867" fill="none" stroke="black" stroke-width="1.8" /><path d="M 201.733 295.590 C 201.732 295.588 201.730 295.579 201.728 295.560" fill="none" stroke="black" stroke-width="1.8" /><path d="M 201.728 295.560 C 201.726 295.544 201.725 295.534 201.724 295.531" fill="none" stroke="black" stroke-width="1.8" /><path d="M 201.853 296.245 C 201.844 296.206 201.842 296.186 201.844 296.184" fill="none" stroke="black" stroke-width="1.8" /><path d="M 202.316 297.638 C 202.324 297.674 202.316 297.668 202.288 297.601" fill="none" stroke="black" stroke-width="1.8" /><path d="M 202.288 297.601 C 202.262 297.537 202.254 297.508 202.263 297.510" fill="none" stroke="black" stroke-width="1.8" /><path d="M 203.473 299.642 C 203.486 299.683 203.466 299.670 203.402 299.581" fill="none" stroke="black" stroke-width="1.8" /><path d="M 203.402 299.581 C 203.248 299.365 204.072 300.434 203.897 300.222" fill="none" stroke="black" stroke-width="1.8" /><path d="M 203.897 300.222 C 203.820 300.129 203.820 300.115 203.874 300.158" fill="none" stroke="black" stroke-width="1.8" /><path d="M 205.747 302.078 C 205.512 301.878 206.741 302.865 206.485 302.670" fill="none" stroke="black" stroke-width="1.8" /><path d="M 206.485 302.670 C 206.230 302.475 207.558 303.438 207.283 303.248" fill="none" stroke="black" stroke-width="1.8" /><path d="M 207.283 303.248 C 207.007 303.058 208.434 303.995 208.139 303.810" fill="none" stroke="black" stroke-width="1.8" /><path d="M 208.139 303.810 C 207.932 303.680 208.182 303.815 208.567 304.031" fill="none" stroke="black" stroke-width="1.8" /><path d="M 209.564 304.598 C 209.987 304.842 210.273 305.013 210.024 304.883" fill="none" stroke="black" stroke-width="1.8" /><path d="M 210.024 304.883 C 209.806 304.770 209.892 304.798 210.147 304.905" fill="none" stroke="black" stroke-width="1.8" /><path d="M 213.151 306.265 C 213.448 306.408 213.546 306.464 213.269 306.354" fill="none" stroke="black" stroke-width="1.8" /><path d="M 213.269 306.354 C 212.882 306.201 214.861 306.951 214.456 306.804" fill="none" stroke="black" stroke-width="1.8" /><path d="M 214.456 306.804 C 214.157 306.696 214.322 306.737 214.720 306.856" fill="none" stroke="black" stroke-width="1.8" /><path d="M 218.044 307.901 C 218.489 308.048 218.675 308.118 218.317 308.020" fill="none" stroke="black" stroke-width="1.8" /><path d="M 218.317 308.020 C 217.864 307.897 220.165 308.495 219.697 308.379" fill="none" stroke="black" stroke-width="1.8" /><path d="M 219.697 308.379 C 219.315 308.285 219.579 308.330 220.135 308.441" fill="none" stroke="black" stroke-width="1.8" /><path d="M 223.635 309.178 C 224.237 309.312 224.527 309.383 224.091 309.306" fill="none" stroke="black" stroke-width="1.8" /><path d="M 224.091 309.306 C 223.583 309.216 226.154 309.644 225.634 309.563" fill="none" stroke="black" stroke-width="1.8" /><path d="M 225.634 309.563 C 225.114 309.482 227.742 309.866 227.211 309.794" fill="none" stroke="black" stroke-width="1.8" /><path d="M 227.211 309.794 C 226.680 309.721 229.363 310.060 228.821 309.997" fill="none" stroke="black" stroke-width="1.8" /><path d="M 228.821 309.997 C 227.738 309.871 233.251 310.411 232.130 310.321" fill="none" stroke="black" stroke-width="1.8" /><path d="M 232.130 310.321 C 231.605 310.279 232.078 310.295 232.924 310.335" fill="none" stroke="black" stroke-width="1.8" /><path d="M 236.460 310.524 C 237.337 310.576 237.832 310.612 237.275 310.596" fill="none" stroke="black" stroke-width="1.8" /><path d="M 237.275 310.596 C 236.714 310.581 237.248 310.573 238.172 310.571" fill="none" stroke="black" stroke-width="1.8" /><path d="M 241.664 310.583 C 242.609 310.591 243.159 310.602 242.576 310.614" fill="none" stroke="black" stroke-width="1.8" /><path d="M 242.576 310.614 C 241.982 310.627 244.963 310.541 244.365 310.563" fill="none" stroke="black" stroke-width="1.8" /><path d="M 244.365 310.563 C 243.768 310.585 246.759 310.452 246.160 310.483" fill="none" stroke="black" stroke-width="1.8" /><path d="M 246.160 310.483 C 245.565 310.514 246.156 310.460 247.146 310.380" fill="none" stroke="black" stroke-width="1.8" /><path d="M 250.564 310.121 C 251.557 310.050 252.151 310.015 251.555 310.074" fill="none" stroke="black" stroke-width="1.8" /><path d="M 251.555 310.074 C 250.956 310.133 253.942 309.813 253.346 309.882" fill="none" stroke="black" stroke-width="1.8" /><path d="M 253.346 309.882 C 252.753 309.950 253.336 309.860 254.315 309.719" fill="none" stroke="black" stroke-width="1.8" /><path d="M 257.701 309.249 C 258.668 309.120 259.243 309.049 258.665 309.144" fill="none" stroke="black" stroke-width="1.8" /><path d="M 258.665 309.144 C 258.080 309.239 260.987 308.741 260.409 308.845" fill="none" stroke="black" stroke-width="1.8" /><path d="M 260.409 308.845 C 259.830 308.949 262.707 308.409 262.135 308.521" fill="none" stroke="black" stroke-width="1.8" /><path d="M 262.135 308.521 C 261.579 308.630 262.091 308.507 262.978 308.306" fill="none" stroke="black" stroke-width="1.8" /><path d="M 266.348 307.559 C 267.207 307.374 267.700 307.274 267.177 307.404" fill="none" stroke="black" stroke-width="1.8" /><path d="M 267.177 307.404 C 266.630 307.540 269.341 306.842 268.804 306.985" fill="none" stroke="black" stroke-width="1.8" /><path d="M 268.804 306.985 C 267.729 307.272 272.994 305.768 271.964 306.083" fill="none" stroke="black" stroke-width="1.8" /><path d="M 271.964 306.083 C 271.494 306.226 271.860 306.093 272.556 305.853" fill="none" stroke="black" stroke-width="1.8" /><path d="M 275.860 304.742 C 276.515 304.527 276.857 304.422 276.437 304.578" fill="none" stroke="black" stroke-width="1.8" /><path d="M 276.437 304.578 C 275.959 304.754 278.311 303.857 277.848 304.039" fill="none" stroke="black" stroke-width="1.8" /><path d="M 277.848 304.039 C 277.384 304.222 279.665 303.296 279.216 303.484" fill="none" stroke="black" stroke-width="1.8" /><path d="M 279.216 303.484 C 278.767 303.672 280.974 302.720 280.541 302.913" fill="none" stroke="black" stroke-width="1.8" /><path d="M 280.541 302.913 C 280.183 303.072 280.391 302.959 280.856 302.725" fill="none" stroke="black" stroke-width="1.8" /><path d="M 283.920 301.232 C 284.342 301.033 284.531 300.951 284.231 301.112" fill="none" stroke="black" stroke-width="1.8" /><path d="M 284.231 301.112 C 283.845 301.319 285.731 300.276 285.363 300.486" fill="none" stroke="black" stroke-width="1.8" /><path d="M 285.363 300.486 C 285.085 300.645 285.203 300.558 285.520 300.351" fill="none" stroke="black" stroke-width="1.8" /><path d="M 288.280 298.615 C 288.559 298.447 288.665 298.392 288.445 298.546" fill="none" stroke="black" stroke-width="1.8" /><path d="M 288.445 298.546 C 288.129 298.766 289.662 297.658 289.365 297.881" fill="none" stroke="black" stroke-width="1.8" /><path d="M 289.365 297.881 C 289.067 298.104 290.508 296.984 290.229 297.209" fill="none" stroke="black" stroke-width="1.8" /><path d="M 290.229 297.209 C 290.048 297.355 290.084 297.308 290.244 297.152" fill="none" stroke="black" stroke-width="1.8" /><path d="M 292.486 295.158 C 292.263 295.388 293.326 294.235 293.124 294.466" fill="none" stroke="black" stroke-width="1.8" /><path d="M 294.697 292.324 C 294.752 292.263 294.758 292.270 294.690 292.379" fill="none" stroke="black" stroke-width="1.8" /><path d="M 294.690 292.379 C 294.545 292.611 295.222 291.451 295.096 291.682" fill="none" stroke="black" stroke-width="1.8" /><path d="M 295.096 291.682 C 294.970 291.915 295.550 290.756 295.444 290.987" fill="none" stroke="black" stroke-width="1.8" /><path d="M 295.966 289.602 C 295.943 289.680 295.930 289.705 295.925 289.690" fill="none" stroke="black" stroke-width="1.8" /><path d="M 296.317 287.478 C 296.318 287.492 296.319 287.517 296.317 287.554" fill="none" stroke="black" stroke-width="1.8" /><path d="M 296.320 286.882 C 296.321 286.898 296.321 286.911 296.321 286.923" fill="none" stroke="black" stroke-width="1.8" /><path d="M 203.464 136.679 C 202.585 136.815 199.903 137.224 200.777 137.084" fill="none" stroke="black" stroke-width="1.8" /><path d="M 200.777 137.084 C 201.213 137.015 199.061 137.367 199.486 137.296" fill="none" stroke="black" stroke-width="1.8" /><path d="M 199.486 137.296 C 200.332 137.153 196.218 137.884 197.016 137.734" fill="none" stroke="black" stroke-width="1.8" /><path d="M 197.016 137.734 C 198.208 137.511 192.551 138.669 193.621 138.430" fill="none" stroke="black" stroke-width="1.8" /><path d="M 193.621 138.430 C 193.976 138.350 192.237 138.752 192.577 138.670" fill="none" stroke="black" stroke-width="1.8" /><path d="M 192.577 138.670 C 192.917 138.590 191.256 138.998 191.581 138.915" fill="none" stroke="black" stroke-width="1.8" /><path d="M 191.581 138.915 C 192.550 138.669 188.066 139.932 188.888 139.673" fill="none" stroke="black" stroke-width="1.8" /><path d="M 188.888 139.673 C 189.434 139.502 186.881 140.371 187.356 140.195" fill="none" stroke="black" stroke-width="1.8" /><path d="M 187.356 140.195 C 187.593 140.107 186.455 140.548 186.673 140.460" fill="none" stroke="black" stroke-width="1.8" /><path d="M 186.673 140.460 C 186.891 140.371 185.849 140.816 186.048 140.727" fill="none" stroke="black" stroke-width="1.8" /><path d="M 186.048 140.727 C 186.642 140.460 184.112 141.813 184.528 141.539" fill="none" stroke="black" stroke-width="1.8" /><path d="M 184.528 141.539 C 184.666 141.448 184.028 141.904 184.145 141.813" fill="none" stroke="black" stroke-width="1.8" /><path d="M 184.145 141.813 C 184.262 141.722 183.729 142.179 183.825 142.087" fill="none" stroke="black" stroke-width="1.8" /><path d="M 183.825 142.087 C 183.921 141.996 183.495 142.453 183.570 142.362" fill="none" stroke="black" stroke-width="1.8" /><path d="M 183.570 142.362 C 183.792 142.088 183.178 143.458 183.200 143.184" fill="none" stroke="black" stroke-width="1.8" /><path d="M 183.200 143.184 C 183.208 143.093 183.227 143.548 183.212 143.457" fill="none" stroke="black" stroke-width="1.8" /><path d="M 183.212 143.457 C 183.197 143.366 183.331 143.819 183.293 143.728" fill="none" stroke="black" stroke-width="1.8" /><path d="M 183.293 143.728 C 183.216 143.548 183.832 144.443 183.662 144.265" fill="none" stroke="black" stroke-width="1.8" /><path d="M 183.662 144.265 C 183.408 144.000 185.209 145.308 184.742 145.050" fill="none" stroke="black" stroke-width="1.8" /><path d="M 184.742 145.050 C 184.587 144.965 185.422 145.390 185.243 145.305" fill="none" stroke="black" stroke-width="1.8" /><path d="M 185.243 145.305 C 184.709 145.053 187.917 146.283 187.169 146.043" fill="none" stroke="black" stroke-width="1.8" /><path d="M 187.169 146.043 C 186.920 145.964 188.222 146.357 187.950 146.279" fill="none" stroke="black" stroke-width="1.8" /><path d="M 187.950 146.279 C 187.678 146.202 189.096 146.585 188.801 146.510" fill="none" stroke="black" stroke-width="1.8" /><path d="M 188.801 146.510 C 188.506 146.434 190.037 146.807 189.720 146.734" fill="none" stroke="black" stroke-width="1.8" /><path d="M 189.720 146.734 C 189.086 146.587 192.484 147.301 191.759 147.162" fill="none" stroke="black" stroke-width="1.8" /><path d="M 191.759 147.162 C 190.676 146.956 196.584 147.935 195.305 147.750" fill="none" stroke="black" stroke-width="1.8" /><path d="M 195.305 147.750 C 194.880 147.689 197.058 147.989 196.612 147.930" fill="none" stroke="black" stroke-width="1.8" /><path d="M 196.612 147.930 C 195.278 147.755 202.393 148.566 200.883 148.417" fill="none" stroke="black" stroke-width="1.8" /><path d="M 200.883 148.417 C 200.381 148.368 202.938 148.607 202.418 148.561" fill="none" stroke="black" stroke-width="1.8" /><path d="M 202.418 148.561 C 200.860 148.422 209.032 149.041 207.324 148.933" fill="none" stroke="black" stroke-width="1.8" /><path d="M 207.324 148.933 C 206.756 148.896 209.636 149.068 209.052 149.036" fill="none" stroke="black" stroke-width="1.8" /><path d="M 209.052 149.036 C 208.469 149.003 211.420 149.157 210.823 149.128" fill="none" stroke="black" stroke-width="1.8" /><path d="M 210.823 149.128 C 210.226 149.099 213.243 149.236 212.633 149.210" fill="none" stroke="black" stroke-width="1.8" /><path d="M 212.633 149.210 C 211.415 149.159 217.625 149.376 216.360 149.340" fill="none" stroke="black" stroke-width="1.8" /><path d="M 216.360 149.340 C 214.466 149.286 224.150 149.471 222.175 149.451" fill="none" stroke="black" stroke-width="1.8" /><path d="M 222.175 149.451 C 220.201 149.431 230.210 149.443 228.185 149.458" fill="none" stroke="black" stroke-width="1.8" /><path d="M 228.185 149.458 C 227.510 149.463 230.896 149.429 230.217 149.437" fill="none" stroke="black" stroke-width="1.8" /><path d="M 230.217 149.437 C 229.538 149.446 232.939 149.393 232.258 149.405" fill="none" stroke="black" stroke-width="1.8" /><path d="M 232.258 149.405 C 230.214 149.443 240.441 149.169 238.399 149.241" fill="none" stroke="black" stroke-width="1.8" /><path d="M 238.399 149.241 C 237.717 149.265 241.121 149.136 240.441 149.164" fill="none" stroke="black" stroke-width="1.8" /><path d="M 240.441 149.164 C 238.401 149.246 248.509 148.753 246.510 148.868" fill="none" stroke="black" stroke-width="1.8" /><path d="M 246.510 148.868 C 245.843 148.906 249.164 148.706 248.503 148.748" fill="none" stroke="black" stroke-width="1.8" /><path d="M 248.503 148.748 C 247.842 148.789 251.130 148.573 250.476 148.618" fill="none" stroke="black" stroke-width="1.8" /><path d="M 250.476 148.618 C 248.512 148.753 258.118 148.007 256.243 148.170" fill="none" stroke="black" stroke-width="1.8" /><path d="M 256.243 148.170 C 255.617 148.225 258.721 147.945 258.106 148.003" fill="none" stroke="black" stroke-width="1.8" /><path d="M 258.106 148.003 C 256.874 148.118 262.904 147.516 261.725 147.641" fill="none" stroke="black" stroke-width="1.8" /><path d="M 261.725 147.641 C 259.950 147.831 268.488 146.829 266.851 147.040" fill="none" stroke="black" stroke-width="1.8" /><path d="M 266.851 147.040 C 266.303 147.111 269.001 146.753 268.470 146.825" fill="none" stroke="black" stroke-width="1.8" /><path d="M 268.470 146.825 C 267.938 146.898 270.555 146.529 270.040 146.604" fill="none" stroke="black" stroke-width="1.8" /><path d="M 270.040 146.604 C 269.524 146.679 272.057 146.299 271.560 146.376" fill="none" stroke="black" stroke-width="1.8" /><path d="M 271.560 146.376 C 270.062 146.607 277.124 145.413 275.799 145.659" fill="none" stroke="black" stroke-width="1.8" /><path d="M 275.799 145.659 C 275.355 145.741 277.523 145.327 277.100 145.410" fill="none" stroke="black" stroke-width="1.8" /><path d="M 277.100 145.410 C 275.825 145.662 281.735 144.378 280.648 144.640" fill="none" stroke="black" stroke-width="1.8" /><path d="M 280.648 144.640 C 280.283 144.727 282.051 144.288 281.708 144.376" fill="none" stroke="black" stroke-width="1.8" /><path d="M 281.708 144.376 C 281.365 144.464 283.028 144.021 282.706 144.110" fill="none" stroke="black" stroke-width="1.8" /><path d="M 282.706 144.110 C 281.737 144.378 286.088 143.026 285.317 143.298" fill="none" stroke="black" stroke-width="1.8" /><path d="M 285.317 143.298 C 285.059 143.389 286.294 142.934 286.058 143.025" fill="none" stroke="black" stroke-width="1.8" /><path d="M 286.058 143.025 C 285.348 143.299 288.398 141.928 287.889 142.201" fill="none" stroke="black" stroke-width="1.8" /><path d="M 287.889 142.201 C 287.718 142.293 288.516 141.836 288.367 141.927" fill="none" stroke="black" stroke-width="1.8" /><path d="M 288.367 141.927 C 288.218 142.019 288.907 141.562 288.780 141.653" fill="none" stroke="black" stroke-width="1.8" /><path d="M 288.780 141.653 C 288.526 141.836 289.577 140.929 289.410 141.109" fill="none" stroke="black" stroke-width="1.8" /><path d="M 289.410 141.109 C 289.160 141.380 289.926 140.041 289.869 140.305" fill="none" stroke="black" stroke-width="1.8" /><path d="M 289.869 140.305 C 289.850 140.393 289.892 139.954 289.895 140.042" fill="none" stroke="black" stroke-width="1.8" /><path d="M 289.895 140.042 C 289.901 140.304 289.403 139.018 289.595 139.269" fill="none" stroke="black" stroke-width="1.8" /><path d="M 289.595 139.269 C 289.723 139.438 288.882 138.609 289.090 138.772" fill="none" stroke="black" stroke-width="1.8" /><path d="M 289.090 138.772 C 289.194 138.854 288.625 138.449 288.748 138.529" fill="none" stroke="black" stroke-width="1.8" /><path d="M 288.748 138.529 C 289.120 138.771 286.840 137.603 287.379 137.828" fill="none" stroke="black" stroke-width="1.8" /><path d="M 287.379 137.828 C 287.559 137.904 286.613 137.531 286.811 137.604" fill="none" stroke="black" stroke-width="1.8" /><path d="M 286.811 137.604 C 287.009 137.678 285.973 137.313 286.189 137.385" fill="none" stroke="black" stroke-width="1.8" /><path d="M 286.189 137.385 C 286.405 137.458 285.280 137.102 285.514 137.172" fill="none" stroke="black" stroke-width="1.8" /><path d="M 285.514 137.172 C 286.216 137.383 282.334 136.372 283.183 136.565" fill="none" stroke="black" stroke-width="1.8" /><path d="M 283.183 136.565 C 283.467 136.629 282.009 136.312 282.308 136.374" fill="none" stroke="black" stroke-width="1.8" /><path d="M 282.308 136.374 C 283.208 136.562 278.376 135.672 279.407 135.840" fill="none" stroke="black" stroke-width="1.8" /><path d="M 279.407 135.840 C 279.751 135.896 277.994 135.621 278.352 135.675" fill="none" stroke="black" stroke-width="1.8" /><path d="M 278.352 135.675 C 279.070 135.783 275.348 135.266 276.118 135.365" fill="none" stroke="black" stroke-width="1.8" /><path d="M 276.118 135.365 C 276.504 135.414 274.544 135.173 274.942 135.220" fill="none" stroke="black" stroke-width="1.8" /><path d="M 274.942 135.220 C 275.341 135.267 273.318 135.038 273.729 135.082" fill="none" stroke="black" stroke-width="1.8" /><path d="M 273.729 135.082 C 274.140 135.127 272.056 134.909 272.479 134.952" fill="none" stroke="black" stroke-width="1.8" /><path d="M 272.479 134.952 C 273.748 135.079 267.161 134.498 268.524 134.603" fill="none" stroke="black" stroke-width="1.8" /><path d="M 268.524 134.603 C 268.980 134.638 266.678 134.469 267.143 134.501" fill="none" stroke="black" stroke-width="1.8" /><path d="M 267.143 134.501 C 268.541 134.599 261.352 134.166 262.828 134.241" fill="none" stroke="black" stroke-width="1.8" /><path d="M 262.828 134.241 C 264.307 134.317 256.741 133.998 258.286 134.050" fill="none" stroke="black" stroke-width="1.8" /><path d="M 258.286 134.050 C 258.802 134.067 256.207 133.987 256.729 134.002" fill="none" stroke="black" stroke-width="1.8" /><path d="M 256.729 134.002 C 257.251 134.016 254.624 133.949 255.152 133.961" fill="none" stroke="black" stroke-width="1.8" /><path d="M 255.152 133.961 C 255.681 133.973 253.023 133.918 253.558 133.928" fill="none" stroke="black" stroke-width="1.8" /><path d="M 253.558 133.928 C 255.161 133.957 247.036 133.871 248.681 133.876" fill="none" stroke="black" stroke-width="1.8" /><path d="M 248.681 133.876 C 249.229 133.878 246.477 133.875 247.029 133.875" fill="none" stroke="black" stroke-width="1.8" /><path d="M 247.029 133.875 C 247.581 133.874 244.811 133.884 245.367 133.881" fill="none" stroke="black" stroke-width="1.8" /><path d="M 245.367 133.881 C 246.478 133.874 240.895 133.934 242.017 133.917" fill="none" stroke="black" stroke-width="1.8" /><path d="M 242.017 133.917 C 243.697 133.891 235.255 134.078 236.949 134.029" fill="none" stroke="black" stroke-width="1.8" /><path d="M 236.949 134.029 C 237.514 134.012 234.690 134.101 235.255 134.082" fill="none" stroke="black" stroke-width="1.8" /><path d="M 235.255 134.082 C 235.820 134.063 232.996 134.164 233.561 134.142" fill="none" stroke="black" stroke-width="1.8" /><path d="M 233.561 134.142 C 234.125 134.121 231.304 134.235 231.868 134.211" fill="none" stroke="black" stroke-width="1.8" /><path d="M 231.868 134.211 C 233.557 134.139 225.138 134.556 226.815 134.461" fill="none" stroke="black" stroke-width="1.8" /><path d="M 226.815 134.461 C 227.930 134.398 222.377 134.739 223.482 134.665" fill="none" stroke="black" stroke-width="1.8" /><path d="M 223.482 134.665 C 224.034 134.629 221.283 134.818 221.831 134.779" fill="none" stroke="black" stroke-width="1.8" /><path d="M 221.831 134.779 C 223.473 134.662 215.358 135.300 216.961 135.162" fill="none" stroke="black" stroke-width="1.8" /><path d="M 216.961 135.162 C 217.494 135.116 214.842 135.352 215.370 135.304" fill="none" stroke="black" stroke-width="1.8" /><path d="M 215.370 135.304 C 216.948 135.159 209.197 135.936 210.717 135.770" fill="none" stroke="black" stroke-width="1.8" /><path d="M 210.717 135.770 C 211.727 135.660 206.754 136.234 207.733 136.115" fill="none" stroke="black" stroke-width="1.8" /><path d="M 207.733 136.115 C 208.221 136.055 205.807 136.359 206.280 136.297" fill="none" stroke="black" stroke-width="1.8" /><path d="M 206.280 136.297 C 207.225 136.172 204.429 136.554 203.464 136.679" fill="none" stroke="black" stroke-width="1.8" /><path d="M 203.464 136.679 C 202.145 136.883 198.210 137.510 199.486 137.296" fill="none" stroke="black" stroke-width="1.8" /><path d="M 199.486 137.296 C 200.332 137.153 196.218 137.884 197.016 137.734" fill="none" stroke="black" stroke-width="1.8" /><path d="M 197.016 137.734 C 198.208 137.511 192.551 138.669 193.621 138.430" fill="none" stroke="black" stroke-width="1.8" /><path d="M 193.621 138.430 C 195.386 138.034 187.516 140.105 188.888 139.673" fill="none" stroke="black" stroke-width="1.8" /><path d="M 188.888 139.673 C 189.434 139.502 186.881 140.371 187.356 140.195" fill="none" stroke="black" stroke-width="1.8" /><path d="M 187.356 140.195 C 188.766 139.672 183.438 142.363 184.145 141.813" fill="none" stroke="black" stroke-width="1.8" /><path d="M 184.145 141.813 C 184.957 141.180 183.562 144.363 183.293 143.728" fill="none" stroke="black" stroke-width="1.8" /><path d="M 183.293 143.728 C 183.216 143.548 183.832 144.443 183.662 144.265" fill="none" stroke="black" stroke-width="1.8" /><path d="M 183.662 144.265 C 183.408 144.000 185.209 145.308 184.742 145.050" fill="none" stroke="black" stroke-width="1.8" /><path d="M 184.742 145.050 C 183.665 144.457 191.950 147.251 189.720 146.734" fill="none" stroke="black" stroke-width="1.8" /><path d="M 189.720 146.734 C 189.086 146.587 192.484 147.301 191.759 147.162" fill="none" stroke="black" stroke-width="1.8" /><path d="M 191.759 147.162 C 190.676 146.956 196.584 147.935 195.305 147.750" fill="none" stroke="black" stroke-width="1.8" /><path d="M 195.305 147.750 C 193.609 147.506 202.897 148.616 200.883 148.417" fill="none" stroke="black" stroke-width="1.8" /><path d="M 200.883 148.417 C 197.387 148.073 216.898 149.388 212.633 149.210" fill="none" stroke="black" stroke-width="1.8" /><path d="M 212.633 149.210 C 211.415 149.159 217.625 149.376 216.360 149.340" fill="none" stroke="black" stroke-width="1.8" /><path d="M 216.360 149.340 C 214.466 149.286 224.150 149.471 222.175 149.451" fill="none" stroke="black" stroke-width="1.8" /><path d="M 222.175 149.451 C 219.544 149.425 232.929 149.402 230.217 149.437" fill="none" stroke="black" stroke-width="1.8" /><path d="M 230.217 149.437 C 226.825 149.481 243.831 149.026 240.441 149.164" fill="none" stroke="black" stroke-width="1.8" /><path d="M 240.441 149.164 C 238.401 149.246 248.509 148.753 246.510 148.868" fill="none" stroke="black" stroke-width="1.8" /><path d="M 246.510 148.868 C 242.503 149.097 261.776 147.660 258.106 148.003" fill="none" stroke="black" stroke-width="1.8" /><path d="M 258.106 148.003 C 256.874 148.118 262.904 147.516 261.725 147.641" fill="none" stroke="black" stroke-width="1.8" /><path d="M 261.725 147.641 C 259.358 147.894 270.587 146.535 268.470 146.825" fill="none" stroke="black" stroke-width="1.8" /><path d="M 268.470 146.825 C 265.804 147.190 278.002 145.251 275.799 145.659" fill="none" stroke="black" stroke-width="1.8" /><path d="M 275.799 145.659 C 273.575 146.072 283.413 143.937 281.708 144.376" fill="none" stroke="black" stroke-width="1.8" /><path d="M 281.708 144.376 C 280.331 144.731 286.343 142.936 285.317 143.298" fill="none" stroke="black" stroke-width="1.8" /><path d="M 285.317 143.298 C 283.763 143.846 289.535 141.111 288.780 141.653" fill="none" stroke="black" stroke-width="1.8" /><path d="M 288.780 141.653 C 288.526 141.836 289.577 140.929 289.410 141.109" fill="none" stroke="black" stroke-width="1.8" /><path d="M 289.410 141.109 C 289.160 141.380 289.926 140.041 289.869 140.305" fill="none" stroke="black" stroke-width="1.8" /><path d="M 289.869 140.305 C 289.793 140.659 289.340 138.935 289.595 139.269" fill="none" stroke="black" stroke-width="1.8" /><path d="M 289.595 139.269 C 289.723 139.438 288.882 138.609 289.090 138.772" fill="none" stroke="black" stroke-width="1.8" /><path d="M 289.090 138.772 C 289.822 139.346 283.892 136.684 285.514 137.172" fill="none" stroke="black" stroke-width="1.8" /><path d="M 285.514 137.172 C 286.216 137.383 282.334 136.372 283.183 136.565" fill="none" stroke="black" stroke-width="1.8" /><path d="M 283.183 136.565 C 284.605 136.888 276.567 135.407 278.352 135.675" fill="none" stroke="black" stroke-width="1.8" /><path d="M 278.352 135.675 C 279.070 135.783 275.348 135.266 276.118 135.365" fill="none" stroke="black" stroke-width="1.8" /><path d="M 276.118 135.365 C 278.823 135.712 263.903 134.274 267.143 134.501" fill="none" stroke="black" stroke-width="1.8" /><path d="M 267.143 134.501 C 268.541 134.599 261.352 134.166 262.828 134.241" fill="none" stroke="black" stroke-width="1.8" /><path d="M 262.828 134.241 C 264.800 134.342 254.643 133.942 256.729 134.002" fill="none" stroke="black" stroke-width="1.8" /><path d="M 256.729 134.002 C 260.382 134.105 241.485 133.904 245.367 133.881" fill="none" stroke="black" stroke-width="1.8" /><path d="M 245.367 133.881 C 246.478 133.874 240.895 133.934 242.017 133.917" fill="none" stroke="black" stroke-width="1.8" /><path d="M 242.017 133.917 C 243.697 133.891 235.255 134.078 236.949 134.029" fill="none" stroke="black" stroke-width="1.8" /><path d="M 236.949 134.029 C 240.326 133.931 223.462 134.651 226.815 134.461" fill="none" stroke="black" stroke-width="1.8" /><path d="M 226.815 134.461 C 227.930 134.398 222.377 134.739 223.482 134.665" fill="none" stroke="black" stroke-width="1.8" /><path d="M 223.482 134.665 C 226.232 134.483 212.728 135.546 215.370 135.304" fill="none" stroke="black" stroke-width="1.8" /><path d="M 215.370 135.304 C 216.948 135.159 209.197 135.936 210.717 135.770" fill="none" stroke="black" stroke-width="1.8" /><path d="M 210.717 135.770 C 211.727 135.660 206.754 136.234 207.733 136.115" fill="none" stroke="black" stroke-width="1.8" /><path d="M 207.733 136.115 C 209.195 135.937 204.910 136.492 203.464 136.679" fill="none" stroke="black" stroke-width="1.8" /><path d="M 172.762 132.867 C 171.298 133.067 166.823 133.670 168.295 133.465" fill="none" stroke="black" stroke-width="1.8" /><path d="M 168.295 133.465 C 169.028 133.363 165.385 133.881 166.109 133.776" fill="none" stroke="black" stroke-width="1.8" /><path d="M 166.109 133.776 C 167.551 133.567 160.441 134.644 161.843 134.422" fill="none" stroke="black" stroke-width="1.8" /><path d="M 161.843 134.422 C 163.236 134.202 156.379 135.332 157.728 135.100" fill="none" stroke="black" stroke-width="1.8" /><path d="M 157.728 135.100 C 159.735 134.755 149.979 136.544 151.872 136.174" fill="none" stroke="black" stroke-width="1.8" /><path d="M 151.872 136.174 C 152.499 136.051 149.399 136.672 150.012 136.546" fill="none" stroke="black" stroke-width="1.8" /><path d="M 150.012 136.546 C 150.622 136.421 147.605 137.054 148.201 136.926" fill="none" stroke="black" stroke-width="1.8" /><path d="M 148.201 136.926 C 148.795 136.799 145.863 137.443 146.441 137.313" fill="none" stroke="black" stroke-width="1.8" /><path d="M 146.441 137.313 C 147.018 137.183 144.174 137.839 144.735 137.706" fill="none" stroke="black" stroke-width="1.8" /><path d="M 144.735 137.706 C 146.405 137.312 138.445 139.343 139.957 138.926" fill="none" stroke="black" stroke-width="1.8" /><path d="M 139.957 138.926 C 140.457 138.787 138.003 139.485 138.484 139.344" fill="none" stroke="black" stroke-width="1.8" /><path d="M 138.484 139.344 C 139.441 139.064 134.857 140.489 135.733 140.199" fill="none" stroke="black" stroke-width="1.8" /><path d="M 135.733 140.199 C 137.034 139.769 131.021 141.970 132.122 141.520" fill="none" stroke="black" stroke-width="1.8" /><path d="M 132.122 141.520 C 132.486 141.371 130.723 142.121 131.064 141.970" fill="none" stroke="black" stroke-width="1.8" /><path d="M 131.064 141.970 C 131.403 141.819 129.768 142.576 130.083 142.424" fill="none" stroke="black" stroke-width="1.8" /><path d="M 130.083 142.424 C 130.396 142.272 128.893 143.035 129.181 142.881" fill="none" stroke="black" stroke-width="1.8" /><path d="M 129.181 142.881 C 129.753 142.576 127.156 144.119 127.621 143.807" fill="none" stroke="black" stroke-width="1.8" /><path d="M 127.621 143.807 C 128.313 143.344 125.492 145.691 125.926 145.216" fill="none" stroke="black" stroke-width="1.8" /><path d="M 125.926 145.216 C 126.355 144.746 124.900 147.116 125.050 146.639" fill="none" stroke="black" stroke-width="1.8" /><path d="M 125.050 146.639 C 125.149 146.323 124.978 147.907 124.947 147.589" fill="none" stroke="black" stroke-width="1.8" /><path d="M 124.947 147.589 C 124.931 147.431 125.094 148.222 125.044 148.064" fill="none" stroke="black" stroke-width="1.8" /><path d="M 125.044 148.064 C 124.897 147.593 126.415 149.949 125.953 149.478" fill="none" stroke="black" stroke-width="1.8" /><path d="M 125.953 149.478 C 125.800 149.323 126.654 150.100 126.465 149.945" fill="none" stroke="black" stroke-width="1.8" /><path d="M 126.465 149.945 C 126.277 149.790 127.309 150.563 127.085 150.408" fill="none" stroke="black" stroke-width="1.8" /><path d="M 127.085 150.408 C 126.861 150.255 128.073 151.021 127.812 150.868" fill="none" stroke="black" stroke-width="1.8" /><path d="M 127.812 150.868 C 127.552 150.716 128.945 151.474 128.647 151.323" fill="none" stroke="black" stroke-width="1.8" /><path d="M 128.647 151.323 C 127.762 150.873 133.039 153.092 131.813 152.655" fill="none" stroke="black" stroke-width="1.8" /><path d="M 131.813 152.655 C 131.407 152.510 133.533 153.229 133.089 153.086" fill="none" stroke="black" stroke-width="1.8" /><path d="M 133.089 153.086 C 131.764 152.661 139.247 154.736 137.579 154.332" fill="none" stroke="black" stroke-width="1.8" /><path d="M 137.579 154.332 C 135.925 153.932 145.048 155.868 143.054 155.495" fill="none" stroke="black" stroke-width="1.8" /><path d="M 143.054 155.495 C 141.076 155.125 151.798 156.894 149.490 156.557" fill="none" stroke="black" stroke-width="1.8" /><path d="M 149.490 156.557 C 148.724 156.445 152.643 156.994 151.841 156.886" fill="none" stroke="black" stroke-width="1.8" /><path d="M 151.841 156.886 C 151.041 156.779 155.127 157.305 154.293 157.202" fill="none" stroke="black" stroke-width="1.8" /><path d="M 154.293 157.202 C 153.460 157.099 157.709 157.602 156.842 157.503" fill="none" stroke="black" stroke-width="1.8" /><path d="M 156.842 157.503 C 155.977 157.405 160.385 157.884 159.487 157.790" fill="none" stroke="black" stroke-width="1.8" /><path d="M 159.487 157.790 C 157.696 157.604 166.969 158.485 165.052 158.319" fill="none" stroke="black" stroke-width="1.8" /><path d="M 165.052 158.319 C 164.096 158.236 168.953 158.637 167.966 158.559" fill="none" stroke="black" stroke-width="1.8" /><path d="M 167.966 158.559 C 165.018 158.328 180.390 159.362 177.195 159.180" fill="none" stroke="black" stroke-width="1.8" /><path d="M 177.195 159.180 C 176.132 159.120 181.508 159.407 180.421 159.352" fill="none" stroke="black" stroke-width="1.8" /><path d="M 180.421 159.352 C 179.335 159.298 184.824 159.555 183.715 159.507" fill="none" stroke="black" stroke-width="1.8" /><path d="M 183.715 159.507 C 181.500 159.410 192.789 159.832 190.491 159.760" fill="none" stroke="black" stroke-width="1.8" /><path d="M 190.491 159.760 C 189.343 159.724 195.130 159.889 193.963 159.859" fill="none" stroke="black" stroke-width="1.8" /><path d="M 193.963 159.859 C 190.469 159.770 208.292 160.073 204.664 160.041" fill="none" stroke="black" stroke-width="1.8" /><path d="M 204.664 160.041 C 203.455 160.030 209.530 160.067 208.309 160.063" fill="none" stroke="black" stroke-width="1.8" /><path d="M 208.309 160.063 C 207.089 160.059 213.214 160.063 211.985 160.066" fill="none" stroke="black" stroke-width="1.8" /><path d="M 211.985 160.066 C 210.755 160.068 216.922 160.040 215.685 160.049" fill="none" stroke="black" stroke-width="1.8" /><path d="M 215.685 160.049 C 211.974 160.075 230.632 159.800 226.888 159.884" fill="none" stroke="black" stroke-width="1.8" /><path d="M 226.888 159.884 C 223.137 159.968 241.863 159.408 238.131 159.548" fill="none" stroke="black" stroke-width="1.8" /><path d="M 238.131 159.548 C 236.884 159.594 243.104 159.346 241.863 159.399" fill="none" stroke="black" stroke-width="1.8" /><path d="M 241.863 159.399 C 238.133 159.557 256.587 158.634 252.942 158.845" fill="none" stroke="black" stroke-width="1.8" /><path d="M 252.942 158.845 C 251.723 158.915 257.785 158.550 256.579 158.625" fill="none" stroke="black" stroke-width="1.8" /><path d="M 256.579 158.625 C 254.162 158.777 266.098 157.965 263.742 158.138" fill="none" stroke="black" stroke-width="1.8" /><path d="M 263.742 158.138 C 261.379 158.311 273.015 157.394 270.726 157.587" fill="none" stroke="black" stroke-width="1.8" /><path d="M 270.726 157.587 C 269.578 157.684 275.267 157.188 274.140 157.290" fill="none" stroke="black" stroke-width="1.8" /><path d="M 274.140 157.290 C 270.744 157.595 287.208 155.971 284.023 156.315" fill="none" stroke="black" stroke-width="1.8" /><path d="M 284.023 156.315 C 282.956 156.430 288.226 155.845 287.185 155.964" fill="none" stroke="black" stroke-width="1.8" /><path d="M 287.185 155.964 C 286.142 156.083 291.293 155.479 290.276 155.601" fill="none" stroke="black" stroke-width="1.8" /><path d="M 290.276 155.601 C 289.257 155.724 294.284 155.101 293.293 155.227" fill="none" stroke="black" stroke-width="1.8" /><path d="M 293.293 155.227 C 290.303 155.608 304.586 153.636 301.866 154.043" fill="none" stroke="black" stroke-width="1.8" /><path d="M 301.866 154.043 C 300.953 154.180 305.438 153.491 304.556 153.630" fill="none" stroke="black" stroke-width="1.8" /><path d="M 304.556 153.630 C 303.673 153.770 308.012 153.067 307.160 153.209" fill="none" stroke="black" stroke-width="1.8" /><path d="M 307.160 153.209 C 306.306 153.351 310.496 152.636 309.675 152.780" fill="none" stroke="black" stroke-width="1.8" /><path d="M 309.675 152.780 C 307.194 153.214 318.847 151.004 316.668 151.453" fill="none" stroke="black" stroke-width="1.8" /><path d="M 316.668 151.453 C 315.936 151.603 319.508 150.847 318.811 150.999" fill="none" stroke="black" stroke-width="1.8" /><path d="M 318.811 150.999 C 318.111 151.151 321.523 150.388 320.858 150.541" fill="none" stroke="black" stroke-width="1.8" /><path d="M 320.858 150.541 C 318.849 151.004 328.114 148.677 326.417 149.144" fill="none" stroke="black" stroke-width="1.8" /><path d="M 326.417 149.144 C 325.847 149.301 328.610 148.516 328.075 148.673" fill="none" stroke="black" stroke-width="1.8" /><path d="M 328.075 148.673 C 327.538 148.831 330.136 148.043 329.634 148.200" fill="none" stroke="black" stroke-width="1.8" /><path d="M 329.634 148.200 C 328.116 148.676 334.931 146.303 333.722 146.775" fill="none" stroke="black" stroke-width="1.8" /><path d="M 333.722 146.775 C 333.316 146.934 335.261 146.142 334.889 146.300" fill="none" stroke="black" stroke-width="1.8" /><path d="M 334.889 146.300 C 334.516 146.459 336.299 145.667 335.959 145.825" fill="none" stroke="black" stroke-width="1.8" /><path d="M 335.959 145.825 C 335.618 145.984 337.240 145.194 336.932 145.352" fill="none" stroke="black" stroke-width="1.8" /><path d="M 336.932 145.352 C 336.002 145.827 339.918 143.477 339.280 143.941" fill="none" stroke="black" stroke-width="1.8" /><path d="M 339.280 143.941 C 339.066 144.097 340.058 143.322 339.875 143.476" fill="none" stroke="black" stroke-width="1.8" /><path d="M 339.875 143.476 C 339.692 143.631 340.530 142.860 340.378 143.014" fill="none" stroke="black" stroke-width="1.8" /><path d="M 340.378 143.014 C 340.072 143.322 341.295 141.799 341.111 142.100" fill="none" stroke="black" stroke-width="1.8" /><path d="M 341.111 142.100 C 340.926 142.403 341.556 140.907 341.489 141.202" fill="none" stroke="black" stroke-width="1.8" /><path d="M 341.489 141.202 C 341.455 141.351 341.553 140.614 341.548 140.761" fill="none" stroke="black" stroke-width="1.8" /><path d="M 341.548 140.761 C 341.531 141.202 340.992 139.045 341.222 139.466" fill="none" stroke="black" stroke-width="1.8" /><path d="M 341.222 139.466 C 341.299 139.607 340.847 138.906 340.950 139.045" fill="none" stroke="black" stroke-width="1.8" /><path d="M 340.950 139.045 C 341.054 139.185 340.470 138.494 340.600 138.631" fill="none" stroke="black" stroke-width="1.8" /><path d="M 340.600 138.631 C 340.730 138.768 340.017 138.088 340.172 138.223" fill="none" stroke="black" stroke-width="1.8" /><path d="M 340.172 138.223 C 340.484 138.494 338.681 137.165 339.089 137.425" fill="none" stroke="black" stroke-width="1.8" /><path d="M 339.089 137.425 C 339.708 137.819 336.101 135.911 336.924 136.280" fill="none" stroke="black" stroke-width="1.8" /><path d="M 336.924 136.280 C 337.754 136.653 333.125 134.853 334.144 135.200" fill="none" stroke="black" stroke-width="1.8" /><path d="M 334.144 135.200 C 334.486 135.317 332.727 134.742 333.089 134.855" fill="none" stroke="black" stroke-width="1.8" /><path d="M 333.089 134.855 C 334.180 135.198 328.297 133.551 329.557 133.867" fill="none" stroke="black" stroke-width="1.8" /><path d="M 329.557 133.867 C 329.979 133.973 327.823 133.450 328.263 133.553" fill="none" stroke="black" stroke-width="1.8" /><path d="M 328.263 133.553 C 328.704 133.657 326.454 133.148 326.913 133.248" fill="none" stroke="black" stroke-width="1.8" /><path d="M 326.913 133.248 C 327.372 133.349 325.032 132.853 325.508 132.951" fill="none" stroke="black" stroke-width="1.8" /><path d="M 325.508 132.951 C 326.945 133.245 319.407 131.842 320.984 132.109" fill="none" stroke="black" stroke-width="1.8" /><path d="M 320.984 132.109 C 321.512 132.198 318.834 131.758 319.377 131.845" fill="none" stroke="black" stroke-width="1.8" /><path d="M 319.377 131.845 C 321.013 132.105 312.518 130.871 314.278 131.104" fill="none" stroke="black" stroke-width="1.8" /><path d="M 314.278 131.104 C 316.049 131.339 306.908 130.233 308.791 130.441" fill="none" stroke="black" stroke-width="1.8" /><path d="M 308.791 130.441 C 309.422 130.510 306.240 130.170 306.882 130.237" fill="none" stroke="black" stroke-width="1.8" /><path d="M 306.882 130.237 C 307.526 130.303 304.281 129.978 304.936 130.042" fill="none" stroke="black" stroke-width="1.8" /><path d="M 304.936 130.042 C 306.906 130.233 296.817 129.344 298.881 129.508" fill="none" stroke="black" stroke-width="1.8" /><path d="M 298.881 129.508 C 299.571 129.563 296.095 129.296 296.795 129.348" fill="none" stroke="black" stroke-width="1.8" /><path d="M 296.795 129.348 C 297.496 129.400 293.967 129.148 294.678 129.197" fill="none" stroke="black" stroke-width="1.8" /><path d="M 294.678 129.197 C 296.102 129.295 288.894 128.834 290.353 128.920" fill="none" stroke="black" stroke-width="1.8" /><path d="M 290.353 128.920 C 291.084 128.963 287.408 128.755 288.147 128.795" fill="none" stroke="black" stroke-width="1.8" /><path d="M 288.147 128.795 C 288.887 128.836 285.167 128.642 285.915 128.679" fill="none" stroke="black" stroke-width="1.8" /><path d="M 285.915 128.679 C 288.163 128.791 276.751 128.298 279.066 128.383" fill="none" stroke="black" stroke-width="1.8" /><path d="M 279.066 128.383 C 281.387 128.469 269.634 128.109 272.013 128.167" fill="none" stroke="black" stroke-width="1.8" /><path d="M 272.013 128.167 C 274.396 128.226 262.352 127.999 264.785 128.031" fill="none" stroke="black" stroke-width="1.8" /><path d="M 264.785 128.031 C 266.409 128.052 258.241 127.974 259.884 127.984" fill="none" stroke="black" stroke-width="1.8" /><path d="M 259.884 127.984 C 260.706 127.989 256.585 127.972 257.412 127.974" fill="none" stroke="black" stroke-width="1.8" /><path d="M 257.412 127.974 C 259.890 127.980 247.406 128.017 249.920 127.997" fill="none" stroke="black" stroke-width="1.8" /><path d="M 249.920 127.997 C 250.758 127.990 246.560 128.032 247.401 128.022" fill="none" stroke="black" stroke-width="1.8" /><path d="M 247.401 128.022 C 248.242 128.012 244.029 128.069 244.873 128.056" fill="none" stroke="black" stroke-width="1.8" /><path d="M 244.873 128.056 C 245.717 128.043 241.491 128.115 242.338 128.099" fill="none" stroke="black" stroke-width="1.8" /><path d="M 242.338 128.099 C 243.184 128.083 238.947 128.170 239.796 128.151" fill="none" stroke="black" stroke-width="1.8" /><path d="M 239.796 128.151 C 240.644 128.132 236.397 128.233 237.248 128.211" fill="none" stroke="black" stroke-width="1.8" /><path d="M 237.248 128.211 C 238.097 128.190 233.843 128.306 234.695 128.281" fill="none" stroke="black" stroke-width="1.8" /><path d="M 234.695 128.281 C 237.246 128.207 224.455 128.643 227.019 128.542" fill="none" stroke="black" stroke-width="1.8" /><path d="M 227.019 128.542 C 228.724 128.476 220.191 128.840 221.899 128.761" fill="none" stroke="black" stroke-width="1.8" /><path d="M 221.899 128.761 C 223.603 128.682 215.082 129.105 216.786 129.015" fill="none" stroke="black" stroke-width="1.8" /><path d="M 216.786 129.015 C 217.636 128.970 213.386 129.203 214.235 129.155" fill="none" stroke="black" stroke-width="1.8" /><path d="M 214.235 129.155 C 216.777 129.011 204.090 129.799 206.621 129.628" fill="none" stroke="black" stroke-width="1.8" /><path d="M 206.621 129.628 C 207.463 129.571 203.260 129.863 204.100 129.803" fill="none" stroke="black" stroke-width="1.8" /><path d="M 204.100 129.803 C 204.938 129.743 200.753 130.050 201.589 129.987" fill="none" stroke="black" stroke-width="1.8" /><path d="M 201.589 129.987 C 202.423 129.924 198.258 130.245 199.090 130.180" fill="none" stroke="black" stroke-width="1.8" /><path d="M 199.090 130.180 C 201.575 129.983 189.220 131.033 191.675 130.810" fill="none" stroke="black" stroke-width="1.8" /><path d="M 191.675 130.810 C 192.490 130.736 188.425 131.114 189.236 131.037" fill="none" stroke="black" stroke-width="1.8" /><path d="M 189.236 131.037 C 190.852 130.883 182.817 131.684 184.414 131.518" fill="none" stroke="black" stroke-width="1.8" /><path d="M 184.414 131.518 C 186.004 131.352 178.112 132.210 179.678 132.032" fill="none" stroke="black" stroke-width="1.8" /><path d="M 179.678 132.032 C 180.459 131.944 176.580 132.395 177.346 132.302" fill="none" stroke="black" stroke-width="1.8" /><path d="M 177.346 132.302 C 178.874 132.118 174.326 132.681 172.762 132.867" fill="none" stroke="black" stroke-width="1.8" /><path d="M 195.757 227.915 C 195.721 227.894 195.675 227.862 195.620 227.819" fill="none" stroke="black" stroke-width="1.8" /><path d="M 195.620 227.819 C 195.569 227.779 195.557 227.766 195.574 227.774" fill="none" stroke="black" stroke-width="1.8" /><path d="M 197.164 228.853 C 197.210 228.890 197.201 228.890 197.111 228.836" fill="none" stroke="black" stroke-width="1.8" /><path d="M 197.111 228.836 C 197.024 228.783 196.998 228.763 197.021 228.767" fill="none" stroke="black" stroke-width="1.8" /><path d="M 200.093 230.301 C 200.142 230.334 200.107 230.326 199.957 230.263" fill="none" stroke="black" stroke-width="1.8" /><path d="M 199.957 230.263 C 199.810 230.200 199.795 230.187 199.875 230.209" fill="none" stroke="black" stroke-width="1.8" /><path d="M 203.620 231.561 C 203.738 231.611 203.722 231.614 203.508 231.548" fill="none" stroke="black" stroke-width="1.8" /><path d="M 203.508 231.548 C 203.280 231.477 203.428 231.514 203.752 231.601" fill="none" stroke="black" stroke-width="1.8" /><path d="M 205.961 232.218 C 206.339 232.327 206.520 232.383 206.245 232.314" fill="none" stroke="black" stroke-width="1.8" /><path d="M 206.245 232.314 C 205.765 232.193 208.220 232.781 207.718 232.667" fill="none" stroke="black" stroke-width="1.8" /><path d="M 207.718 232.667 C 207.444 232.604 207.334 232.570 207.357 232.560" fill="none" stroke="black" stroke-width="1.8" /><path d="M 218.388 234.345 C 218.416 234.366 218.256 234.359 217.861 234.316" fill="none" stroke="black" stroke-width="1.8" /><path d="M 217.861 234.316 C 217.466 234.272 217.464 234.262 217.728 234.274" fill="none" stroke="black" stroke-width="1.8" /><path d="M 225.797 234.904 C 226.096 234.937 226.093 234.947 225.634 234.925" fill="none" stroke="black" stroke-width="1.8" /><path d="M 225.634 234.925 C 225.158 234.901 225.366 234.900 225.935 234.911" fill="none" stroke="black" stroke-width="1.8" /><path d="M 231.514 235.073 C 232.115 235.096 232.338 235.110 231.828 235.105" fill="none" stroke="black" stroke-width="1.8" /><path d="M 231.828 235.105 C 230.427 235.092 237.494 235.069 236.070 235.091" fill="none" stroke="black" stroke-width="1.8" /><path d="M 236.070 235.091 C 235.570 235.099 235.425 235.090 235.550 235.070" fill="none" stroke="black" stroke-width="1.8" /><path d="M 249.483 234.334 C 249.612 234.341 249.466 234.365 248.962 234.411" fill="none" stroke="black" stroke-width="1.8" /><path d="M 248.962 234.411 C 248.250 234.474 251.796 234.135 251.090 234.207" fill="none" stroke="black" stroke-width="1.8" /><path d="M 251.090 234.207 C 250.562 234.261 250.815 234.223 251.461 234.140" fill="none" stroke="black" stroke-width="1.8" /><path d="M 256.987 233.472 C 257.611 233.401 257.855 233.379 257.353 233.450" fill="none" stroke="black" stroke-width="1.8" /><path d="M 257.353 233.450 C 256.853 233.520 257.074 233.477 257.666 233.377" fill="none" stroke="black" stroke-width="1.8" /><path d="M 263.050 232.513 C 263.608 232.428 263.816 232.403 263.355 232.486" fill="none" stroke="black" stroke-width="1.8" /><path d="M 263.355 232.486 C 262.913 232.566 262.758 232.584 262.825 232.553" fill="none" stroke="black" stroke-width="1.8" /><path d="M 274.574 229.888 C 274.635 229.889 274.519 229.931 274.182 230.026" fill="none" stroke="black" stroke-width="1.8" /><path d="M 274.182 230.026 C 273.840 230.122 273.801 230.122 273.971 230.058" fill="none" stroke="black" stroke-width="1.8" /><path d="M 280.417 227.989 C 280.555 227.953 280.528 227.973 280.269 228.068" fill="none" stroke="black" stroke-width="1.8" /><path d="M 280.269 228.068 C 280.008 228.165 279.951 228.176 280.042 228.127" fill="none" stroke="black" stroke-width="1.8" /><path d="M 285.426 225.836 C 285.492 225.817 285.454 225.844 285.278 225.932" fill="none" stroke="black" stroke-width="1.8" /><path d="M 285.278 225.932 C 285.098 226.022 284.992 226.066 284.949 226.071" fill="none" stroke="black" stroke-width="1.8" /><path d="M 290.692 222.411 C 290.674 222.437 290.634 222.478 290.569 222.535" fill="none" stroke="black" stroke-width="1.8" /><path d="M 290.569 222.535 C 290.501 222.595 290.470 222.617 290.467 222.610" fill="none" stroke="black" stroke-width="1.8" /><path d="M 292.208 220.752 C 292.201 220.764 292.188 220.783 292.170 220.809" fill="none" stroke="black" stroke-width="1.8" /><path d="M 292.170 220.809 C 292.148 220.839 292.129 220.863 292.112 220.882" fill="none" stroke="black" stroke-width="1.8" /></svg>