
> hlr-svg@0.1.0 demo /Users/jiwon/Workspace/jiwonme/hlr-svg
> node dist/demo/main.js

<svg xmlns="http://www.w3.org/2000/svg" width="700" height="520" viewBox="0 0 700 520"><rect width="100%" height="100%" fill="white" /><path d="M 315.217 337.827 C 298.251 330.258 283.630 317.116 274.386 299.356" fill="none" stroke="black" stroke-width="1.8" stroke-dasharray="4 4" /><path d="M 274.386 299.356 C 265.555 282.390 262.992 263.821 265.861 246.294" fill="none" stroke="black" stroke-width="1.8" stroke-dasharray="4 4" /><path d="M 427.330 224.129 C 434.856 240.320 436.860 257.777 434.043 274.281" fill="none" stroke="black" stroke-width="1.8" stroke-dasharray="4 4" /><path d="M 287.208 243.473 C 256.518 256.054 256.231 276.682 294.196 289.046" fill="none" stroke="black" stroke-width="1.8" stroke-dasharray="4 4" /><path d="M 294.196 289.046 C 300.266 291.022 306.900 292.630 313.916 293.864" fill="none" stroke="black" stroke-width="1.8" stroke-dasharray="4 4" /><path d="M 433.597 270.945 C 440.372 257.638 423.661 244.246 393.195 237.518" fill="none" stroke="black" stroke-width="1.8" stroke-dasharray="4 4" /><path d="M 393.195 237.518 C 359.238 230.018 314.179 232.417 287.208 243.473" fill="none" stroke="black" stroke-width="1.8" stroke-dasharray="4 4" /><path d="M 297.062 254.898 C 294.722 266.289 293.687 277.880 294.196 289.046" fill="none" stroke="black" stroke-width="1.8" stroke-dasharray="4 4" /><path d="M 294.196 289.046 C 295.317 313.655 303.593 330.418 315.207 337.491" fill="none" stroke="black" stroke-width="1.8" stroke-dasharray="4 4" /><path d="M 320.016 339.796 C 328.998 343.013 339.406 341.035 350.000 333.485" fill="none" stroke="black" stroke-width="1.8" stroke-dasharray="4 4" /><path d="M 350.000 333.485 C 373.745 316.561 391.916 275.292 393.195 237.518" fill="none" stroke="black" stroke-width="1.8" stroke-dasharray="4 4" /><path d="M 393.195 237.518 C 394.311 204.540 382.648 179.656 363.840 175.888" fill="none" stroke="black" stroke-width="1.8" stroke-dasharray="4 4" /><path d="M 296.318 286.829 C 295.071 258.330 293.765 228.476 292.394 197.167" fill="none" stroke="black" stroke-width="1.8" stroke-dasharray="4 4" /><path d="M 201.711 295.430 C 199.294 275.576 196.797 255.065 194.216 233.863" fill="none" stroke="black" stroke-width="1.8" stroke-dasharray="4 4" /><path d="M 603.784 220.108 C 604.949 218.474 606.119 216.833 607.294 215.184" fill="none" stroke="black" stroke-width="1.8" stroke-dasharray="4 4" /><path d="M 482.886 329.831 C 465.668 281.358 447.110 229.115 427.052 172.645" fill="none" stroke="black" stroke-width="1.8" stroke-dasharray="4 4" /><path d="M 219.742 348.472 C 249.075 361.946 281.293 376.746 316.843 393.077" fill="none" stroke="black" stroke-width="1.8" stroke-dasharray="4 4" /><path d="M 219.742 348.472 C 215.605 311.467 211.196 272.034 206.488 229.927" fill="none" stroke="black" stroke-width="1.8" stroke-dasharray="4 4" /><path d="M 219.742 348.472 C 185.298 367.789 145.892 389.889 100.368 415.420" fill="none" stroke="black" stroke-width="1.8" stroke-dasharray="4 4" /><path d="M 218.532 278.259 C 198.813 286.597 195.416 299.282 213.269 306.354" fill="none" stroke="black" stroke-width="1.8" stroke-dasharray="4 4" /><path d="M 213.269 306.354 C 232.213 313.859 265.148 311.338 284.231 301.112" fill="none" stroke="black" stroke-width="1.8" stroke-dasharray="4 4" /><path d="M 284.231 301.112 C 301.816 291.689 299.618 279.780 281.423 274.139" fill="none" stroke="black" stroke-width="1.8" stroke-dasharray="4 4" /><path d="M 281.423 274.139 C 264.142 268.782 236.844 270.516 218.532 278.259" fill="none" stroke="black" stroke-width="1.8" stroke-dasharray="4 4" /><path d="M 192.310 191.283 C 191.239 191.542 190.185 191.866 189.151 192.253" fill="none" stroke="black" stroke-width="1.8" stroke-dasharray="4 4" /><path d="M 168.183 242.226 C 173.432 256.455 186.811 263.226 200.294 258.228" fill="none" stroke="black" stroke-width="1.8" stroke-dasharray="4 4" /><path d="M 200.294 258.228 C 215.085 252.745 225.140 234.739 223.439 217.321" fill="none" stroke="black" stroke-width="1.8" stroke-dasharray="4 4" /><path d="M 223.439 217.321 C 221.691 199.422 208.100 187.474 192.310 191.283" fill="none" stroke="black" stroke-width="1.8" stroke-dasharray="4 4" /><path d="M 302.182 215.205 C 286.280 220.905 273.652 245.007 275.028 267.873" fill="none" stroke="black" stroke-width="1.8" stroke-dasharray="4 4" /><path d="M 275.028 267.873 C 276.355 289.929 290.194 300.317 305.021 292.292" fill="none" stroke="black" stroke-width="1.8" stroke-dasharray="4 4" /><path d="M 305.021 292.292 C 318.886 284.787 329.221 263.387 328.891 243.507" fill="none" stroke="black" stroke-width="1.8" stroke-dasharray="4 4" /><path d="M 328.891 243.507 C 328.550 222.984 316.989 209.896 302.182 215.205" fill="none" stroke="black" stroke-width="1.8" stroke-dasharray="4 4" /><path d="M 436.443 163.562 C 413.562 171.494 432.107 184.770 487.128 192.895" fill="none" stroke="black" stroke-width="1.8" stroke-dasharray="4 4" /><path d="M 487.128 192.895 C 488.958 193.165 490.802 193.425 492.658 193.675" fill="none" stroke="black" stroke-width="1.8" stroke-dasharray="4 4" /><path d="M 460.429 158.855 C 450.746 159.917 442.449 161.481 436.443 163.562" fill="none" stroke="black" stroke-width="1.8" stroke-dasharray="4 4" /><path d="M 606.945 213.690 C 603.293 204.719 573.219 189.773 534.644 177.135" fill="none" stroke="black" stroke-width="1.8" stroke-dasharray="4 4" /><path d="M 534.644 177.135 C 515.259 170.783 495.768 165.648 478.680 162.135" fill="none" stroke="black" stroke-width="1.8" stroke-dasharray="4 4" /><path d="M 301.287 215.010 C 300.833 215.131 300.378 215.252 299.923 215.373" fill="none" stroke="black" stroke-width="1.8" stroke-dasharray="4 4" /><path d="M 299.923 215.373 C 299.472 215.516 299.021 215.659 298.569 215.803" fill="none" stroke="black" stroke-width="1.8" stroke-dasharray="4 4" /><path d="M 298.569 215.803 C 298.123 215.968 297.676 216.133 297.228 216.299" fill="none" stroke="black" stroke-width="1.8" stroke-dasharray="4 4" /><path d="M 297.228 216.299 C 296.787 216.487 296.345 216.674 295.903 216.862" fill="none" stroke="black" stroke-width="1.8" stroke-dasharray="4 4" /><path d="M 295.903 216.862 C 295.467 217.071 295.031 217.281 294.595 217.490" fill="none" stroke="black" stroke-width="1.8" stroke-dasharray="4 4" /><path d="M 294.595 217.490 C 294.166 217.721 293.736 217.952 293.306 218.184" fill="none" stroke="black" stroke-width="1.8" stroke-dasharray="4 4" /><path d="M 293.306 218.184 C 292.884 218.436 292.462 218.688 292.039 218.941" fill="none" stroke="black" stroke-width="1.8" stroke-dasharray="4 4" /><path d="M 292.039 218.941 C 291.626 219.214 291.211 219.488 290.796 219.762" fill="none" stroke="black" stroke-width="1.8" stroke-dasharray="4 4" /><path d="M 290.796 219.762 C 290.391 220.056 289.986 220.350 289.580 220.645" fill="none" stroke="black" stroke-width="1.8" stroke-dasharray="4 4" /><path d="M 289.580 220.645 C 289.184 220.959 288.787 221.273 288.391 221.588" fill="none" stroke="black" stroke-width="1.8" stroke-dasharray="4 4" /><path d="M 288.391 221.588 C 288.005 221.922 287.619 222.256 287.232 222.591" fill="none" stroke="black" stroke-width="1.8" stroke-dasharray="4 4" /><path d="M 287.232 222.591 C 286.857 222.944 286.481 223.298 286.106 223.652" fill="none" stroke="black" stroke-width="1.8" stroke-dasharray="4 4" /><path d="M 286.106 223.652 C 285.742 224.024 285.378 224.396 285.014 224.769" fill="none" stroke="black" stroke-width="1.8" stroke-dasharray="4 4" /><path d="M 285.014 224.769 C 284.662 225.160 284.310 225.550 283.958 225.941" fill="none" stroke="black" stroke-width="1.8" stroke-dasharray="4 4" /><path d="M 283.958 225.941 C 283.619 226.349 283.280 226.758 282.940 227.166" fill="none" stroke="black" stroke-width="1.8" stroke-dasharray="4 4" /><path d="M 282.940 227.166 C 282.615 227.591 282.289 228.016 281.963 228.442" fill="none" stroke="black" stroke-width="1.8" stroke-dasharray="4 4" /><path d="M 281.963 228.442 C 281.651 228.883 281.339 229.325 281.027 229.767" fill="none" stroke="black" stroke-width="1.8" stroke-dasharray="4 4" /><path d="M 281.027 229.767 C 280.730 230.223 280.433 230.680 280.136 231.138" fill="none" stroke="black" stroke-width="1.8" stroke-dasharray="4 4" /><path d="M 280.136 231.138 C 279.854 231.609 279.572 232.081 279.289 232.553" fill="none" stroke="black" stroke-width="1.8" stroke-dasharray="4 4" /><path d="M 279.289 232.553 C 279.023 233.039 278.757 233.524 278.490 234.010" fill="none" stroke="black" stroke-width="1.8" stroke-dasharray="4 4" /><path d="M 278.490 234.010 C 278.240 234.509 277.990 235.008 277.740 235.507" fill="none" stroke="black" stroke-width="1.8" stroke-dasharray="4 4" /><path d="M 277.740 235.507 C 277.507 236.018 277.273 236.529 277.040 237.041" fill="none" stroke="black" stroke-width="1.8" stroke-dasharray="4 4" /><path d="M 277.040 237.041 C 276.824 237.563 276.608 238.085 276.391 238.608" fill="none" stroke="black" stroke-width="1.8" stroke-dasharray="4 4" /><path d="M 276.391 238.608 C 276.193 239.141 275.995 239.674 275.796 240.207" fill="none" stroke="black" stroke-width="1.8" stroke-dasharray="4 4" /><path d="M 275.796 240.207 C 275.616 240.749 275.435 241.292 275.255 241.834" fill="none" stroke="black" stroke-width="1.8" stroke-dasharray="4 4" /><path d="M 275.255 241.834 C 275.093 242.385 274.931 242.936 274.768 243.487" fill="none" stroke="black" stroke-width="1.8" stroke-dasharray="4 4" /><path d="M 274.768 243.487 C 274.625 244.046 274.482 244.604 274.339 245.163" fill="none" stroke="black" stroke-width="1.8" stroke-dasharray="4 4" /><path d="M 274.339 245.163 C 274.214 245.728 274.090 246.293 273.966 246.858" fill="none" stroke="black" stroke-width="1.8" stroke-dasharray="4 4" /><path d="M 273.966 246.858 C 273.861 247.429 273.756 247.999 273.652 248.570" fill="none" stroke="black" stroke-width="1.8" stroke-dasharray="4 4" /><path d="M 273.652 248.570 C 273.566 249.145 273.481 249.720 273.396 250.295" fill="none" stroke="black" stroke-width="1.8" stroke-dasharray="4 4" /><path d="M 273.396 250.295 C 273.330 250.874 273.265 251.453 273.199 252.031" fill="none" stroke="black" stroke-width="1.8" stroke-dasharray="4 4" /><path d="M 273.199 252.031 C 273.154 252.612 273.108 253.193 273.062 253.774" fill="none" stroke="black" stroke-width="1.8" stroke-dasharray="4 4" /><path d="M 273.062 253.774 C 273.037 254.356 273.011 254.939 272.986 255.521" fill="none" stroke="black" stroke-width="1.8" stroke-dasharray="4 4" /><path d="M 272.986 255.521 C 272.980 256.104 272.975 256.687 272.970 257.269" fill="none" stroke="black" stroke-width="1.8" stroke-dasharray="4 4" /><path d="M 272.970 257.269 C 272.984 257.851 272.999 258.433 273.014 259.015" fill="none" stroke="black" stroke-width="1.8" stroke-dasharray="4 4" /><path d="M 273.014 259.015 C 273.049 259.595 273.084 260.175 273.119 260.755" fill="none" stroke="black" stroke-width="1.8" stroke-dasharray="4 4" /><path d="M 273.119 260.755 C 273.174 261.333 273.229 261.910 273.284 262.487" fill="none" stroke="black" stroke-width="1.8" stroke-dasharray="4 4" /><path d="M 273.284 262.487 C 273.359 263.061 273.434 263.635 273.509 264.208" fill="none" stroke="black" stroke-width="1.8" stroke-dasharray="4 4" /><path d="M 273.509 264.208 C 273.604 264.777 273.699 265.346 273.794 265.914" fill="none" stroke="black" stroke-width="1.8" stroke-dasharray="4 4" /><path d="M 273.794 265.914 C 273.909 266.477 274.024 267.040 274.139 267.603" fill="none" stroke="black" stroke-width="1.8" stroke-dasharray="4 4" /><path d="M 274.139 267.603 C 274.273 268.159 274.407 268.715 274.542 269.271" fill="none" stroke="black" stroke-width="1.8" stroke-dasharray="4 4" /><path d="M 274.542 269.271 C 274.695 269.820 274.849 270.368 275.003 270.916" fill="none" stroke="black" stroke-width="1.8" stroke-dasharray="4 4" /><path d="M 275.003 270.916 C 275.176 271.456 275.349 271.995 275.521 272.535" fill="none" stroke="black" stroke-width="1.8" stroke-dasharray="4 4" /><path d="M 305.427 214.325 C 304.966 214.378 304.504 214.432 304.042 214.486" fill="none" stroke="black" stroke-width="1.8" stroke-dasharray="4 4" /><path d="M 304.042 214.486 C 303.582 214.562 303.122 214.638 302.661 214.714" fill="none" stroke="black" stroke-width="1.8" stroke-dasharray="4 4" /><path d="M 302.661 214.714 C 303.586 214.584 304.508 214.454 305.427 214.325" fill="none" stroke="black" stroke-width="1.8" stroke-dasharray="4 4" /><path d="M 216.977 263.654 C 216.527 263.823 216.075 263.992 215.623 264.161" fill="none" stroke="black" stroke-width="1.8" stroke-dasharray="4 4" /><path d="M 215.623 264.161 C 215.182 264.309 214.742 264.456 214.300 264.604" fill="none" stroke="black" stroke-width="1.8" stroke-dasharray="4 4" /><path d="M 214.300 264.604 C 213.871 264.729 213.441 264.855 213.011 264.980" fill="none" stroke="black" stroke-width="1.8" stroke-dasharray="4 4" /><path d="M 213.011 264.980 C 212.594 265.083 212.176 265.186 211.758 265.289" fill="none" stroke="black" stroke-width="1.8" stroke-dasharray="4 4" /><path d="M 211.758 265.289 C 211.353 265.369 210.948 265.449 210.542 265.529" fill="none" stroke="black" stroke-width="1.8" stroke-dasharray="4 4" /><path d="M 210.542 265.529 C 210.150 265.585 209.758 265.641 209.365 265.697" fill="none" stroke="black" stroke-width="1.8" stroke-dasharray="4 4" /><path d="M 209.365 265.697 C 208.987 265.728 208.608 265.759 208.228 265.790" fill="none" stroke="black" stroke-width="1.8" stroke-dasharray="4 4" /><path d="M 208.228 265.790 C 207.864 265.796 207.499 265.801 207.134 265.807" fill="none" stroke="black" stroke-width="1.8" stroke-dasharray="4 4" /><path d="M 207.134 265.807 C 206.785 265.786 206.434 265.765 206.083 265.743" fill="none" stroke="black" stroke-width="1.8" stroke-dasharray="4 4" /><path d="M 206.083 265.743 C 205.749 265.694 205.414 265.645 205.078 265.595" fill="none" stroke="black" stroke-width="1.8" stroke-dasharray="4 4" /><path d="M 205.078 265.595 C 204.759 265.517 204.439 265.438 204.119 265.359" fill="none" stroke="black" stroke-width="1.8" stroke-dasharray="4 4" /><path d="M 204.119 265.359 C 203.816 265.248 203.512 265.138 203.208 265.027" fill="none" stroke="black" stroke-width="1.8" stroke-dasharray="4 4" /><path d="M 203.208 265.027 C 202.921 264.883 202.633 264.739 202.345 264.594" fill="none" stroke="black" stroke-width="1.8" stroke-dasharray="4 4" /><path d="M 202.345 264.594 C 202.075 264.414 201.804 264.233 201.532 264.051" fill="none" stroke="black" stroke-width="1.8" stroke-dasharray="4 4" /><path d="M 201.532 264.051 C 201.278 263.830 201.024 263.609 200.768 263.386" fill="none" stroke="black" stroke-width="1.8" stroke-dasharray="4 4" /><path d="M 200.768 263.386 C 200.531 263.120 200.293 262.853 200.055 262.585" fill="none" stroke="black" stroke-width="1.8" stroke-dasharray="4 4" /><path d="M 200.055 262.585 C 199.834 262.266 199.612 261.947 199.390 261.626" fill="none" stroke="black" stroke-width="1.8" stroke-dasharray="4 4" /><path d="M 199.390 261.626 C 199.185 261.245 198.979 260.863 198.772 260.479" fill="none" stroke="black" stroke-width="1.8" stroke-dasharray="4 4" /><path d="M 198.772 260.479 C 198.581 260.020 198.390 259.559 198.197 259.097" fill="none" stroke="black" stroke-width="1.8" stroke-dasharray="4 4" /><path d="M 198.197 259.097 C 198.018 258.533 197.838 257.967 197.657 257.399" fill="none" stroke="black" stroke-width="1.8" stroke-dasharray="4 4" /><path d="M 197.657 257.399 C 197.483 256.678 197.309 255.955 197.134 255.228" fill="none" stroke="black" stroke-width="1.8" stroke-dasharray="4 4" /><path d="M 197.134 255.228 C 196.949 254.215 196.765 253.197 196.579 252.175" fill="none" stroke="black" stroke-width="1.8" stroke-dasharray="4 4" /><path d="M 196.579 252.175 C 196.249 249.750 195.916 247.309 195.582 244.852" fill="none" stroke="black" stroke-width="1.8" stroke-dasharray="4 4" /><path d="M 238.098 257.844 C 239.050 260.658 239.997 263.459 240.940 266.248" fill="none" stroke="black" stroke-width="1.8" stroke-dasharray="4 4" /><path d="M 240.940 266.248 C 241.754 267.541 242.566 268.831 243.376 270.118" fill="none" stroke="black" stroke-width="1.8" stroke-dasharray="4 4" /><path d="M 243.376 270.118 C 244.161 271.093 244.944 272.066 245.725 273.036" fill="none" stroke="black" stroke-width="1.8" stroke-dasharray="4 4" /><path d="M 245.725 273.036 C 246.492 273.836 247.258 274.634 248.023 275.431" fill="none" stroke="black" stroke-width="1.8" stroke-dasharray="4 4" /><path d="M 248.023 275.431 C 248.776 276.111 249.529 276.789 250.280 277.466" fill="none" stroke="black" stroke-width="1.8" stroke-dasharray="4 4" /><path d="M 250.280 277.466 C 251.022 278.054 251.762 278.640 252.502 279.225" fill="none" stroke="black" stroke-width="1.8" stroke-dasharray="4 4" /><path d="M 252.502 279.225 C 253.232 279.736 253.961 280.246 254.688 280.755" fill="none" stroke="black" stroke-width="1.8" stroke-dasharray="4 4" /><path d="M 254.688 280.755 C 255.407 281.200 256.124 281.644 256.839 282.087" fill="none" stroke="black" stroke-width="1.8" stroke-dasharray="4 4" /><path d="M 256.839 282.087 C 257.545 282.472 258.250 282.857 258.954 283.241" fill="none" stroke="black" stroke-width="1.8" stroke-dasharray="4 4" /><path d="M 258.954 283.241 C 259.646 283.572 260.338 283.902 261.029 284.232" fill="none" stroke="black" stroke-width="1.8" stroke-dasharray="4 4" /><path d="M 261.029 284.232 C 261.708 284.512 262.386 284.791 263.062 285.071" fill="none" stroke="black" stroke-width="1.8" stroke-dasharray="4 4" /><path d="M 263.062 285.071 C 263.727 285.303 264.390 285.534 265.052 285.766" fill="none" stroke="black" stroke-width="1.8" stroke-dasharray="4 4" /><path d="M 265.052 285.766 C 265.701 285.952 266.349 286.138 266.996 286.324" fill="none" stroke="black" stroke-width="1.8" stroke-dasharray="4 4" /><path d="M 266.996 286.324 C 267.629 286.466 268.260 286.608 268.891 286.750" fill="none" stroke="black" stroke-width="1.8" stroke-dasharray="4 4" /><path d="M 268.891 286.750 C 269.506 286.850 270.121 286.950 270.734 287.049" fill="none" stroke="black" stroke-width="1.8" stroke-dasharray="4 4" /><path d="M 270.734 287.049 C 271.332 287.108 271.929 287.166 272.524 287.225" fill="none" stroke="black" stroke-width="1.8" stroke-dasharray="4 4" /><path d="M 272.524 287.225 C 273.103 287.244 273.682 287.262 274.258 287.281" fill="none" stroke="black" stroke-width="1.8" stroke-dasharray="4 4" /><path d="M 274.258 287.281 C 274.818 287.260 275.377 287.240 275.934 287.220" fill="none" stroke="black" stroke-width="1.8" stroke-dasharray="4 4" /><path d="M 275.934 287.220 C 276.474 287.161 277.013 287.103 277.550 287.044" fill="none" stroke="black" stroke-width="1.8" stroke-dasharray="4 4" /><path d="M 277.550 287.044 C 278.069 286.948 278.587 286.853 279.103 286.757" fill="none" stroke="black" stroke-width="1.8" stroke-dasharray="4 4" /><path d="M 279.103 286.757 C 279.601 286.625 280.097 286.493 280.592 286.361" fill="none" stroke="black" stroke-width="1.8" stroke-dasharray="4 4" /><path d="M 280.592 286.361 C 281.068 286.193 281.542 286.025 282.015 285.858" fill="none" stroke="black" stroke-width="1.8" stroke-dasharray="4 4" /><path d="M 282.015 285.858 C 282.468 285.655 282.920 285.452 283.371 285.250" fill="none" stroke="black" stroke-width="1.8" stroke-dasharray="4 4" /><path d="M 283.371 285.250 C 283.800 285.012 284.229 284.775 284.657 284.539" fill="none" stroke="black" stroke-width="1.8" stroke-dasharray="4 4" /><path d="M 284.657 284.539 C 285.063 284.268 285.468 283.997 285.872 283.727" fill="none" stroke="black" stroke-width="1.8" stroke-dasharray="4 4" /><path d="M 285.872 283.727 C 286.254 283.423 286.636 283.119 287.016 282.816" fill="none" stroke="black" stroke-width="1.8" stroke-dasharray="4 4" /><path d="M 287.016 282.816 C 287.374 282.479 287.731 282.143 288.087 281.807" fill="none" stroke="black" stroke-width="1.8" stroke-dasharray="4 4" /><path d="M 288.087 281.807 C 288.420 281.438 288.752 281.070 289.083 280.702" fill="none" stroke="black" stroke-width="1.8" stroke-dasharray="4 4" /><path d="M 289.083 280.702 C 289.391 280.301 289.698 279.901 290.005 279.502" fill="none" stroke="black" stroke-width="1.8" stroke-dasharray="4 4" /><path d="M 290.005 279.502 C 290.287 279.070 290.569 278.639 290.851 278.208" fill="none" stroke="black" stroke-width="1.8" stroke-dasharray="4 4" /><path d="M 290.851 278.208 C 291.108 277.745 291.364 277.283 291.620 276.821" fill="none" stroke="black" stroke-width="1.8" stroke-dasharray="4 4" /><path d="M 291.620 276.821 C 291.851 276.327 292.082 275.834 292.312 275.341" fill="none" stroke="black" stroke-width="1.8" stroke-dasharray="4 4" /><path d="M 292.312 275.341 C 292.518 274.816 292.722 274.291 292.927 273.767" fill="none" stroke="black" stroke-width="1.8" stroke-dasharray="4 4" /><path d="M 292.927 273.767 C 293.106 273.211 293.285 272.655 293.464 272.100" fill="none" stroke="black" stroke-width="1.8" stroke-dasharray="4 4" /><path d="M 293.464 272.100 C 293.617 271.510 293.769 270.922 293.922 270.335" fill="none" stroke="black" stroke-width="1.8" stroke-dasharray="4 4" /><path d="M 293.922 270.335 C 294.049 269.713 294.175 269.092 294.302 268.472" fill="none" stroke="black" stroke-width="1.8" stroke-dasharray="4 4" /><path d="M 294.302 268.472 C 294.402 267.815 294.502 267.159 294.602 266.504" fill="none" stroke="black" stroke-width="1.8" stroke-dasharray="4 4" /><path d="M 294.602 266.504 C 294.676 265.810 294.750 265.117 294.824 264.425" fill="none" stroke="black" stroke-width="1.8" stroke-dasharray="4 4" /><path d="M 294.824 264.425 C 294.872 263.690 294.919 262.957 294.966 262.224" fill="none" stroke="black" stroke-width="1.8" stroke-dasharray="4 4" /><path d="M 294.966 262.224 C 294.987 261.443 295.008 260.663 295.028 259.884" fill="none" stroke="black" stroke-width="1.8" stroke-dasharray="4 4" /><path d="M 295.028 259.884 C 295.022 259.048 295.016 258.214 295.009 257.380" fill="none" stroke="black" stroke-width="1.8" stroke-dasharray="4 4" /><path d="M 295.009 257.380 C 294.976 256.477 294.942 255.574 294.908 254.672" fill="none" stroke="black" stroke-width="1.8" stroke-dasharray="4 4" /><path d="M 294.908 254.672 C 294.846 253.676 294.784 252.680 294.722 251.686" fill="none" stroke="black" stroke-width="1.8" stroke-dasharray="4 4" /><path d="M 294.722 251.686 C 294.630 250.549 294.537 249.413 294.445 248.277" fill="none" stroke="black" stroke-width="1.8" stroke-dasharray="4 4" /><path d="M 294.445 248.277 C 294.316 246.871 294.188 245.466 294.060 244.061" fill="none" stroke="black" stroke-width="1.8" stroke-dasharray="4 4" /><path d="M 294.060 244.061 C 293.848 241.315 293.636 238.564 293.424 235.809" fill="none" stroke="black" stroke-width="1.8" stroke-dasharray="4 4" /><path d="M 252.119 225.486 C 251.720 227.927 251.322 230.359 250.925 232.782" fill="none" stroke="black" stroke-width="1.8" stroke-dasharray="4 4" /><path d="M 250.925 232.782 C 250.430 233.939 249.935 235.093 249.440 236.246" fill="none" stroke="black" stroke-width="1.8" stroke-dasharray="4 4" /><path d="M 249.440 236.246 C 248.925 237.146 248.411 238.046 247.897 238.945" fill="none" stroke="black" stroke-width="1.8" stroke-dasharray="4 4" /><path d="M 247.897 238.945 C 247.372 239.713 246.847 240.481 246.323 241.248" fill="none" stroke="black" stroke-width="1.8" stroke-dasharray="4 4" /><path d="M 246.323 241.248 C 245.792 241.932 245.261 242.614 244.731 243.297" fill="none" stroke="black" stroke-width="1.8" stroke-dasharray="4 4" /><path d="M 244.731 243.297 C 244.196 243.919 243.662 244.540 243.127 245.161" fill="none" stroke="black" stroke-width="1.8" stroke-dasharray="4 4" /><path d="M 243.127 245.161 C 242.591 245.735 242.054 246.309 241.518 246.882" fill="none" stroke="black" stroke-width="1.8" stroke-dasharray="4 4" /><path d="M 241.518 246.882 C 240.980 247.417 240.442 247.951 239.905 248.486" fill="none" stroke="black" stroke-width="1.8" stroke-dasharray="4 4" /><path d="M 239.905 248.486 C 239.368 248.987 238.830 249.488 238.292 249.989" fill="none" stroke="black" stroke-width="1.8" stroke-dasharray="4 4" /><path d="M 238.292 249.989 C 237.756 250.460 237.220 250.932 236.683 251.404" fill="none" stroke="black" stroke-width="1.8" stroke-dasharray="4 4" /><path d="M 236.683 251.404 C 236.148 251.848 235.613 252.293 235.078 252.738" fill="none" stroke="black" stroke-width="1.8" stroke-dasharray="4 4" /><path d="M 235.078 252.738 C 234.546 253.158 234.014 253.578 233.481 253.999" fill="none" stroke="black" stroke-width="1.8" stroke-dasharray="4 4" /><path d="M 233.481 253.999 C 232.953 254.395 232.423 254.792 231.894 255.190" fill="none" stroke="black" stroke-width="1.8" stroke-dasharray="4 4" /><path d="M 231.894 255.190 C 231.369 255.564 230.844 255.939 230.318 256.314" fill="none" stroke="black" stroke-width="1.8" stroke-dasharray="4 4" /><path d="M 230.318 256.314 C 229.798 256.668 229.277 257.021 228.756 257.375" fill="none" stroke="black" stroke-width="1.8" stroke-dasharray="4 4" /><path d="M 228.756 257.375 C 228.241 257.708 227.726 258.040 227.210 258.373" fill="none" stroke="black" stroke-width="1.8" stroke-dasharray="4 4" /><path d="M 227.210 258.373 C 226.700 258.685 226.191 258.998 225.680 259.310" fill="none" stroke="black" stroke-width="1.8" stroke-dasharray="4 4" /><path d="M 225.680 259.310 C 225.178 259.602 224.675 259.894 224.171 260.187" fill="none" stroke="black" stroke-width="1.8" stroke-dasharray="4 4" /><path d="M 224.171 260.187 C 223.675 260.458 223.179 260.730 222.682 261.002" fill="none" stroke="black" stroke-width="1.8" stroke-dasharray="4 4" /><path d="M 222.682 261.002 C 222.194 261.254 221.706 261.505 221.217 261.757" fill="none" stroke="black" stroke-width="1.8" stroke-dasharray="4 4" /><path d="M 221.217 261.757 C 220.737 261.988 220.257 262.220 219.776 262.451" fill="none" stroke="black" stroke-width="1.8" stroke-dasharray="4 4" /><path d="M 219.776 262.451 C 219.306 262.662 218.835 262.873 218.363 263.084" fill="none" stroke="black" stroke-width="1.8" stroke-dasharray="4 4" /><path d="M 209.678 195.064 C 209.198 195.207 208.718 195.349 208.237 195.492" fill="none" stroke="black" stroke-width="1.8" stroke-dasharray="4 4" /><path d="M 208.237 195.492 C 207.775 195.669 207.312 195.846 206.848 196.023" fill="none" stroke="black" stroke-width="1.8" stroke-dasharray="4 4" /><path d="M 206.848 196.023 C 206.405 196.234 205.960 196.446 205.515 196.658" fill="none" stroke="black" stroke-width="1.8" stroke-dasharray="4 4" /><path d="M 205.515 196.658 C 205.090 196.903 204.665 197.150 204.239 197.397" fill="none" stroke="black" stroke-width="1.8" stroke-dasharray="4 4" /><path d="M 204.239 197.397 C 203.834 197.677 203.429 197.959 203.023 198.241" fill="none" stroke="black" stroke-width="1.8" stroke-dasharray="4 4" /><path d="M 203.023 198.241 C 202.639 198.557 202.255 198.874 201.869 199.191" fill="none" stroke="black" stroke-width="1.8" stroke-dasharray="4 4" /><path d="M 201.869 199.191 C 201.507 199.543 201.145 199.895 200.781 200.248" fill="none" stroke="black" stroke-width="1.8" stroke-dasharray="4 4" /><path d="M 200.781 200.248 C 200.442 200.636 200.102 201.025 199.761 201.414" fill="none" stroke="black" stroke-width="1.8" stroke-dasharray="4 4" /><path d="M 199.761 201.414 C 199.445 201.838 199.128 202.264 198.811 202.690" fill="none" stroke="black" stroke-width="1.8" stroke-dasharray="4 4" /><path d="M 198.811 202.690 C 198.519 203.152 198.227 203.614 197.934 204.078" fill="none" stroke="black" stroke-width="1.8" stroke-dasharray="4 4" /><path d="M 197.934 204.078 C 197.667 204.578 197.400 205.079 197.133 205.581" fill="none" stroke="black" stroke-width="1.8" stroke-dasharray="4 4" /><path d="M 197.133 205.581 C 196.892 206.121 196.651 206.662 196.409 207.204" fill="none" stroke="black" stroke-width="1.8" stroke-dasharray="4 4" /><path d="M 196.409 207.204 C 196.195 207.785 195.981 208.367 195.767 208.950" fill="none" stroke="black" stroke-width="1.8" stroke-dasharray="4 4" /><path d="M 195.767 208.950 C 195.581 209.574 195.394 210.200 195.208 210.826" fill="none" stroke="black" stroke-width="1.8" stroke-dasharray="4 4" /><path d="M 195.208 210.826 C 195.050 211.497 194.893 212.169 194.735 212.842" fill="none" stroke="black" stroke-width="1.8" stroke-dasharray="4 4" /><path d="M 194.735 212.842 C 194.608 213.564 194.480 214.286 194.352 215.010" fill="none" stroke="black" stroke-width="1.8" stroke-dasharray="4 4" /><path d="M 194.352 215.010 C 194.256 215.788 194.160 216.568 194.064 217.349" fill="none" stroke="black" stroke-width="1.8" stroke-dasharray="4 4" /><path d="M 194.064 217.349 C 194.000 218.193 193.937 219.039 193.873 219.886" fill="none" stroke="black" stroke-width="1.8" stroke-dasharray="4 4" /><path d="M 193.873 219.886 C 193.845 220.811 193.817 221.738 193.789 222.666" fill="none" stroke="black" stroke-width="1.8" stroke-dasharray="4 4" /><path d="M 193.789 222.666 C 193.799 223.698 193.810 224.732 193.821 225.766" fill="none" stroke="black" stroke-width="1.8" stroke-dasharray="4 4" /><path d="M 193.821 225.766 C 193.877 226.957 193.933 228.149 193.989 229.342" fill="none" stroke="black" stroke-width="1.8" stroke-dasharray="4 4" /><path d="M 193.989 229.342 C 194.107 230.828 194.226 232.314 194.344 233.800" fill="none" stroke="black" stroke-width="1.8" stroke-dasharray="4 4" /><path d="M 194.344 233.800 C 194.663 236.714 194.981 239.622 195.298 242.524" fill="none" stroke="black" stroke-width="1.8" stroke-dasharray="4 4" /><path d="M 237.878 255.377 C 238.327 252.504 238.779 249.618 239.233 246.719" fill="none" stroke="black" stroke-width="1.8" stroke-dasharray="4 4" /><path d="M 239.233 246.719 C 239.825 245.327 240.417 243.932 241.011 242.534" fill="none" stroke="black" stroke-width="1.8" stroke-dasharray="4 4" /><path d="M 241.011 242.534 C 241.590 241.518 242.169 240.501 242.748 239.482" fill="none" stroke="black" stroke-width="1.8" stroke-dasharray="4 4" /><path d="M 243.072 238.968 C 243.588 238.210 244.105 237.451 244.622 236.691" fill="none" stroke="black" stroke-width="1.8" stroke-dasharray="4 4" /><path d="M 245.042 236.115 C 245.539 235.475 246.035 234.834 246.532 234.193" fill="none" stroke="black" stroke-width="1.8" stroke-dasharray="4 4" /><path d="M 247.038 233.575 C 247.515 233.020 247.991 232.464 248.468 231.909" fill="none" stroke="black" stroke-width="1.8" stroke-dasharray="4 4" /><path d="M 249.046 231.265 C 249.504 230.774 249.962 230.284 250.421 229.793" fill="none" stroke="black" stroke-width="1.8" stroke-dasharray="4 4" /><path d="M 251.056 229.139 C 251.498 228.699 251.940 228.259 252.382 227.819" fill="none" stroke="black" stroke-width="1.8" stroke-dasharray="4 4" /><path d="M 253.061 227.167 C 253.490 226.767 253.918 226.368 254.347 225.969" fill="none" stroke="black" stroke-width="1.8" stroke-dasharray="4 4" /><path d="M 255.055 225.330 C 255.473 224.963 255.891 224.597 256.308 224.231" fill="none" stroke="black" stroke-width="1.8" stroke-dasharray="4 4" /><path d="M 257.032 223.615 C 257.442 223.275 257.852 222.936 258.261 222.597" fill="none" stroke="black" stroke-width="1.8" stroke-dasharray="4 4" /><path d="M 258.988 222.012 C 259.392 221.696 259.796 221.379 260.199 221.063" fill="none" stroke="black" stroke-width="1.8" stroke-dasharray="4 4" /><path d="M 260.917 220.515 C 261.318 220.218 261.718 219.921 262.118 219.624" fill="none" stroke="black" stroke-width="1.8" stroke-dasharray="4 4" /><path d="M 262.816 219.119 C 263.215 218.838 263.614 218.558 264.012 218.278" fill="none" stroke="black" stroke-width="1.8" stroke-dasharray="4 4" /><path d="M 264.682 217.819 C 265.080 217.554 265.478 217.289 265.876 217.024" fill="none" stroke="black" stroke-width="1.8" stroke-dasharray="4 4" /><path d="M 266.509 216.613 C 266.908 216.363 267.306 216.112 267.704 215.862" fill="none" stroke="black" stroke-width="1.8" stroke-dasharray="4 4" /><path d="M 268.296 215.500 C 268.696 215.263 269.095 215.026 269.494 214.790" fill="none" stroke="black" stroke-width="1.8" stroke-dasharray="4 4" /><path d="M 270.040 214.476 C 270.440 214.253 270.840 214.031 271.239 213.809" fill="none" stroke="black" stroke-width="1.8" stroke-dasharray="4 4" /><path d="M 271.736 213.542 C 272.137 213.334 272.537 213.126 272.937 212.919" fill="none" stroke="black" stroke-width="1.8" stroke-dasharray="4 4" /><path d="M 273.383 212.696 C 273.783 212.503 274.183 212.311 274.582 212.119" fill="none" stroke="black" stroke-width="1.8" stroke-dasharray="4 4" /><path d="M 274.977 211.937 C 275.376 211.762 275.775 211.586 276.172 211.411" fill="none" stroke="black" stroke-width="1.8" stroke-dasharray="4 4" /><path d="M 276.516 211.267 C 276.913 211.109 277.309 210.951 277.704 210.794" fill="none" stroke="black" stroke-width="1.8" stroke-dasharray="4 4" /><path d="M 277.998 210.683 C 278.391 210.544 278.783 210.406 279.174 210.268" fill="none" stroke="black" stroke-width="1.8" stroke-dasharray="4 4" /><path d="M 279.421 210.186 C 279.807 210.069 280.194 209.951 280.579 209.833" fill="none" stroke="black" stroke-width="1.8" stroke-dasharray="4 4" /><path d="M 280.781 209.777 C 281.188 209.675 281.595 209.572 282.001 209.470" fill="none" stroke="black" stroke-width="1.8" stroke-dasharray="4 4" /><path d="M 282.001 209.470 C 282.418 209.389 282.835 209.308 283.250 209.228" fill="none" stroke="black" stroke-width="1.8" stroke-dasharray="4 4" /><path d="M 283.250 209.228 C 283.645 209.177 284.038 209.126 284.431 209.076" fill="none" stroke="black" stroke-width="1.8" stroke-dasharray="4 4" /><path d="M 284.431 209.076 C 284.802 209.055 285.172 209.035 285.541 209.014" fill="none" stroke="black" stroke-width="1.8" stroke-dasharray="4 4" /><path d="M 285.541 209.014 C 285.888 209.024 286.234 209.033 286.580 209.043" fill="none" stroke="black" stroke-width="1.8" stroke-dasharray="4 4" /><path d="M 286.580 209.043 C 286.902 209.083 287.224 209.124 287.545 209.164" fill="none" stroke="black" stroke-width="1.8" stroke-dasharray="4 4" /><path d="M 287.545 209.164 C 287.843 209.235 288.140 209.306 288.436 209.377" fill="none" stroke="black" stroke-width="1.8" stroke-dasharray="4 4" /><path d="M 288.436 209.377 C 288.709 209.480 288.982 209.582 289.253 209.684" fill="none" stroke="black" stroke-width="1.8" stroke-dasharray="4 4" /><path d="M 289.253 209.684 C 289.501 209.818 289.749 209.953 289.995 210.086" fill="none" stroke="black" stroke-width="1.8" stroke-dasharray="4 4" /><path d="M 289.995 210.086 C 290.218 210.254 290.441 210.420 290.662 210.587" fill="none" stroke="black" stroke-width="1.8" stroke-dasharray="4 4" /><path d="M 290.662 210.587 C 290.860 210.788 291.057 210.988 291.254 211.188" fill="none" stroke="black" stroke-width="1.8" stroke-dasharray="4 4" /><path d="M 291.254 211.188 C 291.427 211.425 291.599 211.661 291.771 211.896" fill="none" stroke="black" stroke-width="1.8" stroke-dasharray="4 4" /><path d="M 291.771 211.896 C 291.919 212.169 292.066 212.442 292.213 212.714" fill="none" stroke="black" stroke-width="1.8" stroke-dasharray="4 4" /><path d="M 292.213 212.714 C 292.336 213.028 292.459 213.341 292.581 213.653" fill="none" stroke="black" stroke-width="1.8" stroke-dasharray="4 4" /><path d="M 292.581 213.653 C 292.680 214.011 292.779 214.368 292.877 214.724" fill="none" stroke="black" stroke-width="1.8" stroke-dasharray="4 4" /><path d="M 292.877 214.724 C 292.952 215.132 293.027 215.538 293.102 215.944" fill="none" stroke="black" stroke-width="1.8" stroke-dasharray="4 4" /><path d="M 293.102 215.944 C 293.153 216.410 293.205 216.876 293.257 217.339" fill="none" stroke="black" stroke-width="1.8" stroke-dasharray="4 4" /><path d="M 293.257 217.339 C 293.286 217.879 293.316 218.417 293.345 218.952" fill="none" stroke="black" stroke-width="1.8" stroke-dasharray="4 4" /><path d="M 293.345 218.952 C 293.354 219.589 293.363 220.224 293.372 220.857" fill="none" stroke="black" stroke-width="1.8" stroke-dasharray="4 4" /><path d="M 293.372 220.857 C 293.362 221.640 293.353 222.421 293.344 223.198" fill="none" stroke="black" stroke-width="1.8" stroke-dasharray="4 4" /><path d="M 293.344 223.198 C 293.322 224.258 293.301 225.313 293.280 226.363" fill="none" stroke="black" stroke-width="1.8" stroke-dasharray="4 4" /><path d="M 293.280 226.363 C 293.295 228.784 293.310 231.189 293.325 233.580" fill="none" stroke="black" stroke-width="1.8" stroke-dasharray="4 4" /><path d="M 251.959 223.373 C 251.186 220.939 250.410 218.495 249.630 216.042" fill="none" stroke="black" stroke-width="1.8" stroke-dasharray="4 4" /><path d="M 249.630 216.042 C 248.948 214.892 248.263 213.740 247.578 212.585" fill="none" stroke="black" stroke-width="1.8" stroke-dasharray="4 4" /><path d="M 247.578 212.585 C 246.911 211.702 246.242 210.818 245.573 209.932" fill="none" stroke="black" stroke-width="1.8" stroke-dasharray="4 4" /><path d="M 245.573 209.932 C 244.913 209.195 244.252 208.456 243.590 207.716" fill="none" stroke="black" stroke-width="1.8" stroke-dasharray="4 4" /><path d="M 243.590 207.716 C 242.935 207.077 242.280 206.437 241.623 205.796" fill="none" stroke="black" stroke-width="1.8" stroke-dasharray="4 4" /><path d="M 241.623 205.796 C 240.972 205.233 240.320 204.668 239.668 204.102" fill="none" stroke="black" stroke-width="1.8" stroke-dasharray="4 4" /><path d="M 239.668 204.102 C 239.021 203.600 238.373 203.097 237.725 202.594" fill="none" stroke="black" stroke-width="1.8" stroke-dasharray="4 4" /><path d="M 237.725 202.594 C 237.082 202.145 236.438 201.695 235.794 201.245" fill="none" stroke="black" stroke-width="1.8" stroke-dasharray="4 4" /><path d="M 235.794 201.245 C 235.156 200.844 234.517 200.442 233.877 200.040" fill="none" stroke="black" stroke-width="1.8" stroke-dasharray="4 4" /><path d="M 233.877 200.040 C 233.244 199.682 232.610 199.324 231.975 198.966" fill="none" stroke="black" stroke-width="1.8" stroke-dasharray="4 4" /><path d="M 231.975 198.966 C 231.348 198.650 230.720 198.333 230.091 198.015" fill="none" stroke="black" stroke-width="1.8" stroke-dasharray="4 4" /><path d="M 230.091 198.015 C 229.470 197.738 228.848 197.460 228.226 197.182" fill="none" stroke="black" stroke-width="1.8" stroke-dasharray="4 4" /><path d="M 228.226 197.182 C 227.612 196.942 226.998 196.702 226.382 196.462" fill="none" stroke="black" stroke-width="1.8" stroke-dasharray="4 4" /><path d="M 226.382 196.462 C 225.777 196.258 225.170 196.055 224.563 195.851" fill="none" stroke="black" stroke-width="1.8" stroke-dasharray="4 4" /><path d="M 224.563 195.851 C 223.966 195.684 223.368 195.516 222.769 195.348" fill="none" stroke="black" stroke-width="1.8" stroke-dasharray="4 4" /><path d="M 222.769 195.348 C 222.182 195.216 221.594 195.083 221.005 194.950" fill="none" stroke="black" stroke-width="1.8" stroke-dasharray="4 4" /><path d="M 221.005 194.950 C 220.429 194.853 219.851 194.755 219.272 194.657" fill="none" stroke="black" stroke-width="1.8" stroke-dasharray="4 4" /><path d="M 219.272 194.657 C 218.707 194.594 218.141 194.531 217.573 194.468" fill="none" stroke="black" stroke-width="1.8" stroke-dasharray="4 4" /><path d="M 217.573 194.468 C 217.020 194.440 216.466 194.411 215.911 194.382" fill="none" stroke="black" stroke-width="1.8" stroke-dasharray="4 4" /><path d="M 215.911 194.382 C 215.371 194.388 214.829 194.393 214.287 194.399" fill="none" stroke="black" stroke-width="1.8" stroke-dasharray="4 4" /><path d="M 214.287 194.399 C 213.761 194.438 213.234 194.478 212.706 194.518" fill="none" stroke="black" stroke-width="1.8" stroke-dasharray="4 4" /><path d="M 212.706 194.518 C 212.194 194.592 211.682 194.666 211.168 194.740" fill="none" stroke="black" stroke-width="1.8" stroke-dasharray="4 4" /><path d="M 460.921 257.710 C 462.120 262.031 463.317 266.346 464.512 270.655" fill="none" stroke="black" stroke-width="1.8" stroke-dasharray="4 4" /><path d="M 464.512 270.655 C 465.180 273.189 465.848 275.722 466.516 278.254" fill="none" stroke="black" stroke-width="1.8" stroke-dasharray="4 4" /><path d="M 466.516 278.254 C 467.008 280.142 467.500 282.030 467.992 283.918" fill="none" stroke="black" stroke-width="1.8" stroke-dasharray="4 4" /><path d="M 467.992 283.918 C 468.392 285.438 468.792 286.958 469.191 288.479" fill="none" stroke="black" stroke-width="1.8" stroke-dasharray="4 4" /><path d="M 469.191 288.479 C 469.534 289.752 469.876 291.025 470.218 292.300" fill="none" stroke="black" stroke-width="1.8" stroke-dasharray="4 4" /><path d="M 470.218 292.300 C 470.522 293.392 470.826 294.485 471.130 295.579" fill="none" stroke="black" stroke-width="1.8" stroke-dasharray="4 4" /><path d="M 471.130 295.579 C 471.406 296.532 471.682 297.486 471.959 298.440" fill="none" stroke="black" stroke-width="1.8" stroke-dasharray="4 4" /><path d="M 471.959 298.440 C 472.215 299.281 472.471 300.122 472.728 300.964" fill="none" stroke="black" stroke-width="1.8" stroke-dasharray="4 4" /><path d="M 472.728 300.964 C 472.969 301.711 473.211 302.460 473.452 303.209" fill="none" stroke="black" stroke-width="1.8" stroke-dasharray="4 4" /><path d="M 473.452 303.209 C 473.682 303.878 473.913 304.548 474.143 305.218" fill="none" stroke="black" stroke-width="1.8" stroke-dasharray="4 4" /><path d="M 474.143 305.218 C 474.365 305.819 474.587 306.421 474.809 307.024" fill="none" stroke="black" stroke-width="1.8" stroke-dasharray="4 4" /><path d="M 474.809 307.024 C 475.025 307.566 475.241 308.108 475.457 308.652" fill="none" stroke="black" stroke-width="1.8" stroke-dasharray="4 4" /><path d="M 475.457 308.652 C 475.668 309.141 475.880 309.631 476.091 310.121" fill="none" stroke="black" stroke-width="1.8" stroke-dasharray="4 4" /><path d="M 476.091 310.121 C 476.300 310.564 476.509 311.006 476.718 311.449" fill="none" stroke="black" stroke-width="1.8" stroke-dasharray="4 4" /><path d="M 476.718 311.449 C 476.925 311.849 477.132 312.249 477.339 312.649" fill="none" stroke="black" stroke-width="1.8" stroke-dasharray="4 4" /><path d="M 477.339 312.649 C 477.546 313.009 477.752 313.370 477.959 313.731" fill="none" stroke="black" stroke-width="1.8" stroke-dasharray="4 4" /><path d="M 477.959 313.731 C 478.166 314.055 478.374 314.379 478.581 314.704" fill="none" stroke="black" stroke-width="1.8" stroke-dasharray="4 4" /><path d="M 478.581 314.704 C 478.790 314.994 478.999 315.285 479.208 315.576" fill="none" stroke="black" stroke-width="1.8" stroke-dasharray="4 4" /><path d="M 479.208 315.576 C 479.418 315.834 479.629 316.093 479.841 316.352" fill="none" stroke="black" stroke-width="1.8" stroke-dasharray="4 4" /><path d="M 479.841 316.352 C 480.055 316.580 480.269 316.809 480.483 317.038" fill="none" stroke="black" stroke-width="1.8" stroke-dasharray="4 4" /><path d="M 480.483 317.038 C 480.701 317.237 480.919 317.437 481.137 317.637" fill="none" stroke="black" stroke-width="1.8" stroke-dasharray="4 4" /><path d="M 481.137 317.637 C 481.359 317.809 481.582 317.981 481.805 318.154" fill="none" stroke="black" stroke-width="1.8" stroke-dasharray="4 4" /><path d="M 481.805 318.154 C 482.033 318.299 482.261 318.444 482.489 318.590" fill="none" stroke="black" stroke-width="1.8" stroke-dasharray="4 4" /><path d="M 482.489 318.590 C 482.723 318.709 482.958 318.828 483.192 318.948" fill="none" stroke="black" stroke-width="1.8" stroke-dasharray="4 4" /><path d="M 483.192 318.948 C 483.433 319.041 483.675 319.135 483.916 319.228" fill="none" stroke="black" stroke-width="1.8" stroke-dasharray="4 4" /><path d="M 483.916 319.228 C 484.165 319.296 484.414 319.364 484.664 319.432" fill="none" stroke="black" stroke-width="1.8" stroke-dasharray="4 4" /><path d="M 484.664 319.432 C 484.921 319.475 485.179 319.518 485.437 319.560" fill="none" stroke="black" stroke-width="1.8" stroke-dasharray="4 4" /><path d="M 485.437 319.560 C 485.705 319.578 485.972 319.595 486.240 319.612" fill="none" stroke="black" stroke-width="1.8" stroke-dasharray="4 4" /><path d="M 486.240 319.612 C 486.518 319.604 486.796 319.595 487.075 319.587" fill="none" stroke="black" stroke-width="1.8" stroke-dasharray="4 4" /><path d="M 487.075 319.587 C 487.364 319.553 487.654 319.518 487.945 319.484" fill="none" stroke="black" stroke-width="1.8" stroke-dasharray="4 4" /><path d="M 487.945 319.484 C 488.247 319.423 488.550 319.362 488.853 319.301" fill="none" stroke="black" stroke-width="1.8" stroke-dasharray="4 4" /><path d="M 488.853 319.301 C 489.169 319.213 489.486 319.125 489.804 319.037" fill="none" stroke="black" stroke-width="1.8" stroke-dasharray="4 4" /><path d="M 489.804 319.037 C 490.135 318.921 490.467 318.805 490.800 318.688" fill="none" stroke="black" stroke-width="1.8" stroke-dasharray="4 4" /><path d="M 490.800 318.688 C 491.149 318.543 491.498 318.398 491.847 318.253" fill="none" stroke="black" stroke-width="1.8" stroke-dasharray="4 4" /><path d="M 491.847 318.253 C 492.214 318.078 492.581 317.903 492.949 317.728" fill="none" stroke="black" stroke-width="1.8" stroke-dasharray="4 4" /><path d="M 492.949 317.728 C 493.336 317.522 493.723 317.316 494.111 317.109" fill="none" stroke="black" stroke-width="1.8" stroke-dasharray="4 4" /><path d="M 494.111 317.109 C 494.519 316.871 494.928 316.632 495.338 316.392" fill="none" stroke="black" stroke-width="1.8" stroke-dasharray="4 4" /><path d="M 495.338 316.392 C 495.769 316.120 496.202 315.847 496.636 315.573" fill="none" stroke="black" stroke-width="1.8" stroke-dasharray="4 4" /><path d="M 496.636 315.573 C 497.093 315.265 497.551 314.956 498.010 314.647" fill="none" stroke="black" stroke-width="1.8" stroke-dasharray="4 4" /><path d="M 498.010 314.647 C 498.495 314.302 498.981 313.956 499.469 313.609" fill="none" stroke="black" stroke-width="1.8" stroke-dasharray="4 4" /><path d="M 499.469 313.609 C 499.984 313.224 500.500 312.839 501.018 312.453" fill="none" stroke="black" stroke-width="1.8" stroke-dasharray="4 4" /><path d="M 501.018 312.453 C 501.565 312.027 502.114 311.601 502.664 311.173" fill="none" stroke="black" stroke-width="1.8" stroke-dasharray="4 4" /><path d="M 502.664 311.173 C 503.247 310.705 503.831 310.236 504.417 309.765" fill="none" stroke="black" stroke-width="1.8" stroke-dasharray="4 4" /><path d="M 504.417 309.765 C 505.037 309.253 505.658 308.739 506.282 308.223" fill="none" stroke="black" stroke-width="1.8" stroke-dasharray="4 4" /><path d="M 506.282 308.223 C 506.942 307.664 507.605 307.103 508.269 306.541" fill="none" stroke="black" stroke-width="1.8" stroke-dasharray="4 4" /><path d="M 508.269 306.541 C 508.972 305.934 509.677 305.325 510.385 304.714" fill="none" stroke="black" stroke-width="1.8" stroke-dasharray="4 4" /><path d="M 510.385 304.714 C 511.134 304.057 511.885 303.399 512.638 302.738" fill="none" stroke="black" stroke-width="1.8" stroke-dasharray="4 4" /><path d="M 512.638 302.738 C 513.434 302.031 514.233 301.321 515.035 300.609" fill="none" stroke="black" stroke-width="1.8" stroke-dasharray="4 4" /><path d="M 515.035 300.609 C 515.881 299.851 516.730 299.090 517.582 298.326" fill="none" stroke="black" stroke-width="1.8" stroke-dasharray="4 4" /><path d="M 517.582 298.326 C 518.480 297.515 519.381 296.702 520.285 295.886" fill="none" stroke="black" stroke-width="1.8" stroke-dasharray="4 4" /><path d="M 520.285 295.886 C 521.220 295.038 522.158 294.187 523.100 293.333" fill="none" stroke="black" stroke-width="1.8" stroke-dasharray="4 4" /><path d="M 523.229 293.216 C 524.094 292.430 524.961 291.641 525.832 290.850" fill="none" stroke="black" stroke-width="1.8" stroke-dasharray="4 4" /><path d="M 527.132 289.667 C 527.429 289.397 527.726 289.126 528.024 288.855" fill="none" stroke="black" stroke-width="1.8" stroke-dasharray="4 4" /><path d="M 549.312 269.532 C 549.569 269.298 549.827 269.065 550.085 268.832" fill="none" stroke="black" stroke-width="1.8" stroke-dasharray="4 4" /><path d="M 552.000 267.097 C 553.148 266.058 554.299 265.015 555.453 263.969" fill="none" stroke="black" stroke-width="1.8" stroke-dasharray="4 4" /><path d="M 555.746 263.705 C 557.101 262.474 558.461 261.240 559.824 260.002" fill="none" stroke="black" stroke-width="1.8" stroke-dasharray="4 4" /><path d="M 559.824 260.002 C 561.233 258.719 562.645 257.432 564.062 256.141" fill="none" stroke="black" stroke-width="1.8" stroke-dasharray="4 4" /><path d="M 564.062 256.141 C 565.483 254.839 566.908 253.533 568.337 252.224" fill="none" stroke="black" stroke-width="1.8" stroke-dasharray="4 4" /><path d="M 568.337 252.224 C 569.764 250.905 571.194 249.583 572.628 248.258" fill="none" stroke="black" stroke-width="1.8" stroke-dasharray="4 4" /><path d="M 572.628 248.258 C 574.055 246.926 575.485 245.590 576.917 244.252" fill="none" stroke="black" stroke-width="1.8" stroke-dasharray="4 4" /><path d="M 576.917 244.252 C 578.337 242.907 579.760 241.561 581.185 240.211" fill="none" stroke="black" stroke-width="1.8" stroke-dasharray="4 4" /><path d="M 581.185 240.211 C 582.592 238.857 584.001 237.500 585.412 236.142" fill="none" stroke="black" stroke-width="1.8" stroke-dasharray="4 4" /><path d="M 585.412 236.142 C 586.800 234.779 588.190 233.414 589.581 232.048" fill="none" stroke="black" stroke-width="1.8" stroke-dasharray="4 4" /><path d="M 589.581 232.048 C 590.944 230.677 592.309 229.306 593.675 227.933" fill="none" stroke="black" stroke-width="1.8" stroke-dasharray="4 4" /><path d="M 593.675 227.933 C 595.008 226.556 596.343 225.178 597.678 223.799" fill="none" stroke="black" stroke-width="1.8" stroke-dasharray="4 4" /><path d="M 597.678 223.799 C 598.976 222.416 600.276 221.033 601.575 219.649" fill="none" stroke="black" stroke-width="1.8" stroke-dasharray="4 4" /><path d="M 601.575 219.649 C 602.834 218.261 604.094 216.873 605.353 215.484" fill="none" stroke="black" stroke-width="1.8" stroke-dasharray="4 4" /><path d="M 452.231 230.771 C 450.290 225.690 448.334 220.572 446.365 215.417" fill="none" stroke="black" stroke-width="1.8" stroke-dasharray="4 4" /><path d="M 446.365 215.417 C 444.980 212.093 443.587 208.749 442.184 205.385" fill="none" stroke="black" stroke-width="1.8" stroke-dasharray="4 4" /><path d="M 442.184 205.385 C 441.009 202.691 439.827 199.982 438.637 197.255" fill="none" stroke="black" stroke-width="1.8" stroke-dasharray="4 4" /><path d="M 438.637 197.255 C 437.591 194.914 436.539 192.558 435.480 190.188" fill="none" stroke="black" stroke-width="1.8" stroke-dasharray="4 4" /><path d="M 435.480 190.188 C 434.530 188.075 433.574 185.949 432.612 183.810" fill="none" stroke="black" stroke-width="1.8" stroke-dasharray="4 4" /><path d="M 432.612 183.810 C 431.741 181.857 430.866 179.891 429.984 177.912" fill="none" stroke="black" stroke-width="1.8" stroke-dasharray="4 4" /><path d="M 429.984 177.912 C 429.185 176.075 428.380 174.225 427.570 172.362" fill="none" stroke="black" stroke-width="1.8" stroke-dasharray="4 4" /><path d="M 389.356 335.614 C 365.355 348.106 338.146 348.057 315.217 337.827" fill="none" stroke="black" stroke-width="1.8" /><path d="M 265.861 246.294 C 270.054 220.680 285.849 197.291 310.644 184.386" fill="none" stroke="black" stroke-width="1.8" /><path d="M 310.644 184.386 C 352.404 162.650 403.878 178.883 425.614 220.644" fill="none" stroke="black" stroke-width="1.8" /><path d="M 425.614 220.644 C 426.215 221.798 426.787 222.960 427.330 224.129" fill="none" stroke="black" stroke-width="1.8" /><path d="M 434.043 274.281 C 429.710 299.670 413.965 322.805 389.356 335.614" fill="none" stroke="black" stroke-width="1.8" /><path d="M 313.916 293.864 C 355.162 301.118 403.690 295.220 425.299 279.819" fill="none" stroke="black" stroke-width="1.8" /><path d="M 425.299 279.819 C 429.341 276.938 432.068 273.948 433.597 270.945" fill="none" stroke="black" stroke-width="1.8" /><path d="M 350.000 176.756 C 326.539 183.859 304.986 216.315 297.062 254.898" fill="none" stroke="black" stroke-width="1.8" /><path d="M 315.207 337.491 C 316.755 338.434 318.361 339.203 320.016 339.796" fill="none" stroke="black" stroke-width="1.8" /><path d="M 363.840 175.888 C 359.571 175.033 354.931 175.263 350.000 176.756" fill="none" stroke="black" stroke-width="1.8" /><path d="M 292.394 197.167 C 291.584 178.654 290.751 159.613 289.894 140.021" fill="none" stroke="black" stroke-width="1.8" /><path d="M 194.216 233.863 C 190.711 205.068 187.044 174.946 183.205 143.406" fill="none" stroke="black" stroke-width="1.8" /><path d="M 497.071 369.766 C 527.650 326.881 562.844 277.524 603.784 220.108" fill="none" stroke="black" stroke-width="1.8" /><path d="M 607.294 215.184 C 613.960 205.837 620.790 196.258 627.791 186.439" fill="none" stroke="black" stroke-width="1.8" /><path d="M 497.071 369.766 C 492.441 356.731 487.714 343.422 482.886 329.831" fill="none" stroke="black" stroke-width="1.8" /><path d="M 206.488 229.921 C 238.275 238.687 273.542 248.412 312.893 259.263" fill="none" stroke="black" stroke-width="1.8" /><path d="M 100.361 415.424 C 129.952 436.133 163.216 459.413 200.881 485.773" fill="none" stroke="black" stroke-width="1.8" /><path d="M 68.284 274.317 C 99.799 288.489 135.799 304.679 177.316 323.349" fill="none" stroke="black" stroke-width="1.8" /><path d="M 316.852 393.081 C 315.629 351.764 314.313 307.285 312.893 259.263" fill="none" stroke="black" stroke-width="1.8" /><path d="M 100.361 415.424 C 90.512 372.099 79.855 325.216 68.284 274.317" fill="none" stroke="black" stroke-width="1.8" /><path d="M 200.881 485.773 C 193.775 436.792 185.957 382.909 177.316 323.349" fill="none" stroke="black" stroke-width="1.8" /><path d="M 316.852 393.081 C 284.260 419.131 246.119 449.615 200.881 485.773" fill="none" stroke="black" stroke-width="1.8" /><path d="M 206.488 229.921 C 167.288 242.513 121.774 257.134 68.284 274.317" fill="none" stroke="black" stroke-width="1.8" /><path d="M 312.893 259.263 C 275.713 276.838 231.300 297.831 177.316 323.349" fill="none" stroke="black" stroke-width="1.8" /><path d="M 203.464 136.679 C 180.741 139.930 175.767 144.932 195.305 147.750" fill="none" stroke="black" stroke-width="1.8" /><path d="M 195.305 147.750 C 216.201 150.764 253.744 149.749 275.799 145.659" fill="none" stroke="black" stroke-width="1.8" /><path d="M 275.799 145.659 C 295.911 141.930 293.798 137.269 273.729 135.082" fill="none" stroke="black" stroke-width="1.8" /><path d="M 273.729 135.082 C 254.778 133.017 224.389 133.685 203.464 136.679" fill="none" stroke="black" stroke-width="1.8" /><path d="M 189.151 192.253 C 174.039 197.913 163.703 216.504 166.339 234.860" fill="none" stroke="black" stroke-width="1.8" /><path d="M 166.339 234.860 C 166.716 237.483 167.342 239.946 168.183 242.226" fill="none" stroke="black" stroke-width="1.8" /><path d="M 492.658 193.675 C 554.126 201.947 617.720 198.555 627.497 186.819" fill="none" stroke="black" stroke-width="1.8" /><path d="M 627.497 186.819 C 635.981 176.637 597.954 164.966 548.558 159.851" fill="none" stroke="black" stroke-width="1.8" /><path d="M 548.558 159.851 C 516.279 156.509 483.428 156.333 460.429 158.855" fill="none" stroke="black" stroke-width="1.8" /><path d="M 428.605 156.999 C 406.228 159.599 423.874 176.153 476.360 195.300" fill="none" stroke="black" stroke-width="1.8" /><path d="M 476.360 195.300 C 534.981 216.684 596.848 227.068 606.207 217.904" fill="none" stroke="black" stroke-width="1.8" /><path d="M 606.207 217.904 C 607.400 216.736 607.605 215.311 606.945 213.690" fill="none" stroke="black" stroke-width="1.8" /><path d="M 478.680 162.135 C 457.924 157.869 439.422 155.742 428.605 156.999" fill="none" stroke="black" stroke-width="1.8" /><path d="M 242.748 239.482 C 242.794 239.402 242.839 239.322 242.885 239.242" fill="none" stroke="black" stroke-width="1.8" /><path d="M 242.885 239.242 C 242.947 239.151 243.009 239.059 243.072 238.968" fill="none" stroke="black" stroke-width="1.8" /><path d="M 244.622 236.691 C 244.684 236.600 244.747 236.508 244.809 236.416" fill="none" stroke="black" stroke-width="1.8" /><path d="M 244.809 236.416 C 244.887 236.316 244.965 236.216 245.042 236.115" fill="none" stroke="black" stroke-width="1.8" /><path d="M 246.532 234.193 C 246.610 234.093 246.687 233.993 246.765 233.893" fill="none" stroke="black" stroke-width="1.8" /><path d="M 246.765 233.893 C 246.856 233.787 246.947 233.681 247.038 233.575" fill="none" stroke="black" stroke-width="1.8" /><path d="M 248.468 231.909 C 248.559 231.803 248.649 231.698 248.739 231.593" fill="none" stroke="black" stroke-width="1.8" /><path d="M 248.739 231.593 C 248.841 231.484 248.944 231.374 249.046 231.265" fill="none" stroke="black" stroke-width="1.8" /><path d="M 250.421 229.793 C 250.522 229.685 250.622 229.577 250.723 229.469" fill="none" stroke="black" stroke-width="1.8" /><path d="M 250.723 229.469 C 250.834 229.359 250.945 229.249 251.056 229.139" fill="none" stroke="black" stroke-width="1.8" /><path d="M 252.382 227.819 C 252.491 227.711 252.601 227.602 252.710 227.494" fill="none" stroke="black" stroke-width="1.8" /><path d="M 252.710 227.494 C 252.827 227.385 252.944 227.276 253.061 227.167" fill="none" stroke="black" stroke-width="1.8" /><path d="M 254.347 225.969 C 254.462 225.862 254.577 225.755 254.692 225.648" fill="none" stroke="black" stroke-width="1.8" /><path d="M 254.692 225.648 C 254.813 225.542 254.934 225.436 255.055 225.330" fill="none" stroke="black" stroke-width="1.8" /><path d="M 256.308 224.231 C 256.427 224.127 256.545 224.024 256.664 223.920" fill="none" stroke="black" stroke-width="1.8" /><path d="M 256.664 223.920 C 256.787 223.818 256.909 223.716 257.032 223.615" fill="none" stroke="black" stroke-width="1.8" /><path d="M 258.261 222.597 C 258.381 222.498 258.500 222.399 258.620 222.300" fill="none" stroke="black" stroke-width="1.8" /><path d="M 258.620 222.300 C 258.743 222.204 258.865 222.108 258.988 222.012" fill="none" stroke="black" stroke-width="1.8" /><path d="M 260.199 221.063 C 260.318 220.970 260.437 220.876 260.556 220.783" fill="none" stroke="black" stroke-width="1.8" /><path d="M 260.556 220.783 C 260.677 220.694 260.797 220.604 260.917 220.515" fill="none" stroke="black" stroke-width="1.8" /><path d="M 262.118 219.624 C 262.234 219.537 262.351 219.451 262.467 219.364" fill="none" stroke="black" stroke-width="1.8" /><path d="M 262.467 219.364 C 262.583 219.283 262.700 219.201 262.816 219.119" fill="none" stroke="black" stroke-width="1.8" /><path d="M 264.012 218.278 C 264.124 218.199 264.236 218.120 264.348 218.041" fill="none" stroke="black" stroke-width="1.8" /><path d="M 264.348 218.041 C 264.459 217.967 264.570 217.893 264.682 217.819" fill="none" stroke="black" stroke-width="1.8" /><path d="M 265.876 217.024 C 265.982 216.953 266.089 216.882 266.195 216.811" fill="none" stroke="black" stroke-width="1.8" /><path d="M 266.195 216.811 C 266.300 216.745 266.405 216.679 266.509 216.613" fill="none" stroke="black" stroke-width="1.8" /><path d="M 267.704 215.862 C 267.804 215.799 267.904 215.736 268.004 215.673" fill="none" stroke="black" stroke-width="1.8" /><path d="M 268.004 215.673 C 268.102 215.615 268.199 215.557 268.296 215.500" fill="none" stroke="black" stroke-width="1.8" /><path d="M 269.494 214.790 C 269.586 214.735 269.679 214.680 269.771 214.626" fill="none" stroke="black" stroke-width="1.8" /><path d="M 269.771 214.626 C 269.861 214.576 269.950 214.526 270.040 214.476" fill="none" stroke="black" stroke-width="1.8" /><path d="M 271.239 213.809 C 271.324 213.762 271.408 213.715 271.492 213.668" fill="none" stroke="black" stroke-width="1.8" /><path d="M 271.492 213.668 C 271.574 213.626 271.655 213.584 271.736 213.542" fill="none" stroke="black" stroke-width="1.8" /><path d="M 272.937 212.919 C 273.013 212.879 273.089 212.840 273.165 212.800" fill="none" stroke="black" stroke-width="1.8" /><path d="M 273.165 212.800 C 273.237 212.766 273.310 212.731 273.383 212.696" fill="none" stroke="black" stroke-width="1.8" /><path d="M 274.582 212.119 C 274.650 212.087 274.717 212.055 274.784 212.022" fill="none" stroke="black" stroke-width="1.8" /><path d="M 274.784 212.022 C 274.849 211.994 274.913 211.966 274.977 211.937" fill="none" stroke="black" stroke-width="1.8" /><path d="M 276.172 211.411 C 276.231 211.385 276.290 211.359 276.349 211.333" fill="none" stroke="black" stroke-width="1.8" /><path d="M 276.349 211.333 C 276.405 211.311 276.461 211.289 276.516 211.267" fill="none" stroke="black" stroke-width="1.8" /><path d="M 277.704 210.794 C 277.754 210.774 277.805 210.754 277.855 210.733" fill="none" stroke="black" stroke-width="1.8" /><path d="M 277.855 210.733 C 277.903 210.717 277.951 210.700 277.998 210.683" fill="none" stroke="black" stroke-width="1.8" /><path d="M 279.174 210.268 C 279.216 210.253 279.259 210.238 279.301 210.223" fill="none" stroke="black" stroke-width="1.8" /><path d="M 279.301 210.223 C 279.341 210.211 279.381 210.199 279.421 210.186" fill="none" stroke="black" stroke-width="1.8" /><path d="M 280.579 209.833 C 280.614 209.823 280.649 209.812 280.683 209.802" fill="none" stroke="black" stroke-width="1.8" /><path d="M 280.683 209.802 C 280.716 209.794 280.748 209.785 280.781 209.777" fill="none" stroke="black" stroke-width="1.8" /><path d="M 523.147 293.291 C 523.174 293.266 523.202 293.241 523.229 293.216" fill="none" stroke="black" stroke-width="1.8" /><path d="M 525.832 290.850 C 525.945 290.748 526.057 290.645 526.170 290.542" fill="none" stroke="black" stroke-width="1.8" /><path d="M 526.170 290.542 C 526.491 290.251 526.811 289.959 527.132 289.667" fill="none" stroke="black" stroke-width="1.8" /><path d="M 528.024 288.855 C 528.467 288.452 528.911 288.048 529.355 287.644" fill="none" stroke="black" stroke-width="1.8" /><path d="M 529.355 287.644 C 530.465 286.633 531.580 285.619 532.699 284.601" fill="none" stroke="black" stroke-width="1.8" /><path d="M 532.699 284.601 C 533.860 283.545 535.026 282.485 536.196 281.421" fill="none" stroke="black" stroke-width="1.8" /><path d="M 536.196 281.421 C 537.406 280.322 538.621 279.220 539.840 278.113" fill="none" stroke="black" stroke-width="1.8" /><path d="M 539.840 278.113 C 541.095 276.975 542.355 275.832 543.620 274.686" fill="none" stroke="black" stroke-width="1.8" /><path d="M 543.620 274.686 C 544.916 273.511 546.218 272.333 547.524 271.150" fill="none" stroke="black" stroke-width="1.8" /><path d="M 547.524 271.150 C 548.119 270.611 548.715 270.072 549.312 269.532" fill="none" stroke="black" stroke-width="1.8" /><path d="M 550.085 268.832 C 550.568 268.394 551.052 267.956 551.537 267.517" fill="none" stroke="black" stroke-width="1.8" /><path d="M 551.537 267.517 C 551.691 267.377 551.846 267.237 552.000 267.097" fill="none" stroke="black" stroke-width="1.8" /><path d="M 555.453 263.969 C 555.517 263.912 555.580 263.855 555.643 263.798" fill="none" stroke="black" stroke-width="1.8" /><path d="M 555.643 263.798 C 555.677 263.767 555.712 263.736 555.746 263.705" fill="none" stroke="black" stroke-width="1.8" /></svg>