<svg xmlns="http://www.w3.org/2000/svg" width="900" height="650" viewBox="0 0 900 650"><rect width="100%" height="100%" fill="white" /><path d="M 406.521 422.284 C 385.314 412.823 367.037 396.395 355.483 374.196" fill="none" stroke="black" stroke-width="1.8" stroke-dasharray="4 4" /><path d="M 355.483 374.196 C 344.444 352.988 341.240 329.776 344.826 307.867" fill="none" stroke="black" stroke-width="1.8" stroke-dasharray="4 4" /><path d="M 371.510 304.341 C 333.147 320.068 332.789 345.853 380.245 361.307" fill="none" stroke="black" stroke-width="1.8" stroke-dasharray="4 4" /><path d="M 380.245 361.307 C 387.832 363.778 396.125 365.787 404.895 367.330" fill="none" stroke="black" stroke-width="1.8" stroke-dasharray="4 4" /><path d="M 556.366 331.327 C 556.428 317.280 536.585 304.095 503.993 296.897" fill="none" stroke="black" stroke-width="1.8" stroke-dasharray="4 4" /><path d="M 503.993 296.897 C 461.547 287.523 405.224 290.521 371.510 304.341" fill="none" stroke="black" stroke-width="1.8" stroke-dasharray="4 4" /><path d="M 383.827 318.622 C 380.902 332.862 379.609 347.350 380.245 361.307" fill="none" stroke="black" stroke-width="1.8" stroke-dasharray="4 4" /><path d="M 380.245 361.307 C 381.647 392.069 391.991 413.023 406.509 421.864" fill="none" stroke="black" stroke-width="1.8" stroke-dasharray="4 4" /><path d="M 412.520 424.745 C 423.748 428.766 436.758 426.293 450.000 416.856" fill="none" stroke="black" stroke-width="1.8" stroke-dasharray="4 4" /><path d="M 450.000 416.856 C 479.682 395.702 502.395 344.115 503.993 296.897" fill="none" stroke="black" stroke-width="1.8" stroke-dasharray="4 4" /><path d="M 503.993 296.897 C 505.389 255.675 490.810 224.570 467.300 219.860" fill="none" stroke="black" stroke-width="1.8" stroke-dasharray="4 4" /><path d="M 285.665 347.824 C 261.017 358.247 256.770 374.103 279.086 382.943" fill="none" stroke="black" stroke-width="1.8" stroke-dasharray="4 4" /><path d="M 279.086 382.943 C 302.767 392.324 343.935 389.172 367.789 376.390" fill="none" stroke="black" stroke-width="1.8" stroke-dasharray="4 4" /><path d="M 367.789 376.390 C 389.770 364.612 387.022 349.725 364.278 342.674" fill="none" stroke="black" stroke-width="1.8" stroke-dasharray="4 4" /><path d="M 364.278 342.674 C 342.678 335.977 308.556 338.145 285.665 347.824" fill="none" stroke="black" stroke-width="1.8" stroke-dasharray="4 4" /><path d="M 382.898 358.536 C 381.339 322.913 379.706 285.595 377.993 246.459" fill="none" stroke="black" stroke-width="1.8" stroke-dasharray="4 4" /><path d="M 264.639 369.287 C 261.618 344.471 258.497 318.832 255.270 292.329" fill="none" stroke="black" stroke-width="1.8" stroke-dasharray="4 4" /><path d="M 287.177 435.590 C 323.843 452.433 364.116 470.933 408.554 491.346" fill="none" stroke="black" stroke-width="1.8" stroke-dasharray="4 4" /><path d="M 287.177 435.590 C 282.006 389.334 276.495 340.043 270.611 287.408" fill="none" stroke="black" stroke-width="1.8" stroke-dasharray="4 4" /><path d="M 287.177 435.590 C 244.123 459.736 194.865 487.361 137.960 519.275" fill="none" stroke="black" stroke-width="1.8" stroke-dasharray="4 4" /><path d="M 499.196 419.517 C 469.194 435.133 435.182 435.071 406.521 422.284" fill="none" stroke="black" stroke-width="1.8" /><path d="M 344.826 307.867 C 350.067 275.849 369.812 246.614 400.804 230.483" fill="none" stroke="black" stroke-width="1.8" /><path d="M 400.804 230.483 C 453.005 203.313 517.348 223.604 544.517 275.804" fill="none" stroke="black" stroke-width="1.8" /><path d="M 544.517 275.804 C 571.687 328.005 551.396 392.348 499.196 419.517" fill="none" stroke="black" stroke-width="1.8" /><path d="M 404.895 367.330 C 456.452 376.397 517.113 369.025 544.124 349.774" fill="none" stroke="black" stroke-width="1.8" /><path d="M 544.124 349.774 C 552.487 343.813 556.339 337.486 556.366 331.327" fill="none" stroke="black" stroke-width="1.8" /><path d="M 450.000 220.945 C 420.674 229.824 393.733 270.394 383.827 318.622" fill="none" stroke="black" stroke-width="1.8" /><path d="M 406.509 421.864 C 408.444 423.042 410.451 424.004 412.520 424.745" fill="none" stroke="black" stroke-width="1.8" /><path d="M 467.300 219.860 C 461.964 218.791 456.164 219.079 450.000 220.945" fill="none" stroke="black" stroke-width="1.8" /><path d="M 266.830 170.848 C 238.427 174.912 232.209 181.165 256.631 184.688" fill="none" stroke="black" stroke-width="1.8" /><path d="M 256.631 184.688 C 282.751 188.455 329.680 187.186 357.249 182.074" fill="none" stroke="black" stroke-width="1.8" /><path d="M 357.249 182.074 C 382.388 177.412 379.748 171.587 354.661 168.853" fill="none" stroke="black" stroke-width="1.8" /><path d="M 354.661 168.853 C 330.973 166.272 292.986 167.106 266.830 170.848" fill="none" stroke="black" stroke-width="1.8" /><path d="M 377.993 246.459 C 376.980 223.317 375.939 199.516 374.867 175.026" fill="none" stroke="black" stroke-width="1.8" /><path d="M 255.270 292.329 C 250.889 256.334 246.305 218.683 241.506 179.257" fill="none" stroke="black" stroke-width="1.8" /><path d="M 558.054 204.453 C 529.452 214.367 552.633 230.963 621.409 241.118" fill="none" stroke="black" stroke-width="1.8" /><path d="M 621.409 241.118 C 699.850 252.701 784.219 248.711 796.872 233.524" fill="none" stroke="black" stroke-width="1.8" /><path d="M 796.872 233.524 C 807.476 220.796 759.942 206.207 698.198 199.814" fill="none" stroke="black" stroke-width="1.8" /><path d="M 698.198 199.814 C 642.244 194.020 582.824 195.867 558.054 204.453" fill="none" stroke="black" stroke-width="1.8" /><path d="M 633.839 462.207 C 679.228 398.552 732.869 323.323 797.239 233.049" fill="none" stroke="black" stroke-width="1.8" /><path d="M 633.839 462.207 C 607.429 387.858 578.392 306.111 546.315 215.807" fill="none" stroke="black" stroke-width="1.8" /><path d="M 270.610 287.401 C 310.344 298.358 354.427 310.515 403.616 324.079" fill="none" stroke="black" stroke-width="1.8" /><path d="M 137.951 519.279 C 174.940 545.166 216.520 574.266 263.601 607.217" fill="none" stroke="black" stroke-width="1.8" /><path d="M 97.855 342.896 C 137.248 360.611 182.249 380.848 234.145 404.186" fill="none" stroke="black" stroke-width="1.8" /><path d="M 408.564 491.351 C 407.037 439.705 405.392 384.106 403.616 324.079" fill="none" stroke="black" stroke-width="1.8" /><path d="M 137.951 519.279 C 125.641 465.124 112.318 406.520 97.855 342.896" fill="none" stroke="black" stroke-width="1.8" /><path d="M 263.601 607.217 C 254.718 545.990 244.946 478.636 234.145 404.186" fill="none" stroke="black" stroke-width="1.8" /><path d="M 408.564 491.351 C 367.825 523.913 320.149 562.019 263.601 607.217" fill="none" stroke="black" stroke-width="1.8" /><path d="M 270.610 287.401 C 221.611 303.142 164.717 321.418 97.855 342.896" fill="none" stroke="black" stroke-width="1.8" /><path d="M 403.616 324.079 C 357.141 346.048 301.625 372.289 234.145 404.186" fill="none" stroke="black" stroke-width="1.8" /></svg>