<svg xmlns="http://www.w3.org/2000/svg" width="700" height="520" viewBox="0 0 700 520"><rect width="100%" height="100%" fill="white" /><path d="M 310.427 286.787 C 326.153 291.743 342.585 296.921 359.771 302.336" fill="none" stroke="black" stroke-width="1.8" stroke-dasharray="4 4" /><path d="M 458.221 212.616 C 412.332 204.566 371.071 197.328 333.771 190.785" fill="none" stroke="black" stroke-width="1.8" stroke-dasharray="4 4" /><path d="M 333.771 190.785 C 323.548 196.620 312.826 202.739 301.567 209.165" fill="none" stroke="black" stroke-width="1.8" stroke-dasharray="4 4" /><path d="M 421.755 321.869 C 439.429 307.024 455.200 293.777 469.359 281.884" fill="none" stroke="black" stroke-width="1.8" stroke-dasharray="4 4" /><path d="M 469.359 281.884 C 469.221 260.084 469.080 237.630 468.934 214.495" fill="none" stroke="black" stroke-width="1.8" stroke-dasharray="4 4" /><path d="M 217.095 257.376 C 245.381 266.289 276.358 276.051 310.427 286.787" fill="none" stroke="black" stroke-width="1.8" /><path d="M 359.771 302.336 C 408.305 317.631 463.408 334.995 526.508 354.880" fill="none" stroke="black" stroke-width="1.8" /><path d="M 526.508 354.880 C 554.721 306.020 576.910 267.593 594.819 236.578" fill="none" stroke="black" stroke-width="1.8" /><path d="M 594.819 236.578 C 544.729 227.791 499.413 219.842 458.221 212.616" fill="none" stroke="black" stroke-width="1.8" /><path d="M 301.567 209.165 C 276.474 223.486 248.493 239.455 217.095 257.376" fill="none" stroke="black" stroke-width="1.8" /><path d="M 468.105 83.101 C 426.968 86.542 370.659 91.251 288.887 98.089" fill="none" stroke="black" stroke-width="1.8" /><path d="M 288.887 98.089 C 302.161 214.371 313.699 315.452 323.822 404.130" fill="none" stroke="black" stroke-width="1.8" /><path d="M 323.822 404.130 C 362.676 371.494 394.782 344.527 421.755 321.869" fill="none" stroke="black" stroke-width="1.8" /><path d="M 468.934 214.495 C 468.672 173.045 468.396 129.312 468.105 83.101" fill="none" stroke="black" stroke-width="1.8" /><path d="M 359.778 302.339 C 399.244 266.371 431.448 237.021 458.226 212.617" fill="none" stroke="black" stroke-width="1.8" /></svg>